<?xml version="1.0" encoding="UTF-8"?>
<svg id="Layer_2" data-name="Layer 2" xmlns="http://www.w3.org/2000/svg" viewBox="0 0 156.97 83.06">
  <defs>
    <style>
      .cls-1 {
      fill: #f4a56e;
      }

      .cls-2 {
      fill: #f9e3aa;
      }

      .cls-3 {
      fill: #f9c85d;
      }

      .cls-4 {
      fill: #f6bc3d;
      }

      .cls-5, .cls-6 {
      fill: #fff;
      }

      .cls-7 {
      fill: #f44260;
      }

      .cls-8 {
      fill: #ffc091;
      }

      .cls-9 {
      fill: #feea63;
      }

      .cls-10 {
      fill: #e4721c;
      }

      .cls-11 {
      fill: #eff5f9;
      }

      .cls-12 {
      fill: #7d818d;
      }

      .cls-13 {
      fill: #91bbff;
      }

      .cls-14 {
      fill: #b3b7c9;
      }

      .cls-15 {
      fill: #cafff0;
      }

      .cls-16 {
      fill: #d35e0d;
      }

      .cls-17 {
      fill: #dcdee9;
      }

      .cls-18 {
      fill: #cc5e15;
      }

      .cls-19, .cls-20 {
      fill: #dc6900;
      }

      .cls-21 {
      fill: #232144;
      }

      .cls-22 {
      fill: #141414;
      }

      .cls-23 {
      fill: #111316;
      }

      .cls-24 {
      fill: #1c1e23;
      }

      .cls-25 {
      fill: #37383e;
      }

      .cls-26 {
      fill: #3e4659;
      }

      .cls-27 {
      fill: #5abdff;
      }

      .cls-28 {
      fill: #58e8c2;
      }

      .cls-29 {
      fill: #2e3544;
      }

      .cls-30, .cls-31 {
      fill: #616779;
      }

      .cls-6 {
      opacity: .4;
      }

      .cls-6, .cls-32, .cls-31, .cls-33 {
      isolation: isolate;
      }

      .cls-34 {
      opacity: .27;
      }

      .cls-35 {
      opacity: .54;
      }

      .cls-36 {
      opacity: .48;
      }

      .cls-33 {
      fill: #8f94a4;
      }

      .cls-37 {
      fill: #107a5e;
      opacity: .58;
      }

      .cls-20 {
      opacity: .56;
      }
    </style>
  </defs>
  <g id="Layer_1-2" data-name="Layer 1">
    <g>
      <g class="cls-34">
        <path class="cls-22"
          d="M148.78,49.27h-9.54c-.1,0-.17-.08-.17-.17v-4.33c0-.1,.08-.17,.17-.17h9.54c.1,0,.17,.08,.17,.17v4.33c0,.1-.08,.17-.17,.17Zm-9.37-.35h9.19v-3.98h-9.19v3.98Z" />
        <path class="cls-22"
          d="M154.67,53.6h-9.54c-.1,0-.17-.08-.17-.17v-4.33c0-.1,.08-.17,.17-.17h9.54c.1,0,.17,.08,.17,.17v4.33c0,.1-.08,.17-.17,.17Zm-9.37-.35h9.19v-3.98h-9.19v3.98Z" />
        <path class="cls-22"
          d="M154.67,44.94h-9.54c-.1,0-.17-.08-.17-.17v-4.33c0-.1,.08-.17,.17-.17h9.54c.1,0,.17,.08,.17,.17v4.33c0,.1-.08,.17-.17,.17Zm-9.37-.35h9.19v-3.98h-9.19v3.98Z" />
      </g>
      <g class="cls-34">
        <path class="cls-22"
          d="M25.18,15.49H15.64c-.1,0-.17-.08-.17-.17v-4.33c0-.1,.08-.17,.17-.17h9.54c.1,0,.17,.08,.17,.17v4.33c0,.1-.08,.17-.17,.17Zm-9.37-.35h9.19v-3.98H15.81v3.98Z" />
        <path class="cls-22"
          d="M31.06,19.82h-9.54c-.1,0-.17-.08-.17-.17v-4.33c0-.1,.08-.17,.17-.17h9.54c.1,0,.17,.08,.17,.17v4.33c0,.1-.08,.17-.17,.17Zm-9.37-.35h9.19v-3.98h-9.19v3.98Z" />
        <path class="cls-22"
          d="M31.06,11.17h-9.54c-.1,0-.17-.08-.17-.17V6.67c0-.1,.08-.17,.17-.17h9.54c.1,0,.17,.08,.17,.17v4.33c0,.1-.08,.17-.17,.17Zm-9.37-.35h9.19v-3.98h-9.19v3.98Z" />
      </g>
      <g class="cls-34">
        <path class="cls-22"
          d="M19,55.48H9.46c-.1,0-.17-.08-.17-.17v-4.33c0-.1,.08-.17,.17-.17h9.54c.1,0,.17,.08,.17,.17v4.33c0,.1-.08,.17-.17,.17Zm-9.37-.35h9.19v-3.98H9.64v3.98Z" />
        <path class="cls-22"
          d="M24.89,59.81H15.35c-.1,0-.17-.08-.17-.17v-4.33c0-.1,.08-.17,.17-.17h9.54c.1,0,.17,.08,.17,.17v4.33c0,.1-.08,.17-.17,.17Zm-9.37-.35h9.19v-3.98H15.52v3.98Z" />
        <path class="cls-22"
          d="M24.89,51.16H15.35c-.1,0-.17-.08-.17-.17v-4.33c0-.1,.08-.17,.17-.17h9.54c.1,0,.17,.08,.17,.17v4.33c0,.1-.08,.17-.17,.17Zm-9.37-.35h9.19v-3.98H15.52v3.98Z" />
      </g>
      <g class="cls-34">
        <path class="cls-22"
          d="M117.47,9h-9.54c-.1,0-.17-.08-.17-.17V4.5c0-.1,.08-.17,.17-.17h9.54c.1,0,.17,.08,.17,.17v4.33c0,.1-.08,.17-.17,.17Zm-9.37-.35h9.19v-3.98h-9.19v3.98Z" />
        <path class="cls-22"
          d="M123.36,13.33h-9.54c-.1,0-.17-.08-.17-.17v-4.33c0-.1,.08-.17,.17-.17h9.54c.1,0,.17,.08,.17,.17v4.33c0,.1-.08,.17-.17,.17Zm-9.37-.35h9.19v-3.98h-9.19v3.98Z" />
        <path class="cls-22"
          d="M123.36,4.68h-9.54c-.1,0-.17-.08-.17-.17V.17c0-.1,.08-.17,.17-.17h9.54c.1,0,.17,.08,.17,.17V4.5c0,.1-.08,.17-.17,.17Zm-9.37-.35h9.19V.35h-9.19v3.98Z" />
      </g>
      <g>
        <path class="cls-22"
          d="M96.13,75.71c-.06,1.25-.08,2.74,.42,3.91,.46,1.07,1.41,2.13,2.43,2.7,1.93,1.08,4.98,.9,5.9-1.41,.11-.27-.33-.39-.43-.12-.86,2.16-3.98,2.08-5.61,.91-.83-.6-1.65-1.53-1.98-2.51-.36-1.07-.34-2.36-.29-3.48,.01-.29-.44-.29-.45,0h0Z" />
        <path class="cls-22"
          d="M103.25,75.82c-.06,1.25-.08,2.74,.42,3.91,.46,1.07,1.41,2.13,2.43,2.7,1.93,1.08,4.98,.9,5.9-1.41,.11-.27-.33-.39-.43-.12-.86,2.16-3.98,2.08-5.61,.91-.83-.6-1.65-1.53-1.98-2.51-.36-1.07-.34-2.36-.29-3.48,.01-.29-.44-.29-.45,0h0Z" />
        <rect class="cls-31" x="102.44" y="78.23" width="4.62" height="3.03" rx=".15" ry=".15"
          transform="translate(209.5 159.49) rotate(180)" />
        <rect class="cls-31" x="108.34" y="78.23" width="4.62" height="3.03" rx=".15" ry=".15"
          transform="translate(221.29 159.49) rotate(180)" />
        <g>
          <path class="cls-14"
            d="M135.21,65.11h11.44v5.91c0,1.21-.98,2.2-2.2,2.2h-7.04c-1.21,0-2.2-.98-2.2-2.2v-5.91h0Z" />
          <path class="cls-22"
            d="M144.45,73.44h-7.04c-1.34,0-2.42-1.09-2.42-2.42v-5.91c0-.12,.1-.23,.22-.23h11.44c.12,0,.22,.1,.22,.23v5.91c0,1.34-1.09,2.42-2.42,2.42Zm-9.02-8.11v5.69c0,1.09,.88,1.97,1.97,1.97h7.04c1.09,0,1.97-.88,1.97-1.97v-5.69h-10.99Z" />
          <rect class="cls-17" x="134.47" y="63.86" width="12.9" height="8.11" />
          <rect class="cls-14" x="144.64" y="63.86" width="2.31" height="8.11" />
          <path class="cls-5"
            d="M147.03,71.76h-12.22c-.11,0-.21-.09-.21-.21v-7.31c0-.11,.09-.21,.21-.21h12.22c.11,0,.21,.09,.21,.21v7.31c0,.11-.09,.21-.21,.21Zm-12.01-.41h11.8v-6.9h-11.8v6.9Z" />
          <g>
            <path class="cls-22"
              d="M136.11,69.96c-.09,0-.17-.07-.17-.17v-1.8c0-.09,.07-.17,.17-.17s.17,.07,.17,.17v1.8c0,.09-.07,.17-.17,.17Z" />
            <path class="cls-22"
              d="M138.99,69.06h-1.8c-.09,0-.17-.07-.17-.17s.07-.17,.17-.17h1.8c.09,0,.17,.07,.17,.17s-.07,.17-.17,.17Z" />
          </g>
          <circle class="cls-5" cx="144.98" cy="68.9" r="1.02" />
          <path class="cls-22"
            d="M147.38,72.19h-12.9c-.12,0-.22-.1-.22-.22v-8.11c0-.12,.1-.23,.22-.23h12.9c.12,0,.22,.1,.22,.23v8.11c0,.12-.1,.22-.22,.22Zm-12.68-.45h12.46v-7.66h-12.46v7.66Z" />
          <path class="cls-22"
            d="M144.98,70.08c-.65,0-1.19-.53-1.19-1.19s.53-1.19,1.19-1.19,1.19,.53,1.19,1.19-.53,1.19-1.19,1.19Zm0-2.04c-.47,0-.86,.38-.86,.86s.38,.86,.86,.86,.86-.38,.86-.86-.38-.86-.86-.86Z" />
        </g>
        <g class="cls-32">
          <rect class="cls-30" x="100.93" y="75.67" width="29.42" height="3.51" rx=".4" ry=".4" />
        </g>
        <rect class="cls-33" x="122.31" y="77.84" width="7.86" height="1.23" rx=".62" ry=".62"
          transform="translate(252.49 156.92) rotate(180)" />
        <rect class="cls-33" x="102.44" y="79.22" width="3.06" height="1.23" rx=".62" ry=".62"
          transform="translate(207.95 159.67) rotate(180)" />
        <rect class="cls-33" x="108.25" y="79.22" width="3.06" height="1.23" rx=".62" ry=".62"
          transform="translate(219.57 159.67) rotate(180)" />
        <path class="cls-22"
          d="M129.96,79.43h-28.63c-.36,0-.65-.29-.65-.65v-2.72c0-.36,.29-.65,.65-.65h28.63c.36,0,.65,.29,.65,.65v2.72c0,.36-.29,.65-.65,.65Zm-28.63-3.51c-.08,0-.15,.07-.15,.15v2.72c0,.08,.07,.15,.15,.15h28.63c.08,0,.15-.07,.15-.15v-2.72c0-.08-.07-.15-.15-.15h-28.63Z" />
        <path class="cls-16"
          d="M112.99,73.31h35.53c.08,0,.14,.06,.14,.14v2.83c0,.08-.06,.14-.14,.14H17.32c-.08,0-.14-.06-.14-.14v-2.83c0-.08,.06-.14,.14-.14h12.59" />
        <g class="cls-36">
          <rect class="cls-2" x="38.9" y="16.29" width="7.75" height="7.75"
            transform="translate(-3.02 8.38) rotate(-10.81)" />
          <path class="cls-3"
            d="M40.41,17.17c.34,.64,1.05,.99,1.76,.87s1.26-.79,1.23-1.52c0-.2-.17-.38-.38-.38-.2,0-.38,.17-.38,.38,0,.06,0,.12,0,.17,0-.08,0,.03-.01,.04,0,.03-.02,.06-.02,.08,0,.02-.03,.07,0,.02-.01,.03-.03,.05-.04,.08s-.03,.05-.05,.07c-.05,.09,.04-.04-.03,.04-.04,.04-.08,.08-.12,.12,.04-.04,0,0-.02,.02-.02,.02-.05,.03-.08,.05s-.05,.03-.08,.04c-.04,.02,.04,0-.03,0-.03,0-.07,.02-.1,.03,0,0-.1,.02-.06,.01,.04,0-.06,0-.06,0-.03,0-.06,0-.09,0s-.06,0-.09,0c-.1,0,.03,.01-.03,0-.06-.02-.12-.03-.18-.05-.06-.02,.02,.01-.02,0-.02-.01-.05-.03-.08-.04-.05-.03-.1-.06-.14-.09,.05,.04,0,0-.02-.02-.02-.02-.04-.04-.06-.06-.02-.02-.05-.05-.07-.07-.05-.05,0,.02-.01-.02-.04-.05-.07-.1-.1-.16-.09-.17-.35-.24-.51-.13-.18,.11-.23,.33-.13,.51h0Z" />
          <rect class="cls-5" x="44.47" y="16" width=".5" height="7.59"
            transform="translate(-2.92 8.74) rotate(-10.82)" />
          <rect class="cls-5" x="45.35" y="15.85" width=".25" height="7.59"
            transform="translate(-2.88 8.88) rotate(-10.81)" />
          <path class="cls-22"
            d="M39.69,24.89c-.09,0-.18-.07-.2-.16l-1.45-7.61c-.02-.11,.05-.21,.16-.23l7.61-1.45c.11-.02,.21,.05,.23,.16l1.45,7.61c.02,.11-.05,.21-.16,.23l-7.61,1.45s-.02,0-.04,0Zm-1.22-7.65l1.38,7.21,7.21-1.38-1.38-7.21-7.21,1.38Z" />
          <circle class="cls-7" cx="41.87" cy="16.55" r=".91" />
          <path class="cls-22"
            d="M41.87,17.61c-.5,0-.94-.35-1.04-.86-.11-.57,.27-1.13,.84-1.24,.57-.11,1.13,.27,1.24,.84h0c.05,.28,0,.56-.16,.79-.16,.23-.4,.39-.68,.44-.07,.01-.13,.02-.2,.02Zm0-1.81s-.09,0-.14,.01c-.41,.08-.68,.48-.6,.89,.08,.41,.47,.68,.89,.6,.2-.04,.37-.15,.49-.32,.11-.17,.15-.37,.12-.57h0c-.07-.36-.39-.62-.74-.62Z" />
          <path class="cls-22"
            d="M40.36,23.6l.47-.91c.04-.09-.09-.16-.13-.08l-.47,.91c-.04,.09,.09,.16,.13,.08h0Z" />
          <path class="cls-22"
            d="M40.87,23.45l.47-.91c.04-.09-.09-.16-.13-.08l-.47,.91c-.04,.09,.09,.16,.13,.08h0Z" />
        </g>
        <g>
          <g class="cls-36">
            <rect class="cls-2" x="148.03" y="23.5" width="7.75" height="7.75"
              transform="translate(15.36 -44.6) rotate(17.58)" />
            <path class="cls-3"
              d="M151.25,23.6c0,.73,.46,1.41,1.17,1.62,.67,.2,1.45-.11,1.76-.75,.08-.18,.05-.41-.13-.51-.17-.09-.42-.05-.51,.13-.03,.05-.06,.1-.09,.16-.02,.03,.03-.04-.01,.01-.02,.02-.04,.05-.07,.07-.02,.02-.04,.04-.06,.05-.04,.04,.07-.04-.02,.01-.05,.03-.09,.06-.14,.08-.09,.04,.06-.02-.03,.01-.03,0-.05,.02-.08,.02s-.05,.01-.08,.02c.08-.02-.02,0-.04,0-.06,0-.12,0-.17,0,.08,0-.03,0-.04,0-.03,0-.06-.01-.08-.02s-.06-.02-.08-.03c.05,.02,0,0-.02-.01-.06-.03-.11-.06-.17-.1,.04,.03,0,0-.02-.02-.02-.02-.04-.04-.06-.06-.02-.02-.05-.05-.07-.08,.03,.04,0,0-.01-.02-.04-.05-.07-.11-.1-.17-.01-.03-.02-.04,0,0-.01-.03-.02-.07-.03-.1-.02-.06-.03-.11-.04-.17,.02,.08,0-.03,0-.04,0-.03,0-.07,0-.1,0-.2-.17-.38-.38-.38s-.37,.16-.38,.38h0Z" />
            <rect class="cls-5" x="150" y="27.72" width="7.59" height=".5"
              transform="translate(80.58 166.08) rotate(-72.38)" />
            <polygon class="cls-5"
              points="153.5 31.86 153.27 31.78 155.56 24.55 155.8 24.62 153.5 31.86" />
            <path class="cls-22"
              d="M154.43,32.43s-.04,0-.06,0l-7.38-2.34c-.05-.02-.09-.05-.12-.1-.02-.05-.03-.1-.01-.15l2.34-7.38c.03-.1,.14-.17,.25-.13l7.38,2.34c.05,.02,.09,.05,.12,.1,.02,.05,.03,.1,.01,.15l-2.34,7.38c-.03,.08-.11,.14-.19,.14Zm-7.13-2.67l7,2.22,2.22-7-7-2.22-2.22,7Z" />
            <circle class="cls-7" cx="152.83" cy="23.77" r=".91" />
            <path class="cls-22"
              d="M152.83,24.83c-.11,0-.22-.02-.32-.05-.27-.09-.49-.27-.62-.52-.13-.25-.16-.54-.07-.81,.17-.55,.77-.86,1.33-.69,.27,.09,.49,.27,.62,.52,.13,.25,.16,.54,.07,.81-.08,.27-.27,.49-.52,.62-.15,.08-.32,.12-.49,.12Zm0-1.81c-.32,0-.62,.21-.72,.53-.06,.19-.04,.4,.05,.58,.09,.18,.25,.31,.44,.37,.4,.13,.83-.1,.95-.49s-.1-.82-.49-.95c-.08-.02-.15-.04-.23-.04Z" />
            <path class="cls-22"
              d="M148.15,29.25l.85-.58c.08-.05,0-.18-.08-.13l-.85,.58c-.08,.05,0,.18,.08,.13h0Z" />
            <path class="cls-22"
              d="M148.67,29.36l.85-.58c.08-.05,0-.18-.08-.13l-.85,.58c-.08,.05,0,.18,.08,.13h0Z" />
          </g>
          <g class="cls-36">
            <rect class="cls-2" x="137.96" y="18.99" width="7.75" height="7.75"
              transform="translate(-1.77 27.01) rotate(-10.81)" />
            <path class="cls-3"
              d="M139.47,19.87c.34,.64,1.05,.99,1.76,.87s1.26-.79,1.23-1.52c0-.2-.17-.38-.38-.38-.2,0-.38,.17-.38,.38,0,.06,0,.12,0,.17,0-.08,0,.03-.01,.04,0,.03-.02,.06-.02,.08,0,.02-.03,.07,0,.02-.01,.03-.03,.05-.04,.08s-.03,.05-.05,.07c-.05,.09,.04-.04-.03,.04-.04,.04-.08,.08-.12,.12,.04-.04,0,0-.02,.02-.02,.02-.05,.03-.08,.05s-.05,.03-.08,.04c-.04,.02,.04,0-.03,0-.03,0-.07,.02-.1,.03,0,0-.1,.02-.06,.01,.04,0-.06,0-.06,0-.03,0-.06,0-.09,0s-.06,0-.09,0c-.1,0,.03,.01-.03,0-.06-.02-.12-.03-.18-.05-.06-.02,.02,.01-.02,0-.02-.01-.05-.03-.08-.04-.05-.03-.1-.06-.14-.09,.05,.04,0,0-.02-.02-.02-.02-.04-.04-.06-.06-.02-.02-.05-.05-.07-.07-.05-.05,0,.02-.01-.02-.04-.05-.07-.1-.1-.16-.09-.17-.35-.24-.51-.13-.18,.11-.23,.33-.13,.51h0Z" />
            <rect class="cls-5" x="143.53" y="18.7" width=".5" height="7.59"
              transform="translate(-1.67 27.36) rotate(-10.81)" />
            <rect class="cls-5" x="144.41" y="18.55" width=".25" height="7.59"
              transform="translate(-1.63 27.52) rotate(-10.81)" />
            <path class="cls-22"
              d="M138.75,27.59s-.08-.01-.11-.03c-.04-.03-.07-.08-.08-.13l-1.45-7.61c-.02-.11,.05-.21,.16-.23l7.61-1.45c.11-.02,.21,.05,.23,.16l1.45,7.61c0,.05,0,.11-.03,.15-.03,.04-.08,.07-.13,.08l-7.61,1.45s-.02,0-.04,0Zm-1.22-7.65l1.38,7.21,7.21-1.38-1.38-7.21-7.21,1.38Z" />
            <circle class="cls-7" cx="140.93" cy="19.25" r=".91" />
            <path class="cls-22"
              d="M140.93,20.31c-.5,0-.94-.35-1.04-.86-.05-.28,0-.56,.16-.79,.16-.23,.4-.39,.68-.44,.57-.11,1.13,.27,1.24,.84h0c.11,.57-.27,1.13-.84,1.24-.07,.01-.13,.02-.2,.02Zm0-1.81s-.09,0-.14,.01c-.2,.04-.37,.15-.49,.32-.11,.17-.15,.37-.12,.57,.08,.41,.47,.68,.88,.6,.41-.08,.68-.48,.6-.89h0c-.07-.36-.39-.62-.74-.62Z" />
            <path class="cls-22"
              d="M139.42,26.3l.47-.91c.04-.09-.09-.16-.13-.08l-.47,.91c-.04,.09,.09,.16,.13,.08h0Z" />
            <path class="cls-22"
              d="M139.94,26.15l.47-.91c.04-.09-.09-.16-.13-.08l-.47,.91c-.04,.09,.09,.16,.13,.08h0Z" />
          </g>
        </g>
        <rect class="cls-28" x="39.52" y="50.51" width="19.2" height="4.88" />
        <path class="cls-22"
          d="M58.72,55.61h-19.2c-.12,0-.22-.1-.22-.23v-4.88c0-.12,.1-.23,.22-.23h3.97c.12,0,.22,.1,.22,.23s-.1,.23-.22,.23h-3.74v4.43h18.75v-4.43h-13.67c-.12,0-.22-.1-.22-.23s.1-.23,.22-.23h13.89c.12,0,.22,.1,.22,.23v4.88c0,.12-.1,.23-.22,.23Z" />
        <rect class="cls-28" x="42.77" y="55.41" width="17.29" height="18.83" />
        <rect class="cls-15" x="46.6" y="55.41" width="2.87" height="18.83" />
        <rect class="cls-37" x="42.66" y="55.41" width="10.75" height="2.29" />
        <rect class="cls-37" x="55.99" y="55.34" width="3.92" height="16.42" />
        <path class="cls-22"
          d="M60.06,74.49h-17.29c-.14,0-.25-.11-.25-.25v-8.78c0-.14,.11-.25,.25-.25s.25,.11,.25,.25v8.53h16.79v-18.33h-16.79v8.27c0,.14-.11,.25-.25,.25s-.25-.11-.25-.25v-8.52c0-.14,.11-.25,.25-.25h17.29c.14,0,.25,.11,.25,.25v18.83c0,.14-.11,.25-.25,.25Z" />
        <path class="cls-22"
          d="M60.06,74.47h-17.29c-.12,0-.22-.1-.22-.22v-8.78c0-.12,.1-.23,.22-.23s.22,.1,.22,.23v8.55h16.84v-18.61c0-.12,.1-.23,.22-.23s.22,.1,.22,.23v18.83c0,.12-.1,.22-.22,.22Z" />
        <path class="cls-22"
          d="M42.77,64.16c-.12,0-.22-.1-.22-.23v-8.52c0-.12,.1-.23,.22-.23s.22,.1,.22,.23v8.52c0,.12-.1,.23-.22,.23Z" />
        <path class="cls-5" d="M119.6,73.22c0-2.08,2.01-3.76,4.5-3.76s4.5,1.68,4.5,3.76" />
        <g>
          <path class="cls-4"
            d="M25.3,45.87l-.27,.26c-2.22,2.61-3.95,5.62-5.13,8.83s-1.71,6.65-1.93,10.06c-.08,1.22-.07,2.47,.21,3.66,.13,.55,.31,1.08,.55,1.59,.16,.35,.35,.69,.59,.99,1,1.26,2.46,1.81,4.02,1.99,1.06,.12,2.14,.08,3.21,.04h1.27l1.73-3.2" />
          <path class="cls-4"
            d="M19.02,70.89c-.3-.01-.6-.03-.89-.06-3.37-.33-7.11-1.83-9.27-4.55-.59-.75-1.1-1.57-1.46-2.45-1.34-3.32-.5-7.3-2.24-10.42-.67-1.2-1.7-2.19-2.92-2.81-.45-.23-.93-.41-1.3-.74-.65-.57-.89-1.56-.57-2.37s1.17-1.36,2.04-1.33c.63,.02,1.21,.32,1.75,.62,1.68,.95,3.32,2.16,4.17,3.89,.76,1.56,.79,3.35,.99,5.07,.29,2.54,.98,5.08,2.4,7.21,.96,1.45,2.25,2.52,3.81,3.3,.72,.36,1.52,.61,2.32,.62" />
        </g>
        <path class="cls-19"
          d="M16.5,67.51c.03,1.07,.33,2.12,.9,3.03,.21,.33,.68,.49,1.03,.27s.49-.67,.27-1.03c-.1-.16-.19-.32-.27-.49-.02-.04-.04-.08-.06-.13-.01-.02-.07-.15-.02-.04s-.01-.04-.02-.06c-.02-.04-.03-.09-.05-.13-.12-.34-.21-.7-.26-1.06l.03,.2c-.02-.19-.04-.37-.04-.56-.01-.39-.34-.77-.75-.75s-.76,.33-.75,.75h0Z" />
        <path class="cls-20"
          d="M21.49,56.51c.02,2.73,.38,5.43,1.63,7.89,1.33,2.6,3.86,4.84,3.81,7.95-.02,.97,1.48,.97,1.5,0,.05-3.05-1.97-5.3-3.48-7.75s-1.95-5.23-1.97-8.09c0-.96-1.51-.97-1.5,0h0Z" />
        <path class="cls-4"
          d="M35.37,40.4c1.3,1.69,2.34,3.46,3.17,5.27l.55,1.27c.83,2.03,1.43,4.12,1.91,6.2,.25,1.08,.46,2.17,.59,3.26,.27,2.33,.13,4.69-.42,7-.34,1.43-1.01,2.82-1.75,4.18s-1.33,2.59-2.46,3.76l-1.79,.1-1.47,.55-.75,.63-.79-.63-1.06-.65-1.12,.1-1.46,.55c-.12-.72-.24-1.44-.5-2.15-.65-1.75-2.16-3.33-3.12-5.03-.7-1.24-1.1-2.53-1.42-3.83-.68-2.81-.95-5.66-.55-8.49,.18-1.31,.51-2.62,1.01-3.9,.23-.59,.43-1.23,.83-1.78s.66-1.18,1.15-1.71" />
        <rect class="cls-26" x="93.03" y="63.55" width="9.13" height="6.25" />
        <rect class="cls-31" x="89.8" y="63.55" width="9.13" height="6.25" />
        <rect class="cls-26" x="89.8" y="63.76" width="9.06" height="1.9" />
        <path class="cls-17" d="M119.6,73.22c0-1.39,2.01-2.51,4.5-2.51s4.5,1.13,4.5,2.51" />
        <path class="cls-1"
          d="M111.79,73.31h34.46c.08,0,.14,.06,.14,.14v2.83c0,.08-.06,.14-.14,.14H17.06c-.08,0-.14-.06-.14-.14v-2.83c0-.08,.06-.14,.14-.14h9.09" />
        <path class="cls-10"
          d="M111.79,75.21h34.46c.08,0,.14,.02,.14,.06v1.11s-.06,.06-.14,.06H17.06c-.08,0-.14-.02-.14-.06v-1.11s.06-.06,.14-.06h9.09" />
        <path class="cls-4"
          d="M19.24,37.6c-1.36-1.92-2.96-3.89-5.23-4.54,.98-1.02,2.31-1.7,3.72-1.88s2.87,.14,4.07,.88l-.52-.38c.68-1.08,1.76-1.9,2.99-2.26,.38-.11,.77-.18,1.16-.25v.06c.45-2.17,.91-4.39,2.07-6.27,.08-.12,.17-.25,.31-.29,.14-.03,.28,.04,.4,.11,1.98,1.21,3.23,3.54,3.12,5.86l.1,1.96" />
        <path class="cls-4"
          d="M31.42,29.5c0,.6,.98,1.04,.98,1.04,1.08,.46,2.11,1.01,3.1,1.64,.41,.26,.81,.55,1.08,.94,.47,.67,.48,1.55,.39,2.37-.33,2.97-1.95,5.59-4.34,7.35-.37,.27-.76,.5-1.16,.71h0c-.24,.13-.48,.25-.72,.36l-.59,.27c-2.98,1.21-6.5,1.02-9.32-.51-.72-.39-1.43-.91-1.72-1.67-.17-.45-.17-.95-.16-1.43,.04-1.17,.18-2.33,.42-3.48" />
        <rect class="cls-26" x="80.04" y="69.8" width="29.42" height="3.51" rx=".4" ry=".4" />
        <g class="cls-32">
          <rect class="cls-30" x="77.64" y="69.8" width="29.42" height="3.51" rx=".4" ry=".4" />
        </g>
        <path class="cls-26"
          d="M59.03,21.59V12.37c0-2.3,1.82-4.16,4.07-4.16h73c2.25,0,4.07,1.86,4.07,4.16V59.77c0,2.3-1.82,4.16-4.07,4.16H63.11c-2.25,0-4.07-1.86-4.07-4.16V23.15" />
        <g class="cls-32">
          <path class="cls-30"
            d="M52.42,21.59V12.37c0-2.3,1.86-4.16,4.16-4.16h74.59c2.3,0,4.16,1.86,4.16,4.16V59.77c0,2.3-1.86,4.16-4.16,4.16H56.59c-2.3,0-4.16-1.86-4.16-4.16V23.15" />
        </g>
        <path class="cls-25"
          d="M54.91,50.13V13.17c0-1.52,1.23-2.75,2.75-2.75h72.44c1.52,0,2.75,1.23,2.75,2.75V58.97c0,1.52-1.23,2.75-2.75,2.75H57.66c-1.52,0-2.75-1.23-2.75-2.75v-7.06" />
        <path class="cls-23"
          d="M98.59,42.55v13.1c0,1.58-1.28,2.85-2.85,2.85h-29.19c-1.58,0-2.85-1.28-2.85-2.85V20.6c0-1.58,1.28-2.85,2.85-2.85h29.19c1.58,0,2.85,1.28,2.85,2.85v20.58" />
        <path class="cls-23"
          d="M127.01,32.26v6.34c0,1.32-1.07,2.39-2.39,2.39h-18.65c-1.32,0-2.39-1.07-2.39-2.39V21.08c0-1.32,1.07-2.39,2.39-2.39h18.65c1.32,0,2.39,1.07,2.39,2.39v10.44" />
        <path class="cls-13"
          d="M96.34,40.53v14.83c0,.62-.51,1.13-1.13,1.13H62.57c-.62,0-1.13-.51-1.13-1.13V16.85c0-.62,.51-1.13,1.13-1.13h32.64c.62,0,1.13,.51,1.13,1.13v22.3" />
        <path class="cls-13"
          d="M123.05,39.49h.92c.62,0,1.13-.51,1.13-1.13V16.85c0-.62-.51-1.13-1.13-1.13h-1.85" />
        <g>
          <circle class="cls-5" cx="118.7" cy="17.05" r=".42" />
          <circle class="cls-5" cx="120.03" cy="17.05" r=".42" />
          <circle class="cls-5" cx="121.36" cy="17.05" r=".42" />
        </g>
        <rect class="cls-5" x="103.15" y="15.72" width="19.9" height="23.76" rx="1.13" ry="1.13" />
        <rect class="cls-5" x="106.41" y="21.93" width="12.75" height="14.72" rx=".61" ry=".61" />
        <line class="cls-5" x1="106.59" y1="22.11" x2="118.92" y2="36.52" />
        <line class="cls-5" x1="118.92" y1="22.11" x2="106.59" y2="36.52" />
        <path class="cls-5"
          d="M94.29,40.53v14.83c0,.62-.51,1.13-1.13,1.13H60.52c-.62,0-1.13-.51-1.13-1.13V16.85c0-.62,.51-1.13,1.13-1.13h32.64c.62,0,1.13,.51,1.13,1.13v22.3" />
        <path class="cls-22"
          d="M39.52,73.54h36.18c.29,0,.29-.45,0-.45H39.52c-.29,0-.29,.45,0,.45h0Z" />
        <path class="cls-22"
          d="M76.67,73.54h1.3c.12,0,.23-.1,.23-.23s-.1-.23-.23-.23h-1.3c-.12,0-.23,.1-.23,.23s.1,.23,.23,.23h0Z" />
        <g>
          <path class="cls-22"
            d="M90.03,65.24v-1.05c0-.12-.1-.23-.23-.23s-.23,.1-.23,.23v1.05c0,.12,.1,.23,.23,.23s.23-.1,.23-.23h0Z" />
          <path class="cls-22"
            d="M90.03,69.55v-3.07c0-.29-.45-.29-.45,0v3.07c0,.29,.45,.29,.45,0h0Z" />
          <path class="cls-22"
            d="M99.16,69.55v-5.37c0-.29-.45-.29-.45,0v5.37c0,.29,.45,.29,.45,0h0Z" />
        </g>
        <path class="cls-22" d="M102.38,69.55v-5.37c0-.29-.45-.29-.45,0v5.37c0,.29,.45,.29,.45,0h0Z" />
        <path class="cls-22"
          d="M119.82,73.22c.08-4.67,8.46-4.67,8.54,0,0,.29,.46,.29,.45,0-.04-2.46-2.45-3.99-4.72-3.99s-4.68,1.53-4.72,3.99c0,.29,.44,.29,.45,0h0Z" />
        <g>
          <path class="cls-22"
            d="M103.57,72.59c-.1,0-.17-.08-.17-.17v-1.71c0-.1,.08-.17,.17-.17s.17,.08,.17,.17v1.71c0,.1-.08,.17-.17,.17Z" />
          <path class="cls-22"
            d="M104.38,72.59c-.1,0-.17-.08-.17-.17v-1.71c0-.1,.08-.17,.17-.17s.17,.08,.17,.17v1.71c0,.1-.08,.17-.17,.17Z" />
          <path class="cls-22"
            d="M105.19,72.59c-.1,0-.17-.08-.17-.17v-1.71c0-.1,.08-.17,.17-.17s.17,.08,.17,.17v1.71c0,.1-.08,.17-.17,.17Z" />
          <path class="cls-22"
            d="M106,72.59c-.1,0-.17-.08-.17-.17v-1.71c0-.1,.08-.17,.17-.17s.17,.08,.17,.17v1.71c0,.1-.08,.17-.17,.17Z" />
        </g>
        <path class="cls-22"
          d="M93.36,15.95c1.09,0,2.66-.32,2.76,1.14,.05,.73,0,1.47,0,2.2V54.83c0,.14,.05,.39,0,.52-.11,.3-.86,.85-1.14,.91-.19,.04-.45,0-.65,0h-1.16c-.29,0-.29,.45,0,.45,1.27,0,3.23,.38,3.41-1.37,.06-.57,0-1.18,0-1.75V19.62c0-.88,.07-1.78,0-2.66-.14-1.77-1.89-1.46-3.21-1.46-.29,0-.29,.45,0,.45h0Z" />
        <g>
          <g>
            <path class="cls-22"
              d="M77.89,24.58h11.64c.29,0,.29-.45,0-.45h-11.64c-.29,0-.29,.45,0,.45h0Z" />
            <path class="cls-22"
              d="M77.89,26.32h11.64c.29,0,.29-.45,0-.45h-11.64c-.29,0-.29,.45,0,.45h0Z" />
            <path class="cls-22"
              d="M77.89,28.06h6.07c.29,0,.29-.45,0-.45h-6.07c-.29,0-.29,.45,0,.45h0Z" />
            <path class="cls-22"
              d="M77.89,29.79h6.07c.29,0,.29-.45,0-.45h-6.07c-.29,0-.29,.45,0,.45h0Z" />
          </g>
          <g>
            <path class="cls-22"
              d="M77.89,40.65h11.64c.29,0,.29-.45,0-.45h-11.64c-.29,0-.29,.45,0,.45h0Z" />
            <path class="cls-22"
              d="M77.89,42.39h11.64c.29,0,.29-.45,0-.45h-11.64c-.29,0-.29,.45,0,.45h0Z" />
            <path class="cls-22"
              d="M77.89,44.12h6.07c.29,0,.29-.45,0-.45h-6.07c-.29,0-.29,.45,0,.45h0Z" />
            <path class="cls-22"
              d="M77.89,45.86h6.07c.29,0,.29-.45,0-.45h-6.07c-.29,0-.29,.45,0,.45h0Z" />
          </g>
        </g>
        <path class="cls-22" d="M94.47,18.58h1.72c.29,0,.29-.45,0-.45h-1.72c-.29,0-.29,.45,0,.45h0Z" />
        <path class="cls-22"
          d="M59.66,18.58h34.23c.29,0,.29-.45,0-.45H59.66c-.29,0-.29,.45,0,.45h0Z" />
        <g>
          <circle class="cls-22" cx="89.95" cy="17.05" r=".42" />
          <circle class="cls-22" cx="91.28" cy="17.05" r=".42" />
          <circle class="cls-22" cx="92.6" cy="17.05" r=".42" />
        </g>
        <path class="cls-22"
          d="M94.07,40.53v6.79c0,2.59,.26,5.33,0,7.9-.15,1.5-2.42,1.04-3.51,1.04h-26.98c-1.05,0-3.69,.5-3.96-.91-.21-1.12,0-2.49,0-3.62V17.74c0-.27-.06-.62,0-.89,.24-1.01,1.07-.91,1.86-.91h26.21c1.74,0,3.55-.15,5.28,0,.74,.06,1.06,.5,1.11,1.19,.06,.85,0,1.72,0,2.56v19.45c0,.29,.45,.29,.45,0V22.93c0-1.98,.21-4.08,0-6.05-.18-1.73-2.03-1.39-3.29-1.39h-27.81c-1.04,0-3.42-.44-4.07,.67-.52,.88-.19,2.64-.19,3.58V54.7c0,.45-.05,.94,.19,1.34,.37,.63,1.01,.67,1.65,.67,5.53,.04,11.06,0,16.59,0,5.12,0,10.3,.24,15.41,0,2.03-.1,1.51-2.6,1.51-4.01v-12.17c0-.29-.45-.29-.45,0h0Z" />
        <rect class="cls-27" x="62.65" y="21.96" width="12.75" height="14.72" rx=".61" ry=".61" />
        <rect class="cls-28" x="106.38" y="21.86" width="12.75" height="14.72" rx=".61" ry=".61" />
        <rect class="cls-9" x="62.6" y="39.08" width="12.75" height="14.72" rx=".61" ry=".61" />
        <path class="cls-22"
          d="M74.76,53.55h-10.8c-.47,0-1,.12-1.11-.52-.09-.53,0-1.17,0-1.71v-9.91c0-.48-.14-1.2,0-1.66,.18-.59,.71-.46,1.19-.46h9.49c.45,0,1.44-.21,1.63,.4,.11,.35,0,.89,0,1.25v10.79c0,.43,.25,1.72-.45,1.84-.29,.05-.16,.48,.12,.43,.79-.13,.78-.77,.78-1.39v-12.61c0-.59-.18-1.1-.87-1.15-1.81-.14-3.7,0-5.51,0-1.96,0-3.94-.1-5.9,0-.64,.03-.91,.45-.93,1.04-.02,.73,0,1.46,0,2.19v10.33c0,.49-.11,1.14,.36,1.46,.42,.28,1.2,.15,1.67,.15h10.34c.29,0,.29-.45,0-.45Z" />
        <path class="cls-22"
          d="M75.14,53.72s-.04,0-.06-.03l-12.33-14.41s-.02-.08,0-.11c.03-.03,.08-.02,.11,0l12.33,14.41s.02,.08,0,.11c-.01,.01-.03,.02-.05,.02Z" />
        <path class="cls-22"
          d="M62.81,53.72s-.03,0-.05-.02c-.03-.03-.04-.07,0-.11l12.33-14.41s.07-.03,.11,0c.03,.03,.04,.07,0,.11l-12.33,14.41s-.04,.03-.06,.03Z" />
        <g>
          <path class="cls-22"
            d="M123.05,39.71c.99,0,2.06,.01,2.26-1.21,.06-.35,.02-.72,.02-1.07V17.58c0-.47,.06-.99-.19-1.41-.56-.98-2.09-.67-3.02-.67-.29,0-.29,.45,0,.45,.91,0,2.59-.34,2.76,.91,.04,.26,0,.56,0,.82v18.47c0,.62,.03,1.25,0,1.87,0,.11,.01,.22,0,.33-.14,1.01-1.06,.91-1.83,.91-.29,0-.29,.45,0,.45h0Z" />
          <path class="cls-22"
            d="M103.31,18.58h19.74c.29,0,.29-.45,0-.45h-19.74c-.29,0-.29,.45,0,.45h0Z" />
          <path class="cls-22"
            d="M123.23,18.58h1.72c.29,0,.29-.45,0-.45h-1.72c-.29,0-.29,.45,0,.45h0Z" />
          <g>
            <circle class="cls-22" cx="118.7" cy="17.05" r=".42" />
            <circle class="cls-22" cx="120.03" cy="17.05" r=".42" />
            <circle class="cls-22" cx="121.36" cy="17.05" r=".42" />
          </g>
          <path class="cls-22"
            d="M121.92,39.26h-16.98c-.21,0-.45,.04-.65,0-.81-.15-.87-.63-.91-1.24-.06-1,0-2.03,0-3.03v-15.78c0-.75-.09-1.58,0-2.33,.15-1.2,1.55-.94,2.39-.94h14.93c.85,0,1.99-.21,2.13,.96,.09,.75,0,1.55,0,2.3v17.23c0,.9,.34,2.65-.91,2.82-.28,.04-.29,.49,0,.45,1.21-.16,1.36-1.04,1.36-2.04V17.63c0-.87,0-1.83-1.06-2.09-.83-.21-1.87-.04-2.71-.04h-5.58c-3.15,0-6.33-.13-9.47,0-2.19,.09-1.53,3.33-1.53,4.81v16.55c0,.69-.17,1.71,.27,2.3,.55,.74,1.62,.56,2.43,.56h16.29c.29,0,.29-.45,0-.45Z" />
          <path class="cls-22"
            d="M118.55,36.43h-10.8c-.47,0-1,.12-1.11-.52-.09-.53,0-1.17,0-1.71v-9.91c0-.48-.14-1.2,0-1.66,.18-.59,.71-.46,1.19-.46h9.49c.45,0,1.44-.21,1.63,.4,.11,.35,0,.89,0,1.25v10.79c0,.43,.25,1.72-.45,1.84-.29,.05-.16,.48,.12,.43,.79-.13,.78-.77,.78-1.39v-12.61c0-.59-.18-1.1-.87-1.15-1.81-.14-3.7,0-5.51,0-1.96,0-3.94-.1-5.9,0-.64,.03-.91,.45-.93,1.04-.02,.73,0,1.46,0,2.19v10.33c0,.49-.11,1.14,.36,1.46,.42,.28,1.2,.15,1.67,.15h10.34c.29,0,.29-.45,0-.45Z" />
          <path class="cls-22"
            d="M118.92,36.6s-.04,0-.06-.03l-12.33-14.41s-.02-.08,0-.11c.03-.03,.08-.02,.11,0l12.33,14.41s.02,.08,0,.11c-.01,.01-.03,.02-.05,.02Z" />
          <path class="cls-22"
            d="M106.59,36.6s-.03,0-.05-.02c-.03-.03-.04-.07,0-.11l12.33-14.41s.07-.03,.11,0c.03,.03,.04,.07,0,.11l-12.33,14.41s-.04,.03-.06,.03Z" />
        </g>
        <path class="cls-22"
          d="M32.73,59.55c0,4.36,0,8.71,0,13.07,0,.29,.45,.29,.45,0,0-4.36,0-8.71,0-13.07,0-.29-.45-.29-.45,0h0Z" />
        <path class="cls-22"
          d="M21.47,31.79c.42-.65,.97-1.2,1.63-1.61,.73-.46,1.54-.65,2.38-.81,.28-.05,.16-.49-.12-.43-.9,.16-1.76,.39-2.54,.89-.7,.44-1.29,1.04-1.74,1.73-.16,.24,.23,.47,.39,.23h0Z" />
        <g>
          <ellipse class="cls-22" cx="23.92" cy="37.26" rx="1.02" ry="1.39"
            transform="translate(-20.3 34.87) rotate(-54.21)" />
          <ellipse class="cls-22" cx="30.71" cy="33.63" rx="1.02" ry="1.39"
            transform="translate(-7.84 9.39) rotate(-15.44)" />
        </g>
        <path class="cls-22"
          d="M21.89,36.57c.33-1.02,1.03-1.9,1.95-2.45,.25-.15,.02-.54-.23-.39-1.02,.61-1.8,1.58-2.16,2.72-.09,.28,.35,.39,.43,.12h0Z" />
        <path class="cls-22"
          d="M28.08,31.86c.7-.52,1.56-.77,2.44-.69,.12,.01,.23-.11,.23-.23,0-.13-.1-.21-.23-.23-.94-.08-1.9,.19-2.66,.75-.1,.07-.15,.19-.08,.31,.06,.1,.21,.15,.31,.08h0Z" />
        <path class="cls-22"
          d="M29.21,36.98c-.05,.37-.15,.72-.3,1.06-.01,.03-.02,.05-.05,.07-.02,.02-.06,.02-.09,.02-.42,0-.84-.01-1.26-.05h0c.1-.35,.33-.65,.63-.86s.68-.29,1.04-.25" />
        <g>
          <path class="cls-5" d="M27.75,74.09c0-1.44,1.17-2.6,2.6-2.6s2.6,1.17,2.6,2.6" />
          <path class="cls-5" d="M32.96,74.09c0-1.44,1.17-2.6,2.6-2.6s2.6,1.17,2.6,2.6" />
        </g>
        <path class="cls-22" d="M21.65,31.35c.81,.37,1.52,.93,2.08,1.62-.31-.86-.65-1.76-1.33-2.37" />
        <path class="cls-22" d="M22.69,30.34c.74,.48,1.44,1.3,1.88,2.06-.18-.9-.35-2.04-.94-2.75" />
        <path class="cls-22" d="M24.09,29.62c.67,.58,1.47,1.59,1.81,2.4-.06-.92-.08-2.07-.56-2.85" />
        <path class="cls-17"
          d="M72.8,71.83h-30.39c-1.21,0-2.19,.98-2.19,2.19h0c0,.15,.12,.28,.28,.28h34.21c.15,0,.28-.12,.28-.28h0c0-1.21-.98-2.19-2.19-2.19Z" />
        <g>
          <g>
            <path class="cls-17"
              d="M46.19,70.53h-1.31c-.3,0-.55,.24-.55,.55v.76h2.41v-.76c0-.3-.24-.55-.55-.55Z" />
            <path class="cls-17"
              d="M49.64,70.53h-1.31c-.3,0-.55,.24-.55,.55v.76h2.41v-.76c0-.3-.24-.55-.55-.55Z" />
          </g>
          <g>
            <path class="cls-17"
              d="M53.28,70.53h-1.31c-.3,0-.55,.24-.55,.55v.76h2.41v-.76c0-.3-.24-.55-.55-.55Z" />
            <path class="cls-17"
              d="M56.73,70.53h-1.31c-.3,0-.55,.24-.55,.55v.76h2.41v-.76c0-.3-.24-.55-.55-.55Z" />
          </g>
          <g>
            <path class="cls-17"
              d="M60.32,70.53h-1.31c-.3,0-.55,.24-.55,.55v.76h2.41v-.76c0-.3-.24-.55-.55-.55Z" />
            <path class="cls-17"
              d="M63.77,70.53h-1.31c-.3,0-.55,.24-.55,.55v.76h2.41v-.76c0-.3-.24-.55-.55-.55Z" />
          </g>
          <g>
            <path class="cls-17"
              d="M67.58,70.53h-1.31c-.3,0-.55,.24-.55,.55v.76h2.41v-.76c0-.3-.24-.55-.55-.55Z" />
            <path class="cls-17"
              d="M71.03,70.53h-1.31c-.3,0-.55,.24-.55,.55v.76h2.41v-.76c0-.3-.24-.55-.55-.55Z" />
          </g>
        </g>
        <rect class="cls-5" x="44.33" y="71.83" width="27.24" height="1.23" rx=".62" ry=".62" />
        <rect class="cls-33" x="77.81" y="69.91" width="7.86" height="1.23" rx=".62" ry=".62" />
        <rect class="cls-8" x="80.26" y="73.31" width="7.86" height="1.23" rx=".62" ry=".62" />
        <rect class="cls-8" x="134.44" y="73.31" width="7.86" height="1.23" rx=".62" ry=".62" />
        <rect class="cls-8" x="115.31" y="73.31" width="5.22" height="1.23" rx=".5" ry=".5" />
        <g>
          <rect class="cls-11" x="54.91" y="35.75" width="1.97" height="11.22" rx=".99" ry=".99" />
          <rect class="cls-11" x="54.91" y="15.22" width="1.97" height="6.18" rx=".99" ry=".99" />
        </g>
        <g class="cls-32">
          <rect class="cls-12" x="52.42" y="39.02" width="1.97" height="11.22" rx=".99" ry=".99" />
          <rect class="cls-12" x="52.42" y="18.49" width="1.97" height="6.18" rx=".99" ry=".99" />
        </g>
        <g>
          <path class="cls-24"
            d="M131.86,30.2h0c.54,0,.99,.44,.99,.99v9.24c0,.55-.44,.99-.99,.99h0c-.54,0-.99-.44-.99-.99v-9.24c0-.55,.44-.99,.99-.99Z" />
          <path class="cls-24"
            d="M131.86,45.07h0c.54,0,.99,.44,.99,.99v4.21c0,.55-.44,.99-.99,.99h0c-.54,0-.99-.44-.99-.99v-4.21c0-.55,.44-.99,.99-.99Z" />
        </g>
        <g>
          <polygon class="cls-6"
            points="83.79 61.72 80.65 61.72 85.62 10.42 88.76 10.42 83.79 61.72" />
          <polygon class="cls-6" points="77.95 61.72 76.4 61.72 81.36 10.42 82.92 10.42 77.95 61.72" />
        </g>
        <path class="cls-22"
          d="M130.1,61.97H57.66c-1.65,0-3-1.35-3-3v-7.06c0-.14,.11-.25,.25-.25s.25,.11,.25,.25v7.06c0,1.38,1.12,2.5,2.5,2.5h72.44c1.38,0,2.5-1.12,2.5-2.5V13.17c0-1.38-1.12-2.5-2.5-2.5h-34.26c-.14,0-.25-.11-.25-.25s.11-.25,.25-.25h34.26c1.65,0,3,1.35,3,3V58.97c0,1.65-1.35,3-3,3Z" />
        <path class="cls-22"
          d="M54.91,50.38c-.14,0-.25-.11-.25-.25V13.17c0-1.65,1.35-3,3-3h36.09c.14,0,.25,.11,.25,.25s-.11,.25-.25,.25H57.66c-1.38,0-2.5,1.12-2.5,2.5V50.13c0,.14-.11,.25-.25,.25Z" />
        <g>
          <path class="cls-22"
            d="M74.79,36.43h-10.8c-.47,0-1,.12-1.11-.52-.09-.53,0-1.17,0-1.71v-9.91c0-.48-.14-1.2,0-1.66,.18-.59,.71-.46,1.19-.46h9.49c.45,0,1.44-.21,1.63,.4,.11,.35,0,.89,0,1.25v10.79c0,.43,.25,1.72-.45,1.84-.29,.05-.16,.48,.12,.43,.79-.13,.78-.77,.78-1.39v-12.61c0-.59-.18-1.1-.87-1.15-1.81-.14-3.7,0-5.51,0-1.96,0-3.94-.1-5.9,0-.64,.03-.91,.45-.93,1.04-.02,.73,0,1.46,0,2.19v10.33c0,.49-.11,1.14,.36,1.46,.42,.28,1.2,.15,1.67,.15h10.34c.29,0,.29-.45,0-.45Z" />
          <path class="cls-22"
            d="M75.17,36.6s-.04,0-.06-.03l-12.33-14.41s-.02-.08,0-.11c.03-.03,.08-.02,.11,0l12.33,14.41s.02,.08,0,.11c-.01,.01-.03,.02-.05,.02Z" />
          <path class="cls-22"
            d="M62.84,36.6s-.03,0-.05-.02c-.03-.03-.04-.07,0-.11l12.33-14.41s.07-.03,.11,0c.03,.03,.04,.07,0,.11l-12.33,14.41s-.04,.03-.06,.03Z" />
        </g>
        <path class="cls-22"
          d="M62.6,63.71h-4.83c-.76,0-1.54,.05-2.28-.16-1.72-.5-2.76-2.04-2.84-3.79-.08-1.87,0-3.75,0-5.62V23.15c0-.29-.45-.29-.45,0v30.99c0,1.92-.1,3.88,0,5.8,.14,2.61,2.26,4.2,4.74,4.22,1.88,.01,3.77,0,5.65,0,.29,0,.29-.45,0-.45h0Z" />
        <path class="cls-22"
          d="M52.65,21.59v-5.93c0-2.52-.46-5.69,2.41-6.9,1.45-.61,3.47-.32,4.99-.32h13.21c.29,0,.29-.45,0-.45h-13.13c-1.61,0-3.7-.3-5.23,.34-1.43,.59-2.47,1.95-2.67,3.49-.1,.78-.04,1.59-.04,2.37v7.41c0,.29,.45,.29,.45,0h0Z" />
        <path class="cls-5"
          d="M17.83,32.46c.23-.01,.46-.01,.69,0,.06,0,.12,0,.17,.02,.03,0,.06,0,.08,0h-.05s.04,0,.05,0c.12,.02,.23,.04,.35,.06,.19,.04,.41-.06,.46-.26,.04-.19-.06-.42-.26-.46-.49-.11-1-.15-1.5-.12-.2,.01-.38,.16-.38,.38,0,.19,.17,.39,.38,.38h0Z" />
        <path class="cls-5" d="M20.33,32.95c.48,0,.48-.75,0-.75s-.48,.75,0,.75h0Z" />
        <circle class="cls-5" cx="24.31" cy="36.51" r=".43" />
        <circle class="cls-5" cx="29.68" cy="33.63" r=".43" />
        <path class="cls-19"
          d="M14.83,33.51c1.59-.14,3.09,.46,4.39,1.33,.4,.27,.78-.38,.38-.65-1.4-.94-3.06-1.58-4.77-1.43-.48,.04-.48,.79,0,.75h0Z" />
        <path class="cls-22"
          d="M14.21,33.1c2-.41,4.14,.15,5.69,1.48,.15,.12,.36-.09,.21-.21-1.64-1.4-3.87-1.98-5.98-1.55-.19,.04-.11,.33,.08,.29h0Z" />
        <path class="cls-22"
          d="M19.43,37.48c-1.38-1.94-2.99-3.94-5.36-4.64l.1,.38c1.98-2.03,5.09-2.43,7.51-.96,.25,.15,.48-.24,.23-.39-2.6-1.57-5.94-1.14-8.06,1.03-.12,.12-.06,.33,.1,.38,2.25,.67,3.78,2.6,5.09,4.44,.17,.23,.56,0,.39-.23h0Z" />
        <path class="cls-19"
          d="M27.74,23.1c-.07,1.79-.05,3.62,.54,5.33,.16,.45,.88,.26,.72-.2-.57-1.65-.58-3.4-.52-5.13,.02-.48-.73-.48-.75,0h0Z" />
        <path class="cls-22"
          d="M25.64,29.28c.25-1.2,.49-2.4,.87-3.57,.19-.6,.41-1.18,.69-1.75,.13-.27,.28-.54,.43-.8,.11-.19,.23-.29,.46-.19,.1,.04,.2,.13,.29,.19,1.76,1.21,2.8,3.35,2.72,5.48-.01,.29,.44,.29,.45,0,.07-1.86-.66-3.71-1.96-5.04-.32-.33-.68-.62-1.06-.88-.35-.23-.75-.44-1.09-.07s-.55,.9-.75,1.35c-.22,.48-.41,.98-.58,1.49-.39,1.2-.65,2.44-.9,3.68-.06,.28,.38,.4,.43,.12h0Z" />
        <path class="cls-22"
          d="M27.71,22.65c-.52,2.06-.32,4.24,.55,6.18,.08,.18,.34,.02,.26-.15-.84-1.86-1.02-3.97-.52-5.94,.05-.19-.24-.27-.29-.08h0Z" />
        <path class="cls-5"
          d="M27.38,45.1c-.4,1.54,.29,3.16,1.23,4.45s2.12,2.39,2.93,3.77c.35,.59,.62,1.23,.88,1.87,.24,.61,.43,2.43,.65,3.05,.14-.19,.36-2.15,.35-2.38-.06-2.23,.33-3.93,.99-6.06,.32-1.03,.66-2.07,.75-3.15,.13-1.65-.33-3.3-.93-4.85-.3,.64-.97,1.02-1.59,1.35-1.58,.83-3.18,1.67-4.93,1.99" />
        <path class="cls-20"
          d="M26.26,46.3c3.64,.19,7.19-1.58,9.31-4.52,.24-.33,.06-.84-.27-1.03-.38-.22-.79-.06-1.03,.27-1.82,2.52-4.93,3.94-8.02,3.78-.96-.05-.96,1.45,0,1.5h0Z" />
        <g>
          <path class="cls-22"
            d="M28.69,71.93c-.36-2.15-1.23-3.68-2.47-5.44-1.46-2.08-2.33-4.24-2.83-6.73-.95-4.8-.6-10.57,2.64-14.5,.18-.22-.13-.54-.32-.32-2.97,3.6-3.63,8.76-3.04,13.26,.31,2.37,.87,4.83,2.09,6.91,.62,1.05,1.39,2,2.05,3.02,.79,1.23,1.2,2.49,1.44,3.92,.05,.28,.48,.16,.43-.12h0Z" />
          <path class="cls-22"
            d="M38.82,46.99c1.55,3.88,2.76,8.23,2.6,12.44-.08,2.29-.52,4.52-1.51,6.59-.86,1.8-1.82,3.68-3.17,5.15-.2,.21,.12,.53,.32,.32,1.34-1.45,2.28-3.27,3.14-5.04,.94-1.93,1.44-3.95,1.62-6.09,.38-4.56-.89-9.29-2.56-13.5-.11-.27-.54-.15-.43,.12h0Z" />
          <path class="cls-22"
            d="M35.12,40.51c1.26,1.63,2.31,3.4,3.17,5.27,.12,.26,.51,.03,.39-.23-.86-1.87-1.92-3.64-3.17-5.27-.17-.23-.57,0-.39,.23h0Z" />
        </g>
        <path class="cls-5"
          d="M1.77,50.28c.66,.06,1.33-.12,1.87-.5s.93-.96,1.09-1.6c.05-.18,.07-.38,.03-.56-.07-.29-.29-.52-.53-.7-.6-.45-1.36-.7-2.1-.59s-1.43,.62-1.67,1.32,.03,1.58,.68,1.95" />
        <path class="cls-5"
          d="M19.02,39.62c.64,.31,1.25,.68,1.82,1.09,.17,.12,.33,.25,.45,.41,.13,.18,.2,.41,.25,.62,.15,.65,.19,1.32,.23,1.99,0,.08,0,.19-.08,.22-.04,.02-.09,0-.13,0-.59-.15-1.11-.49-1.56-.9-.49-.44-.93-.98-1.07-1.63-.08-.36-.06-.73-.04-1.1" />
        <path class="cls-5"
          d="M34.36,31.68c.64,.31,1.25,.68,1.82,1.09,.17,.12,.33,.25,.45,.41,.13,.18,.2,.41,.25,.62,.15,.65,.19,1.32,.23,1.99,0,.08,0,.19-.08,.22-.04,.02-.09,0-.13,0-.59-.15-1.11-.49-1.56-.9-.49-.44-.93-.98-1.07-1.63-.08-.36-.06-.73-.04-1.1" />
        <path class="cls-21"
          d="M31.2,29.56c.14,.92,1.24,1.22,1.95,1.57,1.53,.74,3.56,1.6,3.63,3.54,.12,3.08-1.84,6.22-4.27,7.98-2.19,1.59-5,2.32-7.68,2.03-1.62-.18-3.5-.71-4.76-1.78-1.53-1.3-.82-4.05-.48-5.76,.06-.28-.38-.4-.43-.12-.28,1.41-.61,3.03-.4,4.47,.18,1.19,1.08,1.91,2.09,2.44,2.41,1.26,5.29,1.59,7.93,.93,4.5-1.12,8.45-5.25,8.45-10.06,0-1.44-.72-2.25-1.9-2.99-.72-.45-1.47-.86-2.24-1.21-.53-.25-1.35-.49-1.46-1.16-.04-.29-.48-.16-.43,.12h0Z" />
        <path class="cls-22"
          d="M27.73,39.83c-.71,.1-1.4,.45-2,.82-.57,.35-1.14,.77-1.54,1.3-.12,.15,.14,.3,.26,.15,.38-.51,.94-.9,1.48-1.22,.58-.35,1.21-.67,1.89-.77,.19-.03,.11-.32-.08-.29h0Z" />
        <path class="cls-22"
          d="M28.16,40.62c-2.29,1.83-4.25,4.13-5.34,6.88-.07,.18,.22,.26,.29,.08,1.07-2.7,3.01-4.94,5.26-6.74,.15-.12-.06-.33-.21-.21h0Z" />
        <path class="cls-22"
          d="M27.21,38.99c-1.81,.44-3.6,1.07-5.16,2.1-1.48,.97-2.98,1.98-3.92,3.53-.1,.17,.16,.32,.26,.15,.93-1.53,2.46-2.55,3.95-3.51s3.23-1.56,4.96-1.98c.19-.05,.11-.34-.08-.29h0Z" />
        <g>
          <path class="cls-22"
            d="M31.55,38.15c.36-.58,.92-1.04,1.48-1.42,.52-.35,1.09-.7,1.71-.84,.19-.04,.11-.33-.08-.29-.66,.15-1.27,.52-1.82,.9-.59,.41-1.17,.89-1.55,1.5-.1,.16,.16,.32,.26,.15h0Z" />
          <path class="cls-22"
            d="M31.98,38.96c2.56-1.33,5.39-2.17,8.3-2.06,.19,0,.19-.29,0-.3-2.96-.11-5.84,.75-8.45,2.1-.17,.09-.02,.35,.15,.26h0Z" />
          <path class="cls-22"
            d="M30.99,37.34c1.75-2.27,3.96-4.24,6.62-5.36,.18-.07,.1-.36-.08-.29-2.74,1.15-5,3.16-6.8,5.5-.12,.15,.14,.3,.26,.15h0Z" />
        </g>
        <path class="cls-5"
          d="M19.17,60.7c.37-1.83,.67-3.72,1.44-5.43,.09-.2,.06-.44-.15-.56-.17-.1-.47-.05-.56,.15-.8,1.79-1.13,3.72-1.52,5.62-.1,.51,.68,.73,.79,.22h0Z" />
        <g>
          <path class="cls-22"
            d="M18.44,62.34c.4-3.23,1.17-6.4,2.52-9.37,1.11-2.43,2.56-5.05,4.49-6.93,.21-.2-.11-.52-.32-.32-2.03,1.97-3.54,4.72-4.68,7.28-1.32,2.97-2.07,6.12-2.47,9.34-.04,.29,.42,.28,.45,0h0Z" />
          <path class="cls-22"
            d="M26.55,73.07c-2.41,.09-5.26,.18-6.97-1.84-1.81-2.14-1.49-5.4-1.24-7.97,.03-.29-.42-.29-.45,0-.26,2.71-.53,6.05,1.37,8.29,1.79,2.11,4.76,2.07,7.29,1.98,.29-.01,.29-.46,0-.45h0Z" />
          <path class="cls-22"
            d="M19.02,70.67c-4.09-.21-8.43-1.9-10.68-5.49s-1.05-7.73-2.72-11.34c-.72-1.55-1.93-2.73-3.44-3.5-1.28-.65-2.45-1.96-1.18-3.32,1.16-1.24,2.71-.28,3.87,.46,2.01,1.27,3.42,2.92,3.87,5.31,.4,2.13,.4,4.27,1.01,6.37,1.07,3.7,3.89,7.69,8.09,7.94,.29,.02,.29-.43,0-.45-2.79-.17-5.2-2.37-6.48-4.72s-1.69-5.02-1.97-7.7c-.22-2.11-.71-4.01-2.25-5.56-1.12-1.12-3.06-2.7-4.73-2.74-1.36-.02-2.5,1.15-2.39,2.51,.16,1.99,2.52,2.34,3.74,3.51,3.57,3.44,1.69,9.03,4,13.09s6.9,5.84,11.28,6.07c.29,.02,.29-.43,0-.45h0Z" />
        </g>
        <rect class="cls-29" x="132.62" y="19.88" width="12.22" height="2.56" rx="1.28" ry="1.28"
          transform="translate(117.57 159.89) rotate(-90)" />
        <rect class="cls-29" x="132.62" y="42.69" width="12.22" height="2.56" rx="1.28" ry="1.28"
          transform="translate(94.76 182.7) rotate(-90)" />
        <path class="cls-22"
          d="M130.32,8.44h3.26c1.18,0,2.61-.19,3.75,.2,2.26,.78,2.62,2.89,2.62,4.93V58.3c0,.45,.02,.9,0,1.35-.07,2.03-1.38,3.84-3.52,4.03-2.38,.22-4.86,.01-7.25,.01-.29,0-.29,.45,0,.45,2.3,0,4.61,.08,6.9,0,2.61-.09,4.28-2.15,4.31-4.67,.04-3.93,0-7.85,0-11.78V13.84c0-1.88-.05-3.71-1.73-4.98-1.25-.95-2.67-.87-4.14-.87h-4.21c-.29,0-.29,.45,0,.45h0Z" />
        <path class="cls-22"
          d="M75.68,8.44h12.54c8.18,0,16.36,0,24.54,0h17.45c.32,0,.64-.01,.96,0,2.32,.1,3.91,1.85,3.94,4.14,.02,1.85,0,3.7,0,5.55V59.23c0,2.64-1.69,4.47-4.37,4.48-1.65,0-3.3,0-4.95,0h-61.56c-.29,0-.29,.45,0,.45h65.43c1.98,0,3.91-.07,5.16-1.95,1.02-1.53,.74-3.6,.74-5.35V14.13c0-2.33-.14-4.72-2.68-5.8-1.36-.57-3.15-.35-4.59-.35h-52.61c-.29,0-.29,.45,0,.45h0Z" />
        <path class="cls-22"
          d="M10.23,67.46c1.2-.58,2.21-1.53,2.87-2.69,.1-.18,.04-.41-.13-.51s-.41-.04-.51,.13c-.6,1.05-1.5,1.88-2.6,2.42-.18,.09-.23,.35-.13,.51,.11,.19,.33,.22,.51,.13h0Z" />
        <path class="cls-22"
          d="M11.6,68.53c1.15-.64,2.11-1.61,2.72-2.78,.09-.18,.05-.41-.13-.51-.17-.1-.42-.05-.51,.13-.56,1.07-1.4,1.93-2.45,2.51-.18,.1-.23,.34-.13,.51s.34,.23,.51,.13h0Z" />
        <path class="cls-22"
          d="M5.51,53.74c1.02-.38,2.09-.52,3.17-.43,.2,.02,.38-.19,.38-.38,0-.22-.17-.36-.38-.38-1.14-.1-2.3,.06-3.37,.45-.19,.07-.32,.25-.26,.46,.05,.18,.27,.33,.46,.26h0Z" />
        <path class="cls-22"
          d="M6.06,54.91c.9-.3,1.83-.43,2.77-.38,.2,0,.38-.18,.38-.38,0-.21-.17-.37-.38-.38-1-.05-2.02,.09-2.97,.41-.19,.06-.32,.26-.26,.46,.05,.19,.27,.33,.46,.26h0Z" />
        <g>
          <path class="cls-22"
            d="M23.15,58.22c.43,.12,1.02,.07,1.58,0,1.58-.18,3.19-.5,4.76-.93-.69,.61-1.69,1.13-2.75,1.52s-2.17,.68-3.27,.96c-.06,.02-.13,.03-.18,.02-.03-.01-.04-.04-.05-.06-.07-.31-.13-.62-.2-.93" />
          <path class="cls-22"
            d="M23.49,60.93c.43,.12,1.02,.07,1.58,0,1.58-.18,3.19-.5,4.76-.93-.69,.61-1.69,1.13-2.75,1.52s-2.17,.68-3.27,.96c-.06,.02-.13,.03-.18,.02-.03-.01-.04-.04-.05-.06-.07-.31-.13-.62-.2-.93" />
          <path class="cls-22"
            d="M22.96,55.39c.41,.18,.99,.23,1.56,.25,1.59,.06,3.23,0,4.85-.2-.77,.5-1.84,.86-2.95,1.09s-2.25,.35-3.38,.46c-.06,0-.13,.01-.18-.01-.03-.02-.04-.04-.04-.07-.02-.32-.04-.63-.06-.95" />
        </g>
        <g>
          <path class="cls-22"
            d="M41.32,60.53c-.43,.12-1.02,.07-1.58,0-1.58-.18-3.19-.5-4.76-.93,.69,.61,1.69,1.13,2.75,1.52s2.17,.68,3.27,.96c.06,.02,.13,.03,.18,.02,.03-.01,.04-.04,.05-.06,.07-.31,.13-.62,.2-.93" />
          <path class="cls-22"
            d="M40.98,63.24c-.43,.12-1.02,.07-1.58,0-1.58-.18-3.19-.5-4.76-.93,.69,.61,1.69,1.13,2.75,1.52s2.17,.68,3.27,.96c.06,.02,.13,.03,.18,.02,.03-.01,.04-.04,.05-.06,.07-.31,.13-.62,.2-.93" />
          <path class="cls-22"
            d="M41.51,57.7c-.41,.18-.99,.23-1.56,.25-1.59,.06-3.23,0-4.85-.2,.77,.5,1.84,.86,2.95,1.09s2.25,.35,3.38,.46c.06,0,.13,.01,.18-.01,.03-.02,.04-.04,.04-.07,.02-.32,.04-.63,.06-.95" />
        </g>
        <g>
          <path class="cls-22"
            d="M18.14,67.01c.43,.12,1.02,.07,1.58,0,1.58-.18,3.19-.5,4.76-.93-.69,.61-1.69,1.13-2.75,1.52s-2.17,.68-3.27,.96c-.06,.02-.13,.03-.18,.02-.03-.01-.04-.04-.05-.06-.07-.31-.13-.62-.2-.93" />
          <path class="cls-22"
            d="M18.48,69.24c.44,.05,1.02-.09,1.56-.24,1.53-.43,3.07-.99,4.56-1.66-.58,.71-1.5,1.38-2.48,1.93s-2.04,1.01-3.08,1.46c-.06,.02-.12,.05-.17,.04-.04,0-.05-.03-.06-.06-.11-.29-.23-.59-.34-.88" />
          <path class="cls-22"
            d="M18.15,64.74c.41,.18,.99,.23,1.56,.25,1.59,.06,3.23,0,4.85-.2-.77,.5-1.84,.86-2.95,1.09s-2.25,.35-3.38,.46c-.06,0-.13,.01-.18-.01-.03-.02-.04-.04-.04-.07-.02-.32-.04-.63-.06-.95" />
        </g>
        <g>
          <path class="cls-5"
            d="M44.51,52.24h-2.54c-.21,0-.38-.17-.38-.38s.17-.38,.38-.38h2.54c.21,0,.38,.17,.38,.38s-.17,.38-.38,.38Z" />
          <path class="cls-5"
            d="M46.36,52.24h-.64c-.21,0-.38-.17-.38-.38s.17-.38,.38-.38h.64c.21,0,.38,.17,.38,.38s-.17,.38-.38,.38Z" />
        </g>
        <rect class="cls-2" x="42.97" y="38.68" width="7.75" height="7.75" />
        <path class="cls-3"
          d="M45.07,39.14c.22,.69,.84,1.21,1.58,1.21,.7,0,1.38-.52,1.48-1.23,.03-.19-.05-.41-.26-.46-.18-.04-.43,.05-.46,.26,0,.06-.02,.11-.04,.17,0,0-.03,.09-.02,.05s-.02,.04-.02,.05c-.03,.05-.06,.1-.09,.14,.04-.06-.02,.02-.03,.03-.02,.02-.03,.03-.05,.05,0,0-.09,.07-.03,.03-.02,.01-.04,.03-.06,.04-.03,.02-.06,.03-.09,.05-.01,0-.04,.02-.01,0-.06,.03-.12,.04-.18,.06-.11,.03,.06,0-.05,0-.03,0-.06,0-.1,0s-.06,0-.1,0c-.06,0,0,0-.03,0-.06-.01-.13-.03-.19-.05s.07,.04-.04-.01c-.03-.01-.05-.03-.08-.04s-.05-.03-.07-.05c-.06-.04,0,.01-.02-.02-.04-.04-.09-.08-.13-.12-.02-.02-.04-.04-.06-.07,.03,.04,0,0-.01-.02-.03-.05-.06-.1-.09-.15-.01-.02-.03-.07-.01-.02-.01-.03-.02-.07-.03-.1-.06-.19-.26-.33-.46-.26s-.32,.26-.26,.46h0Z" />
        <rect class="cls-5" x="48.57" y="38.75" width=".5" height="7.59" />
        <rect class="cls-5" x="49.47" y="38.75" width=".25" height="7.59" />
        <path class="cls-22"
          d="M50.71,46.62h-7.75c-.11,0-.2-.09-.2-.2v-7.75c0-.11,.09-.2,.2-.2h7.75c.11,0,.2,.09,.2,.2v7.75c0,.11-.09,.2-.2,.2Zm-7.54-.4h7.34v-7.34h-7.34v7.34Z" />
        <circle class="cls-7" cx="46.63" cy="38.84" r=".91" />
        <path class="cls-22"
          d="M46.63,39.89c-.58,0-1.06-.47-1.06-1.06s.47-1.06,1.06-1.06,1.06,.47,1.06,1.06-.47,1.06-1.06,1.06Zm0-1.81c-.42,0-.76,.34-.76,.76s.34,.76,.76,.76,.76-.34,.76-.76-.34-.76-.76-.76Z" />
        <path class="cls-22"
          d="M43.82,45.48l.63-.81s.03-.07,0-.11c-.03-.03-.08-.03-.11,0l-.63,.81s-.03,.07,0,.11c.03,.03,.08,.03,.11,0h0Z" />
        <path class="cls-22"
          d="M44.36,45.42l.63-.81s.03-.07,0-.11c-.03-.03-.08-.03-.11,0l-.63,.81s-.03,.07,0,.11c.03,.03,.08,.03,.11,0h0Z" />
        <path class="cls-22"
          d="M48.82,41.2h-4.43c-.11,0-.2-.09-.2-.2s.09-.2,.2-.2h4.43c.11,0,.2,.09,.2,.2s-.09,.2-.2,.2Z" />
        <path class="cls-22"
          d="M46.48,42.23h-2.08c-.11,0-.2-.09-.2-.2s.09-.2,.2-.2h2.08c.11,0,.2,.09,.2,.2s-.09,.2-.2,.2Z" />
        <path class="cls-22"
          d="M46.48,43.23h-2.08c-.11,0-.2-.09-.2-.2s.09-.2,.2-.2h2.08c.11,0,.2,.09,.2,.2s-.09,.2-.2,.2Z" />
        <g class="cls-35">
          <path class="cls-18"
            d="M79.36,73.6c-.01,1.1,1.03,1.96,1.96,2.41,1.07,.52,2.14,.2,3.18-.24,1.79-.75,3.89-2.42,5.83-1.51,1.13,.53,2.23,2.05,3.57,1.91,.61-.06,1.26-.47,1.79-.75,.89-.48,1.81-.95,2.78-1.26,2.17-.7,2.9,.65,4.57,1.54,2.06,1.11,5.07,.52,4.28-2.28-.06-.2-.37-.12-.32,.09,.89,3.16-2.93,2.57-4.38,1.54-.72-.51-1.32-1.18-2.2-1.41-2.47-.65-4.4,2.08-6.69,2.08-1.36,0-2.54-1.51-3.75-2.08-.79-.37-1.69,.05-2.45,.36-1.08,.43-2.1,1.01-3.18,1.46-.76,.32-1.6,.64-2.44,.42-.92-.24-2.23-1.26-2.22-2.29,0-.21-.33-.21-.33,0h0Z" />
          <path class="cls-18"
            d="M91.21,73.57c.67,.71,1.57,1.29,2.58,1.29s1.96-.6,2.72-1.27c.16-.14-.07-.37-.23-.23-.69,.61-1.53,1.18-2.49,1.17s-1.73-.55-2.35-1.2c-.15-.15-.38,.08-.23,.23h0Z" />
          <path class="cls-18"
            d="M96.49,76.39c.81-.66,1.68-1.38,2.75-1.51,.49-.06,1,0,1.43,.26,.48,.29,.86,.77,1.25,1.16,.15,.15,.38-.08,.23-.23-.42-.42-.83-.93-1.35-1.23-.46-.26-1.01-.34-1.53-.29-1.18,.13-2.12,.88-3.01,1.61-.16,.13,.07,.36,.23,.23h0Z" />
          <path class="cls-18"
            d="M80.79,73.52c.14,1.33,1.54,1.84,2.72,1.78,.59-.03,1.07-.28,1.53-.64s.9-.82,1.46-1.05c.19-.08,.11-.4-.09-.32-.9,.38-1.48,1.29-2.41,1.59-1.04,.34-2.76-.09-2.89-1.36-.02-.21-.35-.21-.33,0h0Z" />
        </g>
        <g class="cls-35">
          <path class="cls-18"
            d="M43.29,74.77c-.34,1.42-2.38,1.29-3.43,.91-.88-.32-1.57-.95-2.28-1.55-.16-.13-.39,.1-.23,.23,.85,.71,1.68,1.45,2.78,1.74,1.19,.31,3.11,.22,3.47-1.25,.05-.21-.27-.29-.32-.09h0Z" />
          <path class="cls-18"
            d="M17.49,73.61c-.02,.56,.66,.52,1.05,.53,.2,0,1.31-.07,1.37,.21,.04,.17-.77,.69-.88,.78-.24,.19-.92,.54-.94,.89-.03,.6,1.27,.21,1.54,.14,1.28-.36,2.45-1.09,3.66-1.62,.71-.31,1.82-.9,2.61-.61,.63,.23,1.28,.83,1.85,1.2,.53,.35,1.18,.98,1.82,1.09,.41,.07,.88-.13,1.25-.28,.49-.2,.94-.49,1.41-.72,.75-.37,1.56-.62,2.36-.91,.2-.07,.11-.39-.09-.32-1.12,.4-2.18,.81-3.23,1.37-.83,.44-1.36,.67-2.23,.21-.68-.35-1.32-.86-1.96-1.28-1.01-.66-1.41-.94-2.57-.57-1.09,.34-2.11,.88-3.14,1.37-.64,.3-1.28,.62-1.97,.79-.24,.07-.48,.1-.73,.11-.21,.09-.26,.08-.14-.02,.05-.08,.19-.17,.26-.23,.41-.34,1.05-.66,1.34-1.12,.75-1.18-2.33-.54-2.31-1.01,0-.21-.32-.21-.33,0h0Z" />
          <path class="cls-18"
            d="M27.34,73.58c.56,.59,1.28,1.1,2.09,1.24,.88,.16,1.72-.14,2.45-.62,.18-.12,.01-.4-.17-.28-.67,.44-1.45,.75-2.26,.58-.74-.15-1.37-.61-1.88-1.15-.15-.15-.38,.08-.23,.23h0Z" />
          <path class="cls-18"
            d="M32.61,76.4c.81-.66,1.68-1.38,2.75-1.51,.49-.06,1,0,1.43,.26,.48,.29,.86,.77,1.25,1.16,.15,.15,.38-.08,.23-.23-.42-.42-.83-.93-1.35-1.23-.46-.26-1.01-.34-1.53-.29-1.18,.13-2.12,.88-3.01,1.61-.16,.13,.07,.36,.23,.23h0Z" />
          <path class="cls-18"
            d="M16.92,73.53c.14,1.33,1.54,1.84,2.72,1.78,.59-.03,1.07-.28,1.53-.64s.9-.82,1.46-1.05c.19-.08,.11-.4-.09-.32-.9,.38-1.48,1.29-2.41,1.59-1.04,.34-2.76-.09-2.89-1.36-.02-.21-.35-.21-.33,0h0Z" />
        </g>
        <g class="cls-35">
          <path class="cls-18"
            d="M112.02,73.6c-.01,1.1,1.03,1.96,1.96,2.41,1.07,.52,2.14,.2,3.18-.24,1.79-.75,3.89-2.42,5.83-1.51,1.13,.53,2.23,2.05,3.57,1.91,.61-.06,1.26-.47,1.79-.75,.89-.48,1.81-.95,2.78-1.26,2.17-.7,2.9,.65,4.57,1.54,2.06,1.11,5.07,.52,4.28-2.28-.06-.2-.37-.12-.32,.09,.89,3.16-2.93,2.57-4.38,1.54-.72-.51-1.32-1.18-2.2-1.41-2.47-.65-4.4,2.08-6.69,2.08-1.36,0-2.54-1.51-3.75-2.08-.79-.37-1.69,.05-2.45,.36-1.08,.43-2.1,1.01-3.18,1.46-.76,.32-1.6,.64-2.44,.42-.92-.24-2.23-1.26-2.22-2.29,0-.21-.33-.21-.33,0h0Z" />
          <path class="cls-18"
            d="M123.87,73.57c.67,.71,1.57,1.29,2.58,1.29s1.96-.6,2.72-1.27c.16-.14-.07-.37-.23-.23-.69,.61-1.53,1.18-2.49,1.17s-1.73-.55-2.35-1.2c-.15-.15-.38,.08-.23,.23h0Z" />
          <path class="cls-18"
            d="M129.14,76.39c.81-.66,1.68-1.38,2.75-1.51,.49-.06,1,0,1.43,.26,.48,.29,.86,.77,1.25,1.16,.15,.15,.38-.08,.23-.23-.42-.42-.83-.93-1.35-1.23-.46-.26-1.01-.34-1.53-.29-1.18,.13-2.12,.88-3.01,1.61-.16,.13,.07,.36,.23,.23h0Z" />
          <path class="cls-18"
            d="M113.45,73.52c.14,1.33,1.54,1.84,2.72,1.78,.59-.03,1.07-.28,1.53-.64s.9-.82,1.46-1.05c.19-.08,.11-.4-.09-.32-.9,.38-1.48,1.29-2.41,1.59-1.04,.34-2.76-.09-2.89-1.36-.02-.21-.35-.21-.33,0h0Z" />
        </g>
        <path class="cls-22"
          d="M106.66,73.56h-28.63c-.36,0-.65-.29-.65-.65v-2.72c0-.36,.29-.65,.65-.65h28.63c.36,0,.65,.29,.65,.65v2.72c0,.36-.29,.65-.65,.65Zm-28.63-3.51c-.08,0-.15,.07-.15,.15v2.72c0,.08,.07,.15,.15,.15h28.63c.08,0,.15-.07,.15-.15v-2.72c0-.08-.07-.15-.15-.15h-28.63Z" />
        <path class="cls-22"
          d="M109.12,73.56h-5.57c-.14,0-.25-.11-.25-.25s.11-.25,.25-.25h5.57c.17,0,.26-.06,.28-.08v-2.88s-.11-.05-.28-.05h-7.63c-.14,0-.25-.11-.25-.25s.11-.25,.25-.25h7.63c.44,0,.77,.24,.77,.55v2.9c0,.31-.33,.55-.77,.55Z" />
        <path class="cls-22"
          d="M27.98,73.92c.02-1.3,1.07-2.38,2.38-2.38s2.36,1.08,2.38,2.38c0,.29,.45,.29,.45,0-.02-1.17-.73-2.23-1.84-2.65s-2.4-.08-3.15,.82c-.43,.52-.66,1.15-.67,1.83,0,.29,.45,.29,.45,0h0Z" />
        <path class="cls-22"
          d="M33.18,73.92c.02-1.3,1.07-2.38,2.38-2.38s2.36,1.08,2.38,2.38c0,.29,.45,.29,.45,0-.02-1.17-.73-2.23-1.84-2.65s-2.4-.08-3.15,.82c-.43,.52-.66,1.15-.67,1.83,0,.29,.45,.29,.45,0h0Z" />
        <g>
          <path class="cls-22"
            d="M29.68,73.07v-1.51c0-.15-.24-.15-.24,0v1.51c0,.15,.24,.15,.24,0h0Z" />
          <path class="cls-22"
            d="M31.15,73.07v-1.51c0-.15-.24-.15-.24,0v1.51c0,.15,.24,.15,.24,0h0Z" />
        </g>
        <g>
          <path class="cls-22"
            d="M34.85,73.07v-1.51c0-.15-.24-.15-.24,0v1.51c0,.15,.24,.15,.24,0h0Z" />
          <path class="cls-22"
            d="M36.32,73.07v-1.51c0-.15-.24-.15-.24,0v1.51c0,.15,.24,.15,.24,0h0Z" />
        </g>
        <path class="cls-22"
          d="M27.26,74.31h11.29c.29,0,.29-.45,0-.45h-11.29c-.29,0-.29,.45,0,.45h0Z" />
        <path class="cls-18"
          d="M50.66,74.48c.33,1.03,1.22,1.84,2.32,1.92,.55,.04,1.11-.1,1.58-.4,.53-.34,.78-.99,1.31-1.3,.82-.47,1.63,.16,2.06,.84,.27,.43,.54,.78,1.08,.83,1.14,.1,1.71-1.02,1.78-1.99,.02-.21-.31-.21-.33,0-.05,.57-.24,1.22-.78,1.52-.26,.14-.59,.19-.88,.09-.35-.12-.49-.47-.68-.76-.46-.7-1.27-1.21-2.12-.95-.42,.12-.68,.42-.94,.75-.37,.47-.76,.82-1.36,.97-1.21,.3-2.37-.46-2.74-1.62-.06-.2-.38-.11-.32,.09h0Z" />
        <path class="cls-18"
          d="M61.15,74.42c-.06,.6-.15,1.26-.58,1.73-.14,.16,.09,.39,.23,.23,.49-.54,.6-1.26,.68-1.96,0-.09-.08-.16-.16-.16-.1,0-.15,.08-.16,.16h0Z" />
        <g>
          <path class="cls-22"
            d="M48.84,74.53h23.6c1.2,0,3.51,.48,2.55-1.54-.81-1.7-2.82-1.38-4.36-1.38h-26.6c-.53,0-1.07-.03-1.6,0-.72,.04-1.38,.3-1.86,.86-.31,.37-.9,1.45-.42,1.91,.24,.23,.7,.15,.98,.15h6.57c.29,0,.29-.45,0-.45h-5.15c-.48,0-1.27,.15-1.74,0-.06-.02-.25,.04-.3,0-.62-.57,.98-1.83,1.33-1.93,.26-.08,.52-.07,.79-.08,.57-.02,1.14,0,1.7,0h24.75c1.23,0,2.49-.09,3.71,0,.67,.05,1.26,.29,1.65,.89,.16,.24,.49,.93,.26,1.13-.06,.05-.35,0-.42,0-.76,.04-1.54,0-2.3,0h-23.13c-.29,0-.29,.45,0,.45h0Z" />
          <g>
            <g>
              <path class="cls-22"
                d="M44.88,70.3c-.46,.01-.77,.37-.77,.82v.71c0,.12,.1,.23,.23,.23h2.41c.12,0,.23-.1,.23-.23v-.47c0-.2,.02-.4-.07-.59-.13-.29-.41-.46-.72-.46-.16,0-.32,0-.49,0-.29,0-.29,.45,0,.45h.44c.18,0,.35,.07,.38,.27,.02,.13,0,.27,0,.4v.42l.23-.23h-2.41l.23,.23v-.61c0-.08,0-.16,.01-.23,.04-.14,.16-.23,.31-.24,.29,0,.29-.46,0-.45h0Z" />
              <path class="cls-22"
                d="M49.64,70.3h-1.14c-.22,0-.43,0-.61,.14-.26,.18-.33,.45-.33,.75v.64c0,.12,.1,.23,.23,.23h2.41c.12,0,.23-.1,.23-.23v-.71c0-.45-.31-.81-.77-.82-.29,0-.29,.44,0,.45,.14,0,.26,.09,.31,.22,.03,.08,.02,.17,.02,.25v.61l.23-.23h-2.41l.23,.23v-.51c0-.17-.03-.37,.11-.49,.11-.1,.26-.08,.4-.08h1.13c.29,0,.29-.45,0-.45Z" />
            </g>
            <g>
              <path class="cls-22"
                d="M51.96,70.3c-.46,.01-.77,.37-.77,.82v.71c0,.12,.1,.23,.23,.23h2.41c.12,0,.23-.1,.23-.23v-.5c0-.22,.01-.44-.1-.64-.15-.27-.43-.4-.72-.4h-.51c-.29,0-.29,.45,0,.45h.46c.17,0,.33,.02,.41,.21,.05,.13,.02,.31,.02,.44v.44l.23-.23h-2.41l.23,.23v-.61c0-.08,0-.16,.01-.23,.04-.14,.16-.23,.31-.24,.29,0,.29-.46,0-.45h0Z" />
              <path class="cls-22"
                d="M56.73,70.3h-1.14c-.22,0-.43,0-.61,.14-.26,.18-.33,.45-.33,.75v.64c0,.12,.1,.23,.23,.23h2.41c.12,0,.23-.1,.23-.23v-.71c0-.45-.31-.81-.77-.82-.29,0-.29,.44,0,.45,.14,0,.26,.09,.31,.22,.03,.08,.02,.17,.02,.25v.61l.23-.23h-2.41l.23,.23v-.51c0-.17-.03-.37,.11-.49,.11-.1,.26-.08,.4-.08h1.13c.29,0,.29-.45,0-.45Z" />
            </g>
            <g>
              <path class="cls-22"
                d="M59,70.3c-.46,.01-.77,.37-.77,.82v.71c0,.12,.1,.23,.23,.23h2.41c.12,0,.23-.1,.23-.23v-.47c0-.2,.02-.4-.07-.59-.13-.29-.41-.46-.72-.46-.16,0-.33,0-.49,0-.29,0-.29,.45,0,.45h.45c.18,0,.35,.07,.38,.27,.02,.13,0,.27,0,.4v.42l.23-.23h-2.41l.23,.23v-.61c0-.08,0-.16,.01-.23,.04-.14,.16-.23,.31-.24,.29,0,.29-.46,0-.45h0Z" />
              <path class="cls-22"
                d="M63.77,70.3h-1.14c-.22,0-.43,0-.61,.14-.26,.18-.33,.45-.33,.75v.64c0,.12,.1,.23,.23,.23h2.41c.12,0,.23-.1,.23-.23v-.71c0-.45-.31-.81-.77-.82-.29,0-.29,.44,0,.45,.14,0,.26,.09,.31,.22,.03,.08,.02,.17,.02,.25v.61l.23-.23h-2.41l.23,.23v-.51c0-.17-.03-.37,.11-.49,.11-.1,.26-.08,.4-.08h1.13c.29,0,.29-.45,0-.45Z" />
            </g>
            <g>
              <path class="cls-22"
                d="M66.27,70.3c-.46,.01-.77,.37-.77,.82v.71c0,.12,.1,.23,.23,.23h2.41c.12,0,.23-.1,.23-.23v-.5c0-.21,.01-.42-.08-.61-.14-.28-.42-.42-.72-.42-.17,0-.34,0-.5,0-.29,0-.29,.45,0,.45h.46c.17,0,.33,.05,.38,.24,.04,.13,.01,.29,.01,.42v.43l.23-.23h-2.41l.23,.23v-.61c0-.08,0-.16,.01-.23,.04-.14,.16-.23,.31-.24,.29,0,.29-.46,0-.45h0Z" />
              <path class="cls-22"
                d="M71.03,70.3h-1.14c-.22,0-.43,0-.61,.14-.26,.18-.33,.45-.33,.75v.64c0,.12,.1,.23,.23,.23h2.41c.12,0,.23-.1,.23-.23v-.71c0-.45-.31-.81-.77-.82-.29,0-.29,.44,0,.45,.14,0,.26,.09,.31,.22,.03,.08,.02,.17,.02,.25v.61l.23-.23h-2.41l.23,.23v-.51c0-.17-.03-.37,.11-.49,.11-.1,.26-.08,.4-.08h1.13c.29,0,.29-.45,0-.45Z" />
            </g>
          </g>
        </g>
        <path class="cls-22"
          d="M110.73,73.54h33.12c.62,0,1.62-.19,2.22,0,.04,.01,.14-.03,.17,0-.15-.12-.08,.31-.08,.45,0,.34,.07,2.21,.02,2.22-.26,.11-.15,.54,.12,.43,.39-.16,.31-.52,.31-.89,0-.64,.21-1.68,0-2.29-.16-.46-.48-.38-.9-.38h-34.99c-.29,0-.29,.45,0,.45h0Z" />
        <path class="cls-22"
          d="M112.99,73.54h34.24c.33,0,.7-.05,1.02,0,.39,.06,.14-.16,.19,.2,.06,.44,0,.92,0,1.37,0,.23,.14,.97,0,1.16,.02-.03,.12-.12-.03-.06-.21,.09-.67,0-.89,0H18.47c-.28,0-.72,.09-.99,0-.04-.01-.13,.02-.16,0,.16,.12,.07-.27,.08-.41,.02-.54,0-1.09,0-1.64,0-.64-.23-.66,.4-.62,.72,.04,1.45,0,2.17,0h9.93c.29,0,.29-.45,0-.45h-10.43c-.61,0-2.25-.35-2.52,.37-.09,.24,0,.67,0,.93,0,.54-.06,1.13,0,1.67,.04,.35,.01,.47,.37,.6,.54,.19,1.49,0,2.06,0h127.04c.57,0,1.54,.19,2.09,0,.35-.12,.33-.24,.37-.58,.09-.67,.21-1.96,0-2.6-.17-.53-.68-.39-1.16-.39h-34.74c-.29,0-.29,.45,0,.45h0Z" />
        <path class="cls-22"
          d="M106.91,81.51h-4.32c-.22,0-.4-.18-.4-.4v-1.93c0-.14,.11-.25,.25-.25s.25,.11,.25,.25v1.83h4.12v-1.79c0-.14,.11-.25,.25-.25s.25,.11,.25,.25v1.9c0,.22-.18,.4-.4,.4Z" />
        <path class="cls-22"
          d="M112.81,81.51h-4.32c-.22,0-.4-.18-.4-.4v-1.93c0-.14,.11-.25,.25-.25s.25,.11,.25,.25v1.83h4.12v-1.79c0-.14,.11-.25,.25-.25s.25,.11,.25,.25v1.9c0,.22-.18,.4-.4,.4Z" />
        <circle class="cls-28" cx="113.18" cy="77.81" r=".67" />
        <circle class="cls-7" cx="115.29" cy="77.81" r=".67" />
      </g>
    </g>
  </g>
</svg>