<?xml version="1.0" encoding="UTF-8"?>
<svg id="Layer_2" data-name="Layer 2" xmlns="http://www.w3.org/2000/svg" viewBox="0 0 696.57 475.81">
  <defs>
    <style>
      .cls-1 {
      fill: #f96335;
      }

      .cls-2 {
      fill: #ed9a7a;
      }

      .cls-3 {
      fill: #eaedf4;
      }

      .cls-4 {
      fill: #ea911b;
      }

      .cls-5, .cls-6 {
      fill: #fff;
      }

      .cls-7 {
      fill: #ffdeb3;
      }

      .cls-8 {
      fill: #ffba57;
      }

      .cls-9 {
      fill: #ff4257;
      }

      .cls-10, .cls-11 {
      fill: #fc8c60;
      }

      .cls-12 {
      fill: #feb999;
      }

      .cls-13 {
      fill: #67a3c4;
      }

      .cls-14 {
      fill: #c1b1aa;
      }

      .cls-15, .cls-16 {
      fill: #306c90;
      }

      .cls-17 {
      fill: #cdd5e8;
      }

      .cls-18 {
      fill: #cb7a57;
      }

      .cls-19 {
      fill: #e0dcda;
      }

      .cls-20 {
      fill: #215063;
      }

      .cls-21 {
      fill: #19af55;
      }

      .cls-22 {
      fill: #0a6ea5;
      }

      .cls-23 {
      fill: #0d6799;
      }

      .cls-24 {
      fill: #1c88d1;
      }

      .cls-25 {
      fill: #3bcc76;
      }

      .cls-26 {
      fill: #1b88d1;
      }

      .cls-27 {
      fill: #3a0b0e;
      }

      .cls-28, .cls-29 {
      fill: #3c4456;
      }

      .cls-30 {
      fill: #616779;
      }

      .cls-31 {
      fill: #5f1112;
      }

      .cls-32 {
      fill: #50adf8;
      }

      .cls-11 {
      opacity: .57;
      }

      .cls-16 {
      opacity: .51;
      }

      .cls-6 {
      opacity: .42;
      }

      .cls-29 {
      opacity: .39;
      }
    </style>
  </defs>
  <g id="Layer_1-2" data-name="Layer 1">
    <g>
      <path class="cls-1" d="M202.82,66.46c-4.61-25.19,7.27-52.6,28.8-66.46" />
      <rect class="cls-17" x="428.66" y="25.82" width="262.58" height="165.83" />
      <path class="cls-30"
        d="M432.84,202.94l-.08-1-13.4-166.29,1-.08L683.09,14.4l.08,1,13.4,166.29-1,.08-262.72,21.17Zm-11.33-165.46l13.16,163.3,259.74-20.93-13.16-163.3-259.74,20.93Z" />
      <path class="cls-10"
        d="M604.91,454.42c-.24-23.72-1.2-47.43-2.89-71.09s-4.11-47.26-7.25-70.77-6.99-46.97-11.55-70.26c-4.56-23.28-9.83-46.41-15.81-69.37s-12.66-45.72-20.04-68.26c-.92-2.8-1.85-5.6-2.79-8.4-.61-1.82-3.51-1.04-2.89,.8,7.51,22.38,14.34,44.98,20.47,67.78s11.61,46,16.36,69.24c4.72,23.13,8.74,46.4,12.05,69.77,3.34,23.58,5.94,47.26,7.81,70.99,1.86,23.53,3,47.12,3.41,70.72,.05,2.95,.09,5.9,.12,8.85,.02,1.93,3.02,1.93,3,0h0Z" />
      <g>
        <rect class="cls-5" x="445.07" y="52.13" width="31.87" height="31.87" />
        <rect class="cls-5" x="485.69" y="52.13" width="31.87" height="31.87" />
        <rect class="cls-5" x="526.31" y="52.13" width="31.87" height="31.87" />
        <rect class="cls-5" x="566.93" y="52.13" width="31.87" height="31.87" />
      </g>
      <g>
        <rect class="cls-5" x="445.07" y="94.04" width="31.87" height="31.87" />
        <rect class="cls-5" x="485.69" y="94.04" width="31.87" height="31.87" />
        <rect class="cls-5" x="526.31" y="94.04" width="31.87" height="31.87" />
        <rect class="cls-5" x="566.93" y="94.04" width="31.87" height="31.87" />
      </g>
      <rect class="cls-3" x="10.09" y="388.25" width="112.2" height="29.82"
        transform="translate(86.09 -4.91) rotate(12.12)" />
      <rect class="cls-17" x=".83" y="397.01" width="112.2" height="1.36"
        transform="translate(84.74 -3.09) rotate(12.12)" />
      <rect class="cls-17" x="8.78" y="408.92" width="112.2" height=".68"
        transform="translate(87.34 -4.5) rotate(12.12)" />
      <polyline class="cls-17" points="15.92 388.89 14.19 396.96 49.27 396.75" />
      <circle class="cls-17" cx="54.17" cy="406.75" r="2.37" />
      <rect class="cls-3" x="10.21" y="418.8" width="112.2" height="29.82" />
      <rect class="cls-17" y="429.64" width="112.2" height="1.36" />
      <rect class="cls-17" x="10.21" y="439.61" width="112.2" height=".68" />
      <polyline class="cls-17" points="14.16 430.31 14.16 438.57 48.42 430.99" />
      <circle class="cls-17" cx="55.31" cy="439.74" r="2.37" />
      <rect class="cls-7" x="70.32" y="223.01" width="74.83" height="221.53"
        transform="translate(54.61 -12.91) rotate(9.18)" />
      <rect class="cls-5" x="86.21" y="229" width="60.99" height="98.27"
        transform="translate(45.85 -15.05) rotate(9.18)" />
      <path class="cls-17"
        d="M100.38,245.14c12.68,1.23,25.35,2.46,38.03,3.7,1.44,.14,1.43-2.11,0-2.25-12.68-1.23-25.35-2.46-38.03-3.7-1.44-.14-1.43,2.11,0,2.25h0Z" />
      <path class="cls-17"
        d="M97.68,260.97c12.68,1.23,25.35,2.46,38.03,3.7,1.44,.14,1.43-2.11,0-2.25-12.68-1.23-25.35-2.46-38.03-3.7-1.44-.14-1.43,2.11,0,2.25h0Z" />
      <path class="cls-17"
        d="M96.14,277.42c12.68,1.23,25.35,2.46,38.03,3.7,1.44,.14,1.43-2.11,0-2.25-12.68-1.23-25.35-2.46-38.03-3.7-1.44-.14-1.43,2.11,0,2.25h0Z" />
      <path class="cls-1"
        d="M278.79,30.12c13.29-1.08,26.69,1.89,38.25,8.56,1.68,.97,3.19-1.62,1.51-2.59-11.98-6.92-25.97-10.1-39.76-8.97-1.91,.16-1.93,3.16,0,3h0Z" />
      <path class="cls-1"
        d="M277.67,35.4c13.29-1.08,26.69,1.89,38.25,8.56,1.68,.97,3.19-1.62,1.51-2.59-11.98-6.92-25.97-10.1-39.76-8.97-1.91,.16-1.93,3.16,0,3h0Z" />
      <g>
        <path class="cls-25"
          d="M566.54,171.14c-13.05-26.9-40.85-46.05-70.64-48.66-7.41-.65-15.3-.23-21.59,3.74-11.48,7.24-13.43,23.45-10.49,36.7,5.1,22.92,21.59,42.87,42.88,52.79,21.29,9.92,46.86,9.8,68.33,.28" />
        <g>
          <ellipse class="cls-5" cx="514.38" cy="194.19" rx="9.98" ry="6.73" />
          <circle class="cls-5" cx="504.41" cy="182.46" r="3.36" />
        </g>
        <g>
          <path class="cls-21"
            d="M518.68,173.6c5.46-6.84,9.17-14.92,10.68-23.56,.25-1.42-1.92-2.02-2.17-.6-1.43,8.23-4.88,16.03-10.1,22.56-.9,1.12,.69,2.72,1.59,1.59h0Z" />
          <path class="cls-21"
            d="M501.58,162.38c-4.57,5.42-11.75,6.87-18.38,8.09-1.42,.26-.82,2.43,.6,2.17,7-1.29,14.56-2.96,19.38-8.67,.93-1.1-.66-2.7-1.59-1.59h0Z" />
        </g>
        <g>
          <path class="cls-21"
            d="M483.13,141c7.06,11.58,16.46,21.62,27.4,29.62,10.95,8.01,23.45,13.96,36.59,17.34,7.45,1.91,15.11,2.98,22.8,3.17,1.45,.04,1.45-2.21,0-2.25-13.28-.32-26.45-3.38-38.58-8.78s-23.21-13.05-32.49-22.53c-5.25-5.36-9.87-11.29-13.78-17.7-.75-1.23-2.7-.11-1.94,1.14h0Z" />
          <path class="cls-21"
            d="M547.99,188.1c-1.66,8.11-6.2,15.53-12.8,20.57-1.14,.87-.02,2.82,1.14,1.94,7.06-5.39,12.05-13.19,13.83-21.91,.29-1.41-1.88-2.02-2.17-.6h0Z" />
        </g>
      </g>
      <g>
        <path class="cls-25"
          d="M580.84,239.22c2.24-24.76,18.22-47.83,40.61-58.62,5.57-2.68,11.83-4.68,17.89-3.44,11.06,2.26,17.34,14.28,18.95,25.45,2.78,19.32-4.18,39.69-17.81,53.66-13.63,13.97-33.56,21.4-53.05,20.32" />
        <g>
          <ellipse class="cls-5" cx="628.18" cy="241.79" rx="8.29" ry="5.59"
            transform="translate(-44.92 237.92) rotate(-20.72)" />
          <circle class="cls-5" cx="632.49" cy="229.74" r="2.8" />
        </g>
        <g>
          <path class="cls-21"
            d="M618.78,227.05c-6.26-3.71-11.52-8.91-15.23-15.18-.61-1.03,.9-2.14,1.51-1.1,3.54,5.98,8.51,11.03,14.49,14.57,1.03,.61,.27,2.32-.77,1.71h0Z" />
          <path class="cls-21"
            d="M628.78,213.3c5.15,2.87,11.16,1.89,16.68,.88,1.18-.22,1.35,1.65,.17,1.86-5.82,1.06-12.19,1.98-17.62-1.04-1.05-.58-.28-2.29,.77-1.71h0Z" />
        </g>
        <g>
          <path class="cls-21"
            d="M636.84,191.25c-2.08,11.08-6.44,21.65-12.59,31.09s-14.12,17.75-23.35,24.24c-5.23,3.68-10.87,6.76-16.8,9.17-1.12,.45-1.78-1.3-.66-1.75,10.23-4.16,19.57-10.41,27.41-18.18,7.83-7.76,14.21-16.97,18.64-27.08,2.5-5.71,4.35-11.69,5.5-17.82,.22-1.18,2.07-.88,1.84,.31h0Z" />
          <path class="cls-21"
            d="M600.26,246.95c3.67,5.82,9.39,10.25,16,12.23,1.14,.34,.84,2.19-.31,1.84-7.08-2.12-13.25-6.71-17.2-12.97-.64-1.01,.87-2.12,1.51-1.1h0Z" />
        </g>
      </g>
      <g>
        <path class="cls-25"
          d="M601.95,387.09c5.99-24.13,25.32-44.48,49.1-51.72,5.91-1.8,12.4-2.81,18.2-.67,10.58,3.92,14.96,16.76,14.84,28.05-.21,19.52-10.19,38.59-25.8,50.31-15.61,11.72-36.43,16.02-55.53,11.98" />
        <g>
          <ellipse class="cls-5" cx="648.34" cy="396.87" rx="8.29" ry="5.59"
            transform="translate(-68.05 142.62) rotate(-11.93)" />
          <circle class="cls-5" cx="654.44" cy="385.62" r="2.8" />
        </g>
        <g>
          <path class="cls-21"
            d="M641.3,380.86c-5.62-4.62-10.03-10.56-12.73-17.33-.44-1.11,1.21-1.98,1.66-.86,2.58,6.45,6.72,12.2,12.09,16.62,.92,.76-.09,2.33-1.02,1.57h0Z" />
          <path class="cls-21"
            d="M653.29,368.8c4.65,3.62,10.74,3.57,16.34,3.42,1.2-.03,1.08,1.84-.11,1.87-5.92,.16-12.35,.1-17.25-3.72-.94-.74,.07-2.31,1.02-1.57h0Z" />
        </g>
        <g>
          <path class="cls-21"
            d="M664.62,348.24c-3.75,10.64-9.67,20.41-17.19,28.8-7.53,8.4-16.67,15.39-26.78,20.39-5.73,2.84-11.78,5.02-18,6.5-1.17,.28-1.56-1.55-.39-1.83,10.74-2.54,20.93-7.3,29.87-13.78,8.92-6.47,16.64-14.6,22.55-23.91,3.35-5.26,6.09-10.88,8.16-16.77,.4-1.13,2.18-.55,1.78,.59h0Z" />
          <path class="cls-21"
            d="M619.95,397.7c2.74,6.31,7.72,11.57,13.94,14.53,1.07,.51,.5,2.29-.59,1.78-6.67-3.17-12.07-8.66-15.02-15.44-.48-1.1,1.18-1.96,1.66-.86h0Z" />
        </g>
      </g>
      <g>
        <path class="cls-25"
          d="M594.18,329.84c-9.31-23.05-31.28-40.51-55.84-44.36-6.11-.96-12.68-1.05-18.12,1.88-9.93,5.36-12.47,18.69-10.77,29.84,2.93,19.3,15.48,36.78,32.58,46.21,17.09,9.43,38.31,10.78,56.66,4.1" />
        <g>
          <ellipse class="cls-5" cx="549.61" cy="346" rx="5.59" ry="8.29"
            transform="translate(167 870.78) rotate(-86.1)" />
          <circle class="cls-5" cx="541.99" cy="335.72" r="2.8" />
        </g>
        <g>
          <path class="cls-21"
            d="M554.34,329.17c4.92-5.36,8.45-11.86,10.19-18.93,.28-1.16-1.48-1.79-1.77-.62-1.65,6.75-4.95,13.02-9.65,18.14-.81,.88,.42,2.3,1.23,1.41h0Z" />
          <path class="cls-21"
            d="M540.79,318.9c-4.09,4.24-10.14,5.03-15.71,5.67-1.19,.14-.82,1.97,.37,1.83,5.88-.67,12.25-1.63,16.56-6.09,.83-.86-.39-2.28-1.23-1.41h0Z" />
        </g>
        <g>
          <path class="cls-21"
            d="M526.69,300.12c5.2,10.01,12.43,18.86,21.05,26.12,8.63,7.27,18.66,12.91,29.37,16.45,6.07,2.01,12.37,3.33,18.73,3.92,1.2,.11,1.33-1.76,.13-1.87-10.99-1.02-21.75-4.3-31.5-9.47-9.74-5.16-18.51-12.13-25.67-20.53-4.05-4.74-7.55-9.93-10.42-15.46-.55-1.07-2.23-.24-1.68,.83h0Z" />
          <path class="cls-21"
            d="M577.83,342.86c-1.83,6.63-6.02,12.53-11.78,16.33-.99,.66-.17,2.34,.83,1.68,6.16-4.07,10.74-10.26,12.71-17.39,.32-1.16-1.44-1.78-1.77-.62h0Z" />
        </g>
      </g>
      <path class="cls-12"
        d="M203.83,125.94c-4.49,2.61-7.57,7.32-8.67,12.4s-.32,10.45,1.68,15.24c2.98,7.1,8.97,13.16,16.43,15.08,7.46,1.92,16.22-.94,20.22-7.53,1.72-2.83,2.51-6.13,2.96-9.42,.65-4.72,.58-9.73-1.55-13.99-1.63-3.24-4.33-5.81-7.16-8.08-2.93-2.35-6.11-4.48-9.68-5.64-3.57-1.16-7.6-1.26-10.99,.36" />
      <path class="cls-1"
        d="M249.96,25.69c11.57-4.71,24.9-1.79,36.28,3.36,16.33,7.39,31.57,21.03,33.66,38.83,.62,5.31-.25,11.3-4.31,14.78-2.49,2.13-5.8,2.99-9.01,3.64-14.58,2.92-29.81,2.53-44.22-1.13-4.93-1.25-10.78-4.3-10.36-9.37" />
      <path class="cls-28"
        d="M146.51,413.41c-7.15-31.42-14.29-62.85-21.44-94.27-1.86-8.19-3.73-16.7-1.96-24.92,1.71-7.92,6.63-14.72,11.48-21.22,19.69-26.43,42.92-54.12,75.27-60.42,12.78-2.49,25.95-1.35,38.91-.07,30.83,3.05,62.52,7.12,89.44,22.45,6.53,3.72,12.83,8.19,17.19,14.31,4.72,6.62,6.85,14.69,8.71,22.6,10.09,42.71,15.17,86.6,15.1,130.48" />
      <path class="cls-17"
        d="M162.42,395.01c-7.15-31.42-14.29-62.85-21.44-94.27-1.86-8.19-3.73-16.7-1.96-24.92,1.71-7.92,6.63-14.72,11.48-21.22,19.69-26.43,42.92-54.12,75.27-60.42,12.78-2.49,25.95-1.35,38.91-.07,30.83,3.05,62.52,7.12,89.44,22.45,6.53,3.72,12.83,8.19,17.19,14.31,4.72,6.62,6.85,14.69,8.71,22.6,10.09,42.71,15.17,86.6,15.1,130.48" />
      <path class="cls-29"
        d="M164.9,301.94c-1.84-5.23-3.69-10.56-4.41-16.08s-.05-10.85,2.33-15.86c2.18-4.6,5.16-8.83,7.99-13.06s5.61-8.2,8.63-12.15c11.76-15.41,26.64-29.23,45.77-34.43,10.33-2.81,21.35-2.89,31.43,.93,1.36,.51,1.94-1.66,.6-2.17-18.69-7.08-39.94-1.15-55.63,10.19-8.31,6.01-15.48,13.43-21.84,21.44-3.19,4.02-6.21,8.18-9.1,12.41s-6.01,8.72-8.55,13.33c-3.01,5.46-4.54,11.27-4.05,17.53s2.57,12.52,4.68,18.53c.48,1.36,2.65,.77,2.17-.6h0Z" />
      <path class="cls-1"
        d="M325.04,115.74c6.83-12.54,7.28-28.35,1.19-41.27-2.55-5.4-6.15-10.29-8.39-15.82-1.94-4.79-2.95-10.22-6.58-13.91-3.25-3.31-8.23-4.61-12.83-3.95s-8.8,3.11-12.17,6.3" />
      <path class="cls-12"
        d="M320.45,75.09c-6.29-12.55-17.4-22.35-30.45-27.42-3.72-1.45-7.59-2.47-11.54-3.06-1.89-.28-2.7,2.61-.8,2.89,13.32,1.99,25.56,9.1,34.05,19.54,2.4,2.94,4.44,6.17,6.14,9.57,.87,1.73,3.45,.21,2.59-1.51h0Z" />
      <path class="cls-32"
        d="M362.23,247.7c11.4,2.17,22.8,4.34,34.2,6.51,8.27,1.57,17.43,3.72,22.06,10.75,2.25,3.42,3.08,7.55,3.87,11.56,2.1,10.73,4.2,21.47,6.3,32.2h-72.06" />
      <path class="cls-24"
        d="M405.95,257.88c.99,4.21,1.51,8.57,1.87,12.88,.78,9.32,.51,18.86-1.66,27.98-1.35,5.7-3.48,11.21-6.63,16.16-.52,.82,.78,1.57,1.3,.76,5.61-8.82,8.01-19.28,8.68-29.61,.51-7.95,.03-15.98-1.22-23.84-.25-1.58-.52-3.17-.89-4.73-.22-.94-1.67-.54-1.45,.4h0Z" />
      <polyline class="cls-22" points="366.86 246.65 363.68 227.38 355.28 222.55 353.59 239.45" />
      <polyline class="cls-22" points="368.65 298.94 383.16 250.75 351.7 237.38" />
      <polygon class="cls-24"
        points="309.16 195.41 358.48 224.4 359.99 240.96 374.29 246.98 367.52 303.08 293.35 240.58 309.16 195.41" />
      <path class="cls-5"
        d="M364.3,283.37c-2.25-9.02-5.78-17.59-10.44-25.49-.69-1.18-1.41-2.34-2.15-3.49-4.82-7.43-10.66-14.19-17.38-20.07-1.27-1.12-2.58-2.21-3.92-3.26-6.02-4.73-12.85-8.23-20.1-10.35-5.44-1.6-11.11-2.43-16.84-2.43h-35.79l-3.46,10.11-3.15,9.2-2.3,6.72-20.08,58.68v145.68h140.05v-147.57l-4.44-17.73Zm-105.78-49.17c.76-.95,1.54-1.89,2.33-2.82l.78-.72,1.21-1.14c.41,1.27,.91,2.5,1.5,3.69l-1.18,1.29-.45,.48c-1.02,1.19-1.3,1.44-1.95,2.23-.18,.23-.4,.52-.68,.88-.01-.02-.02-.03-.03-.05-.19-.27-.37-.53-.55-.78-.57-.8-1.09-1.51-1.63-2.22,.21-.28,.43-.56,.65-.84Z" />
      <path class="cls-32"
        d="M170.17,450.55s74.92,0,74.92,0c.28-1.09,.55-2.18,.8-3.27,4.46-19.12,4.75-38.97,1.47-58.33l-7.35-43.35c-2.93-11.71-5.85-23.41-8.78-35.12-.74-2.96-2.03-6.2-1.25-9.24,1.1-4.25,2.87-7.36,3.47-12,.75-5.75,2.3-11.39,4.57-16.72,.98-2.29,2.74-13.99,5.45-14.23-37.71,3.34-82.77,21.33-99.28,58.27-12.11,27.09-5.26,54.38-5.26,82.69v54.13l52.3,1.91" />
      <path class="cls-22"
        d="M220,273.86l1.73,15.85,16.09,47.44-44.05-33.6,21.96-18.81-4.83-1.7-19.68-4.9,13.46-8c.49-.19-1.42,.76-.92,.59l15.88-1.31,.35,4.45Z" />
      <path class="cls-24"
        d="M265.3,227.22l-2.14,2-.29,.27-.03,.03-1.21,1.14-.78,.72c-.79,.93-1.57,1.87-2.33,2.82-.22,.28-.44,.56-.65,.84-.61,.77-1.2,1.55-1.77,2.35-1.69,2.32-3.26,4.75-4.71,7.26-11.71,20.06-16.4,45.44-14.89,68.33l1.6,24.27-9.41-9.22-27.17-26.63,18.53-15.7-.16-2.05-31.48-11.44,29.52-31.88,1.39-1.49,29.82-32.2,5.67-6.12,.3-.32,1.16-1.26,1.06-1.14,3.2-3.46,.06-.06v.07s.98,5.72,.98,5.72h0s.01,.03,.01,.03l.7,4.14h0s1.84,14.04,1.84,14.04l1.18,8.94Z" />
      <path class="cls-5"
        d="M264.34,233.21l-1.18,1.29-.45,.48c-1.02,1.19-1.3,1.44-1.95,2.23-.18,.23-.4,.52-.68,.88-.01-.02-.02-.03-.03-.05-.19-.27-.37-.53-.55-.78-.57-.8-1.09-1.51-1.63-2.22,.21-.28,.43-.56,.65-.84,.76-.95,1.54-1.89,2.33-2.82l.78-.72,1.21-1.14c.41,1.27,.91,2.5,1.5,3.69Z" />
      <path class="cls-22"
        d="M249.14,206.64l5.67-6.12-.43-1.52,.33-.25,.4,1.45,4.98,18.08,2.65,9.62c.13,.46,.27,.9,.42,1.32,.44,1.23,.97,2.32,1.58,3.55l-.4,.44c-.59-1.19-1.09-2.42-1.5-3.69l-1.21,1.14-.78,.72c-.79,.93-1.57,1.87-2.33,2.82-.22,.28-.44,.56-.65,.84-.02-.02-.04-.03-.06-.05-3.37-2.58-5.57-6.39-6.16-10.59l-2.51-17.77Z" />
      <ellipse class="cls-5" cx="233" cy="354.78" rx="3.39" ry="4.94"
        transform="translate(-50.41 38.81) rotate(-8.6)" />
      <ellipse class="cls-5" cx="238.36" cy="394.84" rx="3.39" ry="4.94"
        transform="translate(-56.33 40.06) rotate(-8.6)" />
      <ellipse class="cls-5" cx="237.76" cy="438.49" rx="4.45" ry="2.62"
        transform="translate(-247.55 553.73) rotate(-74.89)" />
      <path class="cls-24"
        d="M185.59,405.48c8.75-16.38,.44-66.85,.44-66.85,0,0,18.2,73.34,12.27,95.08" />
      <path class="cls-5"
        d="M242.63,359.93s63.89,2.64,83.47-5.27v95.51s-81.44,.11-81.44,.11l-2.04-90.34Z" />
      <path class="cls-24"
        d="M245.9,446.63c-.26,1.1-.45,2.57-.73,3.65h-9.74c9.87-35.18,8.16-74.97,6.47-94.24l5.47,32.27c3.28,19.35,2.99,39.21-1.47,58.32Z" />
      <ellipse class="cls-5" cx="241.28" cy="439.64" rx="1.76" ry="2.12" />
      <polygon class="cls-32"
        points="240.01 358.74 238.23 345.54 236.21 338.77 237.17 338.49 239.21 345.34 241 358.61 240.01 358.74" />
      <path class="cls-24"
        d="M167.7,289.51c5.64,4.22,9.61,10.49,11.03,17.38,.81,3.93,1.62,7.86,2.42,11.79,2.49,12.12,4.98,24.23,7.48,36.35,.63,3.04,1.25,6.09,1.88,9.13,.19,.94,1.64,.54,1.45-.4-1.72-8.36-3.44-16.71-5.16-25.07l-6.54-31.8c-1.53-7.46-5.68-14.11-11.8-18.68-.77-.58-1.52,.72-.76,1.3h0Z" />
      <path class="cls-13"
        d="M118.58,445.17c0-9.86-8-17.86-17.86-17.86s-17.86,8-17.86,17.86v5.89h35.72v-5.89Z" />
      <path class="cls-16"
        d="M118.58,445.17v5.17c0-9.86-8-17.86-17.86-17.86s-17.86,8-17.86,17.86v-5.17c0-9.86,7.99-17.86,17.86-17.86s17.86,8,17.86,17.86Z" />
      <ellipse class="cls-20" cx="100.72" cy="438.47" rx="3.01" ry="6.07" />
      <path class="cls-15"
        d="M128.33,449.07h-49.88c-.55,0-1-.45-1-1s.45-1,1-1h49.88c.55,0,1,.45,1,1s-.45,1-1,1Z" />
      <path class="cls-15"
        d="M553.17,455.4H56.68c-.42,0-.8-.27-.94-.67-.14-.4-.01-.85,.32-1.11l13.55-10.86c.37-.29,.88-.29,1.25,0l6.03,4.83c.43,.34,.5,.97,.16,1.41-.34,.43-.97,.5-1.41,.16l-5.41-4.33-10.71,8.58h493.64c6.86,0,12.93-3.61,16.23-9.64,3.26-5.96,3.03-12.92-.62-18.6l-.19-.29c-.3-.46-.17-1.08,.29-1.38,.46-.3,1.08-.18,1.38,.29l.2,.3c4.05,6.32,4.31,14.04,.69,20.65-3.66,6.69-10.38,10.69-17.99,10.69Z" />
      <path class="cls-5"
        d="M310.31,220.71s7.54,18.18,1.26,29.76c-6.27,11.58-22.9,15.15-36.2,6.21-9.07-6.09-19.27-19.29-19.27-19.29,0,0,5.55-8.24,8.64-8.87" />
      <path class="cls-10"
        d="M327.77,151.74c6.69-2.12,12.01-9.29,12.89-17.37,.87-8.08-2.75-16.59-8.78-20.61-2.38-1.58-5.03-2.5-7.71-3.14-3.12-.75-6.51-1.13-9.37,.52l12.98,40.6Z" />
      <path class="cls-12"
        d="M311.61,199.74l-.03,.47-1.27,20.5-.49,7.89c-.15,2.39-.67,4.66-1.51,6.74-3.26,8.2-11.3,13.67-20.15,13.67-2.1,0-4.25-.31-6.39-.96-6.25-1.91-11.57-5.86-15.2-11.07-.81-1.16-1.54-2.38-2.17-3.65-.02-.04-.04-.08-.06-.12-.59-1.19-1.09-2.42-1.5-3.69-.16-.46-.3-.92-.43-1.38l-2.71-9.86-4.89-17.76-.43-1.52-.92-3.36h0s-.1-.37-.1-.37c0,0-.01,0-.01,0h0s-.47-1.73-.47-1.73l7.65,.81h.07s51.01,5.4,51.01,5.4Z" />
      <path class="cls-12"
        d="M290.96,206.7c7.9,0,15.58-2.6,21.86-7.39l.69-.52c6.68-5.1,11.37-12.38,13.25-20.57h0c5.03-21.94,5.55-44.67,1.53-66.82h0c-.48-2.62-.77-6.76-1.07-11.39-1-15.42-8.04-29.82-19.55-40.12h0s-30.87-20.33-30.87-20.33l-28.99,4.89-30.87,25.22-7.53,24.09,4.66,23.55c1.16,5.88,2.75,11.66,4.75,17.31l7.53,21.27c3.01,8.5,6.94,16.65,11.72,24.31h0s0,0,0,0h0c.08,.12,.17,.23,.25,.35,11.77,16.22,30.63,25.79,50.67,26.13l1.98,.03Z" />
      <path class="cls-10"
        d="M311.58,200.21l-.91,14.18c-1.67,.25-3.36,.37-5.07,.37l-1.98-.04c-19.57-.32-38.35-3.58-50.17-19.12l-.09-.35c10.34,7.17,22.74,11.2,35.62,11.42l1.98,.03c7.39,0,14.58-2.27,20.62-6.49Z" />
      <path class="cls-12"
        d="M220.43,137.78c1.94-5.89-1.59-11.67-2.51-17.4s-.63-11.59-3.43-16.82c-.91-1.7-3.5-.19-2.59,1.51,2.57,4.79,2.28,10.45,3.06,15.68,.41,2.74,1.29,5.33,2.07,7.99s1.42,5.47,.5,8.24c-.61,1.84,2.29,2.63,2.89,.8h0Z" />
      <rect class="cls-31" x="265.6" y="110.2" width="12.98" height="21.17" rx="5.93" ry="5.93"
        transform="translate(-21.47 71.38) rotate(-14.38)" />
      <circle class="cls-5" cx="273.14" cy="116.89" r="3.19" />
      <rect class="cls-31" x="308.83" y="102.2" width="12.98" height="20.92" rx="5.88" ry="5.88"
        transform="translate(-10.82 36.83) rotate(-6.57)" />
      <circle class="cls-5" cx="314.81" cy="108.67" r="3.19" />
      <ellipse class="cls-10" cx="213.26" cy="148.11" rx="9.04" ry="11.67"
        transform="translate(-43.81 184.6) rotate(-42.86)" />
      <path class="cls-5"
        d="M222.29,135.07c-.61,0-1.18-.37-1.41-.98-.29-.78,.11-1.64,.88-1.93l9.88-3.67c.77-.29,1.64,.11,1.93,.88,.29,.78-.11,1.64-.88,1.93l-9.88,3.67c-.17,.06-.35,.09-.52,.09Z" />
      <path class="cls-5"
        d="M288.49,122.34c-.48,0-.95-.23-1.24-.65-.47-.68-.29-1.61,.39-2.08,.26-.18,6.34-4.28,12.62-1.53,.76,.33,1.1,1.22,.77,1.98-.33,.76-1.22,1.11-1.98,.77-4.73-2.07-9.67,1.22-9.72,1.25-.26,.18-.55,.26-.84,.26Z" />
      <circle class="cls-10" cx="243.47" cy="162.09" r="1.69" />
      <circle class="cls-10" cx="241.49" cy="171.97" r="1.41" />
      <circle class="cls-10" cx="254.76" cy="184.96" r="2.82" />
      <circle class="cls-10" cx="260.27" cy="166.18" r="1.27" />
      <circle class="cls-10" cx="256.32" cy="176.07" r=".99" />
      <circle class="cls-10" cx="241.35" cy="154.33" r="1.55" />
      <circle class="cls-10" cx="249.68" cy="170" r=".85" />
      <circle class="cls-10" cx="321.26" cy="152.91" r=".99" />
      <circle class="cls-10" cx="324.5" cy="160.4" r="1.13" />
      <circle class="cls-10" cx="323.09" cy="169.71" r=".85" />
      <circle class="cls-10" cx="328.03" cy="154.61" r=".71" />
      <path class="cls-27"
        d="M320.34,156.96c.22,5.49-3.21,11.76-6.86,15.81-5.67,6.28-12.66,7.69-20.42,4.57-9.82-3.94-14.52-13.35-22.88-16.37,7.97,2.62,16.63,2.8,24.96,1.7,7.78-1.02,16.25-2.69,25.2-5.71Z" />
      <path class="cls-9"
        d="M313.35,172.91c-5.65,6.16-12.6,7.53-20.31,4.45-1.48-.6-2.85-1.32-4.14-2.13,2.53-1.87,5.64-2.92,8.77-3.36,3.97-.55,8-.19,11.99,.22,1.25,.14,2.58,.32,3.69,.82Z" />
      <rect class="cls-15" x="204.41" y="443.29" width="123.11" height="7.36" rx="3.68" ry="3.68" />
      <path class="cls-20"
        d="M242.84,475.81c-6.33,0-12.5-2.13-17.59-6.19l-26.33-21c-.33-.27-.46-.71-.32-1.11,.14-.4,.52-.67,.94-.67h26.24c.55,0,1,.45,1,1s-.45,1-1,1h-23.38l24.1,19.22c6.4,5.1,14.63,6.93,22.59,5.01,7.96-1.92,14.45-7.3,17.82-14.76,.02-.05,.05-.1,.08-.15l7.28-10.88c.19-.28,.5-.44,.83-.44h22.96c.55,0,1,.45,1,1s-.45,1-1,1h-22.43l-6.94,10.37c-3.63,7.99-10.6,13.75-19.14,15.81-2.23,.54-4.48,.8-6.71,.8Z" />
      <rect class="cls-18" x="70.32" y="449.28" width="584.47" height="12.06" rx="6.03" ry="6.03" />
      <path class="cls-24"
        d="M249.61,404.48c-19.3-1.09-37.39-9.53-56.4-13.1-4.67-.88-9.4-1.46-14.13-1.97-4.77-.52-9.61-.96-14.35-.24s-9.45,2.73-12.55,6.39c-1.79,2.12-3.01,5.08-2.01,7.67,.58,1.51,1.82,2.66,3.02,3.74,5.13,4.61,10.42,9.04,15.86,13.29,2.04,1.59,4.11,3.17,6.43,4.31,5.7,2.82,12.34,2.81,18.7,2.74" />
      <path class="cls-26"
        d="M141.14,418.6c-6.12,9.19-7.95,21.63-.67,30.7,7.61,9.49,21.31,10.51,32.52,9.74,6.83-.47,13.8-1.93,19.51-5.89,1.93-1.34,3-4,1.61-6.16-1.24-1.92-4.09-3.05-6.16-1.61-1,.69-2.04,1.32-3.13,1.87-.3,.15-.61,.28-.91,.43-.68,.35,.97-.35-.22,.1-.63,.23-1.26,.47-1.9,.67-1.16,.37-2.34,.67-3.53,.91-.6,.12-1.2,.23-1.8,.33-.23,.04-1.13,.16-.22,.04-.41,.05-.81,.1-1.22,.14-2.5,.26-5.01,.34-7.52,.34-1.19,0-2.39,0-3.58-.06-.6-.03-1.2-.06-1.8-.11-.27-.02-.53-.05-.8-.07-.31-.03-1.21-.15-.4-.04-2.51-.36-4.96-.99-7.33-1.91,.82,.32,0,0-.19-.09-.3-.14-.59-.28-.89-.43-.47-.24-.93-.5-1.38-.77-.56-.34-1.11-.71-1.64-1.09,.15,.1,.63,.53-.03-.02-.3-.25-.6-.51-.89-.78-.41-.38-.8-.79-1.18-1.21-.2-.23-.4-.46-.58-.7,.1,.13,.51,.73,.07,.05-.29-.44-.57-.88-.83-1.34-.14-.25-.26-.51-.4-.76-.45-.81,.24,.77-.09-.18s-.63-1.92-.81-2.92c-.03-.18-.04-.52-.11-.66,.3,.58,.06,.66,.04,.19-.03-.62-.08-1.24-.07-1.86s.06-1.25,.1-1.88c.05-.74,0,.18-.04,.17-.02,0,.16-.98,.17-1.03,.23-1.2,.55-2.39,.94-3.55,.09-.28,.19-.56,.3-.83,.09-.23,.51-1.23,.08-.24,.24-.54,.49-1.08,.75-1.61,.58-1.16,1.25-2.27,1.97-3.35,1.31-1.96,.45-5.07-1.61-6.16-2.26-1.2-4.76-.48-6.16,1.61h0Z" />
      <g>
        <path class="cls-2"
          d="M392.61,386.65c.18-.34,24.64-9.96,34.35-13.77,2.21-.87,4.7,.11,5.73,2.25h0c1.18,2.42,0,5.33-2.53,6.25l-19.31,7.06" />
        <path class="cls-12"
          d="M406.35,397.8c-.65,.89-31.65,33.81-31.65,33.81h0c8.98,.95,17.76,3.24,26.06,6.79l6.18,2.65c2.21,.95,3.09,3.63,1.85,5.7h0c-.91,1.52-2.7,2.26-4.42,1.81l-5.05-1.13c-12.07-2.69-24.65-1.9-36.29,2.27h0s-19.99-4.85-19.99-4.85l-29.47-12.25,11.08-17.85,21.28-8.38,21.69-14.58c3.65-2.45,7.86-3.96,12.24-4.38l51.76-4.95c1.66-.16,3.25,.74,3.98,2.24h0c1.16,2.4-.32,5.24-2.95,5.68l-18.22,2.99,11.26-1.02c1.39-.13,2.75,.47,3.59,1.59h0c1.81,2.39,.49,5.84-2.45,6.42l-49.25,9.66" />
        <polygon class="cls-2" points="398.59 405.79 386.95 406.93 391.5 413.41 398.59 405.79" />
        <path class="cls-12"
          d="M321.83,435.86l-16.28,4.2c-42.93,11.07-87.14,16.48-131.44,15.98-6.83-.08-13.5-2.11-19.26-5.8h0s-6.62-4.19-6.62-4.19c-6.46-4.07-10.53-11.04-10.91-18.66h0c-.29-5.87,1.64-11.64,5.4-16.16h0c6.65-7.99,15.74-13.58,25.87-15.91l2.23-.51c5.71-1.32,11.62-1.57,17.42-.74l139.07,19.83" />
      </g>
      <path class="cls-24"
        d="M175.76,295.64c4.7-5.11,11.4-7.34,17.97-8.91,7.82-1.86,15.74-3.39,23.6-5.06,.94-.2,.54-1.65-.4-1.45-8.12,1.72-16.31,3.26-24.37,5.24-6.56,1.62-13.19,4.02-17.87,9.11-.65,.71,.41,1.77,1.06,1.06h0Z" />
      <path class="cls-10"
        d="M203.71,130.5c-6.5-8.25-11.32-17.96-13.09-28.32s-.36-21.37,4.74-30.56c2.57-4.62,6.77-9.12,12.06-9.08,3.46,.02,6.61,2.01,9.15,4.35,4.02,3.69,7.17,8.82,6.86,14.26-.19,3.33-1.64,6.44-2.78,9.58-4.77,13.19-4.08,27.65-3.32,41.65-3.53-3.26-9.09-4.12-13.45-2.08" />
      <path class="cls-10"
        d="M199.25,78.52c-.23-19.95,9.33-39.01,22.42-54.06,6.91-7.94,15.34-15.25,25.63-17.46-1.66,2.78-3.32,5.57-4.98,8.35,8.7-3.38,18.24-4.56,27.5-3.41-3.69,1.55-7.09,3.78-9.98,6.53,11.57-2,23.81,.21,33.96,6.11-11.23,2.09-21.78,7.65-29.86,15.72" />
      <path class="cls-10"
        d="M209.93,71.57c-7.4-3.87-15.87-5.09-24.14-4.28-7.82,.77-15.9,3.01-22.53,7.33-3.62,2.35-6.75,5.38-8.93,9.12-.98,1.67,1.62,3.18,2.59,1.51,3.59-6.14,9.96-9.94,16.53-12.21,7.22-2.5,15.03-3.61,22.64-2.68,4.29,.53,8.5,1.79,12.33,3.8,1.71,.89,3.23-1.69,1.51-2.59h0Z" />
      <path class="cls-10"
        d="M206.31,71.76c-3.62-6.46-10.87-9.63-17.87-10.87-4.44-.78-8.95-.93-13.43-1.35-2.35-.22-4.7-.52-7-1.05-1.95-.45-4.07-.96-5.71-2.17-3.23-2.39-2.88-7.08-.96-10.16s5.16-4.99,8.69-5.4c8.61-.99,15.69,5.23,20.75,11.42,6.4,7.84,11.9,16.55,16.5,25.56,.88,1.72,3.47,.2,2.59-1.51-4.46-8.7-9.78-16.97-15.79-24.68-5.35-6.85-12.28-13.34-21.43-13.85-4.12-.23-8.17,1.04-11.27,3.79-2.81,2.5-4.73,6.25-4.51,10.06,.61,10.56,14.26,10.72,22.11,11.32,8.82,.67,19.89,1.78,24.72,10.41,.94,1.68,3.54,.17,2.59-1.51h0Z" />
      <polyline class="cls-12" points="313.3 140.17 298.15 122.88 298.15 144.02" />
      <path class="cls-24"
        d="M188.02,287.98c2.07,2.66,3.74,5.65,4.93,8.81,.14,.38,.51,.64,.92,.52,.36-.1,.67-.54,.52-.92-1.29-3.42-3.08-6.59-5.32-9.47-.25-.32-.8-.26-1.06,0-.32,.32-.25,.74,0,1.06h0Z" />
      <path class="cls-10"
        d="M238.29,125.38c-.55-1.65-1.11-3.31-1.39-5.02-.19-1.15-.11-2.53,.19-3.56,.06-.2,.12-.39,.2-.59,.13-.33,.03-.05,0,0,.16-.32,.34-.64,.55-.92s.05-.04,0,0c.14-.15,.29-.29,.42-.43,0,0,.37-.33,.15-.15s.37-.25,.43-.29c1.23-.78,1.97-.97,3.53-1.4,2.82-.79,5.69-1.43,8.53-2.13,1.17-.29,2.34-.58,3.51-.87,1.57-.39,2.52-2.16,2.1-3.69s-2.11-2.48-3.69-2.1c-2.97,.73-5.94,1.47-8.92,2.2-1.34,.33-2.69,.64-4.01,1.05-3.76,1.15-6.88,3.2-8.34,6.98-1.58,4.1-.38,8.52,.94,12.51,.51,1.54,2.07,2.54,3.69,2.1,1.5-.41,2.61-2.15,2.1-3.69h0Z" />
      <path class="cls-6"
        d="M257.67,142.82c2.04-12.57,4.09-25.14,6.13-37.71,.26-1.6-.41-3.23-2.1-3.69-1.43-.39-3.43,.49-3.69,2.1-2.04,12.57-4.09,25.14-6.13,37.71-.26,1.6,.41,3.23,2.1,3.69,1.43,.39,3.43-.49,3.69-2.1h0Z" />
      <path class="cls-6"
        d="M265.24,143.99c2.28-14.05,4.57-28.1,6.85-42.15,.31-1.89-2.58-2.7-2.89-.8-2.28,14.05-4.57,28.1-6.85,42.15-.31,1.89,2.58,2.7,2.89,.8h0Z" />
      <path class="cls-5"
        d="M229.62,120.14c.92,5.29,1.91,10.43,3.96,15.41,1.06,2.59,2.5,4.92,4.96,6.38s5.25,1.93,7.98,2.35c6.42,.99,12.93,1.23,19.4,.65,3.14-.28,6.26-.74,9.35-1.38s5.96-1.3,8.61-2.76c10-5.56,6.9-19.1,3.65-27.73-1.91-5.07-4.17-11.16-9.64-13.26s-11.52-.16-16.77,.91c-7.24,1.48-14.43,3.25-21.53,5.32-4.68,1.36-10.4,3.79-10.77,9.38-.13,1.93,2.87,1.92,3,0,.27-4.05,5.6-5.63,8.8-6.56,5.64-1.63,11.32-3.08,17.05-4.35,2.83-.62,5.66-1.2,8.5-1.74,2.38-.45,4.78-.88,7.22-.79s4.69,.81,6.38,2.59,2.81,4.37,3.81,6.68c1.95,4.51,3.67,9.46,4.04,14.39,.31,4.06-.27,8.57-3.52,11.39-1.98,1.72-4.61,2.47-7.1,3.08-2.87,.7-5.78,1.24-8.71,1.59-5.68,.69-11.43,.75-17.12,.19-2.99-.29-6.09-.64-8.96-1.57s-4.58-2.81-5.74-5.55c-2.1-4.95-3.05-10.15-3.96-15.41-.33-1.9-3.22-1.09-2.89,.8h0Z" />
      <path class="cls-10"
        d="M305.74,107.87c-.1-2.25-.18-4.35,.41-6.28,.06-.19,.12-.38,.19-.57,.31-.86-.13,.22,.11-.24,.11-.22,.23-.44,.35-.65,.03-.06,.44-.67,.27-.43s.29-.32,.34-.37,.56-.53,.37-.36c-.16,.13,.44-.29,.45-.3,.22-.13,.44-.25,.67-.37,.07-.04,.67-.28,.27-.13,.19-.07,.39-.14,.58-.21,.49-.16,.99-.3,1.5-.42,1.12-.27,2.26-.5,3.39-.7,2.3-.41,4.31-.64,6.74-.79,1.56-.1,3.08-1.31,3-3-.07-1.54-1.32-3.11-3-3-2.91,.19-5.82,.55-8.69,1.07-2.51,.46-5.13,.97-7.36,2.28-5.14,3.02-5.81,9.06-5.57,14.46,.07,1.57,1.33,3.07,3,3,1.57-.07,3.07-1.32,3-3h0Z" />
      <path class="cls-5"
        d="M342.58,98.05c1.06,5.04,2.33,10.27,1.94,15.46-.27,3.49-2.12,6.67-4.48,9.17-5.34,5.65-13.48,8.99-21.16,9.56-3.5,.26-7.57,.09-10.63-1.83-3.94-2.47-5.6-7.47-6.4-11.81-.52-2.85-.7-5.77-.75-8.66-.05-3.1-.11-6.45,.76-9.45,1.55-5.31,7.25-6.61,12.03-7.55s9.27-1.26,14-1.61c4.11-.3,11.66-2.01,13.93,2.77,.83,1.74,3.42,.22,2.59-1.51-2.32-4.88-8.59-4.96-13.21-4.53s-9.24,.51-13.82,1.22c-5.28,.82-11.86,1.63-15.76,5.71-2.11,2.2-2.92,5.06-3.25,8.02-.4,3.55-.36,7.19-.1,10.76,.4,5.43,1.37,11.24,4.72,15.71,2.89,3.86,7.1,5.44,11.78,5.79,8.76,.64,18.15-2.66,24.92-8.17,3.55-2.89,6.58-6.82,7.52-11.38,.58-2.78,.36-5.7,.06-8.5-.36-3.36-1.1-6.65-1.8-9.95-.4-1.89-3.29-1.09-2.89,.8h0Z" />
      <g>
        <path class="cls-6"
          d="M316.22,131.9c2.04-12.57,4.09-25.14,6.13-37.71,.26-1.6-.41-3.23-2.1-3.69-1.43-.39-3.43,.49-3.69,2.1-2.04,12.57-4.09,25.14-6.13,37.71-.26,1.6,.41,3.23,2.1,3.69,1.43,.39,3.43-.49,3.69-2.1h0Z" />
        <path class="cls-6"
          d="M323.79,133.07c2.28-14.05,4.57-28.1,6.85-42.15,.31-1.89-2.58-2.7-2.89-.8-2.28,14.05-4.57,28.1-6.85,42.15-.31,1.89,2.58,2.7,2.89,.8h0Z" />
      </g>
      <path class="cls-10"
        d="M232.47,58.79c-7.48,18.44-10.35,38.73-8.26,58.52-3.15-9.92-5.33-20.15-6.5-30.49-1-8.77-1.18-18.08,2.8-25.96" />
      <g>
        <circle class="cls-19" cx="214.97" cy="146.59" r="4.06" />
        <path class="cls-5"
          d="M225.54,160.87c-.38,0-.75-.1-1.09-.33l-12.99-8.47c-.92-.6-1.19-1.84-.58-2.77,.6-.93,1.84-1.19,2.77-.58l12.99,8.47c.92,.6,1.19,1.84,.58,2.77-.38,.59-1.02,.91-1.68,.91Z" />
        <circle class="cls-5" cx="211.98" cy="150.12" r="6.21" />
        <circle class="cls-5" cx="209.02" cy="154.35" r="2.87" />
        <path class="cls-14"
          d="M218.82,147.78c-.16,.51-.42,.98-.75,1.39-.45-2.98-3.03-5.26-6.13-5.26h-.05c.32-.37,.7-.68,1.14-.91,2.83,.11,5.17,2.12,5.79,4.78Z" />
      </g>
      <path class="cls-5"
        d="M203.1,114.57c-1.6-3.24-2.9-6.6-3.91-10.06-.23-.78-1.05-1.26-1.85-1.05s-1.28,1.06-1.05,1.85c1.09,3.71,2.5,7.31,4.22,10.78,.36,.73,1.39,.93,2.05,.54,.74-.43,.9-1.32,.54-2.05h0Z" />
      <path class="cls-5" d="M196.74,99.97c1.93,0,1.93-3,0-3s-1.93,3,0,3h0Z" />
      <path class="cls-24"
        d="M178.48,292.72c5.49,6.67,7.75,15.21,9.61,23.47,2.16,9.62,4.22,19.27,6.33,28.9,.21,.94,1.65,.54,1.45-.4-2.17-9.9-4.26-19.83-6.52-29.71-1.89-8.28-4.31-16.65-9.81-23.32-.61-.75-1.67,.32-1.06,1.06h0Z" />
      <path class="cls-24"
        d="M183.94,289.45c5.49,6.67,7.75,15.21,9.61,23.47,2.16,9.62,4.22,19.27,6.33,28.9,.21,.94,1.65,.54,1.45-.4-2.17-9.9-4.26-19.83-6.52-29.71-1.89-8.28-4.31-16.65-9.81-23.32-.61-.75-1.67,.32-1.06,1.06h0Z" />
      <path class="cls-24"
        d="M135.97,379.6c-1.12-10.28-1.72-20.61-1.8-30.95-.05-6.28,.18-12.87,3.3-18.32,.41-.71,.92-1.44,1.7-1.68,.63-.19,1.32-.02,1.94,.22,3.02,1.15,5.44,3.76,8.62,4.28,2.63,.44,5.84-.47,7.63,1.51,1.19,1.31,1.12,3.3,1.01,5.07-.53,8.55-.18,17.16,1.06,25.63,.69,4.75,1.52,10.12-1.41,13.93-2.3,2.99-6.26,4.08-9.98,4.67-4.39,.7-9.54,.7-12.48-2.63" />
      <path class="cls-31"
        d="M299.46,150.14c-6.82-5.08-16.1-7.69-24-4.52-5.66,2.27-9.89,7.13-15.28,9.99-5.46,2.91-12.07,3.61-18.02,1.91,13.41,7.38,28.24,14.56,43.36,12.23,6.73-1.03,13.6-4.41,16.56-10.54,1.49-3.1,1.57-7.41-1.23-9.42" />
      <path class="cls-31"
        d="M300.7,153.53c4.76-7.05,12.66-12.57,21.16-12.19,6.1,.27,11.69,3.46,17.72,4.39,6.12,.94,12.58-.57,17.64-4.14-10.22,11.4-21.85,23.06-36.9,25.86-6.69,1.25-14.3,.33-19.11-4.49-2.43-2.44-3.93-6.48-1.95-9.3" />
      <path class="cls-10"
        d="M249.38,84.73c15.93-6.7,33.05-10.35,50.33-10.71,.96-.02,.97-1.52,0-1.5-17.41,.36-34.67,4.01-50.73,10.77-.88,.37-.49,1.82,.4,1.45h0Z" />
      <path class="cls-10"
        d="M255.87,76.82c10.72-4.14,21.95-6.86,33.38-8.04,.95-.1,.96-1.6,0-1.5-11.57,1.19-22.93,3.9-33.78,8.1-.89,.34-.5,1.8,.4,1.45h0Z" />
      <path class="cls-10"
        d="M261.76,68.5c4.58-1.09,9.2-2.01,13.85-2.75,.95-.15,.55-1.6-.4-1.45-4.65,.75-9.27,1.67-13.85,2.75-.94,.22-.54,1.67,.4,1.45h0Z" />
      <path class="cls-10"
        d="M295.02,177.93c4.59,3.45,10.66,1.92,14.86-1.33,.76-.59-.31-1.64-1.06-1.06-3.72,2.88-9.02,4.11-13.05,1.1-.77-.58-1.52,.72-.76,1.3h0Z" />
      <path class="cls-11"
        d="M241.82,84.19c-2-3.51-1.76-7.65-.65-11.41,.57-1.95,1.35-3.82,2.22-5.65,.74-1.56,1.3-3.03,2.91-3.67,2.09-.83,4.39-1.33,6.57-1.86s4.31-.97,6.49-1.35c4.56-.79,9.17-1.19,13.8-1.3,3.85-.09,3.87-6.09,0-6-8.3,.2-16.61,1.38-24.63,3.57-1.89,.52-3.85,1.01-5.6,1.89s-3.06,2.41-3.97,4.14c-1.88,3.58-3.58,7.5-4.25,11.5-.76,4.51-.37,9.12,1.93,13.15,1.91,3.35,7.1,.33,5.18-3.03h0Z" />
      <path class="cls-10"
        d="M213.8,74.84c19.6-16.73,46.73-22.21,72.48-21.21-3.42-2.92-7.51-5.06-11.86-6.2,8.61,.21,17.2,1.48,25.51,3.77-3.73-6.71-10.23-11.62-17.4-14.34s-14.99-3.41-22.65-3.03c-7.29,.36-14.57,1.67-21.35,4.36-14.37,5.71-26.05,17.85-31.2,32.43" />
      <path class="cls-10"
        d="M220.23,79.71c.92,4.45,3.66,8.5,7.45,11.02,3.79,2.52,8.58,3.48,13.04,2.61-3.94-6.31-4.94-14.21-3.49-21.51,1.44-7.3,5.18-14.01,9.98-19.7h-19.98" />
      <g>
        <path class="cls-28"
          d="M557.88,449.91h-225.77c-9.73,0-17.62-7.89-17.62-17.62v-142.58c0-8.68,7.04-15.72,15.72-15.72h219.29c8.68,0,15.72,7.04,15.72,15.72v152.85c0,4.06-3.29,7.35-7.35,7.35Z" />
        <path class="cls-30"
          d="M553.92,449.91h-213.7c-10.23,0-18.52-8.29-18.52-18.52v-142.71c0-8.11,6.58-14.69,14.69-14.69h221.35c8.11,0,14.69,6.58,14.69,14.69v142.71c0,10.23-8.29,18.52-18.52,18.52Z" />
        <circle class="cls-28" cx="447.07" cy="371.83" r="22.44" />
        <path class="cls-28"
          d="M442.38,393.29c-12.65,0-22.94-10.29-22.94-22.94s10.29-22.94,22.94-22.94,22.94,10.29,22.94,22.94-10.29,22.94-22.94,22.94Zm0-44.88c-12.1,0-21.94,9.84-21.94,21.94s9.84,21.94,21.94,21.94,21.94-9.84,21.94-21.94-9.84-21.94-21.94-21.94Z" />
        <g>
          <path class="cls-28"
            d="M337.98,299.59c5.33-3.29,10.67-6.57,16-9.86,1.64-1.01,.14-3.61-1.51-2.59-5.33,3.29-10.67,6.57-16,9.86-1.64,1.01-.14,3.61,1.51,2.59h0Z" />
          <path class="cls-28"
            d="M345.99,303.13c3.74-2.67,7.48-5.33,11.23-8,.66-.47,.97-1.31,.54-2.05-.38-.65-1.39-1.01-2.05-.54-3.74,2.67-7.48,5.33-11.23,8-.66,.47-.97,1.31-.54,2.05,.38,.65,1.39,1.01,2.05,.54h0Z" />
        </g>
      </g>
      <path class="cls-23"
        d="M135.65,335.48c1.66,2.61,4.43,4.08,7.29,5.06,3.56,1.22,7.32,1.81,11.07,1.81,.97,0,.97-1.5,0-1.5-3.42,0-6.81-.52-10.08-1.56-2.68-.86-5.44-2.12-7-4.57-.52-.81-1.82-.06-1.3,.76h0Z" />
      <path class="cls-23"
        d="M138.18,380.86c3.99,1.02,8.36,1.53,12.27-.09,2.98-1.24,5.57-3.69,6.33-6.92,.48-2.03,.25-4.12,0-6.16-.29-2.44-.59-4.88-.88-7.32-.57-4.72-1.14-9.43-1.7-14.15-.11-.95-1.62-.96-1.5,0,.5,4.15,1,8.29,1.5,12.44s1.3,8.18,1.36,12.25c.05,3.65-1.78,6.55-5.04,8.17-3.72,1.85-8.07,1.31-11.95,.32-.94-.24-1.33,1.21-.4,1.45h0Z" />
      <path class="cls-10"
        d="M141.73,436.23c6.71,7.12,13.72,13.93,23.49,16.41s20.59,1.52,30.68,.99c21.82-1.14,43.56-3.65,65.07-7.48,12.16-2.17,24.24-4.76,36.21-7.78,1.87-.47,1.08-3.36-.8-2.89-20.85,5.24-42.01,9.23-63.35,11.88-10.57,1.31-21.19,2.3-31.82,2.97-5.3,.33-10.61,.59-15.92,.75-4.84,.15-9.73,.23-14.55-.42-5.45-.73-10.57-2.5-15.11-5.63-4.42-3.05-8.13-7.02-11.8-10.91-1.33-1.41-3.45,.72-2.12,2.12h0Z" />
      <ellipse class="cls-8" cx="97.36" cy="390.64" rx="14.5" ry="18.96" />
      <path class="cls-4"
        d="M112.2,390.7c0,.84-.04,1.67-.13,2.48-.93-9.29-7-16.47-14.36-16.47s-13.44,7.18-14.37,16.47c-.09-.81-.13-1.64-.13-2.48,0-10.47,6.49-18.96,14.5-18.96s14.49,8.49,14.49,18.96Z" />
      <path class="cls-17"
        d="M71.8,259.46c1.77-7.46,3.54-14.92,5.3-22.37s3.15-14.36,5.11-21.41c.78-2.79,1.94-5.73,4.5-7.35s5.66-1.59,8.5-1.17c3.27,.48,6.45,1.5,9.62,2.37,3.61,.99,7.21,1.98,10.82,2.96,8.26,2.26,16.51,4.52,24.77,6.78,1.4,.38,2-1.79,.6-2.17-7.69-2.11-15.39-4.21-23.08-6.32-3.85-1.05-7.69-2.11-11.54-3.16-3.37-.92-6.74-2-10.2-2.57-2.88-.47-5.95-.64-8.73,.41s-4.84,3.2-6.08,5.88c-1.4,3.02-2,6.36-2.76,9.58-.92,3.89-1.84,7.78-2.77,11.67-2.08,8.75-4.15,17.51-6.23,26.26-.33,1.41,1.84,2.01,2.17,.6h0Z" />
      <ellipse class="cls-10" cx="304.65" cy="148.63" rx="7.54" ry="5.84"
        transform="translate(34.21 353) rotate(-63.08)" />
    </g>
  </g>
</svg>