<?xml version="1.0" encoding="UTF-8"?>
<svg id="Layer_2" data-name="Layer 2" xmlns="http://www.w3.org/2000/svg" viewBox="0 0 250.44 162.42">
  <defs>
    <style>
      .cls-1 {
      fill: #000201;
      }

      .cls-2 {
      fill: #ffe0c4;
      }

      .cls-3 {
      fill: #f81c46;
      }

      .cls-4 {
      fill: #e3e3ee;
      }

      .cls-5, .cls-6 {
      fill: #fff;
      }

      .cls-7 {
      fill: #ffc58c;
      }

      .cls-8 {
      fill: #fbb570;
      }

      .cls-9 {
      fill: #ff3e6c;
      }

      .cls-10 {
      fill: #e2ffee;
      }

      .cls-11 {
      fill: #ff5f84;
      }

      .cls-12 {
      fill: #9c9cc5;
      }

      .cls-13 {
      fill: #86cba4;
      }

      .cls-14, .cls-15 {
      fill: #b60034;
      }

      .cls-16 {
      fill: #2ff382;
      }

      .cls-17 {
      fill: #bee1ce;
      }

      .cls-18 {
      fill: #c9c9d7;
      }

      .cls-19, .cls-20, .cls-21 {
      fill: #d07828;
      }

      .cls-22 {
      fill: #dbefff;
      }

      .cls-23, .cls-24 {
      fill: #06cb56;
      }

      .cls-25 {
      fill: #6f6372;
      }

      .cls-26, .cls-27 {
      fill: #8080b9;
      }

      .cls-28 {
      fill: #61ffa0;
      }

      .cls-29 {
      fill: #3bb6cb;
      }

      .cls-30 {
      fill: #4c404f;
      }

      .cls-31, .cls-32, .cls-33 {
      fill: #5ccce8;
      }

      .cls-20 {
      opacity: .73;
      }

      .cls-20, .cls-15, .cls-32, .cls-27, .cls-6, .cls-21, .cls-24, .cls-33 {
      isolation: isolate;
      }

      .cls-15 {
      opacity: .49;
      }

      .cls-32, .cls-27 {
      opacity: .52;
      }

      .cls-6 {
      opacity: .53;
      }

      .cls-21 {
      opacity: .62;
      }

      .cls-24 {
      opacity: .6;
      }

      .cls-33 {
      opacity: .58;
      }
    </style>
  </defs>
  <g id="Layer_3" data-name="Layer 3">
    <g>
      <g>
        <rect class="cls-8" x="99.7" y="33.52" width="18.61" height="17.25" />
        <path class="cls-2"
          d="M108.76,35.29h-6.14c-.5-.04-.87-.47-.83-.97,.03-.45,.39-.8,.83-.83h6.14c.5,.04,.87,.47,.83,.97-.03,.45-.39,.8-.83,.83Z" />
        <path class="cls-7"
          d="M114.79,35.36h-2.54c-.5-.04-.87-.47-.83-.97,.03-.45,.39-.8,.83-.83h2.54c.5,.04,.87,.47,.83,.97-.03,.45-.39,.8-.83,.83Z" />
        <path class="cls-19"
          d="M114.98,50.72h-12.12c-.66-.04-1.16-.61-1.12-1.27,.04-.6,.52-1.08,1.12-1.12h12.12c.66-.04,1.23,.46,1.27,1.12,.04,.66-.46,1.23-1.12,1.27-.05,0-.1,0-.15,0Z" />
        <polygon class="cls-3"
          points="104.98 33.47 105.1 39.3 112.57 39.3 112.57 33.49 104.98 33.47" />
        <path class="cls-1"
          d="M112.66,39.74h-7.46c-.24,0-.44-.2-.44-.44h0v-5.59c0-.24,.2-.44,.44-.44,.24,0,.44,.2,.44,.44v5.15h6.58v-5.11c.03-.24,.25-.42,.49-.4,.21,.02,.37,.19,.4,.4v5.53c.01,.24-.18,.45-.42,.46,0,0-.02,0-.02,0Z" />
        <path class="cls-1"
          d="M99.7,37.75c-.24,0-.44-.2-.44-.44h0v-3.79c0-.24,.2-.44,.44-.44h6.65c.24,0,.44,.2,.44,.44,0,.24-.2,.44-.44,.44h-6.2v3.36c0,.24-.2,.43-.44,.43Z" />
        <path class="cls-21"
          d="M117.27,45.96c-.66,0-1.2-.53-1.2-1.19v-5.72c.04-.66,.61-1.16,1.27-1.12,.6,.04,1.08,.52,1.12,1.12v5.72c0,.66-.53,1.19-1.19,1.19h0Z" />
        <path class="cls-21"
          d="M117.27,43.75c-.66,0-1.2-.53-1.2-1.19v-1.01c-.04-.66,.46-1.23,1.12-1.27,.66-.04,1.23,.46,1.27,1.12,0,.05,0,.1,0,.15v1.01c0,.66-.53,1.19-1.19,1.19h0Z" />
        <circle class="cls-11" cx="107.4" cy="35.73" r=".78" />
        <circle class="cls-11" cx="108.51" cy="36.93" r=".43" />
        <path class="cls-20"
          d="M111.14,45.11h-5.16c-.13,0-.26-.05-.35-.14l-2.1-2.07h-3.8c-.27,0-.49-.22-.49-.49s.22-.49,.49-.49h4.01c.13,0,.26,.05,.35,.14l2.07,2.07h4.99c.27,0,.49,.22,.49,.49s-.22,.49-.49,.49Z" />
        <path class="cls-1"
          d="M118.31,51.22h-18.61c-.24,0-.44-.2-.44-.44,0,0,0,0,0,0v-10.46c0-.24,.2-.44,.44-.44,.24,0,.44,.2,.44,.44h0v10.02h17.73v-16.37h-9.19c-.24,0-.44-.2-.44-.44,0-.24,.2-.44,.44-.44h9.63c.24,0,.44,.2,.44,.44h0v17.25c0,.24-.19,.44-.44,.45,0,0,0,0,0,0Z" />
        <rect class="cls-8" x="129.38" y="33.52" width="18.61" height="17.25" />
        <path class="cls-7"
          d="M138.44,35.29h-6.14c-.5-.04-.87-.47-.83-.97,.03-.45,.39-.8,.83-.83h6.14c.5,.04,.87,.47,.83,.97-.03,.45-.39,.8-.83,.83Z" />
        <path class="cls-7"
          d="M144.48,35.36h-2.54c-.5-.04-.87-.47-.83-.97,.03-.45,.39-.8,.83-.83h2.54c.5-.04,.93,.34,.97,.83s-.34,.93-.83,.97c-.04,0-.09,0-.13,0Z" />
        <path class="cls-21"
          d="M147.16,45.96c-.66,0-1.19-.53-1.19-1.19h0v-5.72c.04-.66,.61-1.16,1.27-1.12,.6,.04,1.08,.52,1.12,1.12v5.72c0,.66-.54,1.19-1.2,1.19Z" />
        <path class="cls-21"
          d="M147.16,43.75c-.66,0-1.19-.53-1.19-1.19h0v-1.01c-.04-.66,.46-1.23,1.12-1.27s1.23,.46,1.27,1.12c0,.05,0,.1,0,.15v1.01c0,.66-.54,1.19-1.2,1.19Z" />
        <polygon class="cls-3"
          points="133.84 33.47 133.96 39.3 141.42 39.3 141.42 33.49 133.84 33.47" />
        <path class="cls-1"
          d="M141.51,39.74h-7.47c-.24,0-.44-.2-.44-.44h0v-5.59c.03-.24,.25-.42,.49-.4,.21,.02,.37,.19,.4,.4v5.15h6.58v-5.39c0-.24,.2-.44,.44-.44s.44,.2,.44,.44h0v5.81c.01,.24-.18,.45-.42,.46,0,0-.01,0-.02,0Z" />
        <path class="cls-19"
          d="M144.67,50.72h-12.12c-.66,.04-1.23-.46-1.27-1.12s.46-1.23,1.12-1.27c.05,0,.1,0,.15,0h12.12c.66-.04,1.23,.46,1.27,1.12s-.46,1.23-1.12,1.27c-.05,0-.1,0-.15,0Z" />
        <polyline class="cls-18"
          points="112.48 17.9 117.9 23.32 117.9 29.25 114.44 29.25 114.44 25.23 111.05 21.84 106.27 21.84 102.88 25.23 102.88 29.36 99.42 29.36 99.42 23.32 104.84 17.9" />
        <path class="cls-1"
          d="M102.88,29.88h-3.46c-.24,0-.44-.19-.45-.44,0,0,0,0,0,0v-6.12c0-.12,.05-.23,.13-.31l5.4-5.42c.18-.18,.46-.18,.64,0,.18,.18,.18,.46,0,.64l-5.29,5.27v5.5h3.02c.24,0,.44,.2,.44,.44,0,.24-.2,.44-.44,.44Z" />
        <path class="cls-1"
          d="M117.9,29.88c-.24,0-.44-.2-.44-.44h0v-5.94l-5.29-5.27c-.16-.19-.13-.47,.07-.63,.16-.13,.4-.13,.56,0l5.43,5.41c.08,.08,.13,.2,.13,.31v6.12c0,.24-.2,.44-.44,.44,0,0,0,0,0,0Z" />
        <path class="cls-1"
          d="M102.88,29.88c-.24,0-.44-.2-.44-.44h0v-4.21c0-.12,.04-.23,.13-.31l3.41-3.39c.17-.17,.45-.17,.63,0,.17,.17,.17,.45,0,.62l-3.26,3.26v4.03c0,.24-.2,.44-.44,.44,0,0-.01,0-.02,0Z" />
        <path class="cls-1"
          d="M117.9,29.88h-3.46c-.24,0-.44-.2-.44-.44h0v-4.03l-3.26-3.27c-.17-.17-.17-.45,0-.62,.17-.17,.45-.17,.63,0l3.39,3.39c.08,.08,.13,.2,.13,.31v3.78h3.02c.24,0,.44,.2,.44,.44,0,.24-.2,.44-.44,.44h0Z" />
        <rect class="cls-18" x="106.53" y="7.89" width="4.29" height="13.76" />
        <rect class="cls-5" x="106.53" y="7.89" width="4.29" height="1.4" />
        <path class="cls-1"
          d="M110.82,22.09h-4.29c-.24,0-.44-.2-.44-.44v-7.01c.03-.24,.25-.42,.49-.4,.21,.02,.37,.19,.4,.4v6.57h3.41V8.33h-3.43v3.45c-.03,.24-.25,.42-.49,.4-.21-.02-.37-.19-.4-.4v-3.89c0-.24,.2-.44,.44-.44h0s4.29,0,4.29,0c.24,0,.44,.2,.44,.44h0v13.76c0,.24-.19,.43-.42,.44Z" />
        <circle class="cls-1" cx="108.67" cy="12.46" r=".65" />
        <circle class="cls-1" cx="108.69" cy="17.59" r=".65" />
        <circle class="cls-1" cx="108.69" cy="15.03" r=".65" />
        <path class="cls-12"
          d="M101.08,28.51c-.27,0-.49-.22-.49-.49v-3.78c0-.14,.05-.27,.15-.36l3.81-3.74c.2-.19,.52-.19,.71,0,.19,.2,.19,.52,0,.71h0l-3.65,3.59v3.54c.02,.27-.18,.5-.45,.52-.02,0-.05,0-.07,0Z" />
        <path class="cls-12"
          d="M116.1,28.51c-.27,0-.49-.22-.49-.49v-3.57l-3.66-3.59c-.2-.2-.2-.52,0-.72,.2-.2,.52-.2,.72,0l3.81,3.74c.1,.09,.15,.23,.15,.36v3.75c.02,.27-.18,.5-.45,.52-.02,0-.04,0-.07,0Z" />
        <polyline class="cls-18"
          points="142.04 17.9 147.45 23.32 147.45 29.25 144 29.25 144 25.23 140.61 21.84 135.83 21.84 132.44 25.23 132.44 29.36 128.98 29.36 128.98 23.32 134.4 17.9" />
        <path class="cls-1"
          d="M132.42,29.88h-3.43c-.24,0-.44-.2-.44-.44h0v-6.12c0-.12,.05-.23,.13-.31l5.4-5.42c.18-.17,.46-.17,.63,0s.17,.46,0,.63l-5.28,5.27v5.5h3c.24,0,.44,.2,.44,.44,0,.24-.2,.44-.44,.44h0Z" />
        <path class="cls-1"
          d="M147.45,29.88c-.24,0-.44-.2-.44-.44h0v-5.94l-5.28-5.27c-.16-.19-.13-.47,.07-.63,.16-.13,.4-.13,.56,0l5.42,5.42c.08,.08,.13,.2,.13,.31v6.11c0,.24-.2,.44-.44,.44,0,0,0,0,0,0Z" />
        <path class="cls-1"
          d="M132.42,29.88c-.24,0-.44-.2-.44-.44h0v-4.21c0-.12,.05-.23,.13-.31l3.39-3.39c.17-.17,.45-.17,.62,0,.17,.16,.18,.44,.01,.61,0,0,0,0-.01,.01l-3.26,3.26v4.03c0,.24-.2,.44-.44,.44,0,0,0,0,0,0Z" />
        <path class="cls-1"
          d="M147.45,29.88h-3.46c-.24,0-.44-.2-.44-.44h0v-4.03l-3.26-3.27c-.17-.17-.17-.45,0-.62,.17-.17,.45-.17,.63,0l3.39,3.39c.08,.08,.13,.2,.13,.31v3.78h3.02c.24,0,.44,.2,.44,.44,0,.24-.2,.44-.44,.44h0Z" />
        <rect class="cls-18" x="136.09" y="7.89" width="4.29" height="13.76" />
        <rect class="cls-5" x="136.09" y="7.89" width="4.29" height="1.4" />
        <path class="cls-1"
          d="M140.37,22.09h-4.29c-.24,0-.44-.2-.44-.44h0v-7.01c0-.24,.2-.44,.44-.44s.44,.2,.44,.44h0v6.57h3.43V8.33h-3.43v3.45c0,.24-.2,.44-.44,.44s-.44-.2-.44-.44v-3.89c0-.24,.2-.44,.44-.44h0s4.29,0,4.29,0c.24,0,.44,.2,.44,.44h0v13.76c0,.24-.2,.44-.44,.44h0Z" />
        <circle class="cls-1" cx="138.22" cy="12.46" r=".65" />
        <circle class="cls-1" cx="138.24" cy="17.59" r=".65" />
        <circle class="cls-1" cx="138.24" cy="15.03" r=".65" />
        <path class="cls-12"
          d="M130.65,28.51c-.27,0-.49-.22-.49-.49v-3.78c0-.14,.05-.27,.15-.36l3.81-3.74c.2-.2,.52-.19,.72,0,.2,.2,.19,.52,0,.72l-3.67,3.59v3.54c.02,.27-.18,.5-.45,.52-.02,0-.03,0-.05,0Z" />
        <path class="cls-12"
          d="M145.65,28.51c-.27,0-.49-.22-.49-.49v-3.57l-3.66-3.59c-.2-.2-.2-.52,0-.72,.2-.2,.52-.2,.72,0l3.81,3.74c.1,.09,.15,.23,.15,.36v3.75c.02,.27-.18,.5-.45,.52-.03,0-.05,0-.08,0Z" />
        <circle class="cls-11" cx="136.17" cy="35.73" r=".78" />
        <circle class="cls-11" cx="137.27" cy="36.93" r=".43" />
        <path class="cls-1"
          d="M129.38,39.71c-.24,0-.44-.2-.44-.44h0v-5.75c0-.24,.2-.44,.44-.44h6.65c.24,0,.44,.2,.44,.44,0,.24-.2,.44-.44,.44h-6.21v5.32c0,.24-.2,.43-.44,.43Z" />
        <path class="cls-20"
          d="M140.75,45.11h-5.21c-.13,0-.25-.05-.34-.14l-2.07-2.07h-3.32c-.27,0-.49-.22-.49-.49s.22-.49,.49-.49h3.52c.13,0,.25,.05,.34,.14l2.07,2.07h5c.27,0,.49,.22,.49,.49s-.22,.49-.49,.49Z" />
        <path class="cls-1"
          d="M147.99,51.22h-18.61c-.24,0-.44-.2-.44-.44,0,0,0,0,0,0v-8.99c0-.24,.2-.44,.44-.44s.44,.2,.44,.44v8.55h17.72v-16.37h-9.19c-.24,0-.44-.2-.44-.44,0-.24,.2-.44,.44-.44h9.64c.24,0,.44,.2,.44,.44h0v17.25c0,.24-.2,.44-.44,.45Z" />
        <rect class="cls-18" x="88.3" y="50.17" width="72" height="18.71" rx="9.35" ry="9.35" />
        <path class="cls-26"
          d="M150.89,69.34h-53.17c-5.28,0-9.55-4.28-9.55-9.56v-.24c0-5.28,4.28-9.55,9.55-9.56h53.17c5.28,0,9.55,4.28,9.56,9.56v.24c0,5.28-4.28,9.55-9.56,9.56Zm-53.17-17.41c-4.2,0-7.6,3.41-7.61,7.61v.24c0,4.2,3.41,7.6,7.61,7.61h53.17c4.2,0,7.6-3.41,7.61-7.61v-.24c0-4.2-3.41-7.6-7.61-7.61h-53.17Z" />
        <path class="cls-1"
          d="M150.95,69.32h-53.29c-5.41,0-9.79-4.39-9.79-9.79s4.39-9.79,9.79-9.79h7.59c.24,0,.44,.2,.44,.44s-.2,.44-.44,.44h-7.59c-4.92,.12-8.82,4.2-8.71,9.12,.11,4.76,3.95,8.6,8.71,8.71h53.29c4.92-.12,8.82-4.2,8.71-9.12-.11-4.76-3.95-8.6-8.71-8.71h-25.15c-.24,0-.44-.2-.44-.44s.2-.44,.44-.44h25.15c5.41,0,9.79,4.39,9.79,9.79s-4.39,9.79-9.79,9.79Z" />
        <path class="cls-25"
          d="M98.11,53.42h52.39c3.29,0,5.96,2.67,5.96,5.96h0c0,3.29-2.67,5.96-5.96,5.96h-52.39c-3.29,0-5.96-2.67-5.96-5.96h0c0-3.29,2.67-5.96,5.96-5.96Z" />
        <path class="cls-25"
          d="M98.25,53.42h52.39c3.29,0,5.96,2.67,5.96,5.96h0c0,3.29-2.67,5.96-5.96,5.96h-52.39c-3.29,0-5.96-2.67-5.96-5.96h0c0-3.29,2.67-5.96,5.96-5.96Z" />
        <path class="cls-30"
          d="M119.2,65.55h-7.97c-.41,0-.73-.33-.73-.73s.33-.73,.73-.73h7.97c.41,0,.73,.33,.73,.73s-.33,.73-.73,.73Z" />
        <path class="cls-30"
          d="M104.02,65.59h0l-6.02-.04c-.41,0-.73-.34-.73-.74,0-.41,.34-.73,.74-.72h0l6.01,.04c.41,0,.73,.33,.73,.73s-.33,.73-.73,.73h0Z" />
        <path class="cls-30"
          d="M150.66,65.59h0l-5.99-.04c-.41,0-.73-.33-.73-.73s.33-.73,.73-.73h0l6.02,.04c.41,0,.73,.33,.73,.73s-.33,.73-.73,.73h-.02Z" />
        <path class="cls-30"
          d="M143.69,65.55h-10.24c-.41,0-.73-.33-.73-.73s.33-.73,.73-.73h10.24c.41,0,.73,.33,.73,.73s-.33,.73-.73,.73Z" />
        <path class="cls-30"
          d="M138.04,55.18h-5.88c-.41,0-.73-.33-.73-.73s.33-.73,.73-.73h5.88c.41,0,.73,.33,.73,.73s-.33,.73-.73,.73Z" />
        <path class="cls-30"
          d="M117.15,55.18h-5.88c-.41,0-.73-.33-.73-.73s.33-.73,.73-.73h5.88c.41,0,.73,.33,.73,.73s-.33,.73-.73,.73Z" />
        <path class="cls-1"
          d="M150.5,65.93h-52.4c-3.54,.1-6.49-2.69-6.59-6.23-.1-3.54,2.69-6.49,6.23-6.59,.12,0,.24,0,.35,0h52.4c3.54,.1,6.33,3.05,6.23,6.59-.09,3.4-2.83,6.14-6.23,6.23Zm-52.4-11.93c-3.05-.09-5.6,2.31-5.69,5.36-.09,3.05,2.31,5.6,5.36,5.69,.11,0,.22,0,.33,0h52.4c3.05,.09,5.6-2.31,5.69-5.36,.09-3.05-2.31-5.6-5.36-5.69-.11,0-.22,0-.33,0h-52.4Z" />
        <circle class="cls-18" cx="105.19" cy="59.48" r="5.57" />
        <path class="cls-1"
          d="M105.19,65.38c-2.46,0-4.68-1.5-5.58-3.79-.09-.22,.02-.47,.24-.55,.22-.09,.47,.02,.55,.24h0c1.04,2.64,4.03,3.94,6.67,2.9,2.64-1.04,3.94-4.03,2.9-6.67-1.04-2.64-4.03-3.94-6.67-2.9-1.96,.77-3.26,2.67-3.26,4.78,.03,.24-.15,.45-.38,.47-.24,.03-.45-.15-.47-.38,0-.03,0-.06,0-.09,0-3.31,2.68-6,5.99-6,3.31,0,6,2.68,6,5.99s-2.68,6-5.99,6c0,0,0,0,0,0Z" />
        <circle class="cls-5" cx="105.19" cy="59.43" r="2.58" />
        <path class="cls-1"
          d="M105.17,62.39c-1.66,0-3.01-1.35-3.01-3.01,0-1.66,1.35-3.01,3.01-3.01,1.66,0,3,1.34,3.01,2.99,.01,1.66-1.33,3.02-2.99,3.03,0,0-.01,0-.02,0Zm0-5.17c-1.19,0-2.15,.96-2.15,2.15,0,1.19,.96,2.15,2.15,2.15s2.15-.96,2.15-2.15-.96-2.15-2.15-2.15h0Z" />
        <circle class="cls-18" cx="145.47" cy="59.48" r="5.57" />
        <path class="cls-1"
          d="M145.47,65.38c-3.31,0-5.99-2.68-5.99-5.99,0-3.31,2.68-5.99,5.99-5.99,3.31,0,5.99,2.68,5.99,5.99,0,3.31-2.68,5.99-5.99,5.99Zm0-11.13c-2.84,0-5.14,2.3-5.13,5.14s2.3,5.14,5.14,5.13c2.84,0,5.13-2.3,5.13-5.14,0-2.84-2.31-5.13-5.14-5.14Z" />
        <circle class="cls-5" cx="145.47" cy="59.43" r="2.58" />
        <path class="cls-1"
          d="M145.47,62.4c-1.66,0-3.01-1.35-3.01-3.01s1.35-3.01,3.01-3.01,3.01,1.35,3.01,3.01-1.35,3.01-3.01,3.01h0Zm0-5.17c-1.19,0-2.15,.96-2.15,2.15s.96,2.15,2.15,2.15,2.15-.96,2.15-2.15-.96-2.15-2.15-2.15Z" />
        <circle class="cls-18" cx="125.33" cy="59.48" r="5.57" />
        <path class="cls-1"
          d="M125.33,65.38c-3.31,0-5.99-2.69-5.99-6,0-3.31,2.69-5.99,6-5.99,3.31,0,5.99,2.69,5.99,5.99,0,3.31-2.69,5.99-6,5.99Zm0-11.13c-2.84,0-5.14,2.3-5.14,5.14s2.3,5.14,5.14,5.14,5.14-2.3,5.14-5.14c0-2.83-2.3-5.13-5.14-5.14Z" />
        <circle class="cls-5" cx="125.33" cy="59.43" r="2.58" />
        <path class="cls-1"
          d="M125.33,62.4c-1.66,0-3-1.35-3.01-3.01,.03-.24,.24-.41,.47-.38,.2,.02,.36,.18,.38,.38,0,1.19,.96,2.15,2.15,2.15,1.19,0,2.15-.96,2.15-2.15s-.96-2.15-2.15-2.15c0,0,0,0,0,0-.24,0-.43-.19-.43-.43,0-.23,.19-.43,.43-.43,1.66-.07,3.06,1.23,3.13,2.89s-1.23,3.06-2.89,3.13c-.08,0-.16,0-.24,0Z" />
        <path class="cls-5"
          d="M102.06,58.23c.02-.07,.03-.14,.06-.21,0-.04,.02-.07,.03-.11,0,0,.07-.18,0-.05s0,0,0-.03l.05-.1c.03-.07,.07-.14,.11-.21s.09-.15,.14-.22,.05-.06,.07-.1c-.04,.07-.09,.11,0,0,.11-.13,.23-.25,.35-.37l.2-.17c.12-.1-.14,.1,0,0l.11-.08c.16-.11,.32-.2,.49-.28l.13-.06,.09-.04-.09,.03s.24-.09,.27-.1c.21-.07,.42-.12,.64-.16,.38-.12,.6-.52,.49-.9-.13-.37-.52-.59-.9-.49-1.68,.3-3.28,1.54-3.69,3.24-.12,.39,.1,.8,.48,.92,.39,.12,.8-.1,.92-.48,0-.01,0-.03,.01-.04h.03Z" />
        <circle class="cls-5" cx="106.46" cy="55.43" r=".76" />
        <path class="cls-5"
          d="M142.51,58.23c0-.07,.03-.14,.05-.21s.02-.07,.04-.11,.07-.18,0-.05,0,0,0-.03c.01-.04,.03-.07,.05-.1,.03-.07,.07-.14,.11-.21s.09-.15,.14-.22,.05-.06,.07-.1c-.04,.07-.09,.11,0,0,.11-.13,.23-.25,.35-.37l.2-.17c.12-.1-.14,.1,0,0l.11-.08c.16-.11,.32-.2,.49-.28l.13-.06,.08-.04-.08,.03s.24-.09,.27-.1c.21-.07,.42-.12,.64-.16,.38-.12,.6-.52,.49-.9-.13-.37-.52-.59-.9-.49-1.68,.3-3.28,1.54-3.7,3.24-.11,.39,.12,.8,.51,.91,.39,.11,.8-.12,.91-.51h.02Z" />
        <circle class="cls-5" cx="146.91" cy="55.43" r=".76" />
        <path class="cls-1"
          d="M120.82,50.61h-11.45c-.24,0-.44-.2-.44-.44s.2-.44,.44-.44h11.45c.24,0,.44,.2,.44,.44s-.2,.44-.44,.44Z" />
        <circle class="cls-1" cx="105.17" cy="59.38" r="1.04" />
        <circle class="cls-1" cx="125.26" cy="59.38" r="1.04" />
        <circle class="cls-1" cx="145.45" cy="59.38" r="1.04" />
        <circle class="cls-1" cx="123.1" cy="49.98" r=".65" />
      </g>
      <g>
        <rect class="cls-18" x="31.41" y="55.93" width="8.26" height="8.46" />
        <path class="cls-26"
          d="M39.11,61.61h-7.05c-.6,0-1.08-.49-1.08-1.08,0-.6,.49-1.08,1.08-1.08h7.05c.6,0,1.08,.48,1.08,1.08,0,.6-.48,1.08-1.08,1.08h0Z" />
        <path class="cls-1"
          d="M39.67,65.42h-8.25c-.27,0-.49-.22-.49-.49h0v-8.46c0-.27,.22-.49,.49-.49h8.25c.27,0,.49,.22,.49,.49v8.46c0,.27-.22,.49-.49,.49Zm-7.76-.97h7.28v-7.49h-7.28v7.49Z" />
        <rect class="cls-18" x=".5" y="5.38" width="70.08" height="54.28" rx="4.09" ry="4.09" />
        <rect class="cls-22" x="4.57" y="9.64" width="61.94" height="46.36" rx="1.78" ry="1.78" />
        <path class="cls-18"
          d="M24.93,64.5h21.22c1.35,0,2.45,1.1,2.45,2.45h0c0,1.35-1.1,2.45-2.45,2.45H24.93c-1.35,0-2.45-1.1-2.45-2.45h0c0-1.35,1.1-2.45,2.45-2.45Z" />
        <path class="cls-31"
          d="M54.16,55.29h-7.71c-.6,0-1.08-.49-1.08-1.08,0-.6,.49-1.08,1.08-1.08h7.71c.6,0,1.08,.49,1.08,1.08,0,.6-.49,1.08-1.08,1.08Z" />
        <path class="cls-6"
          d="M51.2,55.29h-1.52c-.6,0-1.08-.48-1.08-1.08,0-.6,.48-1.08,1.08-1.08h1.52c.6,0,1.08,.48,1.08,1.08,0,.6-.48,1.08-1.08,1.08h0Z" />
        <path class="cls-31"
          d="M59.09,11.72h-5c-.6,0-1.08-.49-1.08-1.08s.49-1.08,1.08-1.08h5c.6,0,1.08,.49,1.08,1.08s-.49,1.08-1.08,1.08Z" />
        <path class="cls-31"
          d="M65.41,55.29h-5c-.6,0-1.08-.48-1.08-1.08,0-.6,.48-1.08,1.08-1.08h5c.6,0,1.08,.49,1.08,1.08,0,.6-.49,1.08-1.08,1.08Z" />
        <path class="cls-31"
          d="M41.12,55.29H5.2c-.6,0-1.08-.49-1.08-1.08,0-.6,.49-1.08,1.08-1.08H41.12c.6,0,1.08,.49,1.08,1.08,0,.6-.49,1.08-1.08,1.08Z" />
        <g>
          <polygon class="cls-5" points="26.09 55.74 23.72 55.74 32.26 9.49 34.63 9.49 26.09 55.74" />
          <polygon class="cls-5" points="39.67 55.74 29.7 55.74 38.24 9.49 48.2 9.49 39.67 55.74" />
        </g>
        <g>
          <path class="cls-1"
            d="M9.76,20.69s-.08,0-.11,0c-.22-.06-.34-.29-.28-.51l1.32-4.59c.08-.21,.32-.32,.53-.24,.19,.07,.29,.27,.26,.46l-1.33,4.58c-.05,.17-.21,.29-.39,.3Z" />
          <path class="cls-1"
            d="M11.43,23.86s-.08,0-.11,0c-.22-.06-.34-.29-.28-.5,0,0,0,0,0,0l2.63-9.18c.07-.21,.29-.34,.5-.28,.22,.06,.34,.29,.28,.51l-2.63,9.18c-.06,.17-.22,.28-.4,.28Z" />
        </g>
        <path class="cls-1"
          d="M.49,30.03C.22,30.03,0,29.81,0,29.54H0v-3.23c0-.27,.22-.49,.49-.49,.27,0,.49,.22,.49,.49H.97v3.26c-.02,.26-.23,.46-.49,.46Z" />
        <path class="cls-1"
          d="M66.47,27.5c-.27,0-.49-.22-.49-.49h0v-2.72c0-.27,.22-.49,.49-.49s.49,.22,.49,.49v2.72c0,.27-.22,.49-.49,.49h0Z" />
        <path class="cls-27"
          d="M45.18,69.41h-6.2c-.6,0-1.08-.49-1.08-1.08,0-.6,.49-1.08,1.08-1.08h6.2c.6,0,1.08,.49,1.08,1.08,0,.6-.49,1.08-1.08,1.08Z" />
        <path class="cls-26"
          d="M19.22,57.5h-6.2c-.6,0-1.08-.48-1.08-1.08,0-.6,.48-1.08,1.08-1.08h6.2c.6,0,1.08,.49,1.08,1.08,0,.6-.49,1.08-1.08,1.08Z" />
        <path class="cls-26"
          d="M56.06,57.5h-6.19c-.6,0-1.08-.48-1.08-1.08,0-.6,.48-1.08,1.08-1.08h6.19c.6,0,1.08,.49,1.08,1.08,0,.6-.49,1.08-1.08,1.08Z" />
        <path class="cls-26"
          d="M43.12,57.5H25.55c-.6,0-1.08-.49-1.08-1.08,0-.6,.49-1.08,1.08-1.08h17.57c.6,0,1.08,.49,1.08,1.08,0,.6-.49,1.08-1.08,1.08Z" />
        <path class="cls-1"
          d="M46.15,69.89H24.93c-1.62,0-2.94-1.32-2.93-2.94,0-1.62,1.31-2.93,2.93-2.93,.27,0,.49,.22,.49,.49h0c0,.27-.22,.49-.49,.49-1.08,0-1.96,.87-1.96,1.95,0,1.08,.87,1.96,1.95,1.96h21.22c1.08,0,1.96-.88,1.95-1.96,0-1.08-.88-1.95-1.95-1.95H27.96c-.27,0-.49-.22-.49-.49,0-.27,.22-.49,.49-.49h18.2c1.62,0,2.94,1.32,2.93,2.94,0,1.62-1.31,2.93-2.93,2.93Z" />
        <g>
          <path class="cls-4"
            d="M33.66,8.82h-12.74c-.91,0-1.64-.73-1.64-1.64,0-.91,.73-1.64,1.64-1.64h12.74c.91,0,1.64,.73,1.64,1.64s-.73,1.64-1.64,1.64h0Z" />
          <path class="cls-4"
            d="M44.35,8.82h-4.62c-.91,0-1.64-.74-1.64-1.64,0-.91,.73-1.64,1.64-1.64h4.62c.91,0,1.64,.73,1.64,1.64s-.73,1.64-1.64,1.64h0Z" />
          <path class="cls-4"
            d="M15.61,8.82h-4.62c-.91,0-1.64-.74-1.64-1.64,0-.91,.73-1.64,1.64-1.64h4.62c.91,0,1.64,.74,1.64,1.64,0,.91-.73,1.64-1.64,1.64Z" />
          <path class="cls-5"
            d="M29.07,8.82h-3.54c-.91,0-1.64-.74-1.64-1.64,0-.91,.73-1.64,1.64-1.64h3.54c.91,0,1.64,.73,1.64,1.64s-.73,1.64-1.64,1.64h0Z" />
        </g>
        <path class="cls-1"
          d="M66.49,60.14H4.59C2.05,60.14,0,58.09,0,55.55v-23.04c0-.27,.22-.49,.49-.49,.27,0,.49,.22,.49,.49H.97v23.04c0,1.99,1.61,3.6,3.6,3.6h61.93c1.99,0,3.6-1.61,3.6-3.6V9.47c0-1.99-1.61-3.6-3.6-3.6H4.59c-1.99,0-3.61,1.61-3.61,3.6H.97v13.54c0,.27-.22,.49-.49,.49-.27,0-.49-.22-.49-.49V9.47C0,6.94,2.05,4.88,4.59,4.88h61.93c2.53,0,4.59,2.05,4.59,4.59V55.55c0,2.53-2.05,4.59-4.59,4.59,0,0-.02,0-.03,0Z" />
        <path class="cls-1"
          d="M66.51,21.57c-.27,0-.49-.22-.49-.49h0V11.12c0-.72-.58-1.3-1.3-1.3H6.35c-.72,0-1.3,.58-1.3,1.3v6.19c0,.27-.22,.49-.49,.49-.27,0-.49-.22-.49-.49h0v-6.19c0-1.27,1.03-2.29,2.29-2.29h58.35c1.27,0,2.29,1.03,2.29,2.29v9.96c0,.27-.22,.49-.49,.49,0,0-.02,0-.02,0Z" />
        <path class="cls-1"
          d="M4.57,37.57c-.27,0-.49-.22-.49-.49h0v-15.7c0-.27,.22-.49,.49-.49,.27,0,.49,.22,.49,.49h0v15.7c0,.27-.22,.49-.49,.49Z" />
        <path class="cls-1"
          d="M64.73,56.19H6.35c-1.27,0-2.29-1.03-2.29-2.29v-13.11c0-.27,.22-.49,.49-.49,.27,0,.49,.22,.49,.49v13.13c0,.71,.58,1.29,1.3,1.29h58.39c.71,0,1.29-.58,1.3-1.29V31.75c0-.27,.22-.49,.49-.49s.49,.22,.49,.49v22.17c-.01,1.25-1.02,2.26-2.27,2.27Z" />
        <path class="cls-5"
          d="M2.63,22.87c-.59,0-1.07-.48-1.08-1.07V10.99c0-.6,.49-1.08,1.08-1.08,.6,0,1.08,.49,1.08,1.08v10.8c0,.6-.49,1.08-1.09,1.07Z" />
        <rect class="cls-3" x="22.29" y="32.29" width="7.04" height="12.53" />
        <rect class="cls-3" x="41.16" y="25.07" width="7.04" height="19.76" />
        <rect class="cls-3" x="31.72" y="28.12" width="7.04" height="16.71" />
        <path class="cls-1"
          d="M29.33,45.23h-7.04c-.23,0-.42-.19-.42-.42,0,0,0,0,0,0v-12.51c0-.23,.19-.42,.42-.42h7.04c.24,0,.43,.19,.43,.42v12.53c-.01,.23-.2,.41-.43,.41Zm-6.61-.85h6.18v-11.65h-6.18v11.65Z" />
        <path class="cls-1"
          d="M48.2,45.23h-7.04c-.23,0-.42-.19-.42-.42,0,0,0,0,0,0V25.07c0-.24,.19-.43,.42-.43h7.04c.24,0,.43,.19,.43,.43v19.75c-.01,.23-.2,.41-.43,.41Zm-6.61-.85h6.18V25.45h-6.18v18.92Z" />
        <path class="cls-1"
          d="M38.77,45.23h-7.04c-.23,0-.42-.19-.42-.42,0,0,0,0,0,0V28.12c0-.23,.18-.43,.42-.43,0,0,0,0,0,0h7.04c.24,0,.43,.19,.43,.43v16.7c-.01,.23-.2,.41-.43,.41Zm-6.61-.85h6.18v-15.83h-6.18v15.83Z" />
        <path class="cls-1"
          d="M24.23,29.39c-.16,0-.3-.09-.38-.22-.11-.2-.03-.46,.17-.57l10.12-5.68s.1-.05,.15-.05l10.94-1.45c.24-.03,.45,.14,.48,.37,0,0,0,0,0,0,.03,.24-.13,.45-.36,.49,0,0,0,0,0,0l-10.86,1.43-10.04,5.64c-.07,.03-.14,.05-.21,.05Z" />
      </g>
      <g>
        <ellipse class="cls-33" cx="39.85" cy="157.25" rx="19.1" ry="1.88" />
        <ellipse class="cls-29" cx="39.85" cy="157.25" rx="12.79" ry=".73" />
        <path class="cls-1"
          d="M39.95,162.42c-13.18,0-27.17-1.7-27.17-4.85s13.99-4.85,27.17-4.85,27.16,1.7,27.16,4.85-13.99,4.85-27.16,4.85Zm0-8.88c-16.36,0-26.35,2.35-26.35,4.03s10.02,4.03,26.35,4.03,26.35-2.35,26.35-4.03-10.02-4.03-26.35-4.03h0Z" />
        <path class="cls-1"
          d="M39.85,159.5c-1.99,0-19.51-.06-19.51-2.27s17.49-2.27,19.51-2.27,19.51,.06,19.51,2.27-17.51,2.27-19.51,2.27Zm-18.62-2.27c1.06,.63,7.76,1.49,18.62,1.49s17.56-.84,18.63-1.49c-1.06-.63-7.76-1.48-18.63-1.48s-17.56,.86-18.62,1.51v-.03Z" />
        <path class="cls-9"
          d="M18.99,91.5c10.7-3.57,22.8,3.78,26.37,14.47,4.93,14.76-2.86,44.68-4.33,50-.14,.52-.54,.93-1.05,1.1h0c-.51,.17-1.07,.07-1.5-.25-4.4-3.4-28.57-22.61-33.49-37.38-3.57-10.7,1.67-23.86,12.37-27.43" />
        <path class="cls-15"
          d="M40.91,155.88c-.14,.52-.53,.93-1.04,1.09L16.14,92.34c.36-.16,.73-.3,1.11-.42l1.62-.54c10.7-3.57,22.8,3.78,26.37,14.47,4.93,14.79-2.86,44.68-4.33,50.03Z" />
        <circle class="cls-5" cx="25.23" cy="112.89" r="13.72" />
        <path class="cls-31"
          d="M12.93,117.97c-.41,0-.77-.25-.91-.63-2.43-7.3,1.51-15.19,8.81-17.62,7.3-2.43,15.19,1.51,17.62,8.81,.17,.5-.09,1.05-.59,1.22s-1.05-.09-1.22-.59c-2.26-6.24-9.15-9.46-15.38-7.21-6,2.17-9.25,8.65-7.41,14.76,.16,.51-.12,1.05-.63,1.21,0,0,0,0,0,0-.09,.03-.18,.05-.28,.05Z" />
        <path class="cls-14"
          d="M39.62,156.98c-.63-.1-1.2-.41-1.63-.88-.09-.08-.18-.15-.25-.2-1.62-1.26-5.93-4.68-10.88-9.18-.27-.25-.29-.67-.04-.94,.24-.27,.66-.3,.93-.05,0,0,0,0,.01,.01,4.91,4.47,9.19,7.86,10.8,9.11,.09,.06,.19,.15,.3,.25,.2,.18,.41,.35,.63,.5,.09-.26,.17-.52,.22-.79,.03-.14,.06-.28,.09-.38,.5-1.83,1.8-6.76,3-12.92,.07-.36,.42-.6,.79-.53s.6,.42,.53,.79c-1.21,6.2-2.52,11.17-3.02,13.01,0,.09-.05,.2-.08,.31-.14,.68-.35,1.6-1.08,1.85-.1,.03-.21,.05-.32,.05Z" />
        <path class="cls-14"
          d="M24.89,128.45c-.73,0-1.47-.05-2.2-.14-.4-.06-.68-.44-.62-.84,.06-.39,.41-.66,.8-.62,4.89,.67,9.8-1.08,13.15-4.71,.29-.28,.75-.28,1.04,0s.28,.75,0,1.04c-1.87,1.97-4.17,3.47-6.72,4.4-1.76,.58-3.6,.87-5.45,.86Z" />
        <circle class="cls-1" cx="19.94" cy="140.36" r=".57" />
        <circle class="cls-1" cx="6.81" cy="123.7" r=".57" />
        <circle class="cls-1" cx="38.07" cy="118.05" r=".57" />
        <path class="cls-14"
          d="M12.57,106.52c-.41-.02-.73-.36-.71-.77,0-.11,.03-.21,.08-.31,1.73-3.29,4.66-5.78,8.18-6.96,.38-.13,.8,.07,.93,.45,0,0,0,0,0,.01,.13,.39-.08,.8-.47,.93,0,0,0,0,0,0-3.17,1.05-5.81,3.29-7.37,6.25-.12,.24-.37,.4-.65,.4Z" />
        <path class="cls-1"
          d="M25.21,127.13c-7.86-.01-14.23-6.4-14.21-14.27,0-.99,.11-1.98,.31-2.94,.05-.28,.32-.46,.6-.4,.01,0,.02,0,.03,0,.28,.06,.46,.34,.4,.62,0,0,0,0,0,0-1.5,7.14,3.07,14.15,10.21,15.65,5.36,1.13,10.86-1.17,13.82-5.77,.15-.24,.47-.31,.71-.15s.31,.47,.15,.71h0c-2.62,4.09-7.14,6.56-12,6.56l-.03-.02Z" />
        <path class="cls-14"
          d="M43.99,139.12h-.13c-.4-.07-.66-.46-.59-.86,.88-4.77,1.51-9.58,1.89-14.42,0-.41,.34-.73,.75-.72s.73,.34,.72,.75c0,.03,0,.06,0,.08-.38,4.88-1.01,9.75-1.89,14.57-.07,.35-.38,.61-.74,.6Z" />
        <path class="cls-5"
          d="M4.87,111.82h-.04c-.52-.02-.92-.46-.91-.98,0-.38,.39-9.44,7.1-15.35,.39-.35,.99-.31,1.34,.08s.31,.99-.08,1.34c-6.08,5.39-6.46,13.92-6.46,14-.02,.51-.44,.91-.95,.91Z" />
        <path class="cls-5"
          d="M18.49,138.73c-.26,0-.51-.11-.69-.3-2.58-2.69-5.01-5.53-7.28-8.49-.31-.42-.23-1.01,.19-1.32s1.01-.23,1.32,.19c2.22,2.91,4.6,5.69,7.14,8.33,.36,.38,.35,.97-.03,1.33-.18,.17-.41,.26-.65,.26Z" />
        <path class="cls-1"
          d="M39.47,157.7c-.47,0-.93-.16-1.3-.45-6.04-4.7-11.79-9.74-17.25-15.1-.21-.19-.22-.51-.02-.72,.19-.21,.51-.22,.72-.02,0,0,.01,.01,.02,.02,5.43,5.33,11.15,10.35,17.15,15.03,.29,.22,.68,.28,1.03,.17,.35-.12,.62-.4,.71-.76,1.58-5.74,9.19-35.15,4.34-49.71-3.64-10.9-15.66-17.53-25.72-14.18-.26,.08-.54-.06-.63-.32-.08-.26,.06-.54,.32-.63,10.58-3.53,23.2,3.4,27.02,14.82,4.95,14.83-2.73,44.5-4.32,50.29-.19,.68-.7,1.23-1.37,1.45-.23,.07-.46,.1-.7,.09Z" />
        <path class="cls-1"
          d="M6,122.51c-.2,0-.38-.12-.47-.3-.39-.84-.73-1.7-1.03-2.58-1.77-5.51-1.47-11.47,.85-16.77,2.42-5.56,6.62-9.58,11.85-11.33,.28-.06,.55,.11,.62,.39,.05,.24-.07,.48-.29,.58-10.07,3.35-15.69,15.87-12.05,26.78,.28,.84,.61,1.67,.99,2.48,.12,.26,0,.56-.25,.68,0,0,0,0,0,0-.07,.03-.14,.05-.21,.06Z" />
        <path class="cls-1"
          d="M18.39,139.36c-.14,0-.27-.06-.36-.16-4.59-4.83-8.15-9.31-10.56-13.32-.15-.24-.07-.55,.17-.7,0,0,0,0,0,0,.24-.14,.56-.06,.7,.18,2.37,3.95,5.88,8.35,10.43,13.12,.2,.2,.2,.52,0,.72,0,0,0,0,0,0-.1,.11-.24,.17-.38,.17Z" />
        <path class="cls-1"
          d="M38.71,115.92h-.09c-.28-.05-.46-.32-.41-.6,1.31-7.18-3.46-14.06-10.64-15.36-5.65-1.03-11.32,1.71-14.02,6.78-.13,.25-.44,.35-.69,.22,0,0,0,0,0,0-.25-.14-.34-.44-.21-.69,3.67-6.95,12.28-9.61,19.23-5.93,3.23,1.71,5.69,4.6,6.85,8.07,.76,2.29,.93,4.74,.49,7.12-.05,.24-.26,.41-.5,.41Z" />
      </g>
      <g>
        <rect class="cls-18" x="186.22" y=".49" width="44.23" height="70.35" rx="4.1" ry="4.1" />
        <rect class="cls-22" x="189.88" y="4.58" width="36.29" height="62.17" rx="1.79" ry="1.79" />
        <path class="cls-31"
          d="M191.72,66.74c-.6,0-1.09-.49-1.09-1.09v-5.02c0-.6,.49-1.09,1.09-1.09,.6,0,1.09,.49,1.09,1.09h0v5.02c0,.6-.49,1.08-1.09,1.09Z" />
        <path class="cls-31"
          d="M191.72,55.45c-.6,0-1.09-.49-1.09-1.09,0,0,0,0,0,0v-7.74c0-.6,.49-1.09,1.09-1.09,.6,0,1.09,.49,1.09,1.09h0v7.74c0,.6-.49,1.09-1.09,1.09Z" />
        <path class="cls-6"
          d="M191.72,52.5c-.6,0-1.09-.49-1.09-1.09h0v-1.53c0-.6,.49-1.09,1.09-1.09,.6,0,1.09,.49,1.09,1.09h0v1.53c0,.6-.49,1.08-1.09,1.09Z" />
        <path class="cls-31"
          d="M191.72,42.35c-.6,0-1.08-.48-1.09-1.07,0,0,0,0,0-.01V5.21c0-.6,.49-1.09,1.09-1.09,.6,0,1.09,.49,1.09,1.09h0V41.26c0,.6-.49,1.09-1.09,1.09Z" />
        <polygon class="cls-5"
          points="214.95 5.05 217.33 5.05 208.76 66.97 206.38 66.97 214.95 5.05" />
        <polygon class="cls-5"
          points="201.33 5.05 211.32 5.05 202.76 66.97 193.36 66.97 201.33 5.05" />
        <path class="cls-1"
          d="M211.89,.97h-3.27c-.27,0-.49-.22-.49-.49,0-.27,.22-.48,.49-.48h3.28c.27,0,.49,.22,.49,.49,0,.27-.23,.48-.49,.48Z" />
        <path class="cls-1"
          d="M213.88,67.21h-2.73c-.27,0-.49-.22-.49-.49,0-.27,.22-.49,.49-.49h2.73c.27,0,.49,.22,.49,.49,0,.27-.22,.49-.49,.49Z" />
        <path class="cls-1"
          d="M213.23,64.73h-9.98c-.22-.03-.38-.23-.35-.45,.02-.18,.17-.33,.35-.35h9.98c.22,.03,.38,.23,.35,.45-.02,.18-.17,.33-.35,.35Z" />
        <path class="cls-26"
          d="M189.47,20.37c-.6,0-1.09-.49-1.09-1.09h0v-6.22c0-.6,.49-1.09,1.09-1.09,.6,0,1.09,.49,1.09,1.09h0v6.25c-.01,.59-.5,1.06-1.09,1.06Z" />
        <path class="cls-26"
          d="M189.47,57.33c-.6,0-1.09-.49-1.09-1.09h0v-6.2c0-.6,.49-1.09,1.09-1.09,.6,0,1.09,.49,1.09,1.09h0v6.22c0,.59-.49,1.07-1.09,1.06Z" />
        <path class="cls-26"
          d="M189.47,44.37c-.6,0-1.09-.49-1.09-1.09h0V25.65c0-.6,.49-1.09,1.09-1.09,.6,0,1.09,.49,1.09,1.09h0v17.64c0,.6-.48,1.08-1.07,1.09,0,0,0,0-.01,0Z" />
        <path class="cls-4"
          d="M228.64,35.44c-.91,0-1.65-.74-1.65-1.65v-12.79c0-.91,.74-1.65,1.65-1.65,.91,0,1.65,.74,1.65,1.65v12.8c0,.91-.74,1.64-1.65,1.64Z" />
        <path class="cls-4"
          d="M228.64,46.16c-.91,0-1.65-.74-1.65-1.65v-4.64c0-.91,.74-1.65,1.65-1.65,.91,0,1.65,.74,1.65,1.65v4.64c0,.91-.74,1.65-1.65,1.65Z" />
        <path class="cls-4"
          d="M228.64,17.31c-.91,0-1.65-.74-1.65-1.65v-4.64c0-.91,.74-1.65,1.65-1.65,.91,0,1.65,.74,1.65,1.65v4.67c-.02,.9-.75,1.62-1.65,1.62Z" />
        <path class="cls-5"
          d="M228.64,30.81c-.91,0-1.65-.74-1.65-1.65v-3.55c0-.91,.74-1.65,1.65-1.65,.91,0,1.65,.74,1.65,1.65v3.55c0,.91-.74,1.65-1.65,1.65Z" />
        <path class="cls-5"
          d="M197.82,4.44h-5.43c-1,0-1.81-.81-1.81-1.81s.81-1.81,1.81-1.81h5.43c1,0,1.81,.81,1.81,1.81s-.81,1.81-1.81,1.81Z" />
        <path class="cls-18"
          d="M202.33,4.44v1c0,1.35,.91,2.41,2.03,2.41h9.52c1.12,0,2.03-1.09,2.03-2.41v-1.02" />
        <path class="cls-1"
          d="M213.76,8.52h-9.17c-1.33,0-2.41-1.08-2.41-2.41,0-.25,.21-.46,.46-.46s.46,.21,.46,.46c0,.83,.67,1.5,1.5,1.5h9.17c.83,0,1.49-.67,1.5-1.5-.03-.25,.15-.48,.4-.51s.48,.15,.51,.4c0,.03,0,.07,0,.11,0,1.33-1.08,2.41-2.41,2.41Z" />
        <circle class="cls-1" cx="206.36" cy="5.45" r=".63" />
        <path class="cls-1"
          d="M211.94,5.76h-3.33c-.17,.03-.33-.07-.36-.24-.03-.17,.07-.33,.24-.36,.04,0,.08,0,.12,0h3.33c.17-.03,.33,.07,.36,.24,.03,.17-.07,.33-.24,.36-.04,0-.08,0-.12,0Z" />
        <path class="cls-1"
          d="M224.69,67.24h-32.71c-1.26,0-2.28-1.02-2.28-2.28V6.37c0-1.26,1.02-2.28,2.28-2.28h10.26c.27,0,.49,.22,.49,.49,0,.27-.22,.49-.49,.49h-10.26c-.72,0-1.3,.58-1.3,1.3v58.6c0,.72,.58,1.3,1.3,1.3h32.71c.72,0,1.3-.58,1.3-1.3V6.37c0-.72-.58-1.3-1.3-1.3h-8.38c-.27,0-.49-.22-.49-.49,0-.27,.22-.49,.49-.49h8.38c1.26,0,2.28,1.02,2.28,2.28v58.6c0,1.26-1.02,2.28-2.28,2.28Z" />
        <path class="cls-1"
          d="M226.34,71.33h-36.01c-2.54,0-4.59-2.06-4.59-4.6V4.58c0-2.53,2.06-4.58,4.59-4.58h15.3c.27,.03,.47,.27,.44,.55-.03,.23-.21,.41-.44,.44h-15.3c-2,0-3.62,1.62-3.62,3.62v62.16c0,2,1.62,3.62,3.62,3.62h36.01c2,0,3.62-1.62,3.62-3.62V4.6c0-2-1.62-3.62-3.62-3.62h-11.18c-.27-.03-.47-.27-.44-.55,.03-.23,.21-.41,.44-.44h11.18c2.54,0,4.59,2.06,4.6,4.59v62.16c0,2.53-2.06,4.58-4.6,4.59Z" />
        <rect class="cls-5" x="199.09" y="19.53" width="38.17" height="27.03" rx="2.58" ry="2.58" />
        <path class="cls-1"
          d="M220.79,23.78h-17.55c-.27,0-.49-.22-.49-.49,0-.27,.22-.49,.49-.49h17.55c.27,0,.49,.22,.49,.49,0,.27-.22,.49-.49,.49h0Z" />
        <path class="cls-1"
          d="M216.56,27.35h-13.32c-.27,0-.49-.22-.49-.49,0-.27,.22-.49,.49-.49h13.32c.27,0,.49,.22,.49,.49,0,.27-.22,.49-.49,.49h0Z" />
        <path class="cls-1"
          d="M211.13,30.93h-7.89c-.27,0-.49-.22-.49-.49,0-.27,.22-.49,.49-.49h7.9c.27,0,.49,.22,.49,.49,0,.27-.22,.49-.49,.49h0Z" />
        <path class="cls-32"
          d="M211.14,46.3h-6.52c-.6,0-1.09-.49-1.09-1.09s.49-1.09,1.09-1.09h6.52c.6,0,1.09,.49,1.09,1.09s-.49,1.09-1.09,1.09Z" />
        <path class="cls-32"
          d="M231.08,46.3h-6.52c-.6,0-1.09-.49-1.09-1.09s.49-1.09,1.09-1.09h6.52c.6,0,1.09,.49,1.09,1.09s-.49,1.09-1.09,1.09Z" />
        <path class="cls-32"
          d="M218.87,46.3h-2.93c-.6,0-1.09-.49-1.09-1.09s.49-1.09,1.09-1.09h2.93c.6,0,1.09,.49,1.09,1.09s-.49,1.09-1.09,1.09Z" />
        <path class="cls-1"
          d="M234.68,46.83h-33c-1.7,0-3.07-1.38-3.07-3.07V21.89c0-1.7,1.38-3.07,3.07-3.07h33c1.7,0,3.07,1.38,3.07,3.07v21.88c0,1.7-1.38,3.07-3.07,3.07Zm-33-27.03c-1.16,0-2.1,.92-2.11,2.08,0,0,0,0,0,.01v21.88c0,1.16,.93,2.1,2.09,2.1,0,0,.02,0,.02,0h33c1.15,0,2.09-.93,2.09-2.09V21.89c0-1.15-.94-2.09-2.09-2.09h-33Z" />
        <circle class="cls-16" cx="227.9" cy="54.58" r="13.97" />
        <g>
          <circle class="cls-28" cx="222.27" cy="46.5" r="1.85" />
          <circle class="cls-28" cx="224.87" cy="49.33" r="1" />
        </g>
        <path class="cls-5"
          d="M227.09,60.1c-.3,0-.58-.11-.8-.31l-4.32-3.86c-.5-.44-.54-1.21-.1-1.71,.44-.5,1.21-.54,1.71-.1h0l3.37,3.02,5.13-6.43c.42-.52,1.18-.61,1.7-.19,.52,.42,.61,1.18,.19,1.7h0l-5.93,7.43c-.21,.26-.51,.42-.84,.45h-.1Z" />
        <circle class="cls-1" cx="216.82" cy="46.13" r=".6" />
        <path class="cls-23"
          d="M230.45,68.4c-.5,.03-.93-.35-.96-.85s.35-.93,.85-.96c.22,0,5.15-.66,8.26-6.08,.25-.42,.78-.56,1.21-.33,.42,.24,.57,.78,.33,1.21-3.62,6.25-9.38,6.96-9.66,6.98l-.04,.04Z" />
        <path class="cls-23"
          d="M240.64,58.6c-.1,0-.2-.02-.3-.05-.47-.16-.72-.67-.56-1.14,0,0,0,0,0-.01,.24-.86,.4-1.75,.46-2.64,.03-.49,.45-.86,.94-.83,.01,0,.02,0,.03,0,.5,.04,.87,.47,.83,.97-.08,1.05-.27,2.09-.56,3.1-.13,.36-.47,.61-.86,.61Z" />
        <path class="cls-24"
          d="M225.69,68.19c-.06,0-.11,0-.17,0-1.03-.19-2.05-.49-3.02-.89-.45-.22-.64-.76-.43-1.21,.22-.45,.76-.64,1.21-.43h0c.83,.33,1.69,.58,2.57,.75,.5,.04,.87,.49,.82,.99-.04,.5-.49,.87-.99,.82v-.04Z" />
        <path class="cls-1"
          d="M227.93,69.09c-8.02,0-14.52-6.49-14.53-14.51,0-2.49,.64-4.95,1.86-7.12,.17-.25,.51-.32,.76-.14,.22,.15,.3,.44,.19,.68-3.63,6.46-1.33,14.64,5.13,18.27,6.46,3.63,14.64,1.33,18.27-5.13,3.63-6.46,1.33-14.64-5.13-18.27-5.23-2.94-11.77-2.05-16.02,2.17-.21,.22-.56,.22-.78,0-.22-.21-.22-.56,0-.78,5.69-5.64,14.88-5.6,20.52,.09,5.64,5.69,5.6,14.88-.09,20.52-2.71,2.68-6.36,4.2-10.18,4.21Z" />
      </g>
      <g>
        <polygon class="cls-17"
          points="135 161.84 117.07 161.84 118.84 149.18 133.22 149.18 135 161.84" />
        <path class="cls-13"
          d="M129.43,154.48h-7.3c-.65,0-1.19-.53-1.19-1.19s.53-1.19,1.19-1.19h7.3c.65,0,1.19,.53,1.19,1.19s-.53,1.19-1.19,1.19Z" />
        <path class="cls-1"
          d="M134.99,162.35h-17.93c-.28,0-.51-.23-.5-.51,0-.03,0-.05,0-.08l1.78-12.66c.04-.25,.25-.44,.5-.44h14.37c.25,0,.47,.19,.5,.44l1.78,12.66c.02,.14-.02,.29-.12,.4-.09,.12-.23,.19-.39,.2Zm-17.35-1.01h16.76l-1.64-11.65h-13.48l-1.64,11.65Z" />
        <path class="cls-1"
          d="M140.77,162.35h-4c-.28,0-.5-.23-.5-.51,0-.28,.23-.5,.5-.5h3.99c.28,0,.5,.23,.5,.5h0c0,.28-.22,.5-.5,.51Z" />
        <path class="cls-1"
          d="M115.25,162.35h-3.96c-.28,0-.5-.23-.5-.51,0-.28,.23-.5,.5-.5h3.99c.28-.03,.53,.17,.56,.45,.03,.28-.17,.53-.45,.56-.04,0-.07,0-.11,0h-.03Z" />
        <rect class="cls-17" x="89.22" y="97.59" width="72.43" height="54.32" rx="4.23" ry="4.23" />
        <rect class="cls-22" x="93.43" y="101.99" width="64.01" height="46.14" rx="1.84" ry="1.84" />
        <path class="cls-31"
          d="M149.81,104.14h-5.17c-.62,0-1.12-.5-1.12-1.12s.5-1.12,1.12-1.12h5.17c.62,0,1.12,.5,1.12,1.12s-.5,1.12-1.12,1.12Z" />
        <polygon class="cls-5"
          points="115.67 147.85 113.22 147.85 122.04 101.83 124.5 101.83 115.67 147.85" />
        <polygon class="cls-5"
          points="129.7 147.85 119.4 147.85 128.23 101.83 138.53 101.83 129.7 147.85" />
        <path class="cls-1"
          d="M89.21,123.06c-.28,0-.5-.23-.5-.51v-3.37c0-.28,.23-.5,.5-.5s.5,.23,.5,.5v3.37c0,.28-.22,.51-.5,.51Z" />
        <path class="cls-1"
          d="M157.41,120.45c-.28,0-.51-.23-.51-.51v-2.81c0-.28,.23-.5,.51-.5,.28,0,.5,.23,.5,.5h0v2.81c0,.28-.22,.51-.5,.51Z" />
        <path class="cls-1"
          d="M157.41,136.1c-.28,0-.51-.22-.51-.5v-12.89c0-.28,.23-.5,.51-.5,.28,0,.5,.23,.5,.5h0v12.89c0,.28-.23,.5-.5,.5h0Z" />
        <path class="cls-10"
          d="M123.5,100.93h-13.17c-.82,0-1.48-.66-1.48-1.48s.66-1.48,1.48-1.48h13.17c.82,0,1.48,.66,1.48,1.48s-.66,1.48-1.48,1.48h0Z" />
        <path class="cls-10"
          d="M134.54,100.93h-4.78c-.82,0-1.48-.66-1.48-1.48s.66-1.48,1.48-1.48h4.78c.82,0,1.48,.66,1.48,1.48s-.66,1.48-1.48,1.48Z" />
        <path class="cls-10"
          d="M104.84,100.93h-4.78c-.82,0-1.48-.66-1.48-1.48s.66-1.48,1.48-1.48h4.78c.82,0,1.48,.66,1.48,1.48s-.66,1.48-1.48,1.48Z" />
        <path class="cls-5"
          d="M118.74,101.14h-3.66c-.93,.06-1.74-.66-1.79-1.59-.06-.93,.66-1.74,1.59-1.79,.07,0,.13,0,.2,0h3.66c.93-.06,1.74,.66,1.79,1.59s-.66,1.74-1.59,1.79c-.07,0-.13,0-.2,0Z" />
        <path class="cls-1"
          d="M157.43,152.41H93.42c-2.62,0-4.74-2.12-4.74-4.74v-22.05c0-.28,.23-.5,.5-.5s.5,.23,.5,.5v22.06c0,2.05,1.67,3.72,3.72,3.72h64.01c2.05,0,3.72-1.67,3.72-3.72v-45.87c0-2.05-1.67-3.72-3.72-3.72H93.41c-2.05,0-3.72,1.67-3.72,3.72v14c0,.28-.23,.5-.5,.5s-.5-.23-.5-.5h0v-14c0-2.62,2.12-4.74,4.74-4.74h64.01c2.62,0,4.74,2.12,4.74,4.74v45.87c0,2.61-2.13,4.73-4.74,4.73Z" />
        <path class="cls-1"
          d="M157.44,114.32c-.28,0-.5-.23-.5-.5h0v-10.26c0-.74-.6-1.33-1.34-1.33h-60.31c-.74,0-1.34,.59-1.35,1.33,0,0,0,0,0,0v6.37c0,.28-.23,.5-.5,.5s-.5-.23-.5-.5v-6.37c0-1.31,1.06-2.37,2.37-2.37h60.3c1.31,0,2.37,1.06,2.37,2.37v10.26c0,.28-.22,.5-.5,.5,0,0-.02,0-.02,0Z" />
        <path class="cls-1"
          d="M93.43,136.19c-.28,0-.5-.23-.5-.5h0v-21.56c0-.28,.23-.5,.5-.5s.5,.23,.5,.5v21.56c0,.28-.23,.5-.5,.5h0Z" />
        <path class="cls-17"
          d="M157.61,138.92v7.53c.01,1.04-.82,1.9-1.86,1.91,0,0,0,0-.01,0h-60.87c-1.04-.01-1.87-.87-1.86-1.91h0v-7.53h64.6Z" />
        <path class="cls-13"
          d="M150.57,141.54h-7.28c-.65,0-1.19-.53-1.19-1.19s.53-1.19,1.19-1.19h7.29c.65,0,1.19,.53,1.19,1.19s-.53,1.19-1.19,1.19h-.01Z" />
        <path class="cls-13"
          d="M136.74,141.54h-25.07c-.65,0-1.19-.53-1.19-1.19s.53-1.19,1.19-1.19h25.07c.65,0,1.19,.53,1.19,1.19s-.53,1.19-1.19,1.19Z" />
        <path class="cls-13"
          d="M104.26,141.6h-7.3c-.65,0-1.19-.53-1.19-1.19s.53-1.19,1.19-1.19h7.3c.65,0,1.19,.53,1.19,1.19s-.53,1.19-1.19,1.19h0Z" />
        <ellipse class="cls-5" cx="126.08" cy="145.28" rx="2.34" ry="2.2" />
        <path class="cls-1"
          d="M126.1,148.19c-1.72,0-3.11-1.39-3.11-3.11,0-1.72,1.39-3.11,3.11-3.11,1.72,0,3.11,1.39,3.11,3.11h0c0,1.71-1.39,3.1-3.11,3.11Zm0-5.2c-1.16,0-2.09,.94-2.09,2.09s.94,2.09,2.09,2.09,2.09-.94,2.09-2.09h0c0-1.16-.94-2.09-2.09-2.09Z" />
        <path class="cls-31"
          d="M106.78,138.43h-7.94c-.62,0-1.12-.5-1.12-1.12,0-.62,.5-1.12,1.12-1.12h7.97c.62,0,1.12,.5,1.12,1.12,0,.62-.5,1.12-1.12,1.12h-.03Z" />
        <path class="cls-6"
          d="M103.72,138.43h-1.57c-.62,0-1.12-.5-1.12-1.12,0-.62,.5-1.12,1.12-1.12h1.57c.62,0,1.12,.5,1.12,1.12,0,.62-.5,1.12-1.12,1.12Z" />
        <path class="cls-31"
          d="M152.71,138.29h-16.43c-.62,.04-1.15-.42-1.2-1.04-.04-.62,.42-1.15,1.04-1.2,.05,0,.11,0,.16,0h16.43c.62-.04,1.15,.42,1.2,1.04,.04,.62-.42,1.15-1.04,1.2-.05,0-.11,0-.16,0Z" />
        <path class="cls-1"
          d="M156.92,139.26h-63.13c-.28,0-.5-.23-.5-.5,0-.28,.23-.5,.5-.5h63.13c.28,0,.5,.22,.5,.5,0,.28-.22,.5-.5,.5h0Z" />
        <path class="cls-5"
          d="M91.34,120.11c-.62,0-1.12-.5-1.12-1.12h0v-11.17c0-.62,.5-1.12,1.12-1.12,.62,0,1.12,.5,1.12,1.12v11.17c0,.62-.5,1.12-1.12,1.12Z" />
        <path class="cls-1"
          d="M122.51,159.06h-4.57c-.21,0-.39-.17-.39-.39s.17-.39,.39-.39h4.57c.21,0,.39,.17,.39,.39s-.17,.39-.39,.39Z" />
        <path class="cls-1"
          d="M125.97,159.06h-1.6c-.21,0-.39-.17-.39-.39s.17-.39,.39-.39h1.6c.21,0,.39,.17,.39,.39s-.17,.39-.39,.39Z" />
        <circle class="cls-16" cx="107.07" cy="105.12" r="13.72" />
        <circle class="cls-28" cx="101.54" cy="97.2" r="1.81" />
        <circle class="cls-28" cx="104.09" cy="99.97" r=".98" />
        <path class="cls-5"
          d="M106.27,110.55c-.29,0-.57-.11-.79-.3l-4.24-3.79c-.49-.44-.54-1.19-.1-1.68,.44-.49,1.19-.54,1.68-.1l3.31,2.96,5.04-6.32c.37-.54,1.11-.67,1.65-.29,.54,.37,.67,1.11,.29,1.65-.03,.04-.06,.08-.09,.12l-5.82,7.3c-.2,.25-.5,.41-.83,.44h-.1Z" />
        <circle class="cls-1" cx="96.18" cy="96.84" r=".59" />
        <path class="cls-23"
          d="M109.57,118.7c-.45,0-.83-.34-.88-.79-.06-.48,.29-.92,.78-.98,0,0,0,0,0,0,.21,0,5.06-.66,8.12-5.98,.25-.43,.79-.57,1.21-.33,.43,.25,.57,.79,.33,1.21h0c-3.56,6.13-9.22,6.83-9.48,6.86h-.08Z" />
        <path class="cls-23"
          d="M119.59,109.08c-.1,0-.2-.02-.3-.05-.46-.17-.7-.67-.55-1.14,.24-.85,.39-1.71,.46-2.59,.04-.49,.47-.86,.96-.82s.86,.47,.82,.96h0c-.08,1.03-.26,2.05-.55,3.05-.13,.36-.46,.59-.84,.59Z" />
        <path class="cls-24"
          d="M104.89,118.52c-.06,0-.11,0-.17,0-1.02-.19-2.01-.48-2.96-.87-.44-.21-.63-.74-.42-1.19s.74-.63,1.19-.42c.81,.33,1.66,.57,2.52,.73,.49,.04,.85,.48,.81,.97-.04,.49-.48,.85-.97,.81v-.03Z" />
        <path class="cls-1"
          d="M107.07,119.38c-7.88,0-14.26-6.37-14.27-14.25,0-2.45,.63-4.86,1.83-6.99,.14-.26,.46-.35,.72-.21,0,0,0,0,0,0,.26,.15,.35,.47,.21,.73-3.56,6.35-1.31,14.38,5.04,17.95s14.38,1.31,17.95-5.04c3.56-6.35,1.31-14.38-5.04-17.95-5.13-2.88-11.56-2.01-15.74,2.13-.21,.21-.54,.21-.75,0-.21-.21-.21-.55,0-.76,5.59-5.55,14.62-5.51,20.17,.08,5.55,5.59,5.51,14.62-.08,20.17-2.67,2.65-6.28,4.14-10.05,4.14h.02Z" />
      </g>
      <g>
        <rect class="cls-18" x="175.12" y="141.44" width="74.86" height="19.46" rx="9.73" ry="9.73" />
        <path class="cls-26"
          d="M240.19,161.37h-55.29c-5.49,0-9.93-4.45-9.94-9.94v-.25c0-5.48,4.45-9.93,9.94-9.93h55.29c5.48,.01,9.92,4.45,9.93,9.93v.25c0,5.48-4.45,9.93-9.93,9.94Zm-55.29-18.1c-4.37,0-7.91,3.54-7.91,7.91v.25c0,4.37,3.54,7.91,7.91,7.91h55.29c4.36-.02,7.89-3.55,7.89-7.91v-.25c0-4.37-3.54-7.91-7.91-7.91h-55.27Z" />
        <path class="cls-1"
          d="M240.25,161.36h-55.41c-5.62,0-10.18-4.56-10.18-10.18s4.56-10.18,10.18-10.18h7.89c.25,.03,.44,.25,.41,.51-.02,.22-.19,.39-.41,.41h-7.89c-5.12,0-9.26,4.15-9.26,9.27,0,5.11,4.15,9.26,9.26,9.26h55.41c5.12,0,9.26-4.15,9.26-9.27,0-5.11-4.15-9.26-9.26-9.26h-26.15c-.25,.03-.48-.16-.51-.41s.16-.48,.41-.51c.03,0,.06,0,.1,0h26.15c5.62,0,10.18,4.56,10.18,10.18s-4.56,10.18-10.18,10.18Z" />
        <path class="cls-25"
          d="M185.31,144.82h54.47c3.43,0,6.2,2.78,6.2,6.2h0c0,3.43-2.78,6.2-6.2,6.2h-54.47c-3.43,0-6.2-2.78-6.2-6.2h0c0-3.43,2.78-6.2,6.2-6.2Z" />
        <path class="cls-25"
          d="M185.46,144.82h54.47c3.43,0,6.2,2.78,6.2,6.2h0c0,3.43-2.78,6.2-6.2,6.2h-54.47c-3.43,0-6.2-2.78-6.2-6.2h0c0-3.43,2.78-6.2,6.2-6.2Z" />
        <path class="cls-30"
          d="M207.24,157.44h-8.28c-.42,0-.76-.34-.76-.76s.34-.76,.76-.76h8.28c.42,0,.76,.34,.76,.76s-.34,.76-.76,.76h0Z" />
        <path class="cls-30"
          d="M191.46,157.48h0l-6.25-.05c-.42,0-.76-.34-.76-.76s.34-.76,.76-.76h0l6.26,.05c.42,0,.76,.34,.76,.76s-.34,.76-.76,.76h0Z" />
        <path class="cls-30"
          d="M239.94,157.48h0l-6.25-.05c-.42,0-.76-.34-.76-.76s.34-.76,.76-.76l6.25,.05c.42,0,.76,.34,.76,.76s-.34,.76-.76,.76Z" />
        <path class="cls-30"
          d="M232.72,157.44h-10.66c-.42,0-.76-.34-.76-.76s.34-.76,.76-.76h10.66c.42,0,.76,.34,.76,.76s-.34,.76-.76,.76Z" />
        <path class="cls-30"
          d="M226.83,146.65h-6.11c-.42,0-.76-.34-.76-.76s.34-.76,.76-.76h6.11c.42,0,.76,.34,.76,.76s-.34,.76-.76,.76Z" />
        <path class="cls-30"
          d="M205.12,146.65h-6.14c-.42,0-.76-.34-.76-.76s.34-.76,.76-.76h6.14c.42,0,.76,.34,.76,.76s-.34,.76-.76,.76Z" />
        <path class="cls-1"
          d="M239.78,157.83h-54.48c-3.68,0-6.66-2.98-6.66-6.66s2.98-6.66,6.66-6.66h54.48c3.68,0,6.66,2.98,6.66,6.66s-2.98,6.66-6.66,6.66Zm-54.48-12.4c-3.17,0-5.74,2.57-5.74,5.74s2.57,5.74,5.74,5.74h54.48c3.17,0,5.74-2.57,5.75-5.74s-2.57-5.74-5.74-5.75h-54.49Z" />
        <circle class="cls-18" cx="192.68" cy="151.12" r="5.79" />
        <path class="cls-1"
          d="M192.68,157.26c-2.56,.01-4.87-1.55-5.8-3.94-.09-.23,.03-.49,.25-.58,.23-.09,.48,.02,.58,.25,0,0,0,0,0,0,1.08,2.75,4.19,4.1,6.93,3.02,2.75-1.08,4.1-4.19,3.02-6.93-1.08-2.75-4.19-4.1-6.93-3.02-2.04,.8-3.38,2.77-3.39,4.97,.03,.25-.15,.47-.4,.49-.25,.03-.47-.15-.49-.4,0-.03,0-.06,0-.1,0-3.44,2.79-6.23,6.23-6.23,3.44,0,6.23,2.79,6.23,6.23,0,3.44-2.79,6.23-6.23,6.23h0Z" />
        <circle class="cls-5" cx="192.68" cy="151.08" r="2.68" />
        <path class="cls-1"
          d="M192.65,154.16c-1.73,0-3.13-1.4-3.13-3.13,0-1.73,1.4-3.13,3.13-3.13s3.13,1.4,3.13,3.13h0c0,1.73-1.4,3.13-3.13,3.13Zm0-5.37c-1.24,0-2.24,1-2.24,2.24s1,2.24,2.24,2.24,2.24-1,2.24-2.24h0c0-1.24-1-2.25-2.24-2.25h0Z" />
        <circle class="cls-18" cx="234.56" cy="151.12" r="5.79" />
        <path class="cls-1"
          d="M234.56,157.26c-3.44,0-6.23-2.79-6.23-6.23,0-3.44,2.79-6.23,6.23-6.23,3.44,0,6.23,2.79,6.23,6.23h0c0,3.44-2.79,6.23-6.23,6.23Zm0-11.57c-2.95,0-5.35,2.39-5.35,5.34,0,2.95,2.39,5.35,5.34,5.35,2.95,0,5.35-2.39,5.35-5.34h0c0-2.96-2.39-5.35-5.34-5.35Z" />
        <circle class="cls-5" cx="234.56" cy="151.08" r="2.68" />
        <path class="cls-1"
          d="M234.56,154.16c-1.73,0-3.13-1.4-3.13-3.13,0-1.73,1.4-3.13,3.13-3.13s3.13,1.4,3.13,3.13h0c0,1.73-1.4,3.13-3.13,3.13Zm0-5.37c-1.24,0-2.24,1-2.24,2.24s1,2.24,2.24,2.24,2.24-1,2.24-2.24h0c0-1.24-1.01-2.24-2.24-2.24Z" />
        <circle class="cls-18" cx="213.62" cy="151.12" r="5.79" />
        <path class="cls-1"
          d="M213.62,157.26c-3.44,0-6.23-2.79-6.23-6.23,0-3.44,2.79-6.23,6.23-6.23,3.44,0,6.23,2.79,6.23,6.23h0c0,3.44-2.79,6.23-6.23,6.23Zm0-11.57c-2.95,0-5.35,2.39-5.35,5.34,0,2.95,2.39,5.35,5.34,5.35,2.95,0,5.35-2.39,5.35-5.34h0c0-2.96-2.39-5.35-5.34-5.35Z" />
        <circle class="cls-5" cx="213.62" cy="151.08" r="2.68" />
        <path class="cls-1"
          d="M213.62,154.16c-1.73,0-3.13-1.4-3.13-3.13,0-.24,.2-.44,.44-.44,.24,0,.44,.2,.44,.44,0,1.24,1,2.24,2.24,2.25,1.24,0,2.24-1,2.25-2.24,0-1.24-1-2.24-2.24-2.25h0c-.25-.03-.42-.25-.4-.49,.02-.21,.19-.38,.4-.4,1.73-.07,3.19,1.27,3.26,3,.07,1.73-1.27,3.19-3,3.26-.08,0-.17,0-.25,0h0Z" />
        <path class="cls-5"
          d="M189.43,149.83c0-.07,.04-.14,.06-.21s.03-.08,.04-.11,.08-.19,0-.05,0,0,0-.04l.06-.11c.04-.07,.08-.14,.12-.21s.1-.15,.15-.23c.03-.03,.05-.07,.08-.1-.05,.08-.09,.12,0,0,.12-.13,.24-.26,.37-.38l.2-.18c.13-.1-.14,.11,0,0l.11-.08c.16-.11,.33-.21,.51-.3l.13-.06,.09-.04-.09,.04s.24-.09,.29-.11c.22-.07,.44-.13,.67-.17,.41-.11,.65-.53,.53-.94-.13-.39-.54-.61-.94-.51-1.74,.32-3.41,1.6-3.84,3.37-.11,.41,.13,.83,.53,.94,.41,.11,.83-.13,.94-.53h0Z" />
        <circle class="cls-5" cx="194" cy="146.92" r=".79" />
        <path class="cls-5"
          d="M231.48,149.83l.06-.21,.04-.11v-.05c-.06,.13,0,0,0-.04l.06-.11c.04-.07,.08-.14,.12-.21s.1-.15,.15-.23l.08-.1c-.05,.08-.09,.12,0,0,.11-.13,.24-.26,.37-.38l.2-.18c.13-.1-.14,.11,0,0l.11-.08c.16-.11,.33-.21,.51-.3l.13-.06,.09-.04-.09,.04s.24-.09,.29-.11c.22-.07,.44-.13,.67-.17,.4-.11,.64-.53,.53-.94-.13-.39-.54-.61-.94-.51-1.74,.32-3.41,1.6-3.84,3.37-.12,.4,.1,.83,.5,.96,.4,.12,.83-.1,.96-.5,0-.01,0-.03,.01-.04h0Z" />
        <circle class="cls-5" cx="236.05" cy="146.92" r=".79" />
        <path class="cls-1"
          d="M208.93,141.9h-11.91c-.25-.03-.44-.25-.41-.51,.02-.22,.19-.39,.41-.41h11.91c.25,.03,.44,.25,.41,.51-.02,.22-.19,.39-.41,.41Z" />
        <circle class="cls-1" cx="192.65" cy="151.02" r="1.08" />
        <circle class="cls-1" cx="213.55" cy="151.02" r="1.08" />
        <circle class="cls-1" cx="234.54" cy="151.02" r="1.08" />
        <circle class="cls-1" cx="211.3" cy="141.25" r=".68" />
        <path class="cls-7"
          d="M214.13,107.11h-5.05c-.98-.07-1.72-.93-1.65-1.92,.07-.88,.77-1.58,1.65-1.65h5.05c.98,.07,1.72,.93,1.65,1.92-.07,.88-.77,1.58-1.65,1.65Z" />
        <polygon class="cls-3"
          points="194.65 103.4 194.87 114.98 209.71 114.98 209.71 103.44 194.65 103.4" />
        <path class="cls-1"
          d="M209.9,115.37h-14.84c-.21,0-.39-.17-.39-.39h0v-11.12c-.02-.22,.13-.41,.34-.43,.22-.02,.41,.13,.43,.34,0,.03,0,.06,0,.09v10.72h14.05v-10.64c-.02-.22,.13-.41,.34-.43,.22-.02,.41,.13,.43,.34,0,.03,0,.06,0,.09v11.03c0,.21-.17,.38-.38,.39Z" />
        <circle class="cls-11" cx="199.45" cy="107.88" r="1.56" />
        <circle class="cls-11" cx="201.65" cy="110.26" r=".85" />
        <rect class="cls-8" x="193.9" y="103.44" width="36.97" height="34.27" />
        <path class="cls-2"
          d="M211.89,106.96h-12.18c-.98-.07-1.72-.93-1.65-1.92,.07-.88,.77-1.58,1.65-1.65h12.18c.98-.07,1.84,.66,1.92,1.65,.07,.98-.66,1.84-1.65,1.92-.09,0-.18,0-.27,0h0Z" />
        <path class="cls-7"
          d="M223.88,107.07h-5.05c-.98-.07-1.72-.93-1.65-1.92,.07-.88,.77-1.58,1.65-1.65h5.05c.98,.07,1.72,.93,1.65,1.92-.07,.88-.77,1.58-1.65,1.65Z" />
        <path class="cls-19"
          d="M224.25,137.29h-24.08c-.49,0-.89-.4-.89-.88,0-.49,.4-.89,.88-.89h24.08c.49,0,.89,.4,.89,.88,0,.49-.4,.89-.88,.89h0Z" />
        <polygon class="cls-3"
          points="204.4 103.35 204.63 114.93 212.26 111.8 219.46 114.93 219.46 103.4 204.4 103.35" />
        <path class="cls-1"
          d="M204.8,115.32c-.08,0-.15-.02-.21-.06-.11-.08-.17-.2-.17-.33v-11.11c-.02-.22,.13-.41,.34-.43,.22-.02,.41,.13,.43,.34,0,.03,0,.06,0,.09v10.51l6.76-2.98c.1-.04,.21-.04,.31,0l6.98,2.99v-10.45c.02-.22,.22-.37,.43-.34,.18,.02,.32,.16,.34,.34v11.05c0,.22-.18,.39-.39,.39-.05,0-.1-.01-.15-.03l-7.36-3.16-7.16,3.16c-.05,.01-.11,.02-.16,.01Z" />
        <path class="cls-1"
          d="M193.9,111.43c-.25,0-.46-.21-.46-.46v-7.53c0-.25,.21-.46,.46-.46h13.2c.25,0,.46,.21,.46,.46s-.21,.46-.46,.46h-12.73v7.07c0,.25-.2,.46-.46,.46,0,0-.01,0-.02,0Z" />
        <circle class="cls-11" cx="209.39" cy="106.84" r="1.56" />
        <circle class="cls-11" cx="211.59" cy="109.22" r=".85" />
        <path class="cls-1"
          d="M230.86,138.17h-36.96c-.25,0-.46-.21-.46-.46v-20.79c0-.25,.21-.46,.46-.46,.25,0,.46,.2,.46,.46v20.33h36.05v-33.36h-18.68c-.25,0-.46-.21-.46-.46s.21-.46,.46-.46h19.14c.25,0,.46,.21,.46,.46v34.27c0,.25-.21,.46-.46,.46Z" />
        <g>
          <path class="cls-1"
            d="M224.23,130.9h-.07c-.14-.04-.22-.19-.18-.33l.86-2.99c.04-.14,.18-.22,.33-.18,0,0,0,0,0,0,.14,.04,.22,.19,.18,.33l-.86,2.99c-.03,.11-.14,.19-.25,.18Z" />
          <path class="cls-1"
            d="M225.32,132.96h-.07c-.14-.04-.22-.18-.18-.33,0,0,0,0,0,0l1.71-5.97c.04-.14,.18-.22,.32-.19,0,0,0,0,0,0,.14,.04,.22,.18,.18,.33,0,0,0,0,0,0l-1.71,5.96c-.03,.11-.14,.19-.25,.19Z" />
        </g>
        <path class="cls-1"
          d="M193.89,115.04c-.25,0-.46-.21-.46-.46v-1.48c0-.25,.2-.46,.46-.46,.25,0,.46,.2,.46,.46h0v1.48c0,.25-.21,.46-.46,.46Z" />
        <rect class="cls-5" x="197.2" y="124.77" width="14.38" height="8.27" />
        <path class="cls-1"
          d="M211.57,133.28h-14.37c-.22,0-.39-.18-.39-.39v-8.26c0-.21,.17-.39,.38-.39,0,0,0,0,.01,0h14.37c.22,0,.39,.18,.39,.39v8.26c0,.22-.18,.39-.39,.39Zm-13.99-.78h13.6v-7.48h-13.6v7.48Z" />
        <path class="cls-1"
          d="M208.24,127.42h-8.58c-.13,0-.24-.11-.24-.24s.11-.24,.24-.24h8.58c.13,0,.24,.11,.24,.24s-.11,.24-.24,.24Z" />
        <path class="cls-1"
          d="M206.18,129.18h-6.52c-.13,0-.24-.11-.24-.24s.11-.24,.24-.24h6.52c.13,0,.24,.11,.24,.24s-.11,.24-.24,.24h0Z" />
        <path class="cls-1"
          d="M203.52,130.92h-3.86c-.13,0-.24-.11-.24-.24s.11-.24,.24-.24h3.86c.13,0,.24,.11,.24,.24s-.11,.24-.24,.24h0Z" />
        <circle class="cls-16" cx="229.67" cy="110" r="11.79" />
        <circle class="cls-28" cx="224.92" cy="103.19" r="1.56" />
        <circle class="cls-28" cx="227.12" cy="105.57" r=".85" />
        <path class="cls-5"
          d="M228.99,114.66c-.25,0-.49-.09-.68-.26l-3.64-3.26c-.42-.37-.46-1.02-.09-1.44,.37-.42,1.02-.46,1.44-.09h0l2.84,2.55,4.33-5.43c.32-.46,.96-.57,1.42-.25,.46,.32,.57,.96,.25,1.42-.02,.04-.05,.07-.08,.1l-5,6.27c-.17,.22-.43,.36-.71,.38h-.09Z" />
        <circle class="cls-1" cx="220.32" cy="102.88" r=".51" />
        <path class="cls-23"
          d="M231.82,121.66c-.39,0-.71-.3-.76-.68-.05-.42,.25-.79,.67-.84,0,0,0,0,0,0h0c.18,0,4.34-.56,6.97-5.13,.21-.37,.68-.49,1.04-.29,.37,.21,.49,.68,.29,1.04h0c-3.06,5.27-7.92,5.87-8.15,5.89h-.07Z" />
        <path class="cls-23"
          d="M240.45,113.42c-.09,0-.17-.01-.25-.04-.4-.14-.6-.57-.47-.97,.21-.73,.34-1.48,.39-2.23,.03-.42,.39-.73,.81-.7,0,0,0,0,0,0,.42,.04,.73,.4,.7,.82-.07,.88-.23,1.76-.47,2.61-.11,.31-.39,.51-.72,.51Z" />
        <path class="cls-24"
          d="M227.8,121.51s-.1,0-.14,0c-.87-.16-1.73-.41-2.55-.75-.38-.18-.54-.64-.36-1.02,.18-.38,.64-.54,1.02-.36,.7,.28,1.43,.49,2.17,.63,.42,.08,.69,.48,.61,.9-.07,.35-.39,.61-.75,.61Z" />
        <path class="cls-1"
          d="M229.67,122.25c-6.77,0-12.26-5.47-12.26-12.24,0-2.1,.54-4.17,1.57-6.01,.12-.22,.39-.3,.61-.18,0,0,0,0,0,0,.22,.12,.3,.4,.18,.63-3.06,5.45-1.13,12.36,4.33,15.42s12.36,1.13,15.42-4.33c3.06-5.45,1.13-12.36-4.33-15.42-4.41-2.48-9.93-1.73-13.52,1.83-.18,.18-.47,.18-.65,0-.18-.18-.18-.47,0-.65,4.8-4.77,12.56-4.73,17.33,.07,4.77,4.8,4.73,12.56-.07,17.33-2.3,2.28-5.4,3.55-8.63,3.55h.02Z" />
      </g>
    </g>
  </g>
</svg>