<svg width="794" height="494" viewBox="0 0 794 494" fill="none" xmlns="http://www.w3.org/2000/svg">
  <path
    d="M101.451 212.12H116.011C117.249 212.12 118.129 212.413 118.65 213C119.236 213.52 119.529 214.4 119.529 215.638V253.555C119.529 255.639 119.432 257.593 119.236 259.418C119.106 261.177 118.617 263.261 117.77 265.672L112.884 278.963C112.559 279.94 112.07 280.787 111.418 281.504C110.832 282.156 110.018 282.481 108.975 282.481H95.9782C94.9358 282.481 93.9912 282.253 93.1442 281.797C92.2972 281.34 91.7436 280.592 91.4829 279.549L86.9877 263.62C86.7922 262.968 86.5316 262.545 86.2059 262.35C85.9452 262.089 85.6195 261.959 85.2287 261.959H84.3491C83.9583 261.959 83.5999 262.089 83.2742 262.35C83.0135 262.545 82.7856 262.968 82.5901 263.62L77.9971 279.549C77.7365 280.526 77.2479 281.276 76.5313 281.797C75.8147 282.253 74.9352 282.481 73.8928 282.481H60.9933C59.9509 282.481 59.0389 282.156 58.2571 281.504C57.5405 280.852 57.0192 280.006 56.6935 278.963L51.8074 265.477C50.9604 263.066 50.4392 260.982 50.2438 259.223C50.1135 257.398 50.0483 255.444 50.0483 253.359V215.638C50.0483 214.4 50.309 213.52 50.8301 213C51.4165 212.413 52.3285 212.12 53.5664 212.12H68.6157C69.8536 212.12 70.7331 212.413 71.2542 213C71.8406 213.52 72.1338 214.4 72.1338 215.638V251.6L77.8017 239.287C78.3228 238.18 79.0069 237.398 79.8539 236.942C80.7009 236.485 81.7431 236.258 82.981 236.258H87.0854C88.3233 236.258 89.3655 236.485 90.2125 236.942C91.0595 237.398 91.7436 238.18 92.2647 239.287L97.9326 251.6V215.638C97.9326 214.4 98.1933 213.52 98.7144 213C99.3008 212.413 100.213 212.12 101.451 212.12ZM191.752 264.011C191.752 267.008 191.296 269.745 190.384 272.22C189.537 274.631 187.973 276.715 185.693 278.474C183.478 280.167 180.384 281.504 176.41 282.481C172.501 283.458 167.517 283.947 161.458 283.947C155.399 283.947 150.383 283.458 146.409 282.481C142.435 281.504 139.307 280.167 137.027 278.474C134.812 276.715 133.249 274.631 132.337 272.22C131.49 269.745 131.066 267.008 131.066 264.011V230.688C131.066 227.69 131.49 224.988 132.337 222.577C133.249 220.101 134.812 217.984 137.027 216.225C139.307 214.465 142.435 213.097 146.409 212.12C150.383 211.143 155.399 210.654 161.458 210.654C167.517 210.654 172.501 211.143 176.41 212.12C180.384 213.097 183.478 214.465 185.693 216.225C187.973 217.984 189.537 220.101 190.384 222.577C191.296 224.988 191.752 227.69 191.752 230.688V264.011ZM153.249 260.493C153.249 261.796 153.738 262.904 154.715 263.816C155.692 264.663 157.94 265.086 161.458 265.086C164.976 265.086 167.224 264.663 168.201 263.816C169.178 262.904 169.667 261.796 169.667 260.493V234.206C169.667 232.967 169.178 231.926 168.201 231.078C167.224 230.167 164.976 229.71 161.458 229.71C157.94 229.71 155.692 230.167 154.715 231.078C153.738 231.926 153.249 232.967 153.249 234.206V260.493ZM222.37 282.481H207.712C206.473 282.481 205.562 282.22 204.975 281.699C204.453 281.113 204.194 280.201 204.194 278.963V215.638C204.194 214.4 204.453 213.52 204.975 213C205.562 212.413 206.473 212.12 207.712 212.12H217.875C219.112 212.12 220.154 212.316 221.002 212.706C221.913 213.097 222.793 213.781 223.64 214.759L242.599 236.453V215.638C242.599 214.4 242.858 213.52 243.38 213C243.967 212.413 244.878 212.12 246.117 212.12H260.775C262.012 212.12 262.892 212.413 263.414 213C264 213.52 264.293 214.4 264.293 215.638V278.963C264.293 280.201 264 281.113 263.414 281.699C262.892 282.22 262.012 282.481 260.775 282.481H246.117C244.878 282.481 243.967 282.22 243.38 281.699C242.858 281.113 242.599 280.201 242.599 278.963V266.943L225.888 246.714V278.963C225.888 280.201 225.595 281.113 225.009 281.699C224.486 282.22 223.607 282.481 222.37 282.481ZM314.222 282.481H281.289C280.051 282.481 279.139 282.22 278.553 281.699C278.032 281.113 277.771 280.201 277.771 278.963V215.638C277.771 214.4 278.032 213.52 278.553 213C279.139 212.413 280.051 212.12 281.289 212.12H314.222C322.365 212.12 328.392 213.749 332.301 217.006C336.275 220.263 338.262 225.281 338.262 232.056V262.545C338.262 269.32 336.275 274.338 332.301 277.595C328.392 280.852 322.365 282.481 314.222 282.481ZM299.955 230.785V264.011H311.584C313.147 264.011 314.288 263.62 315.004 262.838C315.786 262.057 316.177 260.852 316.177 259.223V235.476C316.177 233.847 315.786 232.674 315.004 231.958C314.288 231.176 313.147 230.785 311.584 230.785H299.955ZM399.543 282.481H354.2C352.962 282.481 352.05 282.22 351.464 281.699C350.943 281.113 350.682 280.201 350.682 278.963V215.638C350.682 214.4 350.943 213.52 351.464 213C352.05 212.413 352.962 212.12 354.2 212.12H399.543C400.782 212.12 401.661 212.413 402.182 213C402.768 213.52 403.062 214.4 403.062 215.638V227.072C403.062 228.31 402.768 229.222 402.182 229.808C401.661 230.329 400.782 230.59 399.543 230.59H372.572V238.114H391.628C392.866 238.114 393.746 238.408 394.266 238.994C394.853 239.515 395.146 240.394 395.146 241.633V252.089C395.146 253.327 394.853 254.239 394.266 254.825C393.746 255.346 392.866 255.607 391.628 255.607H372.572V264.011H399.543C400.782 264.011 401.661 264.304 402.182 264.891C402.768 265.411 403.062 266.291 403.062 267.529V278.963C403.062 280.201 402.768 281.113 402.182 281.699C401.661 282.22 400.782 282.481 399.543 282.481ZM436.707 229.71V242.219H444.037C445.73 242.219 446.871 241.796 447.457 240.948C448.043 240.037 448.336 238.928 448.336 237.626V234.303C448.336 233.001 448.043 231.926 447.457 231.078C446.871 230.167 445.73 229.71 444.037 229.71H436.707ZM433.189 282.481H418.14C416.902 282.481 415.99 282.22 415.404 281.699C414.883 281.113 414.622 280.201 414.622 278.963V215.638C414.622 214.4 414.883 213.52 415.404 213C415.99 212.413 416.902 212.12 418.14 212.12H450.682C457.979 212.12 462.995 213.652 465.731 216.713C468.533 219.71 469.933 223.619 469.933 228.44V232.935C469.933 235.671 469.51 238.017 468.663 239.971C467.881 241.86 466.481 243.228 464.461 244.076C467.979 244.466 470.813 245.9 472.963 248.375C475.178 250.851 476.285 254.141 476.285 258.245V278.963C476.285 280.201 475.992 281.113 475.406 281.699C474.885 282.22 474.005 282.481 472.767 282.481H457.62C456.382 282.481 455.47 282.22 454.884 281.699C454.363 281.113 454.102 280.201 454.102 278.963V264.011C454.102 262.577 453.809 261.536 453.223 260.884C452.702 260.168 451.757 259.809 450.389 259.809H436.707V278.963C436.707 280.201 436.414 281.113 435.828 281.699C435.307 282.22 434.428 282.481 433.189 282.481ZM533.578 282.481H509.734C501.591 282.481 495.532 280.852 491.557 277.595C487.648 274.338 485.694 269.32 485.694 262.545V232.153C485.694 225.378 487.648 220.361 491.557 217.104C495.532 213.781 501.591 212.12 509.734 212.12H533.578C534.817 212.12 535.696 212.413 536.217 213C536.803 213.52 537.096 214.4 537.096 215.638V227.463C537.096 228.701 536.803 229.613 536.217 230.199C535.696 230.72 534.817 230.981 533.578 230.981H513.936C511.916 230.981 510.418 231.404 509.441 232.251C508.464 233.033 507.975 234.238 507.975 235.867V259.125C507.975 260.754 508.464 261.959 509.441 262.741C510.418 263.457 511.916 263.816 513.936 263.816H533.578C534.817 263.816 535.696 264.109 536.217 264.695C536.803 265.216 537.096 266.095 537.096 267.334V278.963C537.096 280.201 536.803 281.113 536.217 281.699C535.696 282.22 534.817 282.481 533.578 282.481ZM607.266 264.011C607.266 267.008 606.81 269.745 605.898 272.22C605.051 274.631 603.487 276.715 601.207 278.474C598.992 280.167 595.898 281.504 591.924 282.481C588.015 283.458 583.031 283.947 576.972 283.947C570.913 283.947 565.897 283.458 561.923 282.481C557.948 281.504 554.821 280.167 552.541 278.474C550.326 276.715 548.762 274.631 547.851 272.22C547.003 269.745 546.58 267.008 546.58 264.011V230.688C546.58 227.69 547.003 224.988 547.851 222.577C548.762 220.101 550.326 217.984 552.541 216.225C554.821 214.465 557.948 213.097 561.923 212.12C565.897 211.143 570.913 210.654 576.972 210.654C583.031 210.654 588.015 211.143 591.924 212.12C595.898 213.097 598.992 214.465 601.207 216.225C603.487 217.984 605.051 220.101 605.898 222.577C606.81 224.988 607.266 227.69 607.266 230.688V264.011ZM568.763 260.493C568.763 261.796 569.252 262.904 570.229 263.816C571.206 264.663 573.454 265.086 576.972 265.086C580.49 265.086 582.738 264.663 583.715 263.816C584.692 262.904 585.181 261.796 585.181 260.493V234.206C585.181 232.967 584.692 231.926 583.715 231.078C582.738 230.167 580.49 229.71 576.972 229.71C573.454 229.71 571.206 230.167 570.229 231.078C569.252 231.926 568.763 232.967 568.763 234.206V260.493ZM656.158 282.481H623.226C621.987 282.481 621.076 282.22 620.489 281.699C619.967 281.113 619.708 280.201 619.708 278.963V215.638C619.708 214.4 619.967 213.52 620.489 213C621.076 212.413 621.987 212.12 623.226 212.12H656.158C664.301 212.12 670.328 213.749 674.237 217.006C678.21 220.263 680.198 225.281 680.198 232.056V262.545C680.198 269.32 678.21 274.338 674.237 277.595C670.328 280.852 664.301 282.481 656.158 282.481ZM641.891 230.785V264.011H653.52C655.083 264.011 656.222 263.62 656.94 262.838C657.722 262.057 658.113 260.852 658.113 259.223V235.476C658.113 233.847 657.722 232.674 656.94 231.958C656.222 231.176 655.083 230.785 653.52 230.785H641.891ZM741.48 282.481H696.136C694.898 282.481 693.986 282.22 693.4 281.699C692.878 281.113 692.618 280.201 692.618 278.963V215.638C692.618 214.4 692.878 213.52 693.4 213C693.986 212.413 694.898 212.12 696.136 212.12H741.48C742.716 212.12 743.596 212.413 744.118 213C744.704 213.52 744.998 214.4 744.998 215.638V227.072C744.998 228.31 744.704 229.222 744.118 229.808C743.596 230.329 742.716 230.59 741.48 230.59H714.508V238.114H733.564C734.801 238.114 735.68 238.408 736.203 238.994C736.789 239.515 737.082 240.394 737.082 241.633V252.089C737.082 253.327 736.789 254.239 736.203 254.825C735.68 255.346 734.801 255.607 733.564 255.607H714.508V264.011H741.48C742.716 264.011 743.596 264.304 744.118 264.891C744.704 265.411 744.998 266.291 744.998 267.529V278.963C744.998 280.201 744.704 281.113 744.118 281.699C743.596 282.22 742.716 282.481 741.48 282.481Z"
    fill="black" />
  <path
    d="M101.451 212.12H116.011C117.249 212.12 118.129 212.413 118.65 213C119.236 213.52 119.529 214.4 119.529 215.638V253.555C119.529 255.639 119.432 257.593 119.236 259.418C119.106 261.177 118.617 263.261 117.77 265.672L112.884 278.963C112.559 279.94 112.07 280.787 111.418 281.504C110.832 282.156 110.018 282.481 108.975 282.481H95.9782C94.9358 282.481 93.9912 282.253 93.1442 281.797C92.2972 281.34 91.7436 280.592 91.4829 279.549L86.9877 263.62C86.7922 262.968 86.5316 262.545 86.2059 262.35C85.9452 262.089 85.6195 261.959 85.2287 261.959H84.3491C83.9583 261.959 83.5999 262.089 83.2742 262.35C83.0135 262.545 82.7856 262.968 82.5901 263.62L77.9971 279.549C77.7365 280.526 77.2479 281.276 76.5313 281.797C75.8147 282.253 74.9352 282.481 73.8928 282.481H60.9933C59.9509 282.481 59.0389 282.156 58.2571 281.504C57.5405 280.852 57.0192 280.006 56.6935 278.963L51.8074 265.477C50.9604 263.066 50.4392 260.982 50.2438 259.223C50.1135 257.398 50.0483 255.444 50.0483 253.359V215.638C50.0483 214.4 50.309 213.52 50.8301 213C51.4165 212.413 52.3285 212.12 53.5664 212.12H68.6157C69.8536 212.12 70.7331 212.413 71.2542 213C71.8406 213.52 72.1338 214.4 72.1338 215.638V251.6L77.8017 239.287C78.3228 238.18 79.0069 237.398 79.8539 236.942C80.7009 236.485 81.7431 236.258 82.981 236.258H87.0854C88.3233 236.258 89.3655 236.485 90.2125 236.942C91.0595 237.398 91.7436 238.18 92.2647 239.287L97.9326 251.6V215.638C97.9326 214.4 98.1933 213.52 98.7144 213C99.3008 212.413 100.213 212.12 101.451 212.12ZM191.752 264.011C191.752 267.008 191.296 269.745 190.384 272.22C189.537 274.631 187.973 276.715 185.693 278.474C183.478 280.167 180.384 281.504 176.41 282.481C172.501 283.458 167.517 283.947 161.458 283.947C155.399 283.947 150.383 283.458 146.409 282.481C142.435 281.504 139.307 280.167 137.027 278.474C134.812 276.715 133.249 274.631 132.337 272.22C131.49 269.745 131.066 267.008 131.066 264.011V230.688C131.066 227.69 131.49 224.988 132.337 222.577C133.249 220.101 134.812 217.984 137.027 216.225C139.307 214.465 142.435 213.097 146.409 212.12C150.383 211.143 155.399 210.654 161.458 210.654C167.517 210.654 172.501 211.143 176.41 212.12C180.384 213.097 183.478 214.465 185.693 216.225C187.973 217.984 189.537 220.101 190.384 222.577C191.296 224.988 191.752 227.69 191.752 230.688V264.011ZM153.249 260.493C153.249 261.796 153.738 262.904 154.715 263.816C155.692 264.663 157.94 265.086 161.458 265.086C164.976 265.086 167.224 264.663 168.201 263.816C169.178 262.904 169.667 261.796 169.667 260.493V234.206C169.667 232.967 169.178 231.926 168.201 231.078C167.224 230.167 164.976 229.71 161.458 229.71C157.94 229.71 155.692 230.167 154.715 231.078C153.738 231.926 153.249 232.967 153.249 234.206V260.493ZM222.37 282.481H207.712C206.473 282.481 205.562 282.22 204.975 281.699C204.453 281.113 204.194 280.201 204.194 278.963V215.638C204.194 214.4 204.453 213.52 204.975 213C205.562 212.413 206.473 212.12 207.712 212.12H217.875C219.112 212.12 220.154 212.316 221.002 212.706C221.913 213.097 222.793 213.781 223.64 214.759L242.599 236.453V215.638C242.599 214.4 242.858 213.52 243.38 213C243.967 212.413 244.878 212.12 246.117 212.12H260.775C262.012 212.12 262.892 212.413 263.414 213C264 213.52 264.293 214.4 264.293 215.638V278.963C264.293 280.201 264 281.113 263.414 281.699C262.892 282.22 262.012 282.481 260.775 282.481H246.117C244.878 282.481 243.967 282.22 243.38 281.699C242.858 281.113 242.599 280.201 242.599 278.963V266.943L225.888 246.714V278.963C225.888 280.201 225.595 281.113 225.009 281.699C224.486 282.22 223.607 282.481 222.37 282.481ZM314.222 282.481H281.289C280.051 282.481 279.139 282.22 278.553 281.699C278.032 281.113 277.771 280.201 277.771 278.963V215.638C277.771 214.4 278.032 213.52 278.553 213C279.139 212.413 280.051 212.12 281.289 212.12H314.222C322.365 212.12 328.392 213.749 332.301 217.006C336.275 220.263 338.262 225.281 338.262 232.056V262.545C338.262 269.32 336.275 274.338 332.301 277.595C328.392 280.852 322.365 282.481 314.222 282.481ZM299.955 230.785V264.011H311.584C313.147 264.011 314.288 263.62 315.004 262.838C315.786 262.057 316.177 260.852 316.177 259.223V235.476C316.177 233.847 315.786 232.674 315.004 231.958C314.288 231.176 313.147 230.785 311.584 230.785H299.955ZM399.543 282.481H354.2C352.962 282.481 352.05 282.22 351.464 281.699C350.943 281.113 350.682 280.201 350.682 278.963V215.638C350.682 214.4 350.943 213.52 351.464 213C352.05 212.413 352.962 212.12 354.2 212.12H399.543C400.782 212.12 401.661 212.413 402.182 213C402.768 213.52 403.062 214.4 403.062 215.638V227.072C403.062 228.31 402.768 229.222 402.182 229.808C401.661 230.329 400.782 230.59 399.543 230.59H372.572V238.114H391.628C392.866 238.114 393.746 238.408 394.266 238.994C394.853 239.515 395.146 240.394 395.146 241.633V252.089C395.146 253.327 394.853 254.239 394.266 254.825C393.746 255.346 392.866 255.607 391.628 255.607H372.572V264.011H399.543C400.782 264.011 401.661 264.304 402.182 264.891C402.768 265.411 403.062 266.291 403.062 267.529V278.963C403.062 280.201 402.768 281.113 402.182 281.699C401.661 282.22 400.782 282.481 399.543 282.481ZM436.707 229.71V242.219H444.037C445.73 242.219 446.871 241.796 447.457 240.948C448.043 240.037 448.336 238.928 448.336 237.626V234.303C448.336 233.001 448.043 231.926 447.457 231.078C446.871 230.167 445.73 229.71 444.037 229.71H436.707ZM433.189 282.481H418.14C416.902 282.481 415.99 282.22 415.404 281.699C414.883 281.113 414.622 280.201 414.622 278.963V215.638C414.622 214.4 414.883 213.52 415.404 213C415.99 212.413 416.902 212.12 418.14 212.12H450.682C457.979 212.12 462.995 213.652 465.731 216.713C468.533 219.71 469.933 223.619 469.933 228.44V232.935C469.933 235.671 469.51 238.017 468.663 239.971C467.881 241.86 466.481 243.228 464.461 244.076C467.979 244.466 470.813 245.9 472.963 248.375C475.178 250.851 476.285 254.141 476.285 258.245V278.963C476.285 280.201 475.992 281.113 475.406 281.699C474.885 282.22 474.005 282.481 472.767 282.481H457.62C456.382 282.481 455.47 282.22 454.884 281.699C454.363 281.113 454.102 280.201 454.102 278.963V264.011C454.102 262.577 453.809 261.536 453.223 260.884C452.702 260.168 451.757 259.809 450.389 259.809H436.707V278.963C436.707 280.201 436.414 281.113 435.828 281.699C435.307 282.22 434.428 282.481 433.189 282.481ZM533.578 282.481H509.734C501.591 282.481 495.532 280.852 491.557 277.595C487.648 274.338 485.694 269.32 485.694 262.545V232.153C485.694 225.378 487.648 220.361 491.557 217.104C495.532 213.781 501.591 212.12 509.734 212.12H533.578C534.817 212.12 535.696 212.413 536.217 213C536.803 213.52 537.096 214.4 537.096 215.638V227.463C537.096 228.701 536.803 229.613 536.217 230.199C535.696 230.72 534.817 230.981 533.578 230.981H513.936C511.916 230.981 510.418 231.404 509.441 232.251C508.464 233.033 507.975 234.238 507.975 235.867V259.125C507.975 260.754 508.464 261.959 509.441 262.741C510.418 263.457 511.916 263.816 513.936 263.816H533.578C534.817 263.816 535.696 264.109 536.217 264.695C536.803 265.216 537.096 266.095 537.096 267.334V278.963C537.096 280.201 536.803 281.113 536.217 281.699C535.696 282.22 534.817 282.481 533.578 282.481ZM607.266 264.011C607.266 267.008 606.81 269.745 605.898 272.22C605.051 274.631 603.487 276.715 601.207 278.474C598.992 280.167 595.898 281.504 591.924 282.481C588.015 283.458 583.031 283.947 576.972 283.947C570.913 283.947 565.897 283.458 561.923 282.481C557.948 281.504 554.821 280.167 552.541 278.474C550.326 276.715 548.762 274.631 547.851 272.22C547.003 269.745 546.58 267.008 546.58 264.011V230.688C546.58 227.69 547.003 224.988 547.851 222.577C548.762 220.101 550.326 217.984 552.541 216.225C554.821 214.465 557.948 213.097 561.923 212.12C565.897 211.143 570.913 210.654 576.972 210.654C583.031 210.654 588.015 211.143 591.924 212.12C595.898 213.097 598.992 214.465 601.207 216.225C603.487 217.984 605.051 220.101 605.898 222.577C606.81 224.988 607.266 227.69 607.266 230.688V264.011ZM568.763 260.493C568.763 261.796 569.252 262.904 570.229 263.816C571.206 264.663 573.454 265.086 576.972 265.086C580.49 265.086 582.738 264.663 583.715 263.816C584.692 262.904 585.181 261.796 585.181 260.493V234.206C585.181 232.967 584.692 231.926 583.715 231.078C582.738 230.167 580.49 229.71 576.972 229.71C573.454 229.71 571.206 230.167 570.229 231.078C569.252 231.926 568.763 232.967 568.763 234.206V260.493ZM656.158 282.481H623.226C621.987 282.481 621.076 282.22 620.489 281.699C619.967 281.113 619.708 280.201 619.708 278.963V215.638C619.708 214.4 619.967 213.52 620.489 213C621.076 212.413 621.987 212.12 623.226 212.12H656.158C664.301 212.12 670.328 213.749 674.237 217.006C678.21 220.263 680.198 225.281 680.198 232.056V262.545C680.198 269.32 678.21 274.338 674.237 277.595C670.328 280.852 664.301 282.481 656.158 282.481ZM641.891 230.785V264.011H653.52C655.083 264.011 656.222 263.62 656.94 262.838C657.722 262.057 658.113 260.852 658.113 259.223V235.476C658.113 233.847 657.722 232.674 656.94 231.958C656.222 231.176 655.083 230.785 653.52 230.785H641.891ZM741.48 282.481H696.136C694.898 282.481 693.986 282.22 693.4 281.699C692.878 281.113 692.618 280.201 692.618 278.963V215.638C692.618 214.4 692.878 213.52 693.4 213C693.986 212.413 694.898 212.12 696.136 212.12H741.48C742.716 212.12 743.596 212.413 744.118 213C744.704 213.52 744.998 214.4 744.998 215.638V227.072C744.998 228.31 744.704 229.222 744.118 229.808C743.596 230.329 742.716 230.59 741.48 230.59H714.508V238.114H733.564C734.801 238.114 735.68 238.408 736.203 238.994C736.789 239.515 737.082 240.394 737.082 241.633V252.089C737.082 253.327 736.789 254.239 736.203 254.825C735.68 255.346 734.801 255.607 733.564 255.607H714.508V264.011H741.48C742.716 264.011 743.596 264.304 744.118 264.891C744.704 265.411 744.998 266.291 744.998 267.529V278.963C744.998 280.201 744.704 281.113 744.118 281.699C743.596 282.22 742.716 282.481 741.48 282.481Z"
    fill="#211F54" />
  <mask id="mask0_31_37" style="mask-type:luminance" maskUnits="userSpaceOnUse" x="0" y="0"
    width="794" height="175">
    <path d="M794 0H0V174.069H794V0Z" fill="white" />
  </mask>
  <g mask="url(#mask0_31_37)">
    <path
      d="M475.09 82.4539H543.344C549.146 82.4539 553.269 83.8281 555.712 86.5766C558.46 89.0196 559.834 93.1423 559.834 98.9446V276.678C559.834 286.451 559.376 295.612 558.46 304.163C557.849 312.408 555.559 322.181 551.589 333.48L528.685 395.779C527.158 400.359 524.868 404.329 521.814 407.688C519.065 410.742 515.248 412.269 510.362 412.269H449.438C444.552 412.269 440.124 411.2 436.154 409.063C432.184 406.925 429.588 403.413 428.366 398.527L407.295 323.86C406.379 320.807 405.157 318.822 403.63 317.905C402.409 316.684 400.882 316.073 399.049 316.073H394.927C393.094 316.073 391.415 316.684 389.888 317.905C388.666 318.822 387.597 320.807 386.681 323.86L365.152 398.527C363.93 403.108 361.64 406.62 358.28 409.063C354.921 411.2 350.799 412.269 345.912 412.269H285.446C280.56 412.269 276.285 410.742 272.62 407.688C269.261 404.635 266.818 400.665 265.291 395.779L242.387 332.564C238.417 321.265 235.974 311.492 235.058 303.247C234.447 294.696 234.142 285.535 234.142 275.762V98.9446C234.142 93.1423 235.363 89.0196 237.806 86.5766C240.555 83.8281 244.83 82.4539 250.632 82.4539H321.176C326.979 82.4539 331.101 83.8281 333.544 86.5766C336.293 89.0196 337.667 93.1423 337.667 98.9446V267.517L364.235 209.799C366.679 204.608 369.885 200.943 373.855 198.805C377.825 196.668 382.711 195.599 388.514 195.599H407.753C413.555 195.599 418.441 196.668 422.411 198.805C426.381 200.943 429.588 204.608 432.031 209.799L458.599 267.517V98.9446C458.599 93.1423 459.821 89.0196 462.264 86.5766C465.012 83.8281 469.288 82.4539 475.09 82.4539Z"
      fill="#6DB5E7" />
  </g>
  <mask id="mask1_31_37" style="mask-type:luminance" maskUnits="userSpaceOnUse" x="0" y="320"
    width="794" height="174">
    <path d="M794 320.654H0V493.196H794V320.654Z" fill="white" />
  </mask>
  <g mask="url(#mask1_31_37)">
    <path
      d="M475.09 82.4539H543.344C549.146 82.4539 553.269 83.8281 555.712 86.5766C558.46 89.0196 559.834 93.1423 559.834 98.9446V276.678C559.834 286.451 559.376 295.612 558.46 304.163C557.849 312.408 555.559 322.181 551.589 333.48L528.685 395.779C527.158 400.359 524.868 404.329 521.814 407.688C519.065 410.742 515.248 412.269 510.362 412.269H449.438C444.552 412.269 440.124 411.2 436.154 409.063C432.184 406.925 429.588 403.413 428.366 398.527L407.295 323.86C406.379 320.807 405.157 318.822 403.63 317.905C402.409 316.684 400.882 316.073 399.049 316.073H394.927C393.094 316.073 391.415 316.684 389.888 317.905C388.666 318.822 387.597 320.807 386.681 323.86L365.152 398.527C363.93 403.108 361.64 406.62 358.28 409.063C354.921 411.2 350.799 412.269 345.912 412.269H285.446C280.56 412.269 276.285 410.742 272.62 407.688C269.261 404.635 266.818 400.665 265.291 395.779L242.387 332.564C238.417 321.265 235.974 311.492 235.058 303.247C234.447 294.696 234.142 285.535 234.142 275.762V98.9446C234.142 93.1423 235.363 89.0196 237.806 86.5766C240.555 83.8281 244.83 82.4539 250.632 82.4539H321.176C326.979 82.4539 331.101 83.8281 333.544 86.5766C336.293 89.0196 337.667 93.1423 337.667 98.9446V267.517L364.235 209.799C366.679 204.608 369.885 200.943 373.855 198.805C377.825 196.668 382.711 195.599 388.514 195.599H407.753C413.555 195.599 418.441 196.668 422.411 198.805C426.381 200.943 429.588 204.608 432.031 209.799L458.599 267.517V98.9446C458.599 93.1423 459.821 89.0196 462.264 86.5766C465.012 83.8281 469.288 82.4539 475.09 82.4539Z"
      fill="#6DB5E7" />
  </g>
</svg>
  