<svg version="1.1" id="Layer_1" xmlns="http://www.w3.org/2000/svg" xmlns:xlink="http://www.w3.org/1999/xlink" x="0px" y="0px"
	 width="100%" viewBox="0 0 1026 172" enable-background="new 0 0 1026 172" xml:space="preserve">
<path fill="#FEFEFE" opacity="1.000000" stroke="none" 
	d="
M1.000000,158.000000 
	C1.000000,109.979103 1.000000,61.958210 1.391740,13.457363 
	C4.785297,13.650898 7.784562,14.899763 10.789306,14.913089 
	C73.616898,15.191715 136.445099,15.332251 199.273193,15.496490 
	C328.762817,15.834993 458.252441,16.166233 587.742065,16.510166 
	C730.730652,16.889954 873.719116,17.306334 1016.708008,17.512066 
	C1020.136963,17.517000 1023.569275,15.222169 1027.000000,13.999995 
	C1027.000000,63.020893 1027.000000,112.041786 1026.717041,161.316833 
	C1024.492432,158.177124 1021.350708,157.833801 1017.823730,157.829178 
	C986.833984,157.788544 955.844421,157.619522 924.854736,157.542145 
	C701.426636,156.984268 477.998505,156.454376 254.570435,155.881546 
	C173.263504,155.673096 91.956841,155.338623 10.649839,155.236404 
	C7.434389,155.232361 4.216664,157.037720 1.000000,158.000000 
M556.556763,59.676838 
	C554.691833,50.808025 552.826965,41.939213 550.987732,33.192425 
	C548.378418,33.192425 546.413086,33.192425 544.109619,33.192425 
	C541.332214,46.357422 538.575562,59.424038 535.809875,72.533730 
	C539.539490,73.629395 541.737976,73.131325 542.045471,69.140594 
	C542.197449,67.168076 542.770569,65.224365 543.197510,63.277340 
	C544.667664,56.572731 546.157349,49.872417 547.639587,43.170467 
	C547.976685,43.195431 548.313782,43.220394 548.650879,43.245358 
	C550.699280,53.059322 552.747681,62.873287 554.823975,72.821030 
	C556.851318,72.821030 558.626282,72.821030 560.670593,72.821030 
	C562.855103,62.574833 565.013062,52.452930 567.171082,42.331028 
	C567.397949,42.340157 567.624756,42.349285 567.851624,42.358418 
	C570.020813,52.530327 572.190063,62.702236 574.398254,73.056618 
	C576.406616,72.959869 578.015259,72.882370 579.835510,72.794678 
	C576.974609,59.322903 574.193176,46.225792 571.460144,33.356422 
	C568.759949,33.356422 566.670349,33.356422 564.520020,33.356422 
	C562.349060,43.617775 560.243164,53.571983 558.137207,63.526192 
	C557.857361,63.473858 557.577515,63.421528 557.297668,63.369194 
	C557.120239,62.392170 556.942810,61.415150 556.556763,59.676838 
M419.609528,65.372513 
	C419.609528,54.744537 419.609528,44.116562 419.609528,33.284657 
	C417.561066,33.284657 415.998505,33.284657 413.804810,33.284657 
	C413.804810,43.153748 413.804810,52.778740 413.804810,63.337173 
	C405.772522,53.584461 398.440430,44.745655 391.193481,35.837585 
	C389.399658,33.632591 387.645966,31.953871 384.685547,33.648777 
	C384.685547,46.763428 384.685547,59.709625 384.685547,72.729095 
	C386.511566,72.729095 388.083832,72.729095 390.254822,72.729095 
	C390.254822,62.839428 390.254822,53.224106 390.254822,42.714523 
	C398.246521,52.437233 405.450836,61.383842 412.909882,70.112755 
	C414.287262,71.724632 416.694580,72.456444 419.609222,74.173347 
	C419.609222,70.301010 419.609222,68.314209 419.609528,65.372513 
M912.827637,67.727791 
	C915.238647,70.032211 916.383057,74.600639 921.251831,72.565041 
	C921.251831,59.405407 921.251831,46.355774 921.251831,32.957306 
	C919.315552,33.100445 917.768921,33.214779 915.816284,33.359127 
	C915.816284,43.313076 915.816284,52.830658 915.816284,63.334381 
	C907.876038,53.702560 900.687317,44.811970 893.261780,36.123795 
	C891.834961,34.454350 889.478088,33.579842 886.767151,31.834421 
	C886.767151,46.618137 886.767151,59.673664 886.767151,73.070496 
	C888.676575,72.941658 890.229614,72.836868 892.145203,72.707619 
	C892.145203,62.761562 892.145203,53.221962 892.145203,42.604523 
	C899.346436,51.355427 905.855652,59.265385 912.827637,67.727791 
M375.193787,129.474731 
	C375.193787,119.722992 375.193787,109.971252 375.193787,99.944588 
	C373.028870,100.093513 371.618042,100.190567 369.824280,100.313965 
	C369.824280,110.183884 369.824280,119.736649 369.824280,130.308548 
	C368.085480,128.366943 366.981964,127.217850 365.971039,125.992371 
	C359.509430,118.159622 353.164215,110.227287 346.536957,102.537804 
	C345.255310,101.050774 342.897369,100.491356 340.390930,99.161926 
	C340.390930,113.701172 340.390930,126.633766 340.390930,139.761948 
	C342.205048,139.761948 343.777252,139.761948 345.827332,139.761948 
	C345.827332,129.972214 345.827332,120.425537 345.827332,109.609634 
	C347.779541,111.921234 348.923798,113.247147 350.036774,114.598778 
	C356.279358,122.180008 362.425110,129.844254 368.826111,137.289093 
	C370.134918,138.811295 372.391693,139.518433 375.193878,141.185867 
	C375.193878,136.417160 375.193878,133.439804 375.193787,129.474731 
M657.149719,47.507004 
	C657.149719,55.931767 657.149719,64.356529 657.149719,73.117783 
	C659.421936,72.941582 660.985901,72.820297 663.053101,72.659988 
	C663.053101,62.776314 663.053101,53.281815 663.053101,42.799782 
	C671.054565,52.509502 678.266785,61.413750 685.694275,70.134636 
	C687.034180,71.707870 689.259277,72.527138 691.894043,74.220436 
	C691.894043,59.501148 691.894043,46.438534 691.894043,33.260029 
	C690.181396,33.260029 688.770203,33.260029 686.750244,33.260029 
	C686.750244,43.128685 686.750244,52.781326 686.750244,63.586834 
	C678.532593,53.594177 671.221558,44.535069 663.669739,35.681404 
	C662.359009,34.144749 660.030029,33.476612 657.149780,31.819550 
	C657.149780,37.892368 657.149780,42.202023 657.149719,47.507004 
M418.825836,103.505722 
	C409.798920,97.791649 399.902588,100.744064 389.991486,100.049179 
	C389.991486,107.096001 389.991486,113.551117 389.991486,120.006226 
	C389.991486,126.587090 389.991486,133.167953 389.991486,140.010590 
	C395.747925,140.010590 400.876648,140.044144 406.004791,140.003418 
	C415.839935,139.925323 422.293152,135.875305 425.282959,127.964256 
	C428.553375,119.310745 426.362091,110.379662 418.825836,103.505722 
M813.948914,63.561432 
	C823.503540,75.154747 821.209778,73.414032 825.647217,72.380585 
	C825.647217,59.285599 825.647217,46.225040 825.647217,32.931744 
	C823.842163,33.096546 822.415771,33.226780 820.369751,33.413582 
	C820.369751,43.132504 820.369751,52.588348 820.369751,63.407219 
	C812.130737,53.435276 804.916626,44.546944 797.480774,35.848289 
	C796.136719,34.275978 793.881775,33.482357 791.256104,31.831835 
	C791.256104,46.509605 791.256104,59.581127 791.256104,73.003471 
	C793.081177,72.914848 794.628418,72.839714 796.563416,72.745750 
	C796.563416,62.857742 796.563416,53.447327 796.563416,42.536926 
	C802.806213,50.092365 808.147034,56.556145 813.948914,63.561432 
M109.537277,73.240433 
	C121.317993,75.569099 130.916107,69.371696 132.953430,58.120815 
	C135.302505,45.148434 128.999527,34.498535 117.717422,32.377079 
	C108.116928,30.571827 98.805908,36.356594 96.081032,45.819366 
	C92.563904,58.033440 97.631142,68.922203 109.537277,73.240433 
M345.035797,72.759125 
	C353.059448,75.171684 360.426880,74.096184 365.941284,67.486649 
	C371.921387,60.318928 372.387299,51.965492 369.020996,43.500568 
	C365.637085,34.991505 356.795380,30.577812 347.850769,32.521843 
	C339.777771,34.276440 334.116211,40.418327 332.961365,48.674454 
	C331.407288,59.784660 335.185059,67.681488 345.035797,72.759125 
M61.540905,33.015942 
	C58.806755,33.015942 56.072601,33.015942 53.405304,33.015942 
	C53.405304,46.787506 53.405304,59.703392 53.405304,72.743607 
	C55.237141,72.743607 56.808483,72.743607 58.807003,72.743607 
	C58.807003,70.180481 58.807003,67.884659 58.807003,65.588837 
	C58.807003,63.165478 58.807003,60.742115 58.807003,58.397137 
	C72.049011,57.058495 72.049202,57.058414 76.629120,68.327164 
	C76.754044,68.634537 76.895592,68.940254 76.974998,69.260246 
	C77.952805,73.200439 80.370346,73.871201 84.043373,72.398598 
	C82.278023,68.074509 80.724617,63.877430 78.850967,59.828552 
	C77.742546,57.433300 77.876205,55.870693 79.737831,53.713684 
	C83.304634,49.580925 83.428467,44.566212 81.334076,39.654438 
	C79.241699,34.747387 74.955055,33.197609 69.996941,33.044003 
	C67.505287,32.966812 65.009560,33.021111 61.540905,33.015942 
M187.740799,137.708023 
	C196.807602,144.901855 203.276016,139.074326 209.528183,133.109070 
	C213.322662,135.832474 214.858658,142.055328 221.565323,139.463196 
	C218.753220,136.082550 216.043457,132.824951 213.373703,129.615463 
	C218.150528,124.019073 218.150528,124.019073 215.357330,121.832100 
	C213.768570,123.202156 212.157318,124.591599 210.284439,126.206642 
	C208.327271,123.864166 206.491119,121.666557 204.635773,119.445961 
	C213.121567,113.335350 214.999268,108.655899 211.508499,103.222626 
	C208.824661,99.045311 202.464798,97.867973 197.706131,100.667534 
	C192.200974,103.906273 191.919327,109.735596 196.841232,118.568001 
	C184.620850,126.970375 183.403763,129.325836 187.740799,137.708023 
M634.481445,100.018463 
	C628.871399,100.018463 623.261414,100.018463 617.454163,100.018463 
	C617.454163,113.575089 617.454163,126.609032 617.454163,139.710907 
	C627.328430,139.710907 636.895264,139.710907 646.462036,139.710907 
	C646.721191,139.191971 646.980408,138.673035 647.239563,138.154099 
	C645.902405,137.303223 644.591858,135.770462 643.223694,135.717239 
	C636.618225,135.460251 629.997253,135.601486 623.157471,135.601486 
	C623.157471,130.913605 623.157471,126.713402 623.157471,122.145477 
	C628.300781,122.145477 633.102051,122.019875 637.893066,122.188660 
	C641.209106,122.305481 642.140747,121.139946 640.650818,117.621368 
	C634.855652,117.621368 628.951477,117.621368 623.126709,117.621368 
	C623.126709,113.005257 623.126709,108.910919 623.126709,104.415680 
	C630.072327,104.415680 636.701660,104.341736 643.328125,104.446091 
	C646.769653,104.500275 647.180176,102.985985 646.099915,100.018463 
	C642.427246,100.018463 638.948120,100.018463 634.481445,100.018463 
M758.514282,68.599823 
	C757.083557,68.495819 755.652832,68.391823 754.055054,68.275681 
	C754.055054,63.836170 754.055054,59.755863 754.055054,55.145252 
	C759.238098,55.145252 764.188293,55.043758 769.131958,55.179169 
	C772.723145,55.277531 772.935669,53.708824 771.614197,50.671471 
	C765.773987,50.671471 760.006592,50.671471 754.214661,50.671471 
	C754.214661,46.078297 754.214661,41.876503 754.214661,37.416805 
	C761.104004,37.416805 767.585449,37.336132 774.063354,37.451923 
	C777.155029,37.507183 778.456482,36.567772 777.221252,33.369465 
	C767.574951,33.369465 758.034546,33.369465 748.538269,33.369465 
	C748.538269,46.754047 748.538269,59.783909 748.538269,72.786133 
	C758.368713,72.786133 767.808716,72.786133 777.248779,72.786133 
	C777.556274,72.319336 777.863708,71.852539 778.171143,71.385735 
	C776.944031,70.458015 775.762268,68.810555 774.481812,68.729843 
	C769.510498,68.416473 764.507874,68.601166 758.514282,68.599823 
M985.747192,33.018837 
	C982.892334,32.588379 982.042847,33.837212 982.093506,36.650303 
	C982.249329,45.300602 982.149963,53.955494 982.149780,62.608601 
	C982.149658,66.015335 982.149719,69.422066 982.149719,72.777061 
	C992.393860,72.777061 1001.834656,72.777061 1011.234131,72.777061 
	C1012.486267,69.268120 1010.930969,68.513290 1007.956665,68.564926 
	C1001.380127,68.679108 994.800293,68.600449 988.069702,68.600449 
	C988.069702,63.808826 988.069702,59.730213 988.069702,55.115978 
	C994.211914,55.115978 1000.110840,55.115978 1005.972229,55.115978 
	C1006.055603,50.997932 1006.056641,50.920887 1003.018616,50.880951 
	C998.080933,50.816040 993.141724,50.863445 988.238892,50.863445 
	C988.238892,46.056770 988.238892,41.858925 988.238892,37.416573 
	C995.154541,37.416573 1001.638000,37.335564 1008.117859,37.451340 
	C1011.275879,37.507763 1012.430054,36.461903 1011.072998,33.018497 
	C1002.950928,33.018497 994.824402,33.018497 985.747192,33.018837 
M209.082520,50.863403 
	C204.138519,50.863403 199.194519,50.863403 194.212051,50.863403 
	C194.212051,46.087360 194.212051,41.882145 194.212051,37.416782 
	C201.102203,37.416782 207.587097,37.335823 214.068466,37.451958 
	C217.170059,37.507530 218.454193,36.555275 217.223602,33.378571 
	C207.564316,33.378571 198.020798,33.378571 188.383453,33.378571 
	C188.383453,46.654255 188.383453,59.568741 188.383453,72.751053 
	C198.175858,72.751053 207.735138,72.751053 217.251801,72.751053 
	C218.496536,69.211151 216.867752,68.515274 213.924896,68.565407 
	C207.350479,68.677422 200.772827,68.600418 194.086090,68.600418 
	C194.086090,63.778404 194.086090,59.701431 194.086090,55.084370 
	C200.244339,55.084370 206.141052,55.084370 212.037766,55.084370 
	C212.324142,54.607651 212.610535,54.130932 212.896927,53.654213 
	C211.922165,52.724838 210.947388,51.795460 209.082520,50.863403 
M600.262817,40.704281 
	C596.102722,51.300526 591.942627,61.896767 587.782471,72.493011 
	C588.204590,72.942635 588.626648,73.392258 589.048706,73.841881 
	C590.872070,72.605568 593.942932,71.656319 594.304810,70.083679 
	C595.947998,62.943333 600.207397,60.862049 606.887695,62.113239 
	C607.530579,62.233643 608.233093,62.228039 608.878235,62.113724 
	C614.084167,61.191250 617.379333,62.913437 618.368103,68.454758 
	C619.066406,72.368019 621.323547,74.211838 625.781921,72.525246 
	C620.855835,60.074459 615.977783,47.596745 610.903931,35.199184 
	C610.492249,34.193214 608.823608,33.359432 607.596863,33.087639 
	C601.836304,31.811415 602.206360,36.940346 600.262817,40.704281 
M438.349579,67.916115 
	C439.366455,63.386745 441.921387,61.197948 446.773254,62.082996 
	C448.383026,62.376644 450.139526,62.384956 451.746124,62.083042 
	C457.335480,61.032654 460.487854,63.226700 461.514618,68.789330 
	C462.277039,72.919670 464.727051,74.036514 468.730560,72.422310 
	C464.000641,60.424503 459.281158,48.555832 454.661774,36.648304 
	C453.744598,34.284111 452.759918,32.885082 449.748627,32.878399 
	C446.741669,32.871731 445.787628,34.250820 444.891571,36.622765 
	C442.252563,43.608337 439.450256,50.532269 436.703949,57.477207 
	C434.723694,62.484959 432.730835,67.487732 430.738373,72.505997 
	C435.157623,73.998032 437.288177,72.453331 438.349579,67.916115 
M551.051636,112.397881 
	C549.823059,109.314278 548.897095,106.053780 547.240662,103.220299 
	C546.387939,101.761658 544.360413,100.685158 542.638611,100.111496 
	C540.130432,99.275803 538.902100,100.892586 538.012268,103.221550 
	C534.516968,112.369247 530.825806,121.441956 527.235229,130.553452 
	C526.059204,133.537689 524.967590,136.555191 523.845459,139.535919 
	C528.294800,141.016876 530.360840,139.298416 531.094727,135.576508 
	C532.138000,130.285568 535.307678,129.243668 540.538696,128.867645 
	C549.271179,128.239960 555.114868,130.067688 555.648743,139.792679 
	C558.000916,139.792679 559.772217,139.792679 561.905823,139.792679 
	C558.288269,130.693787 554.796265,121.910721 551.051636,112.397881 
M847.952576,45.400715 
	C844.381775,54.450306 840.810913,63.499897 837.184021,72.691673 
	C840.487061,73.200233 842.855103,73.688606 844.250732,69.798035 
	C847.037231,62.030071 847.313965,62.129349 855.735413,62.129322 
	C856.400818,62.129318 857.085266,62.232265 857.728638,62.113251 
	C863.598694,61.027351 867.169128,63.116112 868.173950,69.262444 
	C868.813538,73.174507 871.472229,73.724213 875.269165,72.495918 
	C870.568970,60.635738 865.819214,48.823288 861.235779,36.946671 
	C860.258789,34.415100 859.386047,32.823219 856.106201,32.871830 
	C853.010315,32.917717 852.141602,34.506325 851.301208,36.795643 
	C850.329102,39.443886 849.233765,42.046875 847.952576,45.400715 
M302.215454,129.156982 
	C305.376923,129.147751 308.594025,129.510910 311.687836,129.048737 
	C317.431030,128.190765 320.846344,130.209030 321.853394,135.993011 
	C322.586914,140.205963 325.216125,140.731155 329.060425,139.541153 
	C324.078247,127.002899 319.182922,114.497246 314.044891,102.092117 
	C313.615540,101.055458 311.534698,100.131401 310.251312,100.169556 
	C308.763092,100.213806 306.432007,101.013939 305.972992,102.114265 
	C300.803558,114.506340 295.923859,127.019287 290.963684,139.506622 
	C295.231812,141.032913 297.404510,139.603806 298.463745,135.560699 
	C299.036194,133.375671 300.380249,131.392807 302.215454,129.156982 
M578.453857,132.394073 
	C578.572876,130.975037 578.691833,129.556000 578.873901,127.384857 
	C584.143250,127.384857 589.149109,127.869995 594.019409,127.264618 
	C600.407288,126.470619 603.968079,121.189659 603.972839,113.852371 
	C603.977600,106.626831 600.258789,100.965149 594.012817,100.406204 
	C587.162354,99.793144 580.214661,100.266602 573.258667,100.266602 
	C573.258667,113.685158 573.258667,126.729851 573.258667,140.072357 
	C575.099060,139.936661 576.650146,139.822281 578.453308,139.689331 
	C578.453308,137.311523 578.453308,135.333237 578.453857,132.394073 
M11.689425,33.030437 
	C10.743621,33.805733 8.984609,34.569698 8.973625,35.358021 
	C8.800438,47.787521 8.852014,60.220150 8.852014,73.026909 
	C10.942242,72.917610 12.473145,72.837555 14.275675,72.743301 
	C14.275675,68.596321 14.275675,64.976143 14.275675,60.580429 
	C19.335072,60.580429 24.146791,60.976524 28.866623,60.486885 
	C35.812634,59.766293 40.062748,53.867447 39.770828,46.243782 
	C39.468800,38.356140 35.032654,33.418274 27.641050,33.100452 
	C22.655548,32.886089 17.654226,33.039658 11.689425,33.030437 
M275.264221,72.350067 
	C280.663757,72.612030 286.144531,73.567497 291.440643,72.946915 
	C297.084167,72.285614 300.001801,68.423569 300.283539,63.674824 
	C300.607422,58.215546 298.068054,54.450405 292.366180,52.423420 
	C289.244659,51.313736 285.967224,50.651138 282.802643,49.652130 
	C279.262543,48.534584 276.173981,46.813614 276.881989,42.343769 
	C277.582916,37.918713 281.157471,36.926758 284.742889,37.115852 
	C288.944702,37.337448 293.104156,38.361568 298.802368,39.283600 
	C297.147461,37.077030 296.243652,34.595745 294.950928,34.373135 
	C289.838989,33.492870 284.541931,32.623047 279.434784,33.086300 
	C274.561737,33.528320 271.628571,37.285004 271.130951,42.335236 
	C270.650909,47.207024 273.216492,51.231571 278.208496,53.143398 
	C281.760529,54.503761 285.515778,55.323837 289.141357,56.504719 
	C292.520935,57.605473 295.424316,59.422901 294.773438,63.551201 
	C294.148621,67.514412 290.982422,69.101616 287.438446,68.889214 
	C282.065063,68.567169 276.730194,67.602554 271.152771,66.881699 
	C270.250885,69.254921 271.247253,71.245979 275.264221,72.350067 
M439.680969,113.548134 
	C442.088409,115.871834 444.191711,118.707893 446.991791,120.370216 
	C449.612518,121.926071 452.992523,122.171638 456.000519,123.114647 
	C459.599792,124.243034 463.387909,125.648659 462.780884,130.342316 
	C462.159454,135.147369 458.170258,136.280090 454.153473,135.967377 
	C449.169312,135.579346 444.239166,134.497253 439.285706,133.714966 
	C438.923798,133.937393 438.561859,134.159836 438.199951,134.382263 
	C439.564880,135.932846 440.757690,138.591278 442.325684,138.834869 
	C447.963226,139.710724 453.800934,140.500793 459.423279,139.935059 
	C465.070526,139.366821 467.993317,135.438049 468.281860,130.692490 
	C468.614502,125.221291 466.089478,121.464478 460.380615,119.430641 
	C457.259674,118.318779 453.981079,117.657913 450.816589,116.657677 
	C447.280914,115.540131 444.180298,113.831055 444.879517,109.357346 
	C445.571716,104.928841 449.142853,103.929314 452.730255,104.116425 
	C456.934570,104.335724 461.097015,105.357872 466.561951,106.238808 
	C465.261475,104.227921 464.674622,102.142044 463.385529,101.526253 
	C456.946930,98.450516 450.235107,97.669144 443.830322,101.537628 
	C439.688232,104.039444 438.375946,108.046478 439.680969,113.548134 
M664.191162,119.437210 
	C668.146545,120.680084 672.115112,121.882744 676.053284,123.177963 
	C679.490112,124.308319 682.965637,125.748962 682.514587,130.184219 
	C682.048279,134.770523 678.442749,136.196060 674.537537,135.937897 
	C669.385559,135.597290 664.278381,134.579025 659.057190,133.838623 
	C658.064758,136.730713 659.465759,138.818970 662.638306,139.142609 
	C668.177063,139.707657 673.839478,140.505142 679.308472,139.908173 
	C684.867676,139.301361 687.827393,135.293167 688.061279,130.543930 
	C688.320374,125.281067 685.869812,121.561844 680.427124,119.564857 
	C677.158813,118.365692 673.719727,117.640083 670.387085,116.605927 
	C666.989624,115.551643 664.036987,113.789192 664.534180,109.680000 
	C665.054626,105.378540 668.445740,103.927307 672.176270,104.112778 
	C676.390625,104.322311 680.568359,105.269539 686.372375,106.136490 
	C684.668396,103.916336 683.774597,101.523842 682.475403,101.278557 
	C677.683350,100.373779 672.728455,99.628227 667.889771,99.879921 
	C663.439270,100.111427 660.135376,103.113121 659.191467,107.656082 
	C658.245728,112.207863 659.406555,116.270447 664.191162,119.437210 
M258.957520,65.008614 
	C259.118652,57.268921 256.947021,54.224525 249.516235,51.921749 
	C246.817947,51.085552 244.061203,50.437672 241.364365,49.597218 
	C237.964203,48.537590 235.025650,46.763618 235.536301,42.658604 
	C236.070847,38.361450 239.468018,36.922634 243.195114,37.111568 
	C247.405792,37.325016 251.579117,38.274593 257.403839,39.149708 
	C255.656570,36.890472 254.737167,34.475979 253.467697,34.275219 
	C248.336990,33.463856 243.026520,32.635509 237.921036,33.160831 
	C233.317276,33.634529 230.385818,37.193157 229.975357,42.138062 
	C229.545502,47.316845 231.805466,51.166695 236.797211,53.098064 
	C240.347916,54.471882 244.119019,55.265385 247.754562,56.433681 
	C251.129532,57.518242 254.039673,59.292740 253.500656,63.425705 
	C252.975861,67.449715 249.845139,69.081123 246.293823,68.887840 
	C240.927643,68.595787 235.597961,67.633469 230.029327,66.927673 
	C229.136047,69.337692 230.049759,71.578545 233.389160,72.073761 
	C238.272217,72.797882 243.235886,73.695404 248.120941,73.486084 
	C252.950562,73.279121 257.056183,70.879539 258.957520,65.008614 
M505.750763,99.570023 
	C492.960632,97.750076 483.791687,102.528557 481.099945,112.768272 
	C478.858368,121.295639 479.489899,129.590286 486.414856,135.843552 
	C493.450562,142.196808 501.875397,141.791458 510.442474,139.240448 
	C513.612976,138.296387 514.856812,136.592590 513.600830,133.312210 
	C504.724670,136.240829 495.729980,138.785080 488.500122,130.108017 
	C484.557159,125.375740 484.415710,115.150459 488.254211,110.255623 
	C495.420990,101.116531 504.589813,103.750679 513.732117,106.798134 
	C515.162231,100.334305 510.072876,100.873444 505.750763,99.570023 
M941.342407,59.733166 
	C941.002686,57.934429 940.510315,56.149303 940.348511,54.334702 
	C939.438599,44.132957 945.653381,36.994114 955.775635,37.178410 
	C960.006042,37.255440 964.214722,38.530125 969.149475,39.384224 
	C968.617126,37.887367 968.533875,35.792942 967.459656,34.925026 
	C958.216064,27.456177 939.564453,33.286507 936.147034,44.869198 
	C933.571838,53.597397 933.894714,62.326111 941.213684,68.875748 
	C948.433105,75.336197 957.035217,74.821922 965.716980,72.047279 
	C968.727844,71.085022 969.571533,69.232391 968.396362,66.349167 
	C953.720215,71.015396 946.587341,69.425056 941.342407,59.733166 
M812.042236,106.258507 
	C819.233948,102.413857 826.402710,104.232948 835.037354,107.338181 
	C833.634216,104.526810 833.296753,102.529747 832.134827,101.728912 
	C821.651794,94.503769 804.206238,100.634590 800.946533,112.736328 
	C798.660034,121.225182 799.191406,129.557175 806.133850,135.812561 
	C813.332886,142.299210 821.926086,141.829681 830.624268,139.081207 
	C833.611206,138.137375 834.576599,136.354218 833.444397,133.426437 
	C819.357605,137.475586 811.290100,136.112366 807.359558,128.882202 
	C803.683167,122.119499 804.825806,110.582939 812.042236,106.258507 
M155.727112,52.736885 
	C154.640747,51.867790 152.705429,51.076931 152.616867,50.115891 
	C152.258316,46.225052 152.468002,42.281841 152.468002,37.933945 
	C160.670349,37.933945 168.258072,37.933945 175.902115,37.933945 
	C175.902115,36.108383 175.902115,34.732121 175.902115,33.299263 
	C166.177963,33.299263 156.781509,33.299263 147.247513,33.299263 
	C147.247513,46.627266 147.247513,59.683346 147.247513,73.050980 
	C149.077133,72.932465 150.630096,72.831863 152.650070,72.701019 
	C152.650070,67.580177 152.650070,62.831669 152.650070,57.520077 
	C159.016068,57.520077 164.906372,57.520077 170.807648,57.520077 
	C170.807648,55.663979 170.807648,54.413048 170.807648,52.739281 
	C165.938309,52.739281 161.314590,52.739281 155.727112,52.736885 
M727.601318,37.973125 
	C730.710999,37.973125 733.820618,37.973125 737.286804,37.973125 
	C737.075439,35.975342 736.929626,34.596828 736.792480,33.300369 
	C725.458923,33.300369 714.550720,33.300369 703.276001,33.300369 
	C703.357300,34.951492 703.424561,36.317856 703.510193,38.056087 
	C708.324890,38.056087 712.753479,38.056087 717.688110,38.056087 
	C717.688110,49.815334 717.688110,61.191639 717.688110,72.649612 
	C719.737122,72.649612 721.261658,72.649612 723.006836,72.649612 
	C723.006836,62.015194 723.113464,51.725216 722.939636,41.439972 
	C722.889832,38.489616 723.954346,37.574688 727.601318,37.973125 
M504.370239,72.999672 
	C505.836060,72.999672 507.301880,72.999672 508.939270,72.999672 
	C508.939270,71.188271 508.939270,69.807678 508.939270,68.011475 
	C501.076141,68.011475 493.478333,68.011475 485.314331,68.011475 
	C485.314331,56.214214 485.314331,44.819889 485.314331,33.043224 
	C483.186584,33.146847 481.664673,33.220966 480.264038,33.289177 
	C480.264038,46.766602 480.264038,59.693558 480.264038,72.999687 
	C488.144928,72.999687 495.770111,72.999687 504.370239,72.999672 
M265.517212,139.999725 
	C271.307251,139.999725 277.097321,139.999725 283.212616,139.999725 
	C283.106964,138.096664 283.030182,136.713516 282.930664,134.920471 
	C274.973328,134.920471 267.386536,134.920471 259.229431,134.920471 
	C259.229431,123.110825 259.229431,111.723312 259.229431,100.300323 
	C257.231079,100.300323 255.818924,100.300323 254.307159,100.300323 
	C254.307159,113.603836 254.307159,126.654549 254.307159,139.999725 
	C257.913635,139.999725 261.219116,139.999725 265.517212,139.999725 
M719.851990,112.511955 
	C719.851990,121.594002 719.851990,130.676056 719.851990,139.707794 
	C729.985535,139.707794 739.408508,139.707794 749.128906,139.707794 
	C748.959229,137.995560 748.821594,136.607544 748.649170,134.867676 
	C740.702820,134.867676 733.107300,134.867676 724.993286,134.867676 
	C724.993286,123.087761 724.993286,111.688034 724.993286,100.033737 
	C723.035950,100.128311 721.624695,100.196495 719.851990,100.282150 
	C719.851990,104.249100 719.851990,107.883873 719.851990,112.511955 
M760.575745,130.478577 
	C760.575745,133.556549 760.575745,136.634521 760.575745,139.753937 
	C770.693848,139.753937 780.096191,139.753937 789.580078,139.753937 
	C789.580078,138.117157 789.580078,136.746918 789.580078,134.849991 
	C781.570984,134.849991 773.859070,134.849991 765.704590,134.849991 
	C765.704590,122.942093 765.704590,111.561714 765.704590,99.938530 
	C763.785828,100.101212 762.357056,100.222351 760.575317,100.373413 
	C760.575317,110.268295 760.575317,119.877037 760.575745,130.478577 
M313.389832,56.497482 
	C313.389832,61.914528 313.389832,67.331573 313.389832,73.085831 
	C315.619354,72.961433 317.179047,72.874413 318.722961,72.788269 
	C318.722961,59.352245 318.722961,46.321072 318.722961,32.964123 
	C316.858734,33.076519 315.301086,33.170437 313.390167,33.285652 
	C313.390167,40.947411 313.390167,48.222820 313.389832,56.497482 
M641.455872,33.169590 
	C640.052307,33.169590 638.648743,33.169590 637.318115,33.169590 
	C637.318115,46.758827 637.318115,59.775303 637.318115,73.010757 
	C639.068848,72.932091 640.494019,72.868050 642.138000,72.794182 
	C642.138000,59.598167 642.138000,46.712887 641.455872,33.169590 
z"/>
<path fill="#575757" opacity="1.000000" stroke="none" 
	d="
M1.000000,158.449982 
	C4.216664,157.037720 7.434389,155.232361 10.649839,155.236404 
	C91.956841,155.338623 173.263504,155.673096 254.570435,155.881546 
	C477.998505,156.454376 701.426636,156.984268 924.854736,157.542145 
	C955.844421,157.619522 986.833984,157.788544 1017.823730,157.829178 
	C1021.350708,157.833801 1024.492432,158.177124 1026.717041,161.785492 
	C1027.000000,163.388885 1027.000000,164.777786 1026.867920,166.913773 
	C1023.722107,169.020004 1020.743408,171.449356 1017.688477,171.549423 
	C1005.707397,171.941803 993.702454,171.566711 981.706238,171.535202 
	C854.409424,171.200821 727.112671,170.880859 599.815857,170.550751 
	C403.538635,170.041763 207.261368,169.537781 10.984429,168.933395 
	C7.654334,168.923141 4.328058,167.672058 1.000000,167.000000 
	C1.000000,164.299988 1.000000,161.599976 1.000000,158.449982 
z"/>
<path fill="#575757" opacity="1.000000" stroke="none" 
	d="
M1027.000000,13.571533 
	C1023.569275,15.222169 1020.136963,17.517000 1016.708008,17.512066 
	C873.719116,17.306334 730.730652,16.889954 587.742065,16.510166 
	C458.252441,16.166233 328.762817,15.834993 199.273193,15.496490 
	C136.445099,15.332251 73.616898,15.191715 10.789306,14.913089 
	C7.784562,14.899763 4.785297,13.650898 1.391740,12.988706 
	C1.000000,9.500000 0.916079,5.995837 1.089286,2.504430 
	C1.115667,1.972666 2.333333,1.500000 3.672788,1.261827 
	C5.230384,1.349102 6.115192,1.174551 7.000000,1.000000 
	C7.750000,1.000000 8.500000,1.000000 9.917609,1.298554 
	C31.456537,1.693404 52.327854,1.789700 73.654816,1.860870 
	C129.294785,1.929709 184.479111,2.026923 239.663452,2.105459 
	C241.815369,2.108521 243.967545,1.932706 246.580658,1.842985 
	C330.489441,2.028999 413.937286,2.180637 497.384888,2.402130 
	C670.609497,2.861916 843.833984,3.369814 1017.058716,3.773405 
	C1021.170105,3.782984 1024.611816,4.401248 1027.000000,8.000000 
	C1027.000000,9.714358 1027.000000,11.428718 1027.000000,13.571533 
z"/>
<path fill="#F6F6F6" opacity="1.000000" stroke="none" 
	d="
M1.000000,167.499481 
	C4.328058,167.672058 7.654334,168.923141 10.984429,168.933395 
	C207.261368,169.537781 403.538635,170.041763 599.815857,170.550751 
	C727.112671,170.880859 854.409424,171.200821 981.706238,171.535202 
	C993.702454,171.566711 1005.707397,171.941803 1017.688477,171.549423 
	C1020.743408,171.449356 1023.722107,169.020004 1026.867920,167.330444 
	C1027.000000,168.999039 1027.000000,170.998077 1027.000000,172.997711 
	C685.000000,172.998322 343.000000,172.998322 1.000000,172.997482 
	C1.000000,171.330750 1.000000,169.664841 1.000000,167.499481 
z"/>
<path fill="#F4F4F4" opacity="1.000000" stroke="none" 
	d="
M1027.000000,7.502095 
	C1024.611816,4.401248 1021.170105,3.782984 1017.058716,3.773405 
	C843.833984,3.369814 670.609497,2.861916 497.384888,2.402130 
	C413.937286,2.180637 330.489441,2.028999 246.535263,1.635147 
	C246.028824,1.424564 246.000000,1.000000 246.000000,1.000000 
	C506.333344,1.000000 766.666687,1.000000 1027.000000,1.004006 
	C1027.000000,3.006737 1027.000000,5.005464 1027.000000,7.502095 
z"/>
<path fill="#A5A5A5" opacity="1.000000" stroke="none" 
	d="
M245.531342,1.000000 
	C246.000000,1.000000 246.028824,1.424564 246.074219,1.632402 
	C243.967545,1.932706 241.815369,2.108521 239.663452,2.105459 
	C184.479111,2.026923 129.294785,1.929709 73.589035,1.643164 
	C73.067627,1.450583 73.000000,1.000000 73.000000,1.000000 
	C130.354233,1.000000 187.708450,1.000000 245.531342,1.000000 
z"/>
<path fill="#646464" opacity="1.000000" stroke="none" 
	d="
M72.531342,1.000000 
	C73.000000,1.000000 73.067627,1.450583 73.133400,1.668290 
	C52.327854,1.789700 31.456537,1.693404 10.292609,1.298554 
	C30.687561,1.000000 51.375122,1.000000 72.531342,1.000000 
z"/>
<path fill="#646464" opacity="1.000000" stroke="none" 
	d="
M6.625000,1.000000 
	C6.115192,1.174551 5.230384,1.349102 4.172788,1.261827 
	C4.750000,1.000000 5.500000,1.000000 6.625000,1.000000 
z"/>
<path fill="#5C5C5C" opacity="1.000000" stroke="none" 
	d="
M556.661072,60.057480 
	C556.942810,61.415150 557.120239,62.392170 557.297668,63.369194 
	C557.577515,63.421528 557.857361,63.473858 558.137207,63.526192 
	C560.243164,53.571983 562.349060,43.617775 564.520020,33.356422 
	C566.670349,33.356422 568.759949,33.356422 571.460144,33.356422 
	C574.193176,46.225792 576.974609,59.322903 579.835510,72.794678 
	C578.015259,72.882370 576.406616,72.959869 574.398254,73.056618 
	C572.190063,62.702236 570.020813,52.530327 567.851624,42.358418 
	C567.624756,42.349285 567.397949,42.340157 567.171082,42.331028 
	C565.013062,52.452930 562.855103,62.574833 560.670593,72.821030 
	C558.626282,72.821030 556.851318,72.821030 554.823975,72.821030 
	C552.747681,62.873287 550.699280,53.059322 548.650879,43.245358 
	C548.313782,43.220394 547.976685,43.195431 547.639587,43.170467 
	C546.157349,49.872417 544.667664,56.572731 543.197510,63.277340 
	C542.770569,65.224365 542.197449,67.168076 542.045471,69.140594 
	C541.737976,73.131325 539.539490,73.629395 535.809875,72.533730 
	C538.575562,59.424038 541.332214,46.357422 544.109619,33.192425 
	C546.413086,33.192425 548.378418,33.192425 550.987732,33.192425 
	C552.826965,41.939213 554.691833,50.808025 556.661072,60.057480 
z"/>
<path fill="#5D5D5D" opacity="1.000000" stroke="none" 
	d="
M419.609375,65.849960 
	C419.609222,68.314209 419.609222,70.301010 419.609222,74.173347 
	C416.694580,72.456444 414.287262,71.724632 412.909882,70.112755 
	C405.450836,61.383842 398.246521,52.437233 390.254822,42.714523 
	C390.254822,53.224106 390.254822,62.839428 390.254822,72.729095 
	C388.083832,72.729095 386.511566,72.729095 384.685547,72.729095 
	C384.685547,59.709625 384.685547,46.763428 384.685547,33.648777 
	C387.645966,31.953871 389.399658,33.632591 391.193481,35.837585 
	C398.440430,44.745655 405.772522,53.584461 413.804810,63.337173 
	C413.804810,52.778740 413.804810,43.153748 413.804810,33.284657 
	C415.998505,33.284657 417.561066,33.284657 419.609528,33.284657 
	C419.609528,44.116562 419.609528,54.744537 419.609375,65.849960 
z"/>
<path fill="#5D5D5D" opacity="1.000000" stroke="none" 
	d="
M912.596252,67.451569 
	C905.855652,59.265385 899.346436,51.355427 892.145203,42.604523 
	C892.145203,53.221962 892.145203,62.761562 892.145203,72.707619 
	C890.229614,72.836868 888.676575,72.941658 886.767151,73.070496 
	C886.767151,59.673664 886.767151,46.618137 886.767151,31.834421 
	C889.478088,33.579842 891.834961,34.454350 893.261780,36.123795 
	C900.687317,44.811970 907.876038,53.702560 915.816284,63.334381 
	C915.816284,52.830658 915.816284,43.313076 915.816284,33.359127 
	C917.768921,33.214779 919.315552,33.100445 921.251831,32.957306 
	C921.251831,46.355774 921.251831,59.405407 921.251831,72.565041 
	C916.383057,74.600639 915.238647,70.032211 912.596252,67.451569 
z"/>
<path fill="#5C5C5C" opacity="1.000000" stroke="none" 
	d="
M375.193848,129.968597 
	C375.193878,133.439804 375.193878,136.417160 375.193878,141.185867 
	C372.391693,139.518433 370.134918,138.811295 368.826111,137.289093 
	C362.425110,129.844254 356.279358,122.180008 350.036774,114.598778 
	C348.923798,113.247147 347.779541,111.921234 345.827332,109.609634 
	C345.827332,120.425537 345.827332,129.972214 345.827332,139.761948 
	C343.777252,139.761948 342.205048,139.761948 340.390930,139.761948 
	C340.390930,126.633766 340.390930,113.701172 340.390930,99.161926 
	C342.897369,100.491356 345.255310,101.050774 346.536957,102.537804 
	C353.164215,110.227287 359.509430,118.159622 365.971039,125.992371 
	C366.981964,127.217850 368.085480,128.366943 369.824280,130.308548 
	C369.824280,119.736649 369.824280,110.183884 369.824280,100.313965 
	C371.618042,100.190567 373.028870,100.093513 375.193787,99.944588 
	C375.193787,109.971252 375.193787,119.722992 375.193848,129.968597 
z"/>
<path fill="#5C5C5C" opacity="1.000000" stroke="none" 
	d="
M657.149780,47.009338 
	C657.149780,42.202023 657.149780,37.892368 657.149780,31.819550 
	C660.030029,33.476612 662.359009,34.144749 663.669739,35.681404 
	C671.221558,44.535069 678.532593,53.594177 686.750244,63.586834 
	C686.750244,52.781326 686.750244,43.128685 686.750244,33.260029 
	C688.770203,33.260029 690.181396,33.260029 691.894043,33.260029 
	C691.894043,46.438534 691.894043,59.501148 691.894043,74.220436 
	C689.259277,72.527138 687.034180,71.707870 685.694275,70.134636 
	C678.266785,61.413750 671.054565,52.509502 663.053101,42.799782 
	C663.053101,53.281815 663.053101,62.776314 663.053101,72.659988 
	C660.985901,72.820297 659.421936,72.941582 657.149719,73.117783 
	C657.149719,64.356529 657.149719,55.931767 657.149780,47.009338 
z"/>
<path fill="#595959" opacity="1.000000" stroke="none" 
	d="
M419.111511,103.740540 
	C426.362091,110.379662 428.553375,119.310745 425.282959,127.964256 
	C422.293152,135.875305 415.839935,139.925323 406.004791,140.003418 
	C400.876648,140.044144 395.747925,140.010590 389.991486,140.010590 
	C389.991486,133.167953 389.991486,126.587090 389.991486,120.006226 
	C389.991486,113.551117 389.991486,107.096001 389.991486,100.049179 
	C399.902588,100.744064 409.798920,97.791649 419.111511,103.740540 
M404.365417,104.977226 
	C401.455231,104.977226 398.545013,104.977226 395.593445,104.977226 
	C395.593445,115.329575 395.593445,124.913834 395.593445,134.454865 
	C410.793579,137.031296 419.868042,132.734497 421.030945,122.564064 
	C422.262299,111.794380 416.491394,105.347786 404.365417,104.977226 
z"/>
<path fill="#575757" opacity="1.000000" stroke="none" 
	d="
M813.718384,63.290680 
	C808.147034,56.556145 802.806213,50.092365 796.563416,42.536926 
	C796.563416,53.447327 796.563416,62.857742 796.563416,72.745750 
	C794.628418,72.839714 793.081177,72.914848 791.256104,73.003471 
	C791.256104,59.581127 791.256104,46.509605 791.256104,31.831835 
	C793.881775,33.482357 796.136719,34.275978 797.480774,35.848289 
	C804.916626,44.546944 812.130737,53.435276 820.369751,63.407219 
	C820.369751,52.588348 820.369751,43.132504 820.369751,33.413582 
	C822.415771,33.226780 823.842163,33.096546 825.647217,32.931744 
	C825.647217,46.225040 825.647217,59.285599 825.647217,72.380585 
	C821.209778,73.414032 823.503540,75.154747 813.718384,63.290680 
z"/>
<path fill="#5D5D5D" opacity="1.000000" stroke="none" 
	d="
M109.144478,73.143570 
	C97.631142,68.922203 92.563904,58.033440 96.081032,45.819366 
	C98.805908,36.356594 108.116928,30.571827 117.717422,32.377079 
	C128.999527,34.498535 135.302505,45.148434 132.953430,58.120815 
	C130.916107,69.371696 121.317993,75.569099 109.144478,73.143570 
M117.669792,68.599365 
	C129.638596,65.624191 130.367004,48.508495 124.387657,41.703224 
	C120.774246,37.590706 116.170685,36.202545 110.877899,37.575977 
	C103.234673,39.559334 99.491394,46.892544 100.933693,56.799168 
	C102.133278,65.038742 107.740356,69.253754 117.669792,68.599365 
z"/>
<path fill="#5C5C5C" opacity="1.000000" stroke="none" 
	d="
M344.681335,72.595711 
	C335.185059,67.681488 331.407288,59.784660 332.961365,48.674454 
	C334.116211,40.418327 339.777771,34.276440 347.850769,32.521843 
	C356.795380,30.577812 365.637085,34.991505 369.020996,43.500568 
	C372.387299,51.965492 371.921387,60.318928 365.941284,67.486649 
	C360.426880,74.096184 353.059448,75.171684 344.681335,72.595711 
M364.580170,46.527699 
	C362.602264,41.014854 358.823425,37.618916 352.899811,37.152355 
	C347.693726,36.742313 343.354431,38.705471 340.620331,43.225784 
	C337.627930,48.173088 337.287506,53.570240 338.947723,59.084068 
	C340.903015,65.578003 346.246582,69.379974 352.756714,68.948952 
	C358.980164,68.536919 363.955139,64.226898 364.899994,57.718502 
	C365.391968,54.329933 364.886230,50.796528 364.580170,46.527699 
z"/>
<path fill="#5D5D5D" opacity="1.000000" stroke="none" 
	d="
M62.028290,33.015942 
	C65.009560,33.021111 67.505287,32.966812 69.996941,33.044003 
	C74.955055,33.197609 79.241699,34.747387 81.334076,39.654438 
	C83.428467,44.566212 83.304634,49.580925 79.737831,53.713684 
	C77.876205,55.870693 77.742546,57.433300 78.850967,59.828552 
	C80.724617,63.877430 82.278023,68.074509 84.043373,72.398598 
	C80.370346,73.871201 77.952805,73.200439 76.974998,69.260246 
	C76.895592,68.940254 76.754044,68.634537 76.629120,68.327164 
	C72.049202,57.058414 72.049011,57.058495 58.807003,58.397137 
	C58.807003,60.742115 58.807003,63.165478 58.807003,65.588837 
	C58.807003,67.884659 58.807003,70.180481 58.807003,72.743607 
	C56.808483,72.743607 55.237141,72.743607 53.405304,72.743607 
	C53.405304,59.703392 53.405304,46.787506 53.405304,33.015942 
	C56.072601,33.015942 58.806755,33.015942 62.028290,33.015942 
M60.800327,53.598598 
	C63.953281,53.484108 67.116478,53.491173 70.256767,53.226433 
	C74.880051,52.836662 76.985725,49.990730 77.016891,45.543354 
	C77.047981,41.107597 75.015511,38.103325 70.391853,37.750546 
	C66.659416,37.465767 62.887920,37.692833 58.295593,37.692833 
	C58.856052,43.203033 59.378815,48.342575 60.800327,53.598598 
z"/>
<path fill="#5D5D5D" opacity="1.000000" stroke="none" 
	d="
M187.498474,137.413208 
	C183.403763,129.325836 184.620850,126.970375 196.841232,118.568001 
	C191.919327,109.735596 192.200974,103.906273 197.706131,100.667534 
	C202.464798,97.867973 208.824661,99.045311 211.508499,103.222626 
	C214.999268,108.655899 213.121567,113.335350 204.635773,119.445961 
	C206.491119,121.666557 208.327271,123.864166 210.284439,126.206642 
	C212.157318,124.591599 213.768570,123.202156 215.357330,121.832100 
	C218.150528,124.019073 218.150528,124.019073 213.373703,129.615463 
	C216.043457,132.824951 218.753220,136.082550 221.565323,139.463196 
	C214.858658,142.055328 213.322662,135.832474 209.528183,133.109070 
	C203.276016,139.074326 196.807602,144.901855 187.498474,137.413208 
M203.985352,132.415802 
	C204.843857,131.467529 205.702362,130.519257 206.697632,129.419922 
	C204.278015,126.684952 202.015594,124.127686 199.776718,121.597023 
	C198.469543,122.224892 197.568756,122.623695 196.698959,123.081375 
	C193.390686,124.822174 190.098053,126.822021 190.640854,131.158356 
	C190.850159,132.830521 192.221954,135.084976 193.665924,135.732880 
	C197.401505,137.409012 200.695465,135.734421 203.985352,132.415802 
M198.580154,107.092659 
	C198.716034,108.856071 198.370285,110.869713 199.120590,112.313896 
	C199.901443,113.816849 202.561752,116.026764 202.980026,115.753517 
	C205.207321,114.298508 207.689499,112.456390 208.660828,110.149292 
	C209.238022,108.778374 207.432068,104.823479 206.277588,104.637482 
	C203.967346,104.265289 201.368469,105.684723 198.580154,107.092659 
z"/>
<path fill="#5C5C5C" opacity="1.000000" stroke="none" 
	d="
M634.975220,100.018463 
	C638.948120,100.018463 642.427246,100.018463 646.099915,100.018463 
	C647.180176,102.985985 646.769653,104.500275 643.328125,104.446091 
	C636.701660,104.341736 630.072327,104.415680 623.126709,104.415680 
	C623.126709,108.910919 623.126709,113.005257 623.126709,117.621368 
	C628.951477,117.621368 634.855652,117.621368 640.650818,117.621368 
	C642.140747,121.139946 641.209106,122.305481 637.893066,122.188660 
	C633.102051,122.019875 628.300781,122.145477 623.157471,122.145477 
	C623.157471,126.713402 623.157471,130.913605 623.157471,135.601486 
	C629.997253,135.601486 636.618225,135.460251 643.223694,135.717239 
	C644.591858,135.770462 645.902405,137.303223 647.239563,138.154099 
	C646.980408,138.673035 646.721191,139.191971 646.462036,139.710907 
	C636.895264,139.710907 627.328430,139.710907 617.454163,139.710907 
	C617.454163,126.609032 617.454163,113.575089 617.454163,100.018463 
	C623.261414,100.018463 628.871399,100.018463 634.975220,100.018463 
z"/>
<path fill="#5C5C5C" opacity="1.000000" stroke="none" 
	d="
M759.015625,68.600143 
	C764.507874,68.601166 769.510498,68.416473 774.481812,68.729843 
	C775.762268,68.810555 776.944031,70.458015 778.171143,71.385735 
	C777.863708,71.852539 777.556274,72.319336 777.248779,72.786133 
	C767.808716,72.786133 758.368713,72.786133 748.538269,72.786133 
	C748.538269,59.783909 748.538269,46.754047 748.538269,33.369465 
	C758.034546,33.369465 767.574951,33.369465 777.221252,33.369465 
	C778.456482,36.567772 777.155029,37.507183 774.063354,37.451923 
	C767.585449,37.336132 761.104004,37.416805 754.214661,37.416805 
	C754.214661,41.876503 754.214661,46.078297 754.214661,50.671471 
	C760.006592,50.671471 765.773987,50.671471 771.614197,50.671471 
	C772.935669,53.708824 772.723145,55.277531 769.131958,55.179169 
	C764.188293,55.043758 759.238098,55.145252 754.055054,55.145252 
	C754.055054,59.755863 754.055054,63.836170 754.055054,68.275681 
	C755.652832,68.391823 757.083557,68.495819 759.015625,68.600143 
z"/>
<path fill="#5C5C5C" opacity="1.000000" stroke="none" 
	d="
M986.222534,33.018669 
	C994.824402,33.018497 1002.950928,33.018497 1011.072998,33.018497 
	C1012.430054,36.461903 1011.275879,37.507763 1008.117859,37.451340 
	C1001.638000,37.335564 995.154541,37.416573 988.238892,37.416573 
	C988.238892,41.858925 988.238892,46.056770 988.238892,50.863445 
	C993.141724,50.863445 998.080933,50.816040 1003.018616,50.880951 
	C1006.056641,50.920887 1006.055603,50.997932 1005.972229,55.115978 
	C1000.110840,55.115978 994.211914,55.115978 988.069702,55.115978 
	C988.069702,59.730213 988.069702,63.808826 988.069702,68.600449 
	C994.800293,68.600449 1001.380127,68.679108 1007.956665,68.564926 
	C1010.930969,68.513290 1012.486267,69.268120 1011.234131,72.777061 
	C1001.834656,72.777061 992.393860,72.777061 982.149719,72.777061 
	C982.149719,69.422066 982.149658,66.015335 982.149780,62.608601 
	C982.149963,53.955494 982.249329,45.300602 982.093506,36.650303 
	C982.042847,33.837212 982.892334,32.588379 986.222534,33.018669 
z"/>
<path fill="#5C5C5C" opacity="1.000000" stroke="none" 
	d="
M209.527557,50.864746 
	C210.947388,51.795460 211.922165,52.724838 212.896927,53.654213 
	C212.610535,54.130932 212.324142,54.607651 212.037766,55.084370 
	C206.141052,55.084370 200.244339,55.084370 194.086090,55.084370 
	C194.086090,59.701431 194.086090,63.778404 194.086090,68.600418 
	C200.772827,68.600418 207.350479,68.677422 213.924896,68.565407 
	C216.867752,68.515274 218.496536,69.211151 217.251801,72.751053 
	C207.735138,72.751053 198.175858,72.751053 188.383453,72.751053 
	C188.383453,59.568741 188.383453,46.654255 188.383453,33.378571 
	C198.020798,33.378571 207.564316,33.378571 217.223602,33.378571 
	C218.454193,36.555275 217.170059,37.507530 214.068466,37.451958 
	C207.587097,37.335823 201.102203,37.416782 194.212051,37.416782 
	C194.212051,41.882145 194.212051,46.087360 194.212051,50.863403 
	C199.194519,50.863403 204.138519,50.863403 209.527557,50.864746 
z"/>
<path fill="#5C5C5C" opacity="1.000000" stroke="none" 
	d="
M600.441284,40.359413 
	C602.206360,36.940346 601.836304,31.811415 607.596863,33.087639 
	C608.823608,33.359432 610.492249,34.193214 610.903931,35.199184 
	C615.977783,47.596745 620.855835,60.074459 625.781921,72.525246 
	C621.323547,74.211838 619.066406,72.368019 618.368103,68.454758 
	C617.379333,62.913437 614.084167,61.191250 608.878235,62.113724 
	C608.233093,62.228039 607.530579,62.233643 606.887695,62.113239 
	C600.207397,60.862049 595.947998,62.943333 594.304810,70.083679 
	C593.942932,71.656319 590.872070,72.605568 589.048706,73.841881 
	C588.626648,73.392258 588.204590,72.942635 587.782471,72.493011 
	C591.942627,61.896767 596.102722,51.300526 600.441284,40.359413 
M608.176331,42.398113 
	C607.723511,41.579666 607.270630,40.761219 606.522949,39.409916 
	C604.149414,45.547543 602.000610,51.104126 599.762207,56.892372 
	C604.740417,56.892372 608.942078,56.892372 613.794006,56.892372 
	C611.902283,51.963230 610.200195,47.528214 608.176331,42.398113 
z"/>
<path fill="#5C5C5C" opacity="1.000000" stroke="none" 
	d="
M438.211914,68.290321 
	C437.288177,72.453331 435.157623,73.998032 430.738373,72.505997 
	C432.730835,67.487732 434.723694,62.484959 436.703949,57.477207 
	C439.450256,50.532269 442.252563,43.608337 444.891571,36.622765 
	C445.787628,34.250820 446.741669,32.871731 449.748627,32.878399 
	C452.759918,32.885082 453.744598,34.284111 454.661774,36.648304 
	C459.281158,48.555832 464.000641,60.424503 468.730560,72.422310 
	C464.727051,74.036514 462.277039,72.919670 461.514618,68.789330 
	C460.487854,63.226700 457.335480,61.032654 451.746124,62.083042 
	C450.139526,62.384956 448.383026,62.376644 446.773254,62.082996 
	C441.921387,61.197948 439.366455,63.386745 438.211914,68.290321 
M453.136688,47.399578 
	C452.105438,44.871151 451.074158,42.342724 449.682404,38.930470 
	C447.137482,45.543209 444.996307,51.106773 442.781677,56.861256 
	C447.788361,56.861256 451.975372,56.861256 456.715149,56.861256 
	C455.503998,53.624275 454.473999,50.871532 453.136688,47.399578 
z"/>
<path fill="#5C5C5C" opacity="1.000000" stroke="none" 
	d="
M551.177979,112.762772 
	C554.796265,121.910721 558.288269,130.693787 561.905823,139.792679 
	C559.772217,139.792679 558.000916,139.792679 555.648743,139.792679 
	C555.114868,130.067688 549.271179,128.239960 540.538696,128.867645 
	C535.307678,129.243668 532.138000,130.285568 531.094727,135.576508 
	C530.360840,139.298416 528.294800,141.016876 523.845459,139.535919 
	C524.967590,136.555191 526.059204,133.537689 527.235229,130.553452 
	C530.825806,121.441956 534.516968,112.369247 538.012268,103.221550 
	C538.902100,100.892586 540.130432,99.275803 542.638611,100.111496 
	C544.360413,100.685158 546.387939,101.761658 547.240662,103.220299 
	C548.897095,106.053780 549.823059,109.314278 551.177979,112.762772 
M536.715393,121.426788 
	C537.207520,122.353317 537.648376,124.045303 538.200073,124.082237 
	C541.803711,124.323555 545.431396,124.206367 549.943787,124.206367 
	C547.538025,118.018349 545.375610,112.456314 542.797546,105.825150 
	C540.549438,111.551811 538.762207,116.104355 536.715393,121.426788 
z"/>
<path fill="#5C5C5C" opacity="1.000000" stroke="none" 
	d="
M848.072266,45.035107 
	C849.233765,42.046875 850.329102,39.443886 851.301208,36.795643 
	C852.141602,34.506325 853.010315,32.917717 856.106201,32.871830 
	C859.386047,32.823219 860.258789,34.415100 861.235779,36.946671 
	C865.819214,48.823288 870.568970,60.635738 875.269165,72.495918 
	C871.472229,73.724213 868.813538,73.174507 868.173950,69.262444 
	C867.169128,63.116112 863.598694,61.027351 857.728638,62.113251 
	C857.085266,62.232265 856.400818,62.129318 855.735413,62.129322 
	C847.313965,62.129349 847.037231,62.030071 844.250732,69.798035 
	C842.855103,73.688606 840.487061,73.200233 837.184021,72.691673 
	C840.810913,63.499897 844.381775,54.450306 848.072266,45.035107 
M859.525146,46.996998 
	C858.558289,44.567745 857.591370,42.138489 856.257568,38.787281 
	C853.794922,45.250034 851.629333,50.933151 849.366943,56.870361 
	C854.425415,56.870361 858.606995,56.870361 863.270935,56.870361 
	C862.012756,53.508598 860.926270,50.605442 859.525146,46.996998 
z"/>
<path fill="#5C5C5C" opacity="1.000000" stroke="none" 
	d="
M301.795837,129.237854 
	C300.380249,131.392807 299.036194,133.375671 298.463745,135.560699 
	C297.404510,139.603806 295.231812,141.032913 290.963684,139.506622 
	C295.923859,127.019287 300.803558,114.506340 305.972992,102.114265 
	C306.432007,101.013939 308.763092,100.213806 310.251312,100.169556 
	C311.534698,100.131401 313.615540,101.055458 314.044891,102.092117 
	C319.182922,114.497246 324.078247,127.002899 329.060425,139.541153 
	C325.216125,140.731155 322.586914,140.205963 321.853394,135.993011 
	C320.846344,130.209030 317.431030,128.190765 311.687836,129.048737 
	C308.594025,129.510910 305.376923,129.147751 301.795837,129.237854 
M307.569061,112.093224 
	C306.086029,115.938843 304.602966,119.784454 302.998169,123.945747 
	C307.853485,123.945747 312.237640,123.945747 317.124237,123.945747 
	C314.807526,118.009132 312.651520,112.484406 310.060150,105.844025 
	C308.956390,108.634048 308.410858,110.012970 307.569061,112.093224 
z"/>
<path fill="#595959" opacity="1.000000" stroke="none" 
	d="
M578.453613,132.874512 
	C578.453308,135.333237 578.453308,137.311523 578.453308,139.689331 
	C576.650146,139.822281 575.099060,139.936661 573.258667,140.072357 
	C573.258667,126.729851 573.258667,113.685158 573.258667,100.266602 
	C580.214661,100.266602 587.162354,99.793144 594.012817,100.406204 
	C600.258789,100.965149 603.977600,106.626831 603.972839,113.852371 
	C603.968079,121.189659 600.407288,126.470619 594.019409,127.264618 
	C589.149109,127.869995 584.143250,127.384857 578.873901,127.384857 
	C578.691833,129.556000 578.572876,130.975037 578.453613,132.874512 
M596.578369,120.088394 
	C599.097656,116.048233 599.661743,111.447891 596.626282,107.975899 
	C591.723938,102.368561 584.857544,105.849121 578.726013,104.932014 
	C578.726013,111.221954 578.726013,116.928467 578.726013,123.916771 
	C584.885132,122.756813 590.460022,121.706894 596.578369,120.088394 
z"/>
<path fill="#595959" opacity="1.000000" stroke="none" 
	d="
M12.174704,33.029533 
	C17.654226,33.039658 22.655548,32.886089 27.641050,33.100452 
	C35.032654,33.418274 39.468800,38.356140 39.770828,46.243782 
	C40.062748,53.867447 35.812634,59.766293 28.866623,60.486885 
	C24.146791,60.976524 19.335072,60.580429 14.275675,60.580429 
	C14.275675,64.976143 14.275675,68.596321 14.275675,72.743301 
	C12.473145,72.837555 10.942242,72.917610 8.852014,73.026909 
	C8.852014,60.220150 8.800438,47.787521 8.973625,35.358021 
	C8.984609,34.569698 10.743621,33.805733 12.174704,33.029533 
M33.895542,49.877094 
	C35.323383,38.417614 29.871914,36.570984 14.522041,38.585487 
	C14.522041,44.292629 14.522041,49.988289 14.522041,55.863625 
	C18.414095,55.863625 21.899374,55.947315 25.378834,55.840847 
	C29.097864,55.727047 32.215538,54.479721 33.895542,49.877094 
z"/>
<path fill="#5D5D5D" opacity="1.000000" stroke="none" 
	d="
M274.877930,72.222473 
	C271.247253,71.245979 270.250885,69.254921 271.152771,66.881699 
	C276.730194,67.602554 282.065063,68.567169 287.438446,68.889214 
	C290.982422,69.101616 294.148621,67.514412 294.773438,63.551201 
	C295.424316,59.422901 292.520935,57.605473 289.141357,56.504719 
	C285.515778,55.323837 281.760529,54.503761 278.208496,53.143398 
	C273.216492,51.231571 270.650909,47.207024 271.130951,42.335236 
	C271.628571,37.285004 274.561737,33.528320 279.434784,33.086300 
	C284.541931,32.623047 289.838989,33.492870 294.950928,34.373135 
	C296.243652,34.595745 297.147461,37.077030 298.802368,39.283600 
	C293.104156,38.361568 288.944702,37.337448 284.742889,37.115852 
	C281.157471,36.926758 277.582916,37.918713 276.881989,42.343769 
	C276.173981,46.813614 279.262543,48.534584 282.802643,49.652130 
	C285.967224,50.651138 289.244659,51.313736 292.366180,52.423420 
	C298.068054,54.450405 300.607422,58.215546 300.283539,63.674824 
	C300.001801,68.423569 297.084167,72.285614 291.440643,72.946915 
	C286.144531,73.567497 280.663757,72.612030 274.877930,72.222473 
z"/>
<path fill="#5D5D5D" opacity="1.000000" stroke="none" 
	d="
M439.575623,113.166618 
	C438.375946,108.046478 439.688232,104.039444 443.830322,101.537628 
	C450.235107,97.669144 456.946930,98.450516 463.385529,101.526253 
	C464.674622,102.142044 465.261475,104.227921 466.561951,106.238808 
	C461.097015,105.357872 456.934570,104.335724 452.730255,104.116425 
	C449.142853,103.929314 445.571716,104.928841 444.879517,109.357346 
	C444.180298,113.831055 447.280914,115.540131 450.816589,116.657677 
	C453.981079,117.657913 457.259674,118.318779 460.380615,119.430641 
	C466.089478,121.464478 468.614502,125.221291 468.281860,130.692490 
	C467.993317,135.438049 465.070526,139.366821 459.423279,139.935059 
	C453.800934,140.500793 447.963226,139.710724 442.325684,138.834869 
	C440.757690,138.591278 439.564880,135.932846 438.199951,134.382263 
	C438.561859,134.159836 438.923798,133.937393 439.285706,133.714966 
	C444.239166,134.497253 449.169312,135.579346 454.153473,135.967377 
	C458.170258,136.280090 462.159454,135.147369 462.780884,130.342316 
	C463.387909,125.648659 459.599792,124.243034 456.000519,123.114647 
	C452.992523,122.171638 449.612518,121.926071 446.991791,120.370216 
	C444.191711,118.707893 442.088409,115.871834 439.575623,113.166618 
z"/>
<path fill="#5C5C5C" opacity="1.000000" stroke="none" 
	d="
M663.880249,119.224754 
	C659.406555,116.270447 658.245728,112.207863 659.191467,107.656082 
	C660.135376,103.113121 663.439270,100.111427 667.889771,99.879921 
	C672.728455,99.628227 677.683350,100.373779 682.475403,101.278557 
	C683.774597,101.523842 684.668396,103.916336 686.372375,106.136490 
	C680.568359,105.269539 676.390625,104.322311 672.176270,104.112778 
	C668.445740,103.927307 665.054626,105.378540 664.534180,109.680000 
	C664.036987,113.789192 666.989624,115.551643 670.387085,116.605927 
	C673.719727,117.640083 677.158813,118.365692 680.427124,119.564857 
	C685.869812,121.561844 688.320374,125.281067 688.061279,130.543930 
	C687.827393,135.293167 684.867676,139.301361 679.308472,139.908173 
	C673.839478,140.505142 668.177063,139.707657 662.638306,139.142609 
	C659.465759,138.818970 658.064758,136.730713 659.057190,133.838623 
	C664.278381,134.579025 669.385559,135.597290 674.537537,135.937897 
	C678.442749,136.196060 682.048279,134.770523 682.514587,130.184219 
	C682.965637,125.748962 679.490112,124.308319 676.053284,123.177963 
	C672.115112,121.882744 668.146545,120.680084 663.880249,119.224754 
z"/>
<path fill="#5C5C5C" opacity="1.000000" stroke="none" 
	d="
M258.878052,65.402458 
	C257.056183,70.879539 252.950562,73.279121 248.120941,73.486084 
	C243.235886,73.695404 238.272217,72.797882 233.389160,72.073761 
	C230.049759,71.578545 229.136047,69.337692 230.029327,66.927673 
	C235.597961,67.633469 240.927643,68.595787 246.293823,68.887840 
	C249.845139,69.081123 252.975861,67.449715 253.500656,63.425705 
	C254.039673,59.292740 251.129532,57.518242 247.754562,56.433681 
	C244.119019,55.265385 240.347916,54.471882 236.797211,53.098064 
	C231.805466,51.166695 229.545502,47.316845 229.975357,42.138062 
	C230.385818,37.193157 233.317276,33.634529 237.921036,33.160831 
	C243.026520,32.635509 248.336990,33.463856 253.467697,34.275219 
	C254.737167,34.475979 255.656570,36.890472 257.403839,39.149708 
	C251.579117,38.274593 247.405792,37.325016 243.195114,37.111568 
	C239.468018,36.922634 236.070847,38.361450 235.536301,42.658604 
	C235.025650,46.763618 237.964203,48.537590 241.364365,49.597218 
	C244.061203,50.437672 246.817947,51.085552 249.516235,51.921749 
	C256.947021,54.224525 259.118652,57.268921 258.878052,65.402458 
z"/>
<path fill="#5D5D5D" opacity="1.000000" stroke="none" 
	d="
M506.167358,99.665573 
	C510.072876,100.873444 515.162231,100.334305 513.732117,106.798134 
	C504.589813,103.750679 495.420990,101.116531 488.254211,110.255623 
	C484.415710,115.150459 484.557159,125.375740 488.500122,130.108017 
	C495.729980,138.785080 504.724670,136.240829 513.600830,133.312210 
	C514.856812,136.592590 513.612976,138.296387 510.442474,139.240448 
	C501.875397,141.791458 493.450562,142.196808 486.414856,135.843552 
	C479.489899,129.590286 478.858368,121.295639 481.099945,112.768272 
	C483.791687,102.528557 492.960632,97.750076 506.167358,99.665573 
z"/>
<path fill="#5C5C5C" opacity="1.000000" stroke="none" 
	d="
M941.527588,60.080925 
	C946.587341,69.425056 953.720215,71.015396 968.396362,66.349167 
	C969.571533,69.232391 968.727844,71.085022 965.716980,72.047279 
	C957.035217,74.821922 948.433105,75.336197 941.213684,68.875748 
	C933.894714,62.326111 933.571838,53.597397 936.147034,44.869198 
	C939.564453,33.286507 958.216064,27.456177 967.459656,34.925026 
	C968.533875,35.792942 968.617126,37.887367 969.149475,39.384224 
	C964.214722,38.530125 960.006042,37.255440 955.775635,37.178410 
	C945.653381,36.994114 939.438599,44.132957 940.348511,54.334702 
	C940.510315,56.149303 941.002686,57.934429 941.527588,60.080925 
z"/>
<path fill="#5C5C5C" opacity="1.000000" stroke="none" 
	d="
M811.731934,106.480453 
	C804.825806,110.582939 803.683167,122.119499 807.359558,128.882202 
	C811.290100,136.112366 819.357605,137.475586 833.444397,133.426437 
	C834.576599,136.354218 833.611206,138.137375 830.624268,139.081207 
	C821.926086,141.829681 813.332886,142.299210 806.133850,135.812561 
	C799.191406,129.557175 798.660034,121.225182 800.946533,112.736328 
	C804.206238,100.634590 821.651794,94.503769 832.134827,101.728912 
	C833.296753,102.529747 833.634216,104.526810 835.037354,107.338181 
	C826.402710,104.232948 819.233948,102.413857 811.731934,106.480453 
z"/>
<path fill="#595959" opacity="1.000000" stroke="none" 
	d="
M156.208984,52.738083 
	C161.314590,52.739281 165.938309,52.739281 170.807648,52.739281 
	C170.807648,54.413048 170.807648,55.663979 170.807648,57.520077 
	C164.906372,57.520077 159.016068,57.520077 152.650070,57.520077 
	C152.650070,62.831669 152.650070,67.580177 152.650070,72.701019 
	C150.630096,72.831863 149.077133,72.932465 147.247513,73.050980 
	C147.247513,59.683346 147.247513,46.627266 147.247513,33.299263 
	C156.781509,33.299263 166.177963,33.299263 175.902115,33.299263 
	C175.902115,34.732121 175.902115,36.108383 175.902115,37.933945 
	C168.258072,37.933945 160.670349,37.933945 152.468002,37.933945 
	C152.468002,42.281841 152.258316,46.225052 152.616867,50.115891 
	C152.705429,51.076931 154.640747,51.867790 156.208984,52.738083 
z"/>
<path fill="#575757" opacity="1.000000" stroke="none" 
	d="
M727.124146,37.973366 
	C723.954346,37.574688 722.889832,38.489616 722.939636,41.439972 
	C723.113464,51.725216 723.006836,62.015194 723.006836,72.649612 
	C721.261658,72.649612 719.737122,72.649612 717.688110,72.649612 
	C717.688110,61.191639 717.688110,49.815334 717.688110,38.056087 
	C712.753479,38.056087 708.324890,38.056087 703.510193,38.056087 
	C703.424561,36.317856 703.357300,34.951492 703.276001,33.300369 
	C714.550720,33.300369 725.458923,33.300369 736.792480,33.300369 
	C736.929626,34.596828 737.075439,35.975342 737.286804,37.973125 
	C733.820618,37.973125 730.710999,37.973125 727.124146,37.973366 
z"/>
<path fill="#555555" opacity="1.000000" stroke="none" 
	d="
M503.882782,72.999680 
	C495.770111,72.999687 488.144928,72.999687 480.264038,72.999687 
	C480.264038,59.693558 480.264038,46.766602 480.264038,33.289177 
	C481.664673,33.220966 483.186584,33.146847 485.314331,33.043224 
	C485.314331,44.819889 485.314331,56.214214 485.314331,68.011475 
	C493.478333,68.011475 501.076141,68.011475 508.939270,68.011475 
	C508.939270,69.807678 508.939270,71.188271 508.939270,72.999672 
	C507.301880,72.999672 505.836060,72.999672 503.882782,72.999680 
z"/>
<path fill="#555555" opacity="1.000000" stroke="none" 
	d="
M265.020935,139.999725 
	C261.219116,139.999725 257.913635,139.999725 254.307159,139.999725 
	C254.307159,126.654549 254.307159,113.603836 254.307159,100.300323 
	C255.818924,100.300323 257.231079,100.300323 259.229431,100.300323 
	C259.229431,111.723312 259.229431,123.110825 259.229431,134.920471 
	C267.386536,134.920471 274.973328,134.920471 282.930664,134.920471 
	C283.030182,136.713516 283.106964,138.096664 283.212616,139.999725 
	C277.097321,139.999725 271.307251,139.999725 265.020935,139.999725 
z"/>
<path fill="#555555" opacity="1.000000" stroke="none" 
	d="
M719.851990,112.015305 
	C719.851990,107.883873 719.851990,104.249100 719.851990,100.282150 
	C721.624695,100.196495 723.035950,100.128311 724.993286,100.033737 
	C724.993286,111.688034 724.993286,123.087761 724.993286,134.867676 
	C733.107300,134.867676 740.702820,134.867676 748.649170,134.867676 
	C748.821594,136.607544 748.959229,137.995560 749.128906,139.707794 
	C739.408508,139.707794 729.985535,139.707794 719.851990,139.707794 
	C719.851990,130.676056 719.851990,121.594002 719.851990,112.015305 
z"/>
<path fill="#575757" opacity="1.000000" stroke="none" 
	d="
M760.575562,129.982178 
	C760.575317,119.877037 760.575317,110.268295 760.575317,100.373413 
	C762.357056,100.222351 763.785828,100.101212 765.704590,99.938530 
	C765.704590,111.561714 765.704590,122.942093 765.704590,134.849991 
	C773.859070,134.849991 781.570984,134.849991 789.580078,134.849991 
	C789.580078,136.746918 789.580078,138.117157 789.580078,139.753937 
	C780.096191,139.753937 770.693848,139.753937 760.575745,139.753937 
	C760.575745,136.634521 760.575745,133.556549 760.575562,129.982178 
z"/>
<path fill="#646464" opacity="1.000000" stroke="none" 
	d="
M313.390015,55.997856 
	C313.390167,48.222820 313.390167,40.947411 313.390167,33.285652 
	C315.301086,33.170437 316.858734,33.076519 318.722961,32.964123 
	C318.722961,46.321072 318.722961,59.352245 318.722961,72.788269 
	C317.179047,72.874413 315.619354,72.961433 313.389832,73.085831 
	C313.389832,67.331573 313.389832,61.914528 313.390015,55.997856 
z"/>
<path fill="#555555" opacity="1.000000" stroke="none" 
	d="
M641.796936,33.498600 
	C642.138000,46.712887 642.138000,59.598167 642.138000,72.794182 
	C640.494019,72.868050 639.068848,72.932091 637.318115,73.010757 
	C637.318115,59.775303 637.318115,46.758827 637.318115,33.169590 
	C638.648743,33.169590 640.052307,33.169590 641.796936,33.498600 
z"/>
<path fill="#FCFCFC" opacity="1.000000" stroke="none" 
	d="
M404.826935,104.977783 
	C416.491394,105.347786 422.262299,111.794380 421.030945,122.564064 
	C419.868042,132.734497 410.793579,137.031296 395.593445,134.454865 
	C395.593445,124.913834 395.593445,115.329575 395.593445,104.977226 
	C398.545013,104.977226 401.455231,104.977226 404.826935,104.977783 
z"/>
<path fill="#FCFCFC" opacity="1.000000" stroke="none" 
	d="
M117.277962,68.695236 
	C107.740356,69.253754 102.133278,65.038742 100.933693,56.799168 
	C99.491394,46.892544 103.234673,39.559334 110.877899,37.575977 
	C116.170685,36.202545 120.774246,37.590706 124.387657,41.703224 
	C130.367004,48.508495 129.638596,65.624191 117.277962,68.695236 
z"/>
<path fill="#FCFCFC" opacity="1.000000" stroke="none" 
	d="
M364.705658,46.928120 
	C364.886230,50.796528 365.391968,54.329933 364.899994,57.718502 
	C363.955139,64.226898 358.980164,68.536919 352.756714,68.948952 
	C346.246582,69.379974 340.903015,65.578003 338.947723,59.084068 
	C337.287506,53.570240 337.627930,48.173088 340.620331,43.225784 
	C343.354431,38.705471 347.693726,36.742313 352.899811,37.152355 
	C358.823425,37.618916 362.602264,41.014854 364.705658,46.928120 
z"/>
<path fill="#F9F9F9" opacity="1.000000" stroke="none" 
	d="
M60.350952,53.540359 
	C59.378815,48.342575 58.856052,43.203033 58.295593,37.692833 
	C62.887920,37.692833 66.659416,37.465767 70.391853,37.750546 
	C75.015511,38.103325 77.047981,41.107597 77.016891,45.543354 
	C76.985725,49.990730 74.880051,52.836662 70.256767,53.226433 
	C67.116478,53.491173 63.953281,53.484108 60.350952,53.540359 
z"/>
<path fill="#F9F9F9" opacity="1.000000" stroke="none" 
	d="
M203.710587,132.682816 
	C200.695465,135.734421 197.401505,137.409012 193.665924,135.732880 
	C192.221954,135.084976 190.850159,132.830521 190.640854,131.158356 
	C190.098053,126.822021 193.390686,124.822174 196.698959,123.081375 
	C197.568756,122.623695 198.469543,122.224892 199.776718,121.597023 
	C202.015594,124.127686 204.278015,126.684952 206.697632,129.419922 
	C205.702362,130.519257 204.843857,131.467529 203.710587,132.682816 
z"/>
<path fill="#F9F9F9" opacity="1.000000" stroke="none" 
	d="
M198.734467,106.728546 
	C201.368469,105.684723 203.967346,104.265289 206.277588,104.637482 
	C207.432068,104.823479 209.238022,108.778374 208.660828,110.149292 
	C207.689499,112.456390 205.207321,114.298508 202.980026,115.753517 
	C202.561752,116.026764 199.901443,113.816849 199.120590,112.313896 
	C198.370285,110.869713 198.716034,108.856071 198.734467,106.728546 
z"/>
<path fill="#F9F9F9" opacity="1.000000" stroke="none" 
	d="
M608.337280,42.745655 
	C610.200195,47.528214 611.902283,51.963230 613.794006,56.892372 
	C608.942078,56.892372 604.740417,56.892372 599.762207,56.892372 
	C602.000610,51.104126 604.149414,45.547543 606.522949,39.409916 
	C607.270630,40.761219 607.723511,41.579666 608.337280,42.745655 
z"/>
<path fill="#F9F9F9" opacity="1.000000" stroke="none" 
	d="
M453.290344,47.759186 
	C454.473999,50.871532 455.503998,53.624275 456.715149,56.861256 
	C451.975372,56.861256 447.788361,56.861256 442.781677,56.861256 
	C444.996307,51.106773 447.137482,45.543209 449.682404,38.930470 
	C451.074158,42.342724 452.105438,44.871151 453.290344,47.759186 
z"/>
<path fill="#F9F9F9" opacity="1.000000" stroke="none" 
	d="
M536.845215,121.041840 
	C538.762207,116.104355 540.549438,111.551811 542.797546,105.825150 
	C545.375610,112.456314 547.538025,118.018349 549.943787,124.206367 
	C545.431396,124.206367 541.803711,124.323555 538.200073,124.082237 
	C537.648376,124.045303 537.207520,122.353317 536.845215,121.041840 
z"/>
<path fill="#F9F9F9" opacity="1.000000" stroke="none" 
	d="
M859.682434,47.349640 
	C860.926270,50.605442 862.012756,53.508598 863.270935,56.870361 
	C858.606995,56.870361 854.425415,56.870361 849.366943,56.870361 
	C851.629333,50.933151 853.794922,45.250034 856.257568,38.787281 
	C857.591370,42.138489 858.558289,44.567745 859.682434,47.349640 
z"/>
<path fill="#F9F9F9" opacity="1.000000" stroke="none" 
	d="
M307.717224,111.742554 
	C308.410858,110.012970 308.956390,108.634048 310.060150,105.844025 
	C312.651520,112.484406 314.807526,118.009132 317.124237,123.945747 
	C312.237640,123.945747 307.853485,123.945747 302.998169,123.945747 
	C304.602966,119.784454 306.086029,115.938843 307.717224,111.742554 
z"/>
<path fill="#F9F9F9" opacity="1.000000" stroke="none" 
	d="
M596.306641,120.372681 
	C590.460022,121.706894 584.885132,122.756813 578.726013,123.916771 
	C578.726013,116.928467 578.726013,111.221954 578.726013,104.932014 
	C584.857544,105.849121 591.723938,102.368561 596.626282,107.975899 
	C599.661743,111.447891 599.097656,116.048233 596.306641,120.372681 
z"/>
<path fill="#FCFCFC" opacity="1.000000" stroke="none" 
	d="
M33.792339,50.275673 
	C32.215538,54.479721 29.097864,55.727047 25.378834,55.840847 
	C21.899374,55.947315 18.414095,55.863625 14.522041,55.863625 
	C14.522041,49.988289 14.522041,44.292629 14.522041,38.585487 
	C29.871914,36.570984 35.323383,38.417614 33.792339,50.275673 
z"/>
</svg>