<?xml version="1.0" encoding="UTF-8"?>
<svg version="1.1" xmlns="http://www.w3.org/2000/svg" width="3508" height="2481">
<path d="M0 0 C1.17487815 4.24777375 2.338477 8.49855674 3.5 12.75 C3.83386719 13.9565625 4.16773438 15.163125 4.51171875 16.40625 C4.98544922 18.14648438 4.98544922 18.14648438 5.46875 19.921875 C5.76201172 20.99018555 6.05527344 22.05849609 6.35742188 23.15917969 C7 26 7 26 7 30 C6.04299194 30.46672119 6.04299194 30.46672119 5.06665039 30.94287109 C-28.1683799 47.2067586 -59.02204809 66.61910526 -86.41796875 91.6640625 C-88.52428031 93.56962122 -90.65559891 95.43254332 -92.8046875 97.2890625 C-97.00502679 100.95840345 -100.99664415 104.80481882 -104.9375 108.75 C-105.63552734 109.44810791 -106.33355469 110.14621582 -107.05273438 110.86547852 C-111.70207331 115.56617643 -115.98879084 120.37709059 -120.07421875 125.578125 C-121.90291356 127.87790346 -123.82045398 130.02911205 -125.8125 132.1875 C-174.08810809 186.10322864 -203.39761067 261.59592256 -211 333 C-211.1544458 334.40620605 -211.1544458 334.40620605 -211.31201172 335.84082031 C-219.67940181 414.8088905 -201.5915692 492.54613024 -164 562 C-164.23074219 561.40388916 -164.46148437 560.80777832 -164.69921875 560.19360352 C-199.84055357 468.99801996 -203.89364597 370.21129666 -164.42944336 276.47021484 C-162.68565465 272.61367841 -160.86121384 268.80099674 -159 265 C-158.66935547 264.31131836 -158.33871094 263.62263672 -157.99804688 262.91308594 C-155.74939536 258.23025798 -153.40741475 253.6030401 -151 249 C-150.64921387 248.32356445 -150.29842773 247.64712891 -149.93701172 246.95019531 C-140.16179301 228.25242495 -128.38396501 210.31865501 -115 194 C-114.56913086 193.47438477 -114.13826172 192.94876953 -113.69433594 192.40722656 C-98.48081489 173.93444651 -81.99930623 155.6338587 -63 141 C-61.88780943 140.09067245 -60.77863547 139.17764764 -59.671875 138.26171875 C0.13724678 89 0.13724678 89 24 89 C24.77746242 91.39384673 25.5469192 93.78985009 26.3125 96.1875 C26.52583984 96.84169922 26.73917969 97.49589844 26.95898438 98.16992188 C29.02911147 104.68927737 30.52024001 111.32532425 32 118 C31.33282959 118.32049316 30.66565918 118.64098633 29.97827148 118.97119141 C6.53563573 130.29689102 -15.40262622 142.97925095 -36 159 C-36.55606934 159.43151367 -37.11213867 159.86302734 -37.68505859 160.30761719 C-44.10124091 165.32717807 -50.11710274 170.75763306 -56.078125 176.30078125 C-58.78878029 178.80487591 -61.5427361 181.24926845 -64.3125 183.6875 C-67.87947858 186.89154276 -71.09460386 190.20486644 -74.1796875 193.87109375 C-76.25573771 196.29909238 -78.439328 198.60775637 -80.625 200.9375 C-98.17315218 220.2827521 -113.14131421 242.76344842 -125 266 C-125.4738916 266.92329102 -125.9477832 267.84658203 -126.43603516 268.79785156 C-145.2567588 305.8109344 -156.67021129 345.73216958 -161 387 C-161.09571289 387.89412598 -161.19142578 388.78825195 -161.29003906 389.70947266 C-162.15643556 398.75695004 -162.2433122 407.7936459 -162.25 416.875 C-162.25067474 417.7050354 -162.25134949 418.5350708 -162.25204468 419.39025879 C-162.21030609 452.01189277 -157.41905333 483.76197984 -148 515 C-147.74524902 515.85335937 -147.49049805 516.70671875 -147.22802734 517.5859375 C-140.16312397 540.90233332 -129.56008997 562.61824813 -118 584 C-118.33209473 583.09572266 -118.66418945 582.19144531 -119.00634766 581.25976562 C-128.54895033 555.18267925 -136.14607606 529.58927803 -140 502 C-140.11859375 501.18160645 -140.2371875 500.36321289 -140.359375 499.52001953 C-143.84921588 474.42120858 -143.63191103 447.06314687 -140 422 C-139.87109375 421.07719238 -139.7421875 420.15438477 -139.609375 419.20361328 C-135.1798001 388.23247673 -126.55519208 358.23543782 -113 330 C-112.68740234 329.33919434 -112.37480469 328.67838867 -112.05273438 327.99755859 C-99.6320651 301.85114971 -83.65753245 277.53688711 -64.03515625 256.21875 C-62.2045558 254.22300901 -60.44163517 252.18769389 -58.6875 250.125 C-51.3681742 241.7576414 -43.4605207 234.09938999 -34.75 227.1953125 C-31.93542965 224.94845379 -29.22510985 222.60419212 -26.5 220.25 C-5.06822994 202.37629293 21.48479227 185.90399369 48 177 C50.21283826 182.68459331 52.06591691 188.37114894 53.6875 194.25 C53.91244141 195.03890625 54.13738281 195.8278125 54.36914062 196.640625 C54.58119141 197.40375 54.79324219 198.166875 55.01171875 198.953125 C55.20209717 199.63536133 55.39247559 200.31759766 55.58862305 201.02050781 C56 203 56 203 56 207 C55.37657715 207.29132813 54.7531543 207.58265625 54.11083984 207.8828125 C14.70086805 226.35691757 -22.01880917 251.32873035 -49 286 C-50.00776145 287.26696769 -51.01557757 288.5338919 -52.0234375 289.80078125 C-81.28294778 326.92854305 -99.92274079 370.50835777 -108 417 C-108.16516113 417.93875977 -108.33032227 418.87751953 -108.50048828 419.84472656 C-113.22969845 448.0830508 -112.9367553 478.82259448 -108 507 C-107.83371094 507.97179199 -107.66742188 508.94358398 -107.49609375 509.94482422 C-101.72658872 542.6440282 -89.96139683 572.98926841 -74 602 C-74.21615967 601.35264893 -74.43231934 600.70529785 -74.6550293 600.03833008 C-81.53166437 579.32440755 -87.30890834 558.70100042 -90 537 C-90.09571289 536.23220215 -90.19142578 535.4644043 -90.29003906 534.67333984 C-91.28392957 525.43443294 -91.24364297 516.15658985 -91.25 506.875 C-91.25067474 505.9880545 -91.25134949 505.10110901 -91.25204468 504.18728638 C-91.23447945 489.60699927 -90.5341337 475.38717591 -88 461 C-87.8443457 460.08186523 -87.68869141 459.16373047 -87.52832031 458.21777344 C-79.17054151 410.59011178 -56.66284566 366.98644637 -24.1875 331.41015625 C-22.06733383 329.07418746 -20.0030269 326.69673125 -17.9375 324.3125 C-14.93055253 320.93483298 -11.81410575 317.898353 -8.35546875 314.98828125 C-6.56150939 313.47397725 -4.79864214 311.92275593 -3.05078125 310.35546875 C14.01135795 295.1402228 48.98656099 266 73 266 C74.14932542 269.89481176 75.29384604 273.79101948 76.4375 277.6875 C76.92573242 279.34168945 76.92573242 279.34168945 77.42382812 281.02929688 C77.73642578 282.09599609 78.04902344 283.16269531 78.37109375 284.26171875 C78.65911865 285.24100342 78.94714355 286.22028809 79.24389648 287.22924805 C79.94757493 289.80788759 80.51150849 292.37304778 81 295 C80.43829102 295.24008789 79.87658203 295.48017578 79.29785156 295.72753906 C60.55384438 303.81065454 42.94524132 313.15914195 27 326 C26.10539062 326.70382812 25.21078125 327.40765625 24.2890625 328.1328125 C-22.76705327 365.75073886 -52.81060716 420.60492139 -59.60083008 480.5847168 C-60.40370493 488.63890496 -60.39360818 496.72583642 -60.375 504.8125 C-60.37445618 505.7074115 -60.37391235 506.602323 -60.37335205 507.52435303 C-60.33036462 522.98916629 -59.23295026 537.83307287 -56 553 C-55.79632812 553.97453125 -55.59265625 554.9490625 -55.3828125 555.953125 C-50.1281889 580.21521423 -39.90865409 602.34425747 -28 624 C-28.18175781 623.41009277 -28.36351562 622.82018555 -28.55078125 622.21240234 C-30.52738538 615.72128505 -32.32357988 609.19971015 -34 602.625 C-34.2475 601.69300781 -34.495 600.76101563 -34.75 599.80078125 C-38.98234367 583.15797149 -40.5350395 566.690738 -40.375 549.5625 C-40.36802094 548.22061615 -40.36802094 548.22061615 -40.36090088 546.85162354 C-40.2809271 533.71102357 -39.91598456 520.8638672 -37 508 C-36.80132324 507.09797852 -36.60264648 506.19595703 -36.39794922 505.26660156 C-27.5264862 466.01951498 -8.66733248 432.02315888 19 403 C20.03060547 401.90751953 20.03060547 401.90751953 21.08203125 400.79296875 C38.08636249 383.23452489 59.68205881 369.9359615 81.8125 359.875 C82.64217285 359.49657959 83.4718457 359.11815918 84.32666016 358.72827148 C88.55109247 356.86735489 92.36097716 355.49303624 97 355 C105 375.46808511 105 375.46808511 105 384 C103.87464844 384.4846875 102.74929688 384.969375 101.58984375 385.46875 C85.93876484 392.27192612 71.58354436 399.61233862 58 410 C56.60007812 411.06154297 56.60007812 411.06154297 55.171875 412.14453125 C19.22977914 440.46732316 -3.08985066 482.733923 -8.75488281 527.91503906 C-9.34584501 532.94174936 -9.7898314 537.94281817 -10 543 C-10.04125 543.97195313 -10.0825 544.94390625 -10.125 545.9453125 C-11.14334606 595.71697621 8.95320281 638.87988349 41.93359375 675.125 C72.81824736 707.12061238 117.82671365 724.24337549 161.75341797 725.23022461 C210.54175586 725.65968075 254.20348249 705.43087711 289 672 C291.48251269 669.44070857 293.76186576 666.77450628 296 664 C297.11955078 662.63681641 297.11955078 662.63681641 298.26171875 661.24609375 C327.87168793 624.10580274 341.93240494 577.24511281 337.05029297 529.96044922 C333.2946 497.94361882 321.87867591 467.50224869 302 442 C301.319375 441.09765625 300.63875 440.1953125 299.9375 439.265625 C280.59761639 414.50471341 255.5517704 397.50473651 227 385 C228.17194266 378.39450503 229.71880037 371.91897701 231.4375 365.4375 C231.64270264 364.62748535 231.84790527 363.8174707 232.05932617 362.98291016 C232.608668 360.95956197 233.29444062 358.97431008 234 357 C238.37564018 355.54145327 241.27130476 357.59417852 245.25 359.4375 C246.05195801 359.80294922 246.85391602 360.16839844 247.68017578 360.54492188 C269.86218217 370.7780453 289.36446677 384.13538638 307 401 C307.92683594 401.87398437 308.85367188 402.74796875 309.80859375 403.6484375 C316.96047487 410.56699484 323.13143084 417.98972793 329 426 C329.41604492 426.56638184 329.83208984 427.13276367 330.26074219 427.71630859 C346.41742104 450.04225062 357.90373654 476.15268207 364 503 C364.19609863 503.83724609 364.39219727 504.67449219 364.59423828 505.53710938 C372.85486705 542.41612252 368.75448445 581.18584263 358 617 C372.75188293 589.08728345 382.33030053 560.43368069 386 529 C386.19722656 527.32164062 386.19722656 527.32164062 386.3984375 525.609375 C391.95307923 467.06044867 373.01760505 407.64066523 336.3125 362.0625 C334.88633245 360.36541173 333.44920032 358.67746264 332 357 C330.94425781 355.77796875 330.94425781 355.77796875 329.8671875 354.53125 C319.78001718 343.10635458 309.20235587 333.09943251 297 324 C296.44086914 323.57477051 295.88173828 323.14954102 295.30566406 322.71142578 C281.59561639 312.30283442 266.42649081 304.53162579 251 297 C251.97571095 293.19066023 252.95437518 289.38209286 253.93579102 285.57421875 C254.43337438 283.64102868 254.92861119 281.70723512 255.42382812 279.7734375 C255.73642578 278.56171875 256.04902344 277.35 256.37109375 276.1015625 C256.65911865 274.98088379 256.94714355 273.86020508 257.24389648 272.70556641 C258 270 258 270 259 268 C265.49954025 269.97406404 271.50615128 272.49666029 277.5625 275.5625 C278.86405029 276.21895508 278.86405029 276.21895508 280.19189453 276.88867188 C303.6589373 288.91687565 323.86171268 305.02075224 343 323 C343.98419922 323.92039062 343.98419922 323.92039062 344.98828125 324.859375 C349.25745368 328.98133459 352.97055611 333.50098019 356.68359375 338.125 C358.17495378 339.9759966 359.68661746 341.81090849 361.22265625 343.625 C387.72133103 375.03083678 404.41536986 414.10543708 413 454 C413.16725586 454.7729541 413.33451172 455.5459082 413.50683594 456.34228516 C423.1457348 502.55717765 417.75209426 551.8082657 402 596 C437.88245782 524.8938606 446.01602256 447.49584502 421.19140625 371.34375 C409.47975413 336.93710718 390.74548176 304.04218824 366.078125 277.26171875 C364.19271065 275.20973584 362.37229967 273.11848046 360.5625 271 C353.90888381 263.3980523 346.7339637 256.57142905 338.8359375 250.27734375 C335.91731518 247.93360158 333.08894276 245.50185966 330.25 243.0625 C313.95606934 229.49470961 295.03221292 219.17029909 276 210 C276.56759211 202.99490754 278.04653541 196.6589411 280.0625 189.9375 C280.34416016 188.97650391 280.62582031 188.01550781 280.91601562 187.02539062 C281.60401284 184.68153571 282.2987601 182.33992007 283 180 C289.76283789 182.00278147 295.84762076 184.74700913 302.0625 188.0625 C303.43776855 188.79158569 303.43776855 188.79158569 304.84082031 189.53540039 C324.29103536 199.96677225 342.43580821 212.41605618 359 227 C359.69996094 227.60070313 360.39992188 228.20140625 361.12109375 228.8203125 C363.10152355 230.52488201 365.05407436 232.25611035 367 234 C367.70310303 234.62745117 367.70310303 234.62745117 368.42041016 235.26757812 C380.00758304 245.64587436 390.38442092 256.75045041 400 269 C400.67434082 269.85754883 400.67434082 269.85754883 401.36230469 270.73242188 C452.65147264 336.36311073 473.97008771 418.9532949 464.62548828 501.30029297 C461.7909495 524.00752548 456.30405173 546.32345938 449 568 C488.17175431 489.82921723 496.3096564 399.53598143 469.05322266 316.15966797 C468.53187744 314.59563232 468.53187744 314.59563232 468 313 C467.49992432 311.49977295 467.49992432 311.49977295 466.98974609 309.96923828 C454.57858618 273.50432578 435.33700179 239.79094141 411 210 C410.3512793 209.20263428 410.3512793 209.20263428 409.68945312 208.38916016 C399.07878289 195.41302847 387.75116496 182.90175936 375 172 C373.96888149 171.08465028 372.93901243 170.16789185 371.91015625 169.25 C350.19723933 150.04120051 325.54959481 135.47512331 300 122 C300.62529209 115.44601251 302.11191341 109.37981764 303.9375 103.0625 C304.33485352 101.62680664 304.33485352 101.62680664 304.74023438 100.16210938 C304.99998047 99.25396484 305.25972656 98.34582031 305.52734375 97.41015625 C305.76187256 96.58652588 305.99640137 95.76289551 306.23803711 94.91430664 C307 93 307 93 309 92 C310.92919922 92.70581055 310.92919922 92.70581055 313.3046875 93.88671875 C314.18817871 94.32435547 315.07166992 94.76199219 315.98193359 95.21289062 C317.41400146 95.94282227 317.41400146 95.94282227 318.875 96.6875 C319.85936035 97.18572266 320.8437207 97.68394531 321.85791016 98.19726562 C356.36253616 115.90555038 386.6921799 139.52375329 414.0625 166.875 C414.99126953 167.79152344 415.92003906 168.70804688 416.87695312 169.65234375 C423.02680091 175.78924448 428.59589921 182.20304817 434 189 C434.97653818 190.17385396 435.95643019 191.34493596 436.94140625 192.51171875 C451.35372734 209.84647827 463.35050265 229.16848512 474 249 C474.46212891 249.85706543 474.92425781 250.71413086 475.40039062 251.59716797 C519.54471241 334.34461869 526.78142651 432.49116276 501 522 C498.53014386 530.06742236 495.84566781 538.05775028 493 546 C536.69133718 464.25087914 545.49947931 363.97104274 517.3125 262.1875 C502.5196273 214.48399395 478.61292359 170.14486227 446.54541016 131.85400391 C445.13230895 130.15872894 443.74147243 128.44789669 442.35546875 126.73046875 C435.69363561 118.59495362 428.34662129 111.13565027 420.9375 103.6875 C420.43052582 103.17525879 419.92355164 102.66301758 419.4012146 102.13525391 C412.60430558 95.28380476 405.56243533 89.01463668 398 83 C396.97243943 82.13662429 395.94903936 81.26821749 394.93359375 80.390625 C373.33521413 61.86807096 348.78829546 47.76068633 324 34 C325.25196463 27.41176422 326.68762314 20.91150261 328.4375 14.4375 C328.64181641 13.63248047 328.84613281 12.82746094 329.05664062 11.99804688 C329.60614979 9.96948501 330.29273251 7.97908975 331 6 C334 5 334 5 335.85913086 5.61401367 C336.90145874 6.13572144 336.90145874 6.13572144 337.96484375 6.66796875 C339.14977417 7.25674805 339.14977417 7.25674805 340.35864258 7.85742188 C341.20966553 8.29634766 342.06068848 8.73527344 342.9375 9.1875 C344.26527466 9.86329102 344.26527466 9.86329102 345.61987305 10.55273438 C372.61680992 24.50325897 398.16951214 41.95771827 421 62 C422.09828125 62.94939453 422.09828125 62.94939453 423.21875 63.91796875 C425.1575977 65.5990728 427.07922856 67.29829822 429 69 C429.68449219 69.59167969 430.36898437 70.18335938 431.07421875 70.79296875 C437.00102025 75.9952716 442.60304347 81.49674522 448.1875 87.0625 C448.94788574 87.81829346 449.70827148 88.57408691 450.49169922 89.3527832 C455.19966605 94.07358528 459.66586467 98.93549139 464 104 C464.85722656 104.97582031 465.71445313 105.95164062 466.59765625 106.95703125 C484.837093 128.0870285 500.56912499 151.5562863 514 176 C514.47646973 176.86254395 514.95293945 177.72508789 515.44384766 178.61376953 C543.05699381 228.9725056 559.409152 284.78327314 564 342 C564.11214844 343.30710937 564.22429688 344.61421875 564.33984375 345.9609375 C572.05522394 451.86245735 536.67597332 559.59288294 467.39672852 640.00830078 C465.9405497 641.68070728 464.471719 643.34125097 463 645 C462.03779541 646.09356812 462.03779541 646.09356812 461.05615234 647.20922852 C455.45695112 653.51351899 449.63195021 659.55429536 443.67138672 665.51391602 C442.1282647 667.05923066 440.59335694 668.61240446 439.05859375 670.16601562 C432.69640214 676.56371401 426.06448065 682.37300885 419 688 C417.89817193 688.93477963 416.80182875 689.87612622 415.71484375 690.828125 C361.6431059 737.97928881 290.73688526 767.52362429 220.25 778.25 C219.25911377 778.40122314 218.26822754 778.55244629 217.24731445 778.70825195 C198.55500956 781.36316189 179.86435263 782.38199706 161 782.3125 C159.98662567 782.31100952 158.97325134 782.30951904 157.9291687 782.3079834 C140.45120256 782.26209284 123.32700638 781.3967235 106 779 C104.41687012 778.7831958 104.41687012 778.7831958 102.80175781 778.56201172 C58.27992264 772.24273835 16.0804863 758.21682504 -24 738 C-24.78906738 737.60603027 -25.57813477 737.21206055 -26.39111328 736.80615234 C-69.50118019 715.17957087 -110.74972047 682.84928795 -142 646 C-142.845625 645.04351563 -143.69125 644.08703125 -144.5625 643.1015625 C-214.72686034 563.39322465 -249.19402672 456.60518187 -243.25 347.25 C-238.15358897 274.96482835 -214.66556111 205.08897901 -174 145 C-173.2889209 143.9488501 -173.2889209 143.9488501 -172.56347656 142.87646484 C-165.67942504 132.77111868 -158.29543535 123.1845846 -150.47802734 113.78662109 C-149.11247269 112.13595558 -147.76487674 110.47293788 -146.42578125 108.80078125 C-142.70596998 104.17154243 -138.93985474 99.78931625 -134.66796875 95.6640625 C-132.90945051 93.90966257 -131.30109065 92.07566435 -129.6875 90.1875 C-123.65049163 83.20297911 -117.05485516 76.75728659 -110.0390625 70.76171875 C-107.7730777 68.80394261 -105.57856506 66.77771052 -103.375 64.75 C-97.17048842 59.16688108 -90.63638427 54.05233875 -84 49 C-83.28134766 48.45150391 -82.56269531 47.90300781 -81.82226562 47.33789062 C-64.73374582 34.35648287 -46.87489209 23.18210765 -28 13 C-26.64179137 12.2593634 -25.28371481 11.51848456 -23.92578125 10.77734375 C-4.07082634 0 -4.07082634 0 0 0 Z M491 548 C492 550 492 550 492 550 Z M490 550 C491 552 491 552 491 552 Z M447 570 C448 572 448 572 448 572 Z M446 572 C447 574 447 574 447 574 Z M-117 585 C-116 587 -116 587 -116 587 Z M-73 603 C-72 605 -72 605 -72 605 Z M-72 605 C-71 607 -71 607 -71 607 Z M-27 625 C-26 627 -26 627 -26 627 Z " fill="#228EAF" transform="translate(593,848)"/>
<path d="M0 0 C14.85 0 29.7 0 45 0 C60.10526316 18.34210526 60.10526316 18.34210526 66.51171875 26.76171875 C69.26413643 30.3654682 72.09774671 33.90240779 74.9375 37.4375 C81.13580864 45.15545781 87.25112992 52.93637426 93.35449219 60.72949219 C98.53769563 67.34563308 103.74237694 73.94277781 109 80.5 C115.1737919 88.19985311 121.26929286 95.95956573 127.35449219 103.72949219 C133.08829188 111.048446 138.85099532 118.34214545 144.67749023 125.58764648 C148.5044881 130.35388315 152.24565214 135.17298132 156 140 C156.33 93.8 156.66 47.6 157 0 C175.81 0 194.62 0 214 0 C214 84.48 214 168.96 214 256 C177.25605536 256 177.25605536 256 172.453125 251.7421875 C171.72609375 250.79601563 170.9990625 249.84984375 170.25 248.875 C169.83862793 248.35075439 169.42725586 247.82650879 169.00341797 247.28637695 C167.64521265 245.54109072 166.32076998 243.77375355 165 242 C164.03928584 240.72509209 163.07834273 239.45035667 162.1171875 238.17578125 C160.60852373 236.16860896 159.10373565 234.15885912 157.60693359 232.14282227 C154.12244259 227.45472954 150.54107917 222.85975759 146.875 218.3125 C142.82927706 213.29434751 138.84460546 208.24122126 134.92700195 203.12207031 C126.76242377 192.45536592 118.4856302 181.87450954 110.17724609 171.31958008 C104.68799263 164.34095567 99.24540281 157.32601972 93.79833984 150.31445312 C90.86700637 146.54184366 87.93340827 142.77099625 85 139 C83.84243663 137.51172753 82.68488458 136.02344625 81.52734375 134.53515625 C80.95097168 133.79410645 80.37459961 133.05305664 79.78076172 132.28955078 C78.56624349 130.72802734 77.35172526 129.16650391 76.13720703 127.60498047 C75.20497314 126.40639404 75.20497314 126.40639404 74.25390625 125.18359375 C73.0234375 123.6015625 71.79296875 122.01953125 70.5625 120.4375 C70.00755859 119.72400391 69.45261719 119.01050781 68.88085938 118.27539062 C64.92057292 113.18359375 60.96028646 108.09179688 57 103 C56.67 153.49 56.34 203.98 56 256 C37.52 256 19.04 256 0 256 C0 171.52 0 87.04 0 0 Z " fill="#005893" transform="translate(2479,1093)"/>
<path d="M0 0 C153.79710145 0 153.79710145 0 187 29 C188.02287109 29.82564453 188.02287109 29.82564453 189.06640625 30.66796875 C212.5721292 50.0337405 225.73859725 82.58372222 228.7890625 112.26220703 C231.07381543 141.91639614 226.93028811 170.98137521 212 197 C211.65066406 197.61069336 211.30132813 198.22138672 210.94140625 198.85058594 C195.81570202 224.794216 171.04014467 243.26205087 142 251 C138.61710957 251.81799121 135.22225478 252.55301734 131.8125 253.25 C131.01779297 253.41322754 130.22308594 253.57645508 129.40429688 253.74462891 C87.0388747 261.88982371 43.14131656 256 0 256 C0 171.52 0 87.04 0 0 Z M56 55 C56 103.18 56 151.36 56 201 C108.83169146 203.93472137 108.83169146 203.93472137 153.6171875 181.63671875 C167.22489315 166.57901168 173.50157744 146.71491394 173.1484375 126.5859375 C171.89866052 104.81350699 165.4892836 85.08690283 149 70 C122.57255286 48.45579552 88.58177917 55 56 55 Z " fill="#005893" transform="translate(1987,1093)"/>
<path d="M0 0 C64.02 0 128.04 0 194 0 C194 18.48 194 36.96 194 56 C148.46 56 102.92 56 56 56 C56 70.85 56 85.7 56 101 C99.89 101 143.78 101 189 101 C189 118.82 189 136.64 189 155 C145.11 155 101.22 155 56 155 C56 169.85 56 184.7 56 200 C101.54 200 147.08 200 194 200 C194 218.48 194 236.96 194 256 C129.98 256 65.96 256 0 256 C0 171.52 0 87.04 0 0 Z " fill="#005893" transform="translate(2242,1093)"/>
<path d="M0 0 C15.819375 -0.0825 31.63875 -0.165 47.9375 -0.25 C52.899021 -0.28641602 57.86054199 -0.32283203 62.97241211 -0.36035156 C69.11633301 -0.37841797 69.11633301 -0.37841797 72.00904846 -0.3817749 C73.99333809 -0.38784451 75.97761469 -0.4017582 77.96180725 -0.42230225 C100.75216716 -0.64610025 121.79676768 2.48489697 139 19 C144.94498482 25.29098923 149.02344169 31.88211371 152 40 C152.3196875 40.86625 152.639375 41.7325 152.96875 42.625 C158.06030522 59.21969849 156.01604595 78.42686644 148.3125 93.8125 C139.89101066 107.98165581 128.112853 115.27663333 113 121 C113.42410156 121.4125 113.84820313 121.825 114.28515625 122.25 C118.06974001 125.9763594 121.64851308 129.81116875 125.1171875 133.83203125 C127.2157532 136.24842951 129.354397 138.62529024 131.5 141 C134.76390848 144.61676345 137.98790949 148.26389608 141.1875 151.9375 C144.02356072 155.16474151 146.90986638 158.34642199 149.7890625 161.53515625 C152.38822296 164.43280687 154.94685808 167.36363531 157.4921875 170.30859375 C158.94167901 171.93457775 160.45389798 173.46651813 162 175 C162.38518799 174.12939941 162.77037598 173.25879883 163.16723633 172.36181641 C171.2031799 154.20699226 179.30025225 136.08147363 187.5 118 C193.7117979 104.3018206 199.87062106 90.58214285 205.96118164 76.82965088 C212.34833066 62.41239928 218.839416 48.04299265 225.35546875 33.68359375 C226.11201847 32.01564283 226.86852958 30.34767439 227.625 28.6796875 C228.17111938 27.47647858 228.17111938 27.47647858 228.72827148 26.2489624 C230.60576903 22.10539289 232.46687517 17.95528307 234.3046875 13.79394531 C234.67384277 12.95840118 235.04299805 12.12285706 235.42333984 11.26199341 C236.12637125 9.66763855 236.8273126 8.07235999 237.52587891 6.4760437 C239.89097902 1.10902098 239.89097902 1.10902098 241 0 C244.02977804 -0.08871273 247.03667022 -0.1151935 250.06640625 -0.09765625 C250.97502914 -0.0962413 251.88365204 -0.09482635 252.81980896 -0.09336853 C255.73407221 -0.08775193 258.64825981 -0.07519665 261.5625 -0.0625 C263.53320202 -0.05748714 265.50390524 -0.05292386 267.47460938 -0.04882812 C272.31643559 -0.03777711 277.15820495 -0.02050138 282 0 C288.66363664 14.27154436 295.18706223 28.59772212 301.5625 43 C307.47778668 56.36269889 313.46370566 69.69152915 319.5 83 C325.70966533 96.69282854 331.87216904 110.40475134 337.953125 124.15524292 C341.9908004 133.2846142 346.07684087 142.39004392 350.21875 151.47265625 C350.87895142 152.92253433 350.87895142 152.92253433 351.55249023 154.40170288 C353.71441878 159.14920126 355.88173372 163.89409501 358.05859375 168.63476562 C358.84139451 170.35144913 359.62395879 172.06824049 360.40625 173.78515625 C360.7710144 174.57398697 361.13577881 175.36281769 361.51159668 176.17555237 C364 181.65931375 364 181.65931375 364 185 C349.81 185 335.62 185 321 185 C318.69 179.76125 316.38 174.5225 314 169.125 C313.26910156 167.47258301 312.53820313 165.82016602 311.78515625 164.11767578 C311.21064604 162.8103494 310.63640848 161.50290315 310.0625 160.1953125 C309.76021484 159.51460693 309.45792969 158.83390137 309.14648438 158.13256836 C307 153.2281436 307 153.2281436 307 151 C276.97 151.33 246.94 151.66 216 152 C211.05 162.89 206.1 173.78 201 185 C180.89657345 185.4411969 180.89657345 185.4411969 172.29101562 185.53710938 C166.43060012 185.60273691 160.57208453 185.68014518 154.71313477 185.82983398 C149.98615262 185.94983912 145.26120814 186.01522183 140.53281975 186.04364967 C138.73409891 186.06389152 136.9354831 186.10342485 135.13763618 186.16303062 C121.05109988 186.61124892 121.05109988 186.61124892 115.94747925 182.6020813 C113.67423911 179.83727255 111.83062825 177.0689269 110 174 C108.97159241 172.79301646 107.91697356 171.60654154 106.8125 170.46875 C106.34642334 169.97431396 105.88034668 169.47987793 105.40014648 168.97045898 C104.93809814 168.48520752 104.4760498 167.99995605 104 167.5 C99.53741448 162.74288242 95.36173588 157.83496567 91.27734375 152.74609375 C88.34684733 149.21240767 85.23417774 145.86280428 82.10766602 142.50439453 C78.10475727 138.17811133 74.37359158 133.6764066 70.6796875 129.08203125 C69.16726823 127.13181795 69.16726823 127.13181795 68 126 C58.43 125.67 48.86 125.34 39 125 C39 144.8 39 164.6 39 185 C26.13 185 13.26 185 0 185 C0 123.95 0 62.9 0 0 Z M39 37 C39 54.16 39 71.32 39 89 C46.63204278 89.09216825 54.26212984 89.17171047 61.89428711 89.21972656 C64.48680185 89.23975721 67.07927188 89.26698967 69.67163086 89.30175781 C73.41271033 89.35065141 77.1531889 89.37305539 80.89453125 89.390625 C82.04081497 89.41127014 83.18709869 89.43191528 84.36811829 89.45318604 C92.99941414 89.45555602 100.92809634 88.18670721 107.875 82.75 C114.20463169 74.55871194 116.83002975 68.45222644 116 58 C114.7540184 51.49555368 112.04935654 46.33929078 107 42 C101.65258651 38.66799424 96.75613772 36.87250301 90.42700195 36.88647461 C89.28604568 36.88655014 88.14508942 36.88662567 86.96955872 36.88670349 C85.73823715 36.89186478 84.50691559 36.89702606 83.23828125 36.90234375 C81.97735153 36.9037587 80.71642181 36.90517365 79.4172821 36.90663147 C76.06848291 36.91128425 72.71975189 36.92026658 69.37097168 36.93133545 C65.95239867 36.94157313 62.53381841 36.94618895 59.11523438 36.95117188 C52.41011784 36.96135893 45.70512074 36.98093331 39 37 Z M261 48 C256.5574427 56.62606468 252.56469072 65.39375281 248.75 74.3125 C248.18695725 75.62214051 247.62355698 76.93162736 247.05981445 78.2409668 C246.20474757 80.22712778 245.34995369 82.21340126 244.49653625 84.20027161 C242.65633539 88.48349029 240.80060135 92.75962439 238.93359375 97.03125 C238.46791992 98.09690186 238.00224609 99.16255371 237.52246094 100.26049805 C236.64793403 102.2598508 235.77232312 104.25872984 234.89550781 106.25708008 C234.51104492 107.13775146 234.12658203 108.01842285 233.73046875 108.92578125 C233.39426514 109.69317627 233.05806152 110.46057129 232.71166992 111.2512207 C231.93717743 112.83969957 231.93717743 112.83969957 232 114 C251.14 114 270.28 114 290 114 C287.76093863 107.11213779 287.76093863 107.11213779 285.11816406 100.46850586 C284.61183441 99.31571388 284.61183441 99.31571388 284.09527588 98.13963318 C283.73899109 97.33945267 283.3827063 96.53927216 283.015625 95.71484375 C282.63694275 94.85548721 282.2582605 93.99613068 281.86810303 93.11073303 C280.66584787 90.38463443 279.45808489 87.66101937 278.25 84.9375 C277.45535196 83.13883848 276.66107835 81.34001149 275.8671875 79.54101562 C274.31871887 76.03295395 272.76838714 72.52572495 271.21679688 69.01904297 C268.1232174 62.0220226 265.05968949 55.01189165 262 48 C261.67 48 261.34 48 261 48 Z " fill="#005893" transform="translate(1591,849)"/>
<path d="M0 0 C8.73623765 7.97313256 18.93529271 19.0899967 20.59375 31.3671875 C15.27706812 34.17444623 9.95690181 36.9749739 4.63378906 39.77001953 C2.51271726 40.88438283 0.39232756 42.00004499 -1.72753906 43.11669922 C-5.13912701 44.91265451 -8.5536478 46.70292537 -11.96875 48.4921875 C-13.61895142 49.36266724 -13.61895142 49.36266724 -15.30249023 50.25073242 C-16.32802002 50.78674072 -17.3535498 51.32274902 -18.41015625 51.875 C-19.32611572 52.35598145 -20.2420752 52.83696289 -21.18579102 53.33251953 C-23.40625 54.3671875 -23.40625 54.3671875 -25.40625 54.3671875 C-26.6328125 52.64453125 -26.6328125 52.64453125 -28.03125 50.3046875 C-36.30127105 37.70275066 -50.72290008 30.82273183 -65.12304688 27.3996582 C-83.30147533 23.72833716 -102.42697149 26.10764663 -118.15625 36.1171875 C-122.89073038 40.85166788 -125.16324055 46.68442757 -125.40625 53.3671875 C-124.21736796 60.26270334 -121.20647067 63.3104397 -115.7019043 67.35351562 C-112.20996964 69.48711642 -108.83048376 70.79132561 -104.92578125 71.8984375 C-104.19543167 72.1087561 -103.46508209 72.31907471 -102.71260071 72.5357666 C-93.00302503 75.19249876 -83.04588599 76.47259935 -73.09375 77.8671875 C-55.06367292 80.40783779 -36.82192679 83.11320179 -19.90625 90.1796875 C-19.0814917 90.51806641 -18.2567334 90.85644531 -17.40698242 91.20507812 C-10.45349204 94.15698655 -4.36886512 97.68882795 1.59375 102.3671875 C2.41101562 103.00398438 3.22828125 103.64078125 4.0703125 104.296875 C16.63645782 114.76165822 24.62982197 130.17860151 26.59375 146.3671875 C28.28603893 170.57938868 26.10088354 192.95063188 9.73828125 212.06640625 C-10.75905142 234.05716935 -41.1677699 243.37705618 -70.61523438 244.48828125 C-105.17487356 245.44561198 -140.80063163 241.4700796 -167.78125 217.8671875 C-179.43408189 206.82365401 -189.07407565 193.67208961 -194.40625 178.3671875 C-193.20254047 174.75605891 -191.88602149 174.2997108 -188.62068176 172.6149292 C-187.94792709 172.28051819 -187.27517242 171.94610718 -186.58203125 171.6015625 C-185.53525459 171.06683319 -185.53525459 171.06683319 -184.46733093 170.52130127 C-182.22237862 169.37732048 -179.97077304 168.24717445 -177.71875 167.1171875 C-176.25150031 166.37198464 -174.78469822 165.6258998 -173.31835938 164.87890625 C-164.37080757 160.32924012 -155.38914722 155.84657073 -146.40625 151.3671875 C-145.88498535 152.41600098 -145.3637207 153.46481445 -144.82666016 154.54541016 C-136.2772012 171.63065069 -124.77559997 182.23658537 -106.40625 188.3671875 C-85.98876762 194.34830881 -61.36523727 193.44628766 -42.40625 183.3671875 C-36.77234446 179.68269493 -32.80849711 174.98801524 -30.82421875 168.44921875 C-29.48132339 161.75984281 -29.93655311 155.51540294 -33.02734375 149.3984375 C-39.97128304 139.16940512 -54.1908732 135.69604614 -65.60546875 133.39453125 C-73.12461369 131.99501726 -80.70969416 130.99854659 -88.28125 129.9296875 C-118.32902487 125.68037166 -149.0133209 119.03973815 -169.53125 94.86328125 C-180.85658836 79.65706186 -184.26824719 60.01392128 -181.91015625 41.46484375 C-178.80982552 21.99205865 -169.65196864 6.25884004 -153.67578125 -5.671875 C-150.9718246 -7.44329826 -148.2309188 -9.06178884 -145.40625 -10.6328125 C-144.09140625 -11.39851563 -144.09140625 -11.39851563 -142.75 -12.1796875 C-100.80541566 -35.03712953 -36.73791811 -31.35391287 0 0 Z " fill="#005893" transform="translate(1435.40625,1110.6328125)"/>
<path d="M0 0 C9.51661412 8.56525094 16.04503867 18.06184388 21.49169922 29.68359375 C21.49169922 30.34359375 21.49169922 31.00359375 21.49169922 31.68359375 C15.74583513 34.64084007 9.99817686 37.59457641 4.24926758 40.54589844 C2.2944269 41.54997643 0.33999585 42.55485236 -1.61401367 43.56054688 C-4.42535386 45.00731843 -7.23816254 46.45119871 -10.05126953 47.89453125 C-11.35779732 48.56807144 -11.35779732 48.56807144 -12.6907196 49.25521851 C-16.57392817 51.24437953 -20.40506511 53.17748218 -24.50830078 54.68359375 C-24.93498047 53.99394531 -25.36166016 53.30429688 -25.80126953 52.59375 C-34.9115388 38.90017001 -48.38216348 31.82055349 -64.07080078 27.87109375 C-81.68802827 24.46444755 -101.18093938 25.69052682 -116.50830078 35.68359375 C-120.89415939 39.54895163 -124.11538741 43.84733047 -124.72314453 49.78125 C-124.93428003 54.84005666 -124.43261174 58.39460435 -121.50830078 62.68359375 C-109.00072985 75.83257857 -86.06305757 76.33638878 -69.17828369 78.80343628 C-38.36841229 83.31360351 -4.69964598 89.85709172 15.37060547 116.14453125 C27.90674338 134.61028947 30.21635154 158.1403434 26.30419922 179.74609375 C21.49470801 200.25913299 9.63722258 216.57450103 -8.15283203 227.66137695 C-41.7084972 247.58045396 -86.39232759 249.37037352 -123.63330078 240.49609375 C-148.62612424 234.08896913 -171.17280325 220.20880228 -184.69091797 197.71582031 C-193.50830078 182.2387377 -193.50830078 182.2387377 -193.50830078 175.68359375 C-192.94135498 175.40273926 -192.37440918 175.12188477 -191.7902832 174.83251953 C-180.70992822 169.33637806 -169.66345521 163.79606151 -158.76489258 157.94580078 C-154.42003088 155.62783087 -150.06384601 153.55622894 -145.50830078 151.68359375 C-144.76386719 153.276875 -144.76386719 153.276875 -144.00439453 154.90234375 C-136.23465685 171.21956484 -126.55484681 181.15561684 -109.38330078 187.62109375 C-89.55174391 193.97595728 -65.06097575 194.67984955 -45.94580078 185.49609375 C-39.25643528 181.88826036 -34.78795948 177.82842774 -31.13330078 171.18359375 C-29.08985552 163.0098127 -29.30245513 157.18719529 -33.00830078 149.62109375 C-45.26715549 135.21693946 -64.71985735 133.72468422 -82.24316406 131.16308594 C-103.91166419 127.98102117 -124.74721398 124.48804936 -144.50830078 114.68359375 C-145.56533203 114.173125 -146.62236328 113.66265625 -147.71142578 113.13671875 C-162.52974063 105.30085592 -173.42678285 92.27674352 -178.69580078 76.42578125 C-184.59093717 56.52969594 -183.02025494 34.79754951 -173.19970703 16.4609375 C-160.43735071 -4.49526422 -138.84839157 -15.80510535 -115.66674805 -21.69287109 C-77.67100692 -30.81245441 -30.40093735 -26.53315866 0 0 Z " fill="#005893" transform="translate(3131.50830078125,1110.31640625)"/>
<path d="M0 0 C18.48 0 36.96 0 56 0 C56.01458252 4.61685791 56.02916504 9.23371582 56.04418945 13.99047852 C56.09461997 29.27748204 56.16108202 44.5643852 56.23571491 59.8512888 C56.28055779 69.11593547 56.31999858 78.38054468 56.34643555 87.64526367 C56.36950927 95.72643555 56.40301075 103.80748775 56.44870156 111.88856453 C56.47250818 116.16195437 56.49131879 120.43522661 56.49761391 124.70868111 C56.50372222 128.74297852 56.52392527 132.77697552 56.55427551 136.81116104 C56.56296477 138.28032903 56.5667976 139.74953643 56.56500816 141.21872902 C56.54882541 160.66149961 60.06393967 178.45573278 73.83984375 192.93359375 C84.40474924 202.97997627 99.14431842 206.58900536 113.375 206.4375 C114.37942139 206.42992676 115.38384277 206.42235352 116.41870117 206.41455078 C130.57663745 206.10122597 142.27944906 201.38262618 153 192 C164.50104435 176.8167086 167.45466028 160.62194465 167.43237305 141.90673828 C167.4414147 140.34803503 167.4517477 138.78933884 167.46325684 137.23065186 C167.49057126 133.04564455 167.50007612 128.86077306 167.50611091 124.67568827 C167.51556194 120.28478638 167.54177015 115.89398332 167.56611633 111.50314331 C167.6096014 103.20920985 167.63825841 94.91529577 167.66143972 86.62128341 C167.68858847 77.17005327 167.73249357 67.71892346 167.77772844 58.26776528 C167.87031673 38.84521691 167.93990385 19.42267796 168 0 C186.81 0 205.62 0 225 0 C225.0452954 19.89861865 225.0820752 39.79719501 225.10362434 59.69585228 C225.1138997 68.93690218 225.12788775 78.17791757 225.15087891 87.41894531 C225.17092812 95.48139681 225.18374355 103.5438233 225.18817699 111.60629904 C225.19076502 115.86806122 225.19676821 120.12975188 225.21146011 124.39149094 C225.35093721 166.49104325 225.35093721 166.49104325 220.8125 182.625 C220.59819336 183.40512451 220.38388672 184.18524902 220.16308594 184.98901367 C212.80382513 210.6293237 197.49191681 232.88474319 174.01123047 246.12109375 C142.7456609 262.89155436 104.85847614 264.29024149 71.21435547 254.18212891 C59.01990396 250.22430575 47.93436734 244.09295034 38 236 C37.17242188 235.33613281 36.34484375 234.67226562 35.4921875 233.98828125 C21.35905792 222.00391902 11.69761137 206.52837325 5.6875 189.125 C5.45699951 188.46725586 5.22649902 187.80951172 4.98901367 187.13183594 C0.66420731 173.72064795 -0.44628075 160.09010408 -0.34057617 146.10717773 C-0.33972697 144.49877946 -0.34021073 142.89038003 -0.34190369 141.28198242 C-0.34275365 136.97516955 -0.32529265 132.66861465 -0.30418181 128.36186099 C-0.28524566 123.83891581 -0.28365138 119.31596272 -0.28010559 114.79298401 C-0.27083433 106.25470428 -0.24628821 97.71654176 -0.21605712 89.17831331 C-0.18235863 79.44656099 -0.16598852 69.71480264 -0.15097082 59.98300636 C-0.11973341 39.98859125 -0.064784 19.9943365 0 0 Z " fill="#005893" transform="translate(1724,1094)"/>
<path d="M0 0 C69.96 0 139.92 0 212 0 C212 17.49 212 34.98 212 53 C186.26 53 160.52 53 134 53 C134 119.99 134 186.98 134 256 C115.19 256 96.38 256 77 256 C77 189.01 77 122.02 77 53 C51.59 53 26.18 53 0 53 C0 35.51 0 18.02 0 0 Z " fill="#005893" transform="translate(2717,1093)"/>
<path d="M0 0 C69.96 0 139.92 0 212 0 C212 17.49 212 34.98 212 53 C186.26 53 160.52 53 134 53 C134 119.99 134 186.98 134 256 C115.52 256 97.04 256 78 256 C78 189.01 78 122.02 78 53 C52.26 53 26.52 53 0 53 C0 35.51 0 18.02 0 0 Z " fill="#005893" transform="translate(1480,1093)"/>
<path d="M0 0 C15.695625 -0.061875 31.39125 -0.12375 47.5625 -0.1875 C52.49002197 -0.21481201 57.41754395 -0.24212402 62.49438477 -0.27026367 C68.5838623 -0.28381348 68.5838623 -0.28381348 71.44859314 -0.28633118 C73.41878807 -0.29089121 75.38897545 -0.30134353 77.3591156 -0.31672668 C101.04824147 -0.4921982 122.3955096 2.72574383 140.3125 19.8125 C152.76188363 32.91296075 156.49524734 48.86787655 156.20703125 66.55078125 C155.67516776 81.75946668 150.08159015 95.83805839 139.44140625 106.8203125 C131.94548984 113.51266667 123.32328477 117.46919233 114 121 C114.71285156 121.7734375 115.42570312 122.546875 116.16015625 123.34375 C120.9186522 128.51530405 125.65313899 133.69811721 130.2578125 139.0078125 C132.31500399 141.36020635 134.40596915 143.68034966 136.5 146 C139.76390848 149.61676345 142.98790949 153.26389608 146.1875 156.9375 C149.02113081 160.16197644 151.90504755 163.34086603 154.78125 166.52734375 C157.44463942 169.49552245 160.07133342 172.4941035 162.6875 175.50390625 C163.43549316 176.35652941 164.19798378 177.19798378 165 178 C165.04092937 180.33297433 165.04241723 182.66705225 165 185 C158.77476799 185.2735735 152.55308769 185.47225979 146.32324219 185.60424805 C144.20836399 185.65929946 142.09389941 185.73417171 139.98046875 185.82983398 C121.46068111 186.64662651 121.46068111 186.64662651 116.47705078 182.69140625 C113.94039616 179.91581513 111.97714556 177.18995557 110 174 C108.56221499 172.19180206 107.10632634 170.39770354 105.625 168.625 C104.89539062 167.72007812 104.16578125 166.81515625 103.4140625 165.8828125 C100.22356606 162.07280219 96.84002858 158.46475671 93.4440918 154.83862305 C89.53223938 150.63788005 85.89886632 146.2642079 82.3125 141.78125 C79.17521084 138.00802385 75.84100967 134.43116108 72.45288086 130.88256836 C69 127.2119884 69 127.2119884 69 125 C59.1 125 49.2 125 39 125 C39 144.8 39 164.6 39 185 C26.13 185 13.26 185 0 185 C0 123.95 0 62.9 0 0 Z M39 37 C39 54.16 39 71.32 39 89 C46.25314085 89.08417572 53.50448501 89.16427576 60.75769043 89.20700073 C64.13620166 89.22801438 67.51430327 89.25603448 70.89257812 89.30175781 C74.78005653 89.35056663 78.66695735 89.37303643 82.5546875 89.390625 C83.74988007 89.41127014 84.94507263 89.43191528 86.17648315 89.45318604 C95.2891991 89.45560019 102.8144269 87.97407827 109.875 81.9375 C114.54431911 76.79352197 117.05980822 69.91527086 117.5 63 C117.05980822 56.08472914 114.54431911 49.20647803 109.875 44.0625 C101.71141951 37.08288349 92.93294741 36.43010628 82.5546875 36.609375 C81.30366241 36.61503479 80.05263733 36.62069458 78.76370239 36.62652588 C75.47221292 36.64499817 72.18153947 36.68079671 68.89031982 36.7253418 C65.51812796 36.76660184 62.14581207 36.78482254 58.7734375 36.8046875 C52.18165121 36.84517759 45.5918582 36.92349874 39 37 Z " fill="#005893" transform="translate(2230,1410)"/>
<path d="M0 0 C32 0 32 0 40.375 7.6875 C43.390625 12.41015625 43.390625 12.41015625 44.72070312 14.78173828 C46.56341389 17.97694248 48.8146332 20.76096139 51.125 23.625 C51.91261719 24.66011719 52.70023438 25.69523437 53.51171875 26.76171875 C56.26413643 30.3654682 59.09774671 33.90240779 61.9375 37.4375 C68.13580864 45.15545781 74.25112992 52.93637426 80.35449219 60.72949219 C85.53769663 67.34563435 90.74246928 73.94270262 96 80.5 C100.0620105 85.56741274 104.10711857 90.6475043 108.125 95.75 C108.58648438 96.33458984 109.04796875 96.91917969 109.5234375 97.52148438 C111.44521835 99.96712416 113.27347431 102.41021147 115 105 C115.33 70.35 115.66 35.7 116 0 C128.87 0 141.74 0 155 0 C155 61.05 155 122.1 155 185 C148.07 185 141.14 185 134 185 C134 186.32 134 187.64 134 189 C133.34 189 132.68 189 132 189 C130.78588867 187.69335938 130.78588867 187.69335938 129.41796875 185.84375 C128.90484131 185.15917725 128.39171387 184.47460449 127.86303711 183.76928711 C127.31010986 183.02042236 126.75718262 182.27155762 126.1875 181.5 C121.71933711 175.54390579 117.1723028 169.68393314 112.4375 163.9375 C107.6066193 158.05538836 102.98668399 152.04955961 98.45336914 145.93603516 C94.53623018 140.66969532 90.47375761 135.53601112 86.35473633 130.42675781 C82.81577474 126.03324534 79.34889008 121.59379169 75.92041016 117.11328125 C72.38608041 112.4954242 68.82220065 107.90111658 65.25 103.3125 C64.66444336 102.56033203 64.07888672 101.80816406 63.47558594 101.03320312 C62.26991898 99.48465209 61.06418895 97.93615015 59.85839844 96.38769531 C57.94858382 93.9339398 56.0404625 91.47887617 54.1328125 89.0234375 C53.18873535 87.80853638 53.18873535 87.80853638 52.22558594 86.5690918 C51.02286811 85.02126694 49.82038121 83.4732626 48.61816406 81.92504883 C47.79783691 80.86966919 47.79783691 80.86966919 46.9609375 79.79296875 C46.48446777 79.1796167 46.00799805 78.56626465 45.51708984 77.93432617 C43.69421778 75.61012029 41.84520954 73.30651193 40 71 C39.67 108.62 39.34 146.24 39 185 C26.13 185 13.26 185 0 185 C0 123.95 0 62.9 0 0 Z " fill="#005893" transform="translate(2613,1410)"/>
<path d="M0 0 C32 0 32 0 38.3125 5.625 C39.2703573 7.44061067 40.22818242 9.25925 41.0703125 11.13134766 C42.68431593 14.37546064 45.01711204 17.03019948 47.3125 19.8125 C48.23638687 20.98278953 49.15823052 22.15469469 50.078125 23.328125 C53.20201916 27.27028339 56.38137377 31.16649302 59.5625 35.0625 C64.32849615 40.90079293 68.97616561 46.81179169 73.55078125 52.80078125 C80.6026972 62.03212233 87.86614326 71.08774741 95.21386719 80.08447266 C99.53607409 85.39205986 103.73312479 90.78432414 107.87890625 96.23046875 C109.88360281 98.84801913 111.94036439 101.42545549 114 104 C114.33 69.68 114.66 35.36 115 0 C127.87 0 140.74 0 154 0 C154 61.05 154 122.1 154 185 C147.07 185 140.14 185 133 185 C132.67 186.32 132.34 187.64 132 189 C126.45288702 182.92021723 121.45426654 176.46098981 116.47021484 169.92041016 C113.75086819 166.36837084 110.99892035 162.84166831 108.25 159.3125 C107.65759521 158.55146973 107.06519043 157.79043945 106.45483398 157.00634766 C105.24148992 155.44766343 104.02802888 153.88907025 102.81445312 152.33056641 C99.87486662 148.55482734 96.93752285 144.77734465 94 141 C92.83334461 139.49999123 91.66667793 137.99999124 90.5 136.5 C83.5 127.5 76.5 118.5 69.5 109.5 C68.9217749 108.75661377 68.3435498 108.01322754 67.74780273 107.24731445 C66.58827977 105.75640665 65.42893552 104.26535984 64.26977539 102.77416992 C61.24530671 98.8838646 58.21720739 94.99646089 55.18359375 91.11328125 C54.55646484 90.30955078 53.92933594 89.50582031 53.28320312 88.67773438 C52.09165457 87.15078697 50.8990238 85.62468316 49.70507812 84.09960938 C49.16173828 83.40287109 48.61839844 82.70613281 48.05859375 81.98828125 C47.58736084 81.38540283 47.11612793 80.78252441 46.63061523 80.16137695 C44.36026415 77.15203152 42.19109485 74.06753278 40 71 C39.67 108.62 39.34 146.24 39 185 C26.13 185 13.26 185 0 185 C0 123.95 0 62.9 0 0 Z " fill="#005893" transform="translate(1675,1410)"/>
<path d="M0 0 C46.2 0 92.4 0 140 0 C140 12.54 140 25.08 140 38 C106.67 38 73.34 38 39 38 C39 49.88 39 61.76 39 74 C71.34 74 103.68 74 137 74 C137 86.21 137 98.42 137 111 C104.66 111 72.32 111 39 111 C39 122.55 39 134.1 39 146 C72.33 146 105.66 146 140 146 C140 158.87 140 171.74 140 185 C93.8 185 47.6 185 0 185 C0 123.95 0 62.9 0 0 Z " fill="#005893" transform="translate(1424,849)"/>
<path d="M0 0 C1.56982434 1.49233301 3.13300536 2.99170538 4.6875 4.5 C5.60789062 5.31017578 5.60789062 5.31017578 6.546875 6.13671875 C22.41373082 20.5842916 31.15041643 45.10298443 32.59765625 66.0703125 C32.62730469 66.87210938 32.65695312 67.67390625 32.6875 68.5 C32.72746094 69.46679688 32.76742188 70.43359375 32.80859375 71.4296875 C33.32857103 96.44977054 26.70469642 120.96914982 10.6875 140.5 C10.09710937 141.26441406 9.50671875 142.02882813 8.8984375 142.81640625 C-5.22550926 160.09570282 -27.59276327 169.12613705 -49.3125 171.5 C-79.18904542 173.02371969 -106.37270574 168.82498528 -129.4375 148.375 C-145.77420218 133.25171703 -156.494813 109.92413831 -157.43505859 87.58862305 C-158.23016158 54.67858764 -152.07020181 27.29957545 -128.9375 2.8125 C-95.86019164 -28.85883776 -34.37914146 -30.58235277 0 0 Z M-103 30.75 C-115.13322775 43.47406318 -119.70629966 60.58338841 -119.52734375 77.90234375 C-118.50288928 95.0572995 -112.33073142 111.58760202 -99.76171875 123.58203125 C-86.84506019 133.69699035 -70.40579635 137.14000878 -54.3125 135.5 C-44.76088393 134.10074682 -36.11151042 131.34584319 -28.3125 125.5 C-27.54550781 124.94828125 -26.77851562 124.3965625 -25.98828125 123.828125 C-14.16315863 114.43227206 -8.27481837 99.12653972 -6.3125 84.5 C-5.10420449 64.59283629 -8.38345197 46.66515318 -21.6875 31.0625 C-32.55752555 19.7912319 -46.19015892 14.97942025 -61.6796875 14.4296875 C-77.7946244 14.7415895 -91.28832784 19.66399313 -103 30.75 Z " fill="#005893" transform="translate(1599.3125,1427.5)"/>
<path d="M0 0 C46.2 0 92.4 0 140 0 C140 12.54 140 25.08 140 38 C106.67 38 73.34 38 39 38 C39 49.88 39 61.76 39 74 C71.01 74 103.02 74 136 74 C136 86.21 136 98.42 136 111 C103.99 111 71.98 111 39 111 C39 122.88 39 134.76 39 147 C72.33 147 105.66 147 140 147 C140 159.54 140 172.08 140 185 C93.8 185 47.6 185 0 185 C0 123.95 0 62.9 0 0 Z " fill="#005893" transform="translate(3012,1410)"/>
<path d="M0 0 C46.2 0 92.4 0 140 0 C140 12.54 140 25.08 140 38 C106.67 38 73.34 38 39 38 C39 49.88 39 61.76 39 74 C71.01 74 103.02 74 136 74 C136 86.21 136 98.42 136 111 C103.99 111 71.98 111 39 111 C39 122.88 39 134.76 39 147 C72.33 147 105.66 147 140 147 C140 159.54 140 172.08 140 185 C93.8 185 47.6 185 0 185 C0 123.95 0 62.9 0 0 Z " fill="#005893" transform="translate(2424,1410)"/>
<path d="M0 0 C45.87 0 91.74 0 139 0 C139 12.54 139 25.08 139 38 C105.67 38 72.34 38 38 38 C38 49.88 38 61.76 38 74 C70.34 74 102.68 74 136 74 C136 86.21 136 98.42 136 111 C103.66 111 71.32 111 38 111 C38 122.88 38 134.76 38 147 C71.33 147 104.66 147 139 147 C139 159.54 139 172.08 139 185 C93.13 185 47.26 185 0 185 C0 123.95 0 62.9 0 0 Z " fill="#005893" transform="translate(2049,1410)"/>
<path d="M0 0 C13.53 0 27.06 0 41 0 C45.92864329 9.85728659 50.73894555 19.626923 55.1875 29.6875 C55.74310344 30.93636978 56.29910371 32.18506308 56.85546875 33.43359375 C58.00330254 36.01023571 59.14948059 38.58760407 60.29443359 41.16552734 C63.01371047 47.28414231 65.75850834 53.39131347 68.5 59.5 C69.58996528 61.9309351 70.679809 64.3619247 71.76953125 66.79296875 C72.30658691 67.99099121 72.84364258 69.18901367 73.39697266 70.42333984 C74.95656639 73.90309133 76.51549382 77.38314052 78.07421875 80.86328125 C82.79316469 91.39726811 87.51563027 101.92957601 92.2578125 112.453125 C99.50825628 128.54323064 106.75462156 144.6352248 113.94198608 160.75363159 C114.64058593 162.31943104 115.34013202 163.8848087 116.04067993 165.44973755 C117.00905183 167.61370839 117.97376503 169.77927338 118.9375 171.9453125 C119.36122139 172.88945763 119.36122139 172.88945763 119.79350281 173.85267639 C121.43029699 177.54467613 122.71428119 181.14284356 124 185 C109.81 185 95.62 185 81 185 C75.89025548 174.05054746 70.90738976 163.04162695 66 152 C35.97 151.67 5.94 151.34 -25 151 C-25.99 153.97 -26.98 156.94 -28 160 C-28.85123059 162.04694016 -29.73611979 164.08042442 -30.6640625 166.09375 C-31.14617188 167.14304687 -31.62828125 168.19234375 -32.125 169.2734375 C-32.62 170.33820313 -33.115 171.40296875 -33.625 172.5 C-34.12773437 173.59570312 -34.63046875 174.69140625 -35.1484375 175.8203125 C-38.85825893 183.85825893 -38.85825893 183.85825893 -40 185 C-43.10251201 185.08874135 -46.1826812 185.11518455 -49.28515625 185.09765625 C-50.21597519 185.0962413 -51.14679413 185.09482635 -52.1058197 185.09336853 C-55.09141191 185.08775172 -58.07693029 185.0751964 -61.0625 185.0625 C-63.08137913 185.05748716 -65.10025943 185.05292388 -67.11914062 185.04882812 C-72.07945572 185.03777683 -77.03971532 185.02050095 -82 185 C-80.09634194 178.9425128 -77.86747058 173.16215302 -75.2265625 167.390625 C-74.86659683 166.59431168 -74.50663116 165.79799835 -74.13575745 164.97755432 C-72.96952421 162.39986028 -71.79725784 159.82495901 -70.625 157.25 C-69.80852162 155.4477267 -68.99252717 153.6452341 -68.17700195 151.8425293 C-66.54533919 148.23652244 -64.91182071 144.6313661 -63.27685547 141.02685547 C-60.22658136 134.29788437 -57.20510287 127.55617822 -54.1875 120.8125 C-53.14980222 118.49606569 -52.11204241 116.17965917 -51.07421875 113.86328125 C-50.56938965 112.73615723 -50.06456055 111.6090332 -49.54443359 110.44775391 C-46.86425308 104.46458774 -44.18199322 98.48235377 -41.5 92.5 C-40.41665733 90.08333752 -39.33332398 87.66667086 -38.25 85.25 C-36.08333333 80.41666667 -33.91666667 75.58333333 -31.75 70.75 C-31.21342773 69.5530249 -30.67685547 68.3560498 -30.12402344 67.12280273 C-29.04396402 64.7134519 -27.96388598 62.30410941 -26.88378906 59.89477539 C-24.40886334 54.37398831 -21.93409006 48.85313325 -19.46003723 43.33195496 C-12.98523421 28.88260665 -6.50218386 14.43705229 0 0 Z M20 48 C17.45729488 53.73862843 14.91629686 59.47800895 12.37670898 65.21801758 C11.51712308 67.16026972 10.65711428 69.10233477 9.79663086 71.04418945 C5.11413978 81.61198823 0.45635898 92.1903812 -4.12890625 102.80078125 C-4.51924545 103.69733932 -4.90958466 104.5938974 -5.31175232 105.5176239 C-5.66592728 106.34107803 -6.02010223 107.16453217 -6.38500977 108.01293945 C-6.85451805 109.09911308 -6.85451805 109.09911308 -7.33351135 110.20722961 C-8.11615444 111.99366568 -8.11615444 111.99366568 -8 114 C11.14 114 30.28 114 50 114 C44.47788514 100.53930917 44.47788514 100.53930917 38.7734375 87.16015625 C38.41786774 86.34228134 38.06229797 85.52440643 37.69595337 84.68174744 C36.95930019 82.98887092 36.22178961 81.29636722 35.48339844 79.60424805 C34.36588775 77.04160404 33.25315474 74.47691907 32.140625 71.91210938 C28.62731968 63.83688613 25.10719465 55.79664469 21 48 C20.67 48 20.34 48 20 48 Z " fill="#005893" transform="translate(2190,849)"/>
<path d="M0 0 C12.87 0 25.74 0 39 0 C39.33 23.1 39.66 46.2 40 70 C44.19649966 65.80350034 48.13657659 61.76388076 51.984375 57.30078125 C54.44480269 54.4922698 56.96974992 51.74538121 59.5 49 C62.53904534 45.69986653 65.56156459 42.3905024 68.5 39 C71.43844065 35.60949156 74.46116302 32.30033018 77.5 29 C81.13794229 25.04816717 84.72879992 21.06362612 88.24609375 17.00390625 C91.08338421 13.76219131 93.98813783 10.58142572 96.88671875 7.39453125 C99.07111309 5.08952799 99.07111309 5.08952799 100.46508789 2.38085938 C104.43565453 -1.34840634 108.42319895 -0.62273286 113.671875 -0.48828125 C115.22820648 -0.47766914 115.22820648 -0.47766914 116.815979 -0.46684265 C120.12805448 -0.43886641 123.43843599 -0.37611929 126.75 -0.3125 C128.99606933 -0.28742143 131.24216517 -0.26460749 133.48828125 -0.24414062 C138.99276492 -0.1890294 144.49626145 -0.10537061 150 0 C150.23925781 4.67675781 150.23925781 4.67675781 148.0859375 7.5859375 C147.19132812 8.50632812 146.29671875 9.42671875 145.375 10.375 C144.36062268 11.43614591 143.34630247 12.49734642 142.33203125 13.55859375 C141.7901416 14.11659668 141.24825195 14.67459961 140.68994141 15.24951172 C137.77164103 18.27236836 134.92311262 21.36018629 132.0625 24.4375 C130.86615326 25.71769827 129.66953947 26.99764703 128.47265625 28.27734375 C125.30156585 31.67250237 122.14740577 35.08289184 119 38.5 C114.09344369 43.82643878 109.15605834 49.12343104 104.2109375 54.4140625 C99.97680229 58.94663896 95.75817185 63.49304818 91.56542969 68.06396484 C88.78806603 71.08628042 85.98006096 74.07489317 83.140625 77.0390625 C82.49351563 77.71904297 81.84640625 78.39902344 81.1796875 79.09960938 C79.91495653 80.42706485 78.64430799 81.74891304 77.3671875 83.06445312 C76.79742188 83.66451172 76.22765625 84.26457031 75.640625 84.8828125 C74.87540527 85.67776123 74.87540527 85.67776123 74.09472656 86.48876953 C72.70667703 88.09390891 72.70667703 88.09390891 73 91 C74.27655422 92.67585715 74.27655422 92.67585715 76.03515625 94.29296875 C76.67590088 94.91888916 77.31664551 95.54480957 77.97680664 96.18969727 C79.00922485 97.17860962 79.00922485 97.17860962 80.0625 98.1875 C81.46015356 99.55282666 82.85601496 100.91999053 84.25 102.2890625 C84.88164063 102.90217285 85.51328125 103.5152832 86.1640625 104.14697266 C88.59866918 106.6042419 90.83875673 109.20340734 93.06640625 111.84765625 C96.50888068 115.67958233 100.22666402 119.24501916 103.88696289 122.86743164 C107.43702635 126.39478378 110.8008981 129.98881816 114.03125 133.8125 C116.89838676 136.99820751 119.95431879 139.98584758 123 143 C127.1871061 147.14376132 131.22486599 151.30591549 135.02734375 155.80859375 C138.4717423 159.6349454 142.17407861 163.21324892 145.8515625 166.81445312 C147.58722467 168.52487636 149.29862839 170.25549364 151 172 C151.58378418 172.58765137 152.16756836 173.17530273 152.76904297 173.78076172 C153.31834473 174.36744629 153.86764648 174.95413086 154.43359375 175.55859375 C154.92786865 176.07607178 155.42214355 176.5935498 155.93139648 177.12670898 C157.44162589 179.7741822 157.17210468 182.01187499 157 185 C150.47212731 185.25483476 143.94554761 185.42918602 137.41381836 185.54931641 C135.19523194 185.59941925 132.97697268 185.66752565 130.75952148 185.75439453 C112.31756461 186.45844409 112.31756461 186.45844409 106.65039062 182.89208984 C104.39299152 180.37045761 102.73962572 177.89173325 101 175 C99.49825949 173.41941541 97.96000541 171.87207383 96.375 170.375 C93.67142673 167.7087174 91.09012623 165.01271929 88.625 162.125 C85.73785219 158.75442279 82.65753382 155.61495793 79.5 152.5 C75.75969175 148.81005779 72.21760652 145.02496304 68.80859375 141.02734375 C65.82471996 137.68256946 62.59380268 134.58664843 59.40625 131.4375 C57.34550655 129.34999365 55.40484374 127.22830777 53.5 125 C49.23099138 120.121133 44.58409085 115.58409085 40 111 C39.67 135.42 39.34 159.84 39 185 C26.13 185 13.26 185 0 185 C0 123.95 0 62.9 0 0 Z " fill="#005893" transform="translate(1251,849)"/>
<path d="M0 0 C1.57276869 1.557041 3.08587412 3.17422374 4.578125 4.80859375 C-0.04571272 10.34985959 -4.9470659 15.51685774 -10.046875 20.62109375 C-10.79710937 21.38357422 -11.54734375 22.14605469 -12.3203125 22.93164062 C-13.04734375 23.66060547 -13.774375 24.38957031 -14.5234375 25.140625 C-15.17650879 25.79780518 -15.82958008 26.45498535 -16.50244141 27.13208008 C-18.39281415 28.78321079 -20.13306267 29.80417611 -22.421875 30.80859375 C-22.83695313 30.38449219 -23.25203125 29.96039062 -23.6796875 29.5234375 C-35.56450644 18.21048223 -51.04507633 13.26336589 -67.26025391 13.38647461 C-81.197591 13.89507569 -96.50552806 18.38193664 -106.83984375 28.0625 C-119.38563607 41.90933745 -124.32225704 58.67948955 -123.76953125 77.05078125 C-123.00537084 90.67420015 -117.92228764 104.97597045 -108.4609375 115 C-94.08308887 127.75276612 -77.18108045 130.71108074 -58.63232422 129.95214844 C-44.10126056 129.00844782 -31.0937136 121.27554734 -20.421875 111.80859375 C-14.24052631 116.91308197 -8.62364622 122.49154317 -2.984375 128.18359375 C-2.06205078 129.11042969 -1.13972656 130.03726562 -0.18945312 130.9921875 C2.06871125 133.26205221 4.32449442 135.53422913 6.578125 137.80859375 C2.51976974 146.33037138 -6.52727417 151.18918543 -14.421875 155.80859375 C-15.31390625 156.33582031 -16.2059375 156.86304688 -17.125 157.40625 C-41.8392754 170.90245347 -73.6886569 171.01372613 -100.2890625 163.77734375 C-123.25509538 156.82647899 -140.98758347 141.86412848 -152.421875 120.80859375 C-165.54602991 95.13617063 -166.75792061 64.31749734 -157.95703125 37.078125 C-149.68575985 13.18999621 -133.63916635 -4.37832131 -111.1171875 -15.87890625 C-74.5995186 -32.74618981 -29.91245767 -27.0659496 0 0 Z " fill="#005893" transform="translate(1409.421875,1431.19140625)"/>
<path d="M0 0 C2.06467111 2.28184747 4.0515555 4.61842531 6 7 C2.8041491 10.24538125 -0.39828562 13.48406718 -3.60693359 16.71679688 C-4.69697451 17.81687978 -5.78521164 18.91875311 -6.87158203 20.02246094 C-8.4356884 21.61089467 -10.00622208 23.1927234 -11.578125 24.7734375 C-12.06057678 25.26621185 -12.54302856 25.75898621 -13.0401001 26.26669312 C-15.51641624 28.74382216 -17.73534283 30.67667189 -21 32 C-21.41507813 31.57589844 -21.83015625 31.15179687 -22.2578125 30.71484375 C-34.14263144 19.40188848 -49.62320133 14.45477214 -65.83837891 14.57788086 C-79.775716 15.08648194 -95.08365306 19.57334289 -105.41796875 29.25390625 C-117.67311552 42.77995713 -122.92007663 59.38892107 -122.34765625 77.3984375 C-121.52943964 91.3521101 -116.7527826 105.89999795 -107.0390625 116.19140625 C-92.66121387 128.94417237 -75.75920545 131.90248699 -57.21044922 131.14355469 C-42.67938556 130.19985407 -29.6718386 122.46695359 -19 113 C-12.81865131 118.10448822 -7.20177122 123.68294942 -1.5625 129.375 C-0.64017578 130.30183594 0.28214844 131.22867187 1.23242188 132.18359375 C3.49058625 134.45345846 5.74636942 136.72563538 8 139 C2.48263781 150.59141228 -12.82492527 158.06176739 -24.25 162.8125 C-51.87904026 172.4342214 -84.99672801 172.78544848 -111.83251953 160.13623047 C-134.44299504 148.73736131 -149.104305 130.5188973 -157.12109375 106.6640625 C-165.91541334 77.99393637 -162.90413311 48.00421078 -149.07421875 21.484375 C-137.71782471 1.67085361 -118.81352897 -13.27062514 -96.83691406 -19.62548828 C-63.29756065 -28.4619013 -26.26486757 -24.29593124 0 0 Z " fill="#005893" transform="translate(2971,1430)"/>
<path d="M0 0 C44.22 0 88.44 0 134 0 C134 12.54 134 25.08 134 38 C102.65 38 71.3 38 39 38 C39 52.52 39 67.04 39 82 C68.7 82 98.4 82 129 82 C129 94.21 129 106.42 129 119 C99.3 119 69.6 119 39 119 C39 140.78 39 162.56 39 185 C26.13 185 13.26 185 0 185 C0 123.95 0 62.9 0 0 Z " fill="#005893" transform="translate(1876,1410)"/>
<path d="M0 0 C12.87 0 25.74 0 39 0 C39 48.84 39 97.68 39 148 C69.69 148 100.38 148 132 148 C132 160.21 132 172.42 132 185 C88.44 185 44.88 185 0 185 C0 123.95 0 62.9 0 0 Z " fill="#005893" transform="translate(1972,849)"/>
<path d="M0 0 C13.07495401 11.13137976 20.00781812 25.32762823 21.5703125 42.34765625 C22.1530603 57.06203822 17.65433266 71.19796549 7.9765625 82.27734375 C6.45380603 83.85827863 4.91304273 85.42214421 3.3515625 86.96484375 C2.72507812 87.61324219 2.09859375 88.26164062 1.453125 88.9296875 C-9.60844859 99.59453799 -23.87920771 102.38876569 -38.64038086 102.32836914 C-53.51888752 102.03617537 -66.23378815 96.42589627 -77.0234375 86.15234375 C-87.63475416 74.91183043 -93.53412242 60.80280551 -93.68359375 45.32421875 C-92.96798608 28.35908073 -87.04203163 13.7814082 -74.6484375 1.96484375 C-53.18740836 -15.94427291 -22.26436391 -17.10875162 0 0 Z " fill="#1E6D9B" transform="translate(789.6484375,1400.03515625)"/>
</svg>
