<svg version="1.1" id="Layer_1" xmlns="http://www.w3.org/2000/svg" xmlns:xlink="http://www.w3.org/1999/xlink" x="0px" y="0px"
	 width="100%" viewBox="0 0 300 75" enable-background="new 0 0 300 75" xml:space="preserve">
<path fill="#FCFDFD" opacity="1.000000" stroke="none" 
	d="
M201.000000,76.000000 
	C134.000015,76.000000 67.500023,76.000000 1.000027,76.000000 
	C1.000018,51.000015 1.000018,26.000032 1.000009,1.000037 
	C100.999969,1.000025 200.999939,1.000025 300.999939,1.000012 
	C300.999939,25.999962 300.999939,50.999924 300.999969,75.999939 
	C267.833344,76.000000 234.666672,76.000000 201.000000,76.000000 
M203.986511,44.904346 
	C204.266006,44.877560 204.545502,44.850769 204.824997,44.823982 
	C204.639038,44.462547 204.453094,44.101116 203.970093,43.228767 
	C203.721558,43.235371 203.473038,43.241974 203.224487,43.248577 
	C203.335632,43.655476 203.446777,44.062374 203.986511,44.904346 
M206.018982,41.704964 
	C206.155182,41.336235 206.291382,40.967506 206.056717,40.125278 
	C205.792236,40.139523 205.527771,40.153763 205.263290,40.168007 
	C205.395752,40.562935 205.528214,40.957859 206.018982,41.704964 
M271.393585,27.700813 
	C270.929291,27.467182 270.464996,27.233553 270.002411,26.150396 
	C270.002411,23.942026 270.002411,21.733656 270.002411,19.525288 
	C269.760254,19.533926 269.518097,19.542566 269.275940,19.551205 
	C269.141724,19.992931 269.007507,20.434656 268.311401,20.682137 
	C266.337158,20.156370 264.362915,19.630604 262.304688,19.082466 
	C262.304688,22.058258 262.304688,25.316988 262.304688,28.575718 
	C262.560608,28.627216 262.816559,28.678717 263.072479,28.730215 
	C263.590302,27.538301 264.108093,26.346388 264.405792,25.661125 
	C266.187164,25.443489 267.536316,25.278660 268.982697,25.728085 
	C269.026001,26.139885 269.069305,26.551685 269.098572,27.656702 
	C270.059082,28.077507 271.019562,28.498312 272.595886,28.681362 
	C273.042938,27.625422 273.489990,26.569481 273.937042,25.513542 
	C273.609283,25.377546 273.281494,25.241550 272.953735,25.105555 
	C272.606506,25.949657 272.259277,26.793762 271.393585,27.700813 
M149.335464,20.159801 
	C149.074646,20.756516 148.813812,21.353230 147.858047,22.097229 
	C147.021866,23.952347 146.185684,25.807465 145.349503,27.662582 
	C145.660492,27.794838 145.971497,27.927095 146.282486,28.059353 
	C147.192886,26.680674 148.103287,25.301994 149.374710,23.850622 
	C149.374710,23.850622 149.743149,23.845594 150.260452,23.954285 
	C150.435257,23.976429 150.610062,23.998573 150.902618,24.827602 
	C151.024521,26.053768 151.146423,27.279934 151.268326,28.506100 
	C151.631546,28.472939 151.994751,28.439777 152.357956,28.406616 
	C151.960938,24.963930 151.563934,21.521246 150.614868,18.059507 
	C150.407822,18.715868 150.200775,19.372231 149.335464,20.159801 
M197.827072,48.418991 
	C197.665909,48.216625 197.462402,48.075146 197.078766,47.151688 
	C197.228745,44.787865 197.378723,42.424046 197.528702,40.060223 
	C196.953369,40.047207 196.378021,40.034195 195.274109,40.640770 
	C195.279037,42.619984 195.283951,44.599194 195.736603,47.070786 
	C196.281754,48.040108 196.826904,49.009434 197.372040,49.978760 
	C197.582397,49.569572 197.792755,49.160381 197.827072,48.418991 
M250.253021,18.615162 
	C246.489212,18.615162 242.725403,18.615162 239.330643,18.615162 
	C240.046921,20.668577 240.714249,22.004816 240.948303,23.413063 
	C241.187393,24.851568 241.001221,26.360750 241.001221,27.838991 
	C241.398178,27.826511 241.795151,27.814030 242.192108,27.801550 
	C242.192108,25.610983 242.192108,23.420416 242.192108,21.229849 
	C242.414581,21.239382 242.637054,21.248913 242.859512,21.258446 
	C243.003021,23.668591 243.146530,26.078735 243.304184,28.726452 
	C245.991882,28.726452 248.226578,28.726452 250.158279,28.726452 
	C250.995621,27.052420 251.437347,24.755995 252.378021,24.529211 
	C256.851501,23.450747 254.744980,20.998936 254.525803,19.869947 
	C252.879517,19.504372 252.010193,19.311327 251.404007,18.932217 
	C251.239426,18.919184 251.074844,18.906151 250.253021,18.615162 
M55.121742,22.118433 
	C53.416328,13.748672 47.691395,8.615419 39.913387,7.582848 
	C28.826170,6.110962 17.514286,6.331400 6.091424,5.819685 
	C6.091424,28.113226 6.091424,49.319141 6.091424,70.611664 
	C8.549089,70.611664 10.731820,70.611664 13.362355,70.611664 
	C13.362355,62.142685 13.362355,54.063129 13.362355,45.107094 
	C21.438009,45.107094 29.095619,45.551571 36.680363,44.997898 
	C46.834522,44.256664 53.728912,37.904068 55.823784,29.507317 
	C56.008560,37.637894 56.240150,45.767765 56.361988,53.899284 
	C56.446007,59.506588 56.378117,65.116173 56.378117,70.673035 
	C59.308594,70.673035 61.549408,70.673035 64.172546,70.673035 
	C64.172546,53.474895 64.172546,36.613781 64.172546,19.752665 
	C65.691521,21.155531 66.461670,22.724821 67.147041,24.330303 
	C73.220238,38.556675 79.333748,52.766357 85.292747,67.040504 
	C86.437592,69.782845 87.707047,71.224503 91.035652,71.154182 
	C94.171059,71.087944 95.711952,70.147087 96.917198,67.238617 
	C103.093338,52.334549 109.485390,37.519867 115.825111,22.683825 
	C116.285110,21.607328 116.928932,20.609385 117.487289,19.574921 
	C117.758736,19.658224 118.030174,19.741528 118.301620,19.824831 
	C118.301620,36.762695 118.301620,53.700558 118.301620,70.742447 
	C120.930092,70.742447 123.178131,70.742447 125.598923,70.742447 
	C125.598923,49.240242 125.598923,28.010841 125.598923,6.831617 
	C115.364822,5.130281 115.342224,5.120766 111.652138,13.885756 
	C104.959831,29.781885 98.297371,45.690578 91.292740,62.379589 
	C90.297493,60.227619 89.577217,58.784431 88.952164,57.301113 
	C82.299927,41.514576 75.704262,25.703878 68.952080,9.960284 
	C68.332466,8.515570 66.893211,6.687944 65.566406,6.432848 
	C62.746559,5.890695 59.750072,6.267322 56.378040,6.267322 
	C56.378040,9.509393 56.548763,11.994598 56.333191,14.445831 
	C56.084888,17.269197 55.495300,20.062550 55.121742,22.118433 
M172.498230,63.855701 
	C160.239685,63.855701 147.981155,63.855701 135.179413,63.855701 
	C135.179413,44.579285 135.179413,25.677151 135.179413,6.530960 
	C132.557205,6.530960 130.483276,6.530960 128.121429,6.530960 
	C128.121429,28.023144 128.121429,49.250061 128.121429,70.635094 
	C184.509033,70.635094 240.719254,70.635094 297.270203,70.635094 
	C297.270203,68.230675 297.270203,66.200943 297.270203,63.855614 
	C255.766571,63.855614 214.632629,63.855614 172.498230,63.855701 
M200.938110,23.271767 
	C200.717819,23.694424 200.497543,24.117081 200.277267,24.539742 
	C200.158981,24.428339 199.950653,24.327517 199.936127,24.203922 
	C199.762466,22.725817 199.617554,21.244331 199.540222,20.493204 
	C198.940491,22.780769 195.893265,25.950596 199.895798,28.477097 
	C202.028625,28.001379 203.850372,27.595049 205.935669,27.129932 
	C205.267975,24.430178 204.592621,21.699450 203.917267,18.968723 
	C203.464844,18.928974 203.012421,18.889227 202.560013,18.849478 
	C202.053253,20.070927 201.546509,21.292376 200.938110,23.271767 
M179.789825,21.793060 
	C180.404663,21.596426 181.019501,21.399792 182.907379,20.796015 
	C180.075851,19.912668 178.589035,19.448826 177.102203,18.984985 
	C177.019424,19.233313 176.936661,19.481640 176.853882,19.729967 
	C177.631378,20.323290 178.408890,20.916615 179.789825,21.793060 
M191.010971,25.915987 
	C191.338867,26.709318 191.666763,27.502649 191.994644,28.295980 
	C192.142181,28.241695 192.289703,28.187412 192.437241,28.133127 
	C192.217575,25.762730 191.997925,23.392332 191.778259,21.021936 
	C191.586990,21.021923 191.395706,21.021912 191.204437,21.021900 
	C191.138336,22.401640 191.072250,23.781382 191.010971,25.915987 
M160.054657,26.641777 
	C160.342819,27.201492 160.630997,27.761206 160.919174,28.320919 
	C161.106812,28.273670 161.294434,28.226423 161.482071,28.179174 
	C161.224136,25.783207 160.966202,23.387241 160.708282,20.991276 
	C160.475708,20.999371 160.243149,21.007467 160.010574,21.015562 
	C160.010574,22.644278 160.010574,24.272993 160.054657,26.641777 
M272.638153,21.560881 
	C273.007202,21.119516 273.376251,20.678150 273.745270,20.236780 
	C273.291016,19.945656 272.836731,19.654531 272.382477,19.363409 
	C272.322754,19.930756 272.263031,20.498104 272.638153,21.560881 
M275.818542,19.714479 
	C275.971222,19.621511 276.123871,19.528542 276.276550,19.435568 
	C276.057220,19.449839 275.837891,19.464109 275.818542,19.714479 
M278.796143,18.773664 
	C278.964905,18.657299 279.133667,18.540934 279.302429,18.424562 
	C279.062256,18.448990 278.822113,18.473415 278.796143,18.773664 
M200.522049,39.638741 
	C200.468719,39.845222 200.415390,40.051708 200.362061,40.258194 
	C200.491684,40.125935 200.621323,39.993671 200.522049,39.638741 
M200.748566,48.824272 
	C200.582626,48.879108 200.416687,48.933945 200.250748,48.988781 
	C200.417770,49.043022 200.584808,49.097263 200.748566,48.824272 
M192.481766,18.607359 
	C192.481766,18.607359 192.411148,18.488636 192.481766,18.607359 
M161.518250,18.414478 
	C161.518250,18.414478 161.587540,18.533941 161.518250,18.414478 
z"/>
<path fill="#61757F" opacity="1.000000" stroke="none" 
	d="
M55.053932,22.868937 
	C55.495300,20.062550 56.084888,17.269197 56.333191,14.445831 
	C56.548763,11.994598 56.378040,9.509393 56.378040,6.267322 
	C59.750072,6.267322 62.746559,5.890695 65.566406,6.432848 
	C66.893211,6.687944 68.332466,8.515570 68.952080,9.960284 
	C75.704262,25.703878 82.299927,41.514576 88.952164,57.301113 
	C89.577217,58.784431 90.297493,60.227619 91.292740,62.379589 
	C98.297371,45.690578 104.959831,29.781885 111.652138,13.885756 
	C115.342224,5.120766 115.364822,5.130281 125.598923,6.831617 
	C125.598923,28.010841 125.598923,49.240242 125.598923,70.742447 
	C123.178131,70.742447 120.930092,70.742447 118.301620,70.742447 
	C118.301620,53.700558 118.301620,36.762695 118.301620,19.824831 
	C118.030174,19.741528 117.758736,19.658224 117.487289,19.574921 
	C116.928932,20.609385 116.285110,21.607328 115.825111,22.683825 
	C109.485390,37.519867 103.093338,52.334549 96.917198,67.238617 
	C95.711952,70.147087 94.171059,71.087944 91.035652,71.154182 
	C87.707047,71.224503 86.437592,69.782845 85.292747,67.040504 
	C79.333748,52.766357 73.220238,38.556675 67.147041,24.330303 
	C66.461670,22.724821 65.691521,21.155531 64.172546,19.752665 
	C64.172546,36.613781 64.172546,53.474895 64.172546,70.673035 
	C61.549408,70.673035 59.308594,70.673035 56.378117,70.673035 
	C56.378117,65.116173 56.446007,59.506588 56.361988,53.899284 
	C56.240150,45.767765 56.008560,37.637894 55.416080,28.870182 
	C55.023560,26.445011 55.038746,24.656975 55.053932,22.868937 
z"/>
<path fill="#5F737E" opacity="1.000000" stroke="none" 
	d="
M172.998459,63.855659 
	C214.632629,63.855614 255.766571,63.855614 297.270203,63.855614 
	C297.270203,66.200943 297.270203,68.230675 297.270203,70.635094 
	C240.719254,70.635094 184.509033,70.635094 128.121429,70.635094 
	C128.121429,49.250061 128.121429,28.023144 128.121429,6.530960 
	C130.483276,6.530960 132.557205,6.530960 135.179413,6.530960 
	C135.179413,25.677151 135.179413,44.579285 135.179413,63.855701 
	C147.981155,63.855701 160.239685,63.855701 172.998459,63.855659 
z"/>
<path fill="#5E727D" opacity="1.000000" stroke="none" 
	d="
M55.087837,22.493685 
	C55.038746,24.656975 55.023560,26.445011 55.030197,28.680023 
	C53.728912,37.904068 46.834522,44.256664 36.680363,44.997898 
	C29.095619,45.551571 21.438009,45.107094 13.362355,45.107094 
	C13.362355,54.063129 13.362355,62.142685 13.362355,70.611664 
	C10.731820,70.611664 8.549089,70.611664 6.091424,70.611664 
	C6.091424,49.319141 6.091424,28.113226 6.091424,5.819685 
	C17.514286,6.331400 28.826170,6.110962 39.913387,7.582848 
	C47.691395,8.615419 53.416328,13.748672 55.087837,22.493685 
M47.966721,24.788015 
	C47.023331,18.546137 43.132599,14.695244 37.197166,13.994927 
	C29.376652,13.072194 21.436625,13.162395 13.101171,12.797539 
	C13.101171,17.853224 13.101171,21.979479 13.101171,26.105736 
	C13.101171,30.184616 13.101171,34.263496 13.101171,38.086239 
	C21.492413,38.086239 29.146343,38.621124 36.688107,37.930725 
	C43.752926,37.283993 47.341000,32.688370 47.966721,24.788015 
z"/>
<path fill="#E0E4E6" opacity="1.000000" stroke="none" 
	d="
M251.140869,19.118282 
	C252.010193,19.311327 252.879517,19.504372 254.525803,19.869947 
	C254.744980,20.998936 256.851501,23.450747 252.378021,24.529211 
	C251.437347,24.755995 250.995621,27.052420 250.158279,28.726452 
	C248.226578,28.726452 245.991882,28.726452 243.304184,28.726452 
	C243.146530,26.078735 243.003021,23.668591 242.859512,21.258446 
	C242.637054,21.248913 242.414581,21.239382 242.192108,21.229849 
	C242.192108,23.420416 242.192108,25.610983 242.192108,27.801550 
	C241.795151,27.814030 241.398178,27.826511 241.001221,27.838991 
	C241.001221,26.360750 241.187393,24.851568 240.948303,23.413063 
	C240.714249,22.004816 240.046921,20.668577 239.330643,18.615162 
	C242.725403,18.615162 246.489212,18.615162 250.636932,18.812864 
	C251.020828,19.010567 251.140869,19.118282 251.140869,19.118282 
z"/>
<path fill="#85949C" opacity="1.000000" stroke="none" 
	d="
M200.988922,22.892796 
	C201.546509,21.292376 202.053253,20.070927 202.560013,18.849478 
	C203.012421,18.889227 203.464844,18.928974 203.917267,18.968723 
	C204.592621,21.699450 205.267975,24.430178 205.935669,27.129932 
	C203.850372,27.595049 202.028625,28.001379 199.895798,28.477097 
	C195.893265,25.950596 198.940491,22.780769 199.540222,20.493204 
	C199.617554,21.244331 199.762466,22.725817 199.936127,24.203922 
	C199.950653,24.327517 200.158981,24.428339 200.277267,24.539740 
	C200.497543,24.117081 200.717819,23.694424 200.988922,22.892796 
z"/>
<path fill="#A0ACB3" opacity="1.000000" stroke="none" 
	d="
M268.885468,25.113831 
	C267.536316,25.278660 266.187164,25.443489 264.405792,25.661125 
	C264.108093,26.346388 263.590302,27.538301 263.072479,28.730215 
	C262.816559,28.678717 262.560608,28.627216 262.304688,28.575718 
	C262.304688,25.316988 262.304688,22.058258 262.304688,19.082466 
	C264.362915,19.630604 266.337158,20.156370 268.629944,21.202065 
	C268.927490,22.852604 268.906494,23.983215 268.885468,25.113831 
z"/>
<path fill="#5C707B" opacity="1.000000" stroke="none" 
	d="
M195.802689,40.021179 
	C196.378021,40.034195 196.953369,40.047207 197.528702,40.060223 
	C197.378723,42.424046 197.228745,44.787865 197.125122,47.816284 
	C197.171463,48.480885 197.520096,48.822681 197.520096,48.822681 
	C197.520096,48.822681 198.003098,48.751190 198.003098,48.751190 
	C197.792755,49.160381 197.582397,49.569572 197.372040,49.978760 
	C196.826904,49.009434 196.281754,48.040108 195.780060,46.492886 
	C195.816574,43.950382 195.809631,41.985783 195.802689,40.021179 
z"/>
<path fill="#5C707B" opacity="1.000000" stroke="none" 
	d="
M151.166931,18.078560 
	C151.563934,21.521246 151.960938,24.963930 152.357956,28.406616 
	C151.994751,28.439777 151.631546,28.472939 151.268326,28.506100 
	C151.146423,27.279934 151.024521,26.053768 150.926025,24.005491 
	C151.021942,21.481773 151.094437,19.780167 151.166931,18.078560 
z"/>
<path fill="#E0E4E6" opacity="1.000000" stroke="none" 
	d="
M149.013687,23.923317 
	C148.103287,25.301994 147.192886,26.680674 146.282486,28.059353 
	C145.971497,27.927095 145.660492,27.794838 145.349503,27.662582 
	C146.185684,25.807465 147.021866,23.952347 148.321198,22.343147 
	C148.860794,23.033817 148.937241,23.478569 149.013687,23.923317 
z"/>
<path fill="#F6F7F7" opacity="1.000000" stroke="none" 
	d="
M179.488113,21.651499 
	C178.408890,20.916615 177.631378,20.323290 176.853882,19.729967 
	C176.936661,19.481640 177.019424,19.233313 177.102203,18.984985 
	C178.589035,19.448826 180.075851,19.912668 182.907379,20.796015 
	C181.019501,21.399792 180.404663,21.596426 179.488113,21.651499 
z"/>
<path fill="#E0E4E6" opacity="1.000000" stroke="none" 
	d="
M191.008560,25.538555 
	C191.072250,23.781382 191.138336,22.401640 191.204437,21.021900 
	C191.395706,21.021912 191.586990,21.021923 191.778259,21.021936 
	C191.997925,23.392332 192.217575,25.762730 192.437241,28.133127 
	C192.289703,28.187412 192.142181,28.241695 191.994644,28.295980 
	C191.666763,27.502649 191.338867,26.709318 191.008560,25.538555 
z"/>
<path fill="#E0E4E6" opacity="1.000000" stroke="none" 
	d="
M160.032623,26.271744 
	C160.010574,24.272993 160.010574,22.644278 160.010574,21.015562 
	C160.243149,21.007467 160.475708,20.999371 160.708282,20.991276 
	C160.966202,23.387241 161.224136,25.783207 161.482071,28.179174 
	C161.294434,28.226423 161.106812,28.273670 160.919174,28.320919 
	C160.630997,27.761206 160.342819,27.201492 160.032623,26.271744 
z"/>
<path fill="#5F737E" opacity="1.000000" stroke="none" 
	d="
M268.934082,25.420956 
	C268.906494,23.983215 268.927490,22.852604 268.910889,21.299187 
	C269.007507,20.434656 269.141724,19.992931 269.275940,19.551205 
	C269.518097,19.542566 269.760254,19.533926 270.002411,19.525288 
	C270.002411,21.733656 270.002411,23.942026 269.779114,26.576473 
	C269.555786,27.002552 269.112579,26.963488 269.112610,26.963486 
	C269.069305,26.551685 269.026001,26.139885 268.934082,25.420956 
z"/>
<path fill="#EAEDEE" opacity="1.000000" stroke="none" 
	d="
M150.890900,18.069035 
	C151.094437,19.780167 151.021942,21.481773 150.867157,23.602047 
	C150.610062,23.998573 150.435257,23.976429 150.085602,23.525112 
	C149.938400,22.073492 149.966064,21.051041 149.993729,20.028591 
	C150.200775,19.372231 150.407822,18.715868 150.890900,18.069035 
z"/>
<path fill="#EAEDEE" opacity="1.000000" stroke="none" 
	d="
M195.538391,40.330975 
	C195.809631,41.985783 195.816574,43.950382 195.556198,46.246696 
	C195.283951,44.599194 195.279037,42.619984 195.538391,40.330975 
z"/>
<path fill="#99A6AD" opacity="1.000000" stroke="none" 
	d="
M271.912048,27.637865 
	C272.259277,26.793762 272.606506,25.949657 272.953735,25.105555 
	C273.281494,25.241550 273.609283,25.377546 273.937042,25.513542 
	C273.489990,26.569481 273.042938,27.625422 272.281189,28.479408 
	C271.948395,28.064257 271.930237,27.851061 271.912048,27.637865 
z"/>
<path fill="#85949C" opacity="1.000000" stroke="none" 
	d="
M271.652832,27.669338 
	C271.930237,27.851061 271.948395,28.064257 271.973297,28.598286 
	C271.019562,28.498312 270.059082,28.077507 269.105591,27.310095 
	C269.112579,26.963488 269.555786,27.002552 269.778259,27.001236 
	C270.464996,27.233553 270.929291,27.467182 271.652832,27.669338 
z"/>
<path fill="#B4BDC2" opacity="1.000000" stroke="none" 
	d="
M272.420715,21.313168 
	C272.263031,20.498104 272.322754,19.930756 272.382477,19.363407 
	C272.836731,19.654531 273.291016,19.945656 273.745270,20.236782 
	C273.376251,20.678150 273.007202,21.119516 272.420715,21.313168 
z"/>
<path fill="#85949C" opacity="1.000000" stroke="none" 
	d="
M149.664597,20.094196 
	C149.966064,21.051041 149.938400,22.073492 149.826935,23.470768 
	C149.743149,23.845594 149.374710,23.850622 149.194199,23.886971 
	C148.937241,23.478569 148.860794,23.033817 148.668671,22.269506 
	C148.813812,21.353230 149.074646,20.756516 149.664597,20.094196 
z"/>
<path fill="#B4BDC2" opacity="1.000000" stroke="none" 
	d="
M275.718567,19.596430 
	C275.837891,19.464109 276.057220,19.449839 276.276550,19.435570 
	C276.123871,19.528542 275.971222,19.621511 275.718567,19.596430 
z"/>
<path fill="#B4BDC2" opacity="1.000000" stroke="none" 
	d="
M278.689026,18.635754 
	C278.822113,18.473415 279.062256,18.448990 279.302429,18.424564 
	C279.133667,18.540934 278.964905,18.657299 278.689026,18.635754 
z"/>
<path fill="#E8EBEC" opacity="1.000000" stroke="none" 
	d="
M200.636505,39.750076 
	C200.621323,39.993671 200.491684,40.125935 200.362061,40.258194 
	C200.415390,40.051708 200.468719,39.845222 200.636505,39.750076 
z"/>
<path fill="#E8EBEC" opacity="1.000000" stroke="none" 
	d="
M200.750198,48.987888 
	C200.584808,49.097263 200.417770,49.043022 200.250748,48.988781 
	C200.416687,48.933945 200.582626,48.879108 200.750198,48.987888 
z"/>
<path fill="#E0E4E6" opacity="1.000000" stroke="none" 
	d="
M250.965546,18.951843 
	C251.074844,18.906151 251.239426,18.919184 251.272430,19.025249 
	C251.140869,19.118282 251.020828,19.010567 250.965546,18.951843 
z"/>
<path fill="#E0E4E6" opacity="1.000000" stroke="none" 
	d="
M192.446457,18.547997 
	C192.411148,18.488636 192.481766,18.607359 192.446457,18.547997 
z"/>
<path fill="#E0E4E6" opacity="1.000000" stroke="none" 
	d="
M161.552887,18.474209 
	C161.587540,18.533941 161.518250,18.414478 161.552887,18.474209 
z"/>
<path fill="#99A6AD" opacity="1.000000" stroke="none" 
	d="
M205.660690,41.352783 
	C205.528214,40.957859 205.395752,40.562935 205.263290,40.168007 
	C205.527771,40.153763 205.792236,40.139523 206.047638,40.547707 
	C205.912598,41.097687 205.786636,41.225235 205.660690,41.352783 
z"/>
<path fill="#99A6AD" opacity="1.000000" stroke="none" 
	d="
M206.233078,40.784454 
	C206.291382,40.967506 206.155182,41.336235 205.839844,41.528873 
	C205.786636,41.225235 205.912598,41.097687 206.233078,40.784454 
z"/>
<path fill="#85949C" opacity="1.000000" stroke="none" 
	d="
M203.557922,44.469276 
	C203.446777,44.062374 203.335632,43.655476 203.224487,43.248573 
	C203.473038,43.241974 203.721558,43.235371 203.938660,43.664047 
	C203.790787,44.222641 203.674362,44.345955 203.557922,44.469276 
z"/>
<path fill="#85949C" opacity="1.000000" stroke="none" 
	d="
M204.087189,43.919502 
	C204.453094,44.101116 204.639038,44.462547 204.824997,44.823982 
	C204.545502,44.850769 204.266006,44.877560 203.772217,44.686810 
	C203.674362,44.345955 203.790787,44.222641 204.087189,43.919502 
z"/>
<path fill="#E8EBEC" opacity="1.000000" stroke="none" 
	d="
M197.915085,48.585091 
	C198.003098,48.751190 197.520096,48.822681 197.520096,48.822681 
	C197.520096,48.822681 197.171463,48.480885 197.194016,48.237717 
	C197.462402,48.075146 197.665909,48.216625 197.915085,48.585091 
z"/>
<path fill="#FBFCFC" opacity="1.000000" stroke="none" 
	d="
M47.983658,25.191669 
	C47.341000,32.688370 43.752926,37.283993 36.688107,37.930725 
	C29.146343,38.621124 21.492413,38.086239 13.101171,38.086239 
	C13.101171,34.263496 13.101171,30.184616 13.101171,26.105736 
	C13.101171,21.979479 13.101171,17.853224 13.101171,12.797539 
	C21.436625,13.162395 29.376652,13.072194 37.197166,13.994927 
	C43.132599,14.695244 47.023331,18.546137 47.983658,25.191669 
z"/>
</svg>