<?xml version="1.0" encoding="UTF-8"?>
<svg id="Layer_2" data-name="Layer 2" xmlns="http://www.w3.org/2000/svg" viewBox="0 0 533.57 331.27">
  <defs>
    <style>
      .cls-1 {
      fill: #f49e14;
      }

      .cls-2 {
      fill: #f7b14b;
      }

      .cls-3 {
      fill: #f7a848;
      }

      .cls-4 {
      fill: #f980a0;
      }

      .cls-5, .cls-6 {
      fill: #fc4278;
      }

      .cls-7 {
      fill: #66939e;
      }

      .cls-8 {
      fill: #000201;
      }

      .cls-9, .cls-10 {
      fill: #efa500;
      }

      .cls-11, .cls-12 {
      fill: #e89176;
      }

      .cls-13 {
      fill: #f91949;
      }

      .cls-14 {
      fill: #fdc6a2;
      }

      .cls-15 {
      fill: #fcdaca;
      }

      .cls-16 {
      fill: #fcdc3f;
      }

      .cls-17 {
      fill: #e59328;
      }

      .cls-18 {
      fill: #e4d0fc;
      }

      .cls-19 {
      fill: #ef7776;
      }

      .cls-20 {
      fill: #fff;
      }

      .cls-21 {
      fill: #fff0b3;
      }

      .cls-22 {
      fill: #fff6f3;
      }

      .cls-23 {
      fill: #fff3e1;
      }

      .cls-24 {
      fill: #ffe7d9;
      }

      .cls-25 {
      fill: #fc8;
      }

      .cls-26 {
      fill: #ffcc6f;
      }

      .cls-27 {
      fill: #ffce45;
      }

      .cls-28 {
      fill: #ffd097;
      }

      .cls-29 {
      fill: #fcf6db;
      }

      .cls-30 {
      fill: #fdfeff;
      }

      .cls-31 {
      fill: #bce5f7;
      }

      .cls-32 {
      fill: #a5f9b3;
      }

      .cls-33 {
      fill: #b275f9;
      }

      .cls-34 {
      fill: #c0dbe2;
      }

      .cls-35 {
      fill: #d88205;
      }

      .cls-36 {
      fill: #d17e1c;
      }

      .cls-37 {
      fill: #cd4e66;
      }

      .cls-38 {
      fill: #dbefff;
      }

      .cls-39 {
      fill: #d6adff;
      }

      .cls-40 {
      fill: #d69a87;
      }

      .cls-41 {
      fill: #04b29d;
      }

      .cls-42 {
      fill: #181828;
      }

      .cls-43 {
      fill: #93b4be;
      }

      .cls-44 {
      fill: #94ddff;
      }

      .cls-45 {
      fill: #6bc1b9;
      }

      .cls-46 {
      fill: #639de7;
      }

      .cls-47 {
      fill: #5ccce8;
      }

      .cls-48 {
      fill: #255e7a;
      }

      .cls-10 {
      opacity: .51;
      }

      .cls-10, .cls-12 {
      isolation: isolate;
      }

      .cls-12 {
      opacity: .62;
      }

      .cls-49 {
      opacity: .35;
      }

      .cls-6 {
      opacity: .41;
      }
    </style>
  </defs>
  <g id="Layer_1-2" data-name="Layer 1">
    <g>
      <g class="cls-49">
        <g>
          <g>
            <polygon class="cls-31"
              points="166.43 207.62 113.93 207.62 121.92 148.89 158.43 148.89 166.43 207.62" />
            <rect class="cls-20" x="124.14" y="150.82" width="27.93" height="6.97" rx="3.48"
              ry="3.48" />
            <path class="cls-42"
              d="M161.55,172.93c-.54,0-1-.4-1.08-.94l-1.98-14.46c-.08-.6,.34-1.15,.93-1.23,.6-.08,1.15,.34,1.23,.93l1.98,14.46c.08,.6-.34,1.15-.93,1.23-.05,0-.1,0-.15,0Z" />
            <path class="cls-42"
              d="M166.43,208.46h-56.66c-.32,0-.62-.14-.82-.37-.21-.24-.3-.55-.26-.87l8.62-62.92c.07-.54,.54-.94,1.08-.94h39.4c.54,0,1.01,.4,1.08,.94l1.19,8.68c.08,.6-.34,1.15-.93,1.23-.61,.08-1.15-.34-1.23-.93l-1.06-7.74h-37.5l-8.33,60.73h54.15l-4.05-29.52c-.08-.6,.34-1.15,.93-1.23,.61-.09,1.15,.34,1.23,.93l4.22,30.76c.04,.31-.05,.63-.26,.87-.21,.24-.51,.37-.82,.37Z" />
            <path class="cls-42"
              d="M148.58,158.65h-20.96c-2.4,0-4.35-1.95-4.35-4.35s1.95-4.35,4.35-4.35h20.96c2.4,0,4.35,1.95,4.35,4.35s-1.95,4.35-4.35,4.35Zm-20.96-6.97c-1.45,0-2.62,1.18-2.62,2.62s1.18,2.62,2.62,2.62h20.96c1.45,0,2.62-1.18,2.62-2.62s-1.18-2.62-2.62-2.62h-20.96Z" />
          </g>
          <g>
            <path class="cls-42"
              d="M121.41,194.37l3.08-2.46c.23-.19,.21-.61,0-.8-.25-.23-.56-.2-.8,0l-3.08,2.46c-.23,.19-.21,.61,0,.8,.25,.23,.56,.2,.8,0h0Z" />
            <path class="cls-42"
              d="M121.43,197.71c1.04-.88,2.07-1.77,3.11-2.65,.23-.19,.21-.61,0-.8-.24-.22-.56-.21-.8,0-1.04,.88-2.07,1.77-3.11,2.65-.23,.19-.21,.61,0,.8,.24,.22,.56,.21,.8,0h0Z" />
          </g>
        </g>
        <g>
          <rect class="cls-26" x="42.32" y="70.89" width="65.66" height="55.64" />
          <rect class="cls-23" x="42.01" y="70.38" width="66.49" height="3.65" />
          <rect class="cls-23" x="42.01" y="71.33" width="3.97" height="51.64" />
          <polyline class="cls-13"
            points="80.3 70.77 80.3 89.89 71.7 81.28 72.56 81.28 63.95 89.89 63.95 70.77" />
          <g>
            <polygon class="cls-42"
              points="63.37 91.14 63.37 70.38 64.73 70.38 64.73 87.87 72.18 80.42 73.13 81.38 63.37 91.14" />
            <polygon class="cls-42"
              points="81.07 91.14 71.32 81.38 72.27 80.42 79.72 87.87 79.72 70.38 81.07 70.38 81.07 91.14" />
          </g>
          <path class="cls-1"
            d="M107.51,94.81v31.66H49.13c7.58-.87,9.36-1.06,16.64-3.41,10.35-3.35,15.57-5.56,24.76-11.38,5.79-3.66,12.44-11.75,16.97-16.88Z" />
          <path class="cls-42"
            d="M107.99,127.23H42.32c-.7,0-1.26-.57-1.26-1.26v-55.64c0-.7,.57-1.26,1.26-1.26H107.99c.7,0,1.26,.57,1.26,1.26v8.19c0,.7-.57,1.26-1.26,1.26s-1.26-.57-1.26-1.26v-6.93H43.59v53.11h63.13v-41.31c0-.7,.57-1.26,1.26-1.26s1.26,.57,1.26,1.26v42.58c0,.7-.57,1.26-1.26,1.26Z" />
          <g>
            <g>
              <rect class="cls-20" x="81.04" y="112.86" width="8.8" height="8.22" />
              <rect class="cls-20" x="93.85" y="112.86" width="8.8" height="8.22" />
            </g>
            <g>
              <path class="cls-42"
                d="M89.83,121.76h-8.8c-.37,0-.68-.3-.68-.68v-8.22c0-.37,.3-.68,.68-.68h8.8c.37,0,.68,.3,.68,.68v8.22c0,.37-.3,.68-.68,.68Zm-8.12-1.35h7.44v-6.87h-7.44v6.87Z" />
              <path class="cls-42"
                d="M102.64,121.76h-8.8c-.37,0-.68-.3-.68-.68v-8.22c0-.37,.3-.68,.68-.68h8.8c.37,0,.68,.3,.68,.68v8.22c0,.37-.3,.68-.68,.68Zm-8.12-1.35h7.44v-6.87h-7.44v6.87Z" />
            </g>
          </g>
          <g>
            <path class="cls-42"
              d="M58.32,108.16h-10.33c-.37,0-.68-.3-.68-.68s.3-.68,.68-.68h10.33c.37,0,.68,.3,.68,.68s-.3,.68-.68,.68Z" />
            <path class="cls-42"
              d="M53.86,111.6h-5.86c-.37,0-.68-.3-.68-.68s.3-.68,.68-.68h5.86c.37,0,.68,.3,.68,.68s-.3,.68-.68,.68Z" />
            <path class="cls-42"
              d="M53.86,115.04h-5.86c-.37,0-.68-.3-.68-.68s.3-.68,.68-.68h5.86c.37,0,.68,.3,.68,.68s-.3,.68-.68,.68Z" />
          </g>
        </g>
        <g>
          <rect class="cls-4" x="115.42" y="89.6" width="65.66" height="37.9" />
          <path class="cls-42"
            d="M181.08,128.2H115.42c-.7,0-1.26-.57-1.26-1.26v-37.9c0-.7,.57-1.26,1.26-1.26h65.66c.7,0,1.26,.57,1.26,1.26v8.19c0,.7-.57,1.26-1.26,1.26s-1.26-.57-1.26-1.26v-6.92h-63.13v35.38h63.13v-23.57c0-.7,.57-1.26,1.26-1.26s1.26,.57,1.26,1.26v24.84c0,.7-.57,1.26-1.26,1.26Z" />
          <g>
            <g>
              <rect class="cls-20" x="154.13" y="113.84" width="8.8" height="8.22" />
              <rect class="cls-20" x="166.94" y="113.84" width="8.8" height="8.22" />
            </g>
            <g>
              <path class="cls-42"
                d="M162.92,122.74h-8.79c-.37,0-.68-.3-.68-.68v-8.22c0-.37,.3-.68,.68-.68h8.79c.37,0,.68,.3,.68,.68v8.22c0,.37-.3,.68-.68,.68Zm-8.12-1.35h7.44v-6.87h-7.44v6.87Z" />
              <path class="cls-42"
                d="M175.73,122.74h-8.8c-.37,0-.68-.3-.68-.68v-8.22c0-.37,.3-.68,.68-.68h8.8c.37,0,.68,.3,.68,.68v8.22c0,.37-.3,.68-.68,.68Zm-8.12-1.35h7.44v-6.87h-7.44v6.87Z" />
            </g>
          </g>
          <g>
            <path class="cls-42"
              d="M132.26,95.72h-10.33c-.37,0-.68-.3-.68-.68s.3-.68,.68-.68h10.33c.37,0,.68,.3,.68,.68s-.3,.68-.68,.68Z" />
            <path class="cls-42"
              d="M127.8,99.16h-5.86c-.37,0-.68-.3-.68-.68s.3-.68,.68-.68h5.86c.37,0,.68,.3,.68,.68s-.3,.68-.68,.68Z" />
            <path class="cls-42"
              d="M127.8,102.6h-5.86c-.37,0-.68-.3-.68-.68s.3-.68,.68-.68h5.86c.37,0,.68,.3,.68,.68s-.3,.68-.68,.68Z" />
          </g>
        </g>
        <rect class="cls-26" x="101.56" y="50.35" width="10.57" height="159.73" rx="5.28" ry="5.28"
          transform="translate(237.07 23.37) rotate(90)" />
        <rect class="cls-1" x="104.21" y="47.71" width="5.28" height="159.73"
          transform="translate(234.43 20.73) rotate(90)" />
        <path class="cls-42"
          d="M181.43,136.77H82.34c-.7,0-1.26-.57-1.26-1.26s.57-1.26,1.26-1.26h99.09c2.22,0,4.02-1.8,4.02-4.02s-1.8-4.02-4.02-4.02H32.27c-2.22,0-4.02,1.8-4.02,4.02s1.8,4.02,4.02,4.02h39.53c.7,0,1.26,.57,1.26,1.26s-.57,1.26-1.26,1.26H32.27c-3.61,0-6.55-2.94-6.55-6.55s2.94-6.55,6.55-6.55H181.43c3.61,0,6.55,2.94,6.55,6.55s-2.94,6.55-6.55,6.55Z" />
        <rect class="cls-26" x="101.56" y="128.51" width="10.57" height="159.73" rx="5.28" ry="5.28"
          transform="translate(315.23 101.53) rotate(90)" />
        <path class="cls-42"
          d="M181.43,214.93H32.27c-3.61,0-6.55-2.94-6.55-6.55s2.94-6.55,6.55-6.55h20.89c.7,0,1.26,.57,1.26,1.26s-.57,1.26-1.26,1.26h-20.89c-2.22,0-4.02,1.8-4.02,4.02s1.8,4.02,4.02,4.02H181.43c2.22,0,4.02-1.8,4.02-4.02s-1.8-4.02-4.02-4.02H63.53c-.7,0-1.26-.57-1.26-1.26s.57-1.26,1.26-1.26h117.9c3.61,0,6.55,2.94,6.55,6.55s-2.94,6.55-6.55,6.55Z" />
        <path class="cls-26"
          d="M27.1,43.91h0c3.85,0,6.97,3.12,6.97,6.97V318.12h-13.95V50.88c0-3.85,3.12-6.97,6.97-6.97Z" />
        <path class="cls-26"
          d="M183.92,43.91h0c3.85,0,6.97,3.12,6.97,6.97V318.12h-13.95V50.88c0-3.85,3.12-6.97,6.97-6.97Z" />
        <path class="cls-42"
          d="M190.89,312.14h-13.95c-.7,0-1.26-.57-1.26-1.26V71.33c0-.7,.57-1.26,1.26-1.26s1.26,.57,1.26,1.26v238.28h11.42V140.55c0-.7,.57-1.26,1.26-1.26s1.26,.57,1.26,1.26v170.33c0,.7-.57,1.26-1.26,1.26Z" />
        <path class="cls-42"
          d="M190.89,131.49c-.7,0-1.26-.57-1.26-1.26V43.64c0-3.15-2.56-5.71-5.71-5.71s-5.71,2.56-5.71,5.71v17.89c0,.7-.57,1.26-1.26,1.26s-1.26-.57-1.26-1.26v-17.89c0-4.54,3.7-8.24,8.24-8.24s8.24,3.7,8.24,8.24v86.58c0,.7-.57,1.26-1.26,1.26Z" />
        <rect class="cls-23" x="21.76" y="56.76" width="6.68" height="69.67" rx="3.34" ry="3.34" />
        <rect class="cls-23" x="20.52" y="145.99" width="6.68" height="28.73" rx="3.34" ry="3.34" />
        <path class="cls-42"
          d="M34.07,312.14h-13.95c-.7,0-1.26-.57-1.26-1.26V142.28c0-.7,.57-1.26,1.26-1.26s1.26,.57,1.26,1.26v167.33h11.42V43.64c0-3.15-2.56-5.71-5.71-5.71s-5.71,2.56-5.71,5.71v89.33c0,.7-.57,1.26-1.26,1.26s-1.26-.57-1.26-1.26V43.64c0-4.54,3.7-8.24,8.24-8.24s8.24,3.7,8.24,8.24V310.88c0,.7-.57,1.26-1.26,1.26Z" />
      </g>
      <g class="cls-49">
        <rect class="cls-31" x="401.77" y="150.76" width="5.83" height="60.09" />
        <rect class="cls-31" x="444.4" y="150.76" width="5.83" height="60.09" />
        <rect class="cls-31" x="404.31" y="151.41" width="44.05" height="6.21" />
        <ellipse class="cls-5" cx="419" cy="179.65" rx="4.66" ry="4.58" />
        <rect class="cls-32" x="423.23" y="157.34" width="14.68" height="6.57" />
        <path class="cls-42"
          d="M450.71,212.11h-48.94c-.7,0-1.26-.57-1.26-1.26v-60.09c0-.7,.57-1.26,1.26-1.26h48.94c.7,0,1.26,.57,1.26,1.26v8.84c0,.7-.57,1.26-1.26,1.26s-1.26-.57-1.26-1.26v-7.58h-46.41v57.56h46.41v-41.71c0-.7,.57-1.26,1.26-1.26s1.26,.57,1.26,1.26v42.98c0,.7-.57,1.26-1.26,1.26Z" />
        <path class="cls-42"
          d="M444.88,205.49h-37.27c-.45,0-.81-.36-.81-.81v-47.77c0-.45,.36-.81,.81-.81h37.27c.45,0,.81,.36,.81,.81v7.03c0,.45-.36,.81-.81,.81s-.81-.36-.81-.81v-6.22h-35.66v46.16h35.66v-35.75c0-.45,.36-.81,.81-.81s.81,.36,.81,.81v36.55c0,.45-.36,.81-.81,.81Z" />
        <circle class="cls-42" cx="425" cy="135.25" r="2.44" />
        <path class="cls-42"
          d="M415.51,150.79c-.09,0-.18-.02-.26-.08-.23-.15-.31-.45-.16-.69l9.69-15.53c.15-.24,.46-.3,.69-.16,.23,.15,.31,.45,.16,.69l-9.69,15.53c-.09,.15-.26,.24-.42,.24Z" />
        <path class="cls-42"
          d="M434.52,150.79c-.17,0-.33-.08-.42-.24l-9.69-15.53c-.15-.23-.08-.54,.16-.69,.23-.15,.54-.08,.69,.16l9.69,15.53c.15,.23,.08,.54-.16,.69-.08,.05-.17,.08-.26,.08Z" />
        <g>
          <path class="cls-42"
            d="M411.65,170.55c-.12,0-.23-.04-.33-.12-.21-.18-.23-.5-.05-.71l5.93-6.78c.18-.21,.5-.23,.71-.05,.21,.18,.23,.5,.05,.71l-5.93,6.78c-.1,.11-.24,.17-.38,.17Z" />
          <path class="cls-42"
            d="M413.77,172.67c-.12,0-.23-.04-.33-.12-.21-.18-.23-.5-.05-.71l5.93-6.78c.18-.21,.5-.23,.71-.05,.21,.18,.23,.5,.05,.71l-5.93,6.78c-.1,.11-.24,.17-.38,.17Z" />
        </g>
        <path class="cls-42"
          d="M444.69,190.88c-.15,0-.3-.07-.4-.2l-14.12-18.92c-.17-.22-.12-.53,.1-.7,.22-.17,.53-.12,.7,.1l14.12,18.92c.17,.22,.12,.53-.1,.7-.09,.07-.19,.1-.3,.1Z" />
        <path class="cls-42"
          d="M437.91,164.33h-14.68c-.19,0-.35-.16-.35-.35v-7.2c0-.19,.16-.35,.35-.35h14.68c.19,0,.35,.16,.35,.35v7.2c0,.19-.16,.35-.35,.35Zm-14.33-.7h13.98v-6.5h-13.98v6.5Z" />
        <path class="cls-42"
          d="M419,184.8c-2.76,0-5.01-2.25-5.01-5.01s2.25-5.01,5.01-5.01,5.01,2.25,5.01,5.01-2.25,5.01-5.01,5.01Zm0-9.32c-2.38,0-4.31,1.93-4.31,4.31s1.93,4.31,4.31,4.31,4.31-1.93,4.31-4.31-1.93-4.31-4.31-4.31Z" />
        <rect class="cls-31" x="374.3" y="61.02" width="68.42" height="5.77" />
        <rect class="cls-31" x="374.3" y="113.53" width="68.42" height="5.77" />
        <g>
          <rect class="cls-31" x="373.73" y="60.29" width="5.93" height="59.86" />
          <rect class="cls-31" x="438.11" y="60.29" width="5.93" height="59.86" />
        </g>
        <ellipse class="cls-5" cx="396.32" cy="89.09" rx="4.66" ry="4.58" />
        <rect class="cls-32" x="400.27" y="98.69" width="14.68" height="14.68" />
        <rect class="cls-32" x="400.56" y="66.35" width="14.68" height="6.65" />
        <path class="cls-42"
          d="M443.89,120.9h-8.84c-.7,0-1.26-.57-1.26-1.26s.57-1.26,1.26-1.26h7.58V61.96h-67.56v56.41h54.71c.7,0,1.26,.57,1.26,1.26s-.57,1.26-1.26,1.26h-55.98c-.7,0-1.26-.57-1.26-1.26V60.69c0-.7,.57-1.26,1.26-1.26h70.09c.7,0,1.26,.57,1.26,1.26v58.94c0,.7-.57,1.26-1.26,1.26Z" />
        <path class="cls-42"
          d="M437.74,114.61h-7.03c-.45,0-.81-.36-.81-.81s.36-.81,.81-.81h6.22v-45.66h-56.16v45.66h45.75c.45,0,.81,.36,.81,.81s-.36,.81-.81,.81h-46.55c-.45,0-.81-.36-.81-.81v-47.27c0-.45,.36-.81,.81-.81h57.77c.45,0,.81,.36,.81,.81v47.27c0,.45-.36,.81-.81,.81Z" />
        <g>
          <path class="cls-42"
            d="M389.26,80.04c-.12,0-.24-.04-.33-.12-.2-.18-.22-.5-.04-.7l5.93-6.66c.18-.2,.49-.22,.7-.04,.2,.18,.22,.5,.04,.7l-5.93,6.66c-.1,.11-.23,.17-.37,.17Z" />
          <path class="cls-42"
            d="M391.38,82.12c-.12,0-.24-.04-.33-.12-.2-.18-.22-.5-.04-.7l5.93-6.66c.18-.2,.49-.22,.7-.04,.2,.18,.22,.5,.04,.7l-5.93,6.66c-.1,.11-.23,.17-.37,.17Z" />
        </g>
        <path class="cls-42"
          d="M394.35,109.43c-.16,0-.31-.07-.41-.21l-5.08-7.21c-.16-.22-.1-.53,.12-.69,.22-.16,.53-.11,.69,.12l5.08,7.21c.16,.22,.1,.53-.12,.69-.09,.06-.19,.09-.29,.09Z" />
        <path class="cls-42"
          d="M422.3,100c-.15,0-.3-.07-.39-.2l-14.12-18.58c-.17-.22-.12-.53,.09-.69,.22-.17,.53-.12,.69,.09l14.12,18.58c.17,.22,.12,.53-.09,.69-.09,.07-.2,.1-.3,.1Z" />
        <path class="cls-42"
          d="M414.39,113.87h-14.68c-.27,0-.5-.22-.5-.5v-14.42c0-.27,.22-.5,.5-.5h14.68c.27,0,.5,.22,.5,.5v14.42c0,.27-.22,.5-.5,.5Zm-14.19-.99h13.69v-13.43h-13.69v13.43Z" />
        <path class="cls-42"
          d="M415.52,73.92h-14.68c-.19,0-.35-.16-.35-.35v-7.07c0-.19,.16-.35,.35-.35h14.68c.19,0,.35,.16,.35,.35v7.07c0,.19-.16,.35-.35,.35Zm-14.34-.69h13.99v-6.38h-13.99v6.38Z" />
        <path class="cls-42"
          d="M396.6,94.03c-2.76,0-5-2.21-5-4.92s2.25-4.92,5-4.92,5.01,2.21,5.01,4.92-2.25,4.92-5.01,4.92Zm0-9.15c-2.38,0-4.31,1.9-4.31,4.23s1.93,4.23,4.31,4.23,4.31-1.9,4.31-4.23-1.93-4.23-4.31-4.23Z" />
      </g>
      <g class="cls-49">
        <path class="cls-10"
          d="M263.84,42.62h0c-1.02,0-1.83-.83-1.83-1.84,.01-2.98-.43-5.92-1.32-8.76-.3-.97,.24-1.99,1.2-2.3,.97-.3,1.99,.24,2.3,1.2,1,3.2,1.5,6.52,1.49,9.88,0,1.01-.82,1.83-1.83,1.83h-.02Z" />
        <circle class="cls-16" cx="233.37" cy="40.09" r="32.32" />
        <circle class="cls-38" cx="233.37" cy="40.09" r="24.81" />
        <circle class="cls-8" cx="233.37" cy="40.09" r="4.1" />
        <g>
          <path class="cls-8"
            d="M223.38,32.71h-.06c-.12-.05-.17-.18-.13-.31l1.02-2.53c.05-.12,.18-.17,.3-.13h0c.12,.05,.17,.18,.13,.3l-1.02,2.53c-.04,.09-.13,.15-.24,.13h0Z" />
          <path class="cls-8"
            d="M224.14,34.6h-.06c-.12-.05-.17-.18-.13-.31h0l2.02-5.05c.04-.11,.17-.17,.29-.13h0c.12,.05,.17,.18,.13,.3h0l-2.02,5.05c-.04,.09-.13,.15-.24,.14h.01Z" />
        </g>
        <path class="cls-47"
          d="M242.16,20.97c7.94,3.77,12.86,11.92,12.24,20.74-.55,7.87-5.84,15.06-13.2,17.93-4.99,1.95-10.45,1.89-15.46,.02-1.99-.74-2.86,2.45-.87,3.19,9.39,3.51,20.34,.84,26.92-6.77,6.58-7.62,7.73-17.86,3.54-26.6-2.38-4.95-6.53-8.99-11.48-11.35-1.91-.9-3.59,1.94-1.66,2.85h-.02Z" />
        <g>
          <circle class="cls-8" cx="233.37" cy="20.73" r="1.94" />
          <circle class="cls-8" cx="233.37" cy="58.41" r="1.94" />
        </g>
        <g>
          <circle class="cls-8" cx="252.21" cy="39.57" r="1.94" />
          <circle class="cls-8" cx="214.53" cy="39.57" r="1.94" />
        </g>
        <g>
          <circle class="cls-8" cx="246.25" cy="53.37" r="1.94" />
          <circle class="cls-8" cx="221.52" cy="24.94" r="1.94" />
        </g>
        <g>
          <circle class="cls-8" cx="221.33" cy="53.86" r="1.94" />
          <circle class="cls-8" cx="247.24" cy="26.5" r="1.94" />
        </g>
        <path class="cls-21"
          d="M204.36,31.85c-.21,0-.41-.03-.62-.1-.96-.34-1.45-1.39-1.11-2.34,1.8-5.03,4.88-9.54,8.93-13.03,.77-.67,1.92-.58,2.59,.18,.67,.77,.58,1.92-.18,2.59-3.57,3.08-6.29,7.06-7.87,11.49-.27,.75-.98,1.21-1.73,1.21h-.01Z" />
        <path class="cls-21"
          d="M205.15,53.95c-.71,0-1.39-.41-1.69-1.11-2.12-4.9-2.94-10.31-2.37-15.62,.1-1.01,1.02-1.74,2.01-1.63,1.01,.1,1.74,1.01,1.62,2.01-.5,4.69,.23,9.44,2.1,13.77,.4,.92-.02,2.01-.96,2.42-.24,.1-.48,.15-.73,.15h.01Z" />
        <path class="cls-29"
          d="M218.31,15.61c-.57,0-1.12-.26-1.48-.75-.6-.82-.41-1.96,.4-2.56,2.27-1.65,4.93-2.85,7.68-3.43,.99-.22,1.96,.41,2.18,1.41,.22,.99-.41,1.96-1.41,2.18-2.25,.48-4.43,1.46-6.3,2.82-.33,.24-.7,.35-1.08,.35h.01Z" />
        <path class="cls-9"
          d="M250.16,66.47c-.64,0-1.25-.33-1.59-.92-.5-.88-.2-2,.68-2.51,4.15-2.37,7.71-6.61,10.57-12.59,.44-.91,1.53-1.31,2.45-.86s1.29,1.53,.86,2.45c-3.19,6.66-7.25,11.43-12.06,14.18-.29,.16-.6,.25-.9,.25h0Z" />
        <g>
          <path class="cls-30"
            d="M216.73,30.75c.06-.1,.12-.21,.18-.31l-.19,.29c.24-.38,.54-.73,.86-1.03l-.25,.23c.08-.07,.15-.14,.24-.21,.15-.1,.26-.22,.34-.38,.11-.14,.17-.29,.2-.47,.04-.18,.03-.36-.03-.53-.02-.18-.09-.34-.2-.48-.2-.27-.5-.49-.85-.53h-.36c-.24,0-.46,.09-.65,.23-.34,.29-.68,.6-.97,.95s-.54,.73-.75,1.12c-.08,.16-.12,.33-.11,.51-.02,.18,0,.35,.07,.53,.05,.17,.15,.31,.28,.43,.1,.13,.24,.24,.4,.31,.32,.14,.7,.19,1.04,.04l.3-.16c.19-.14,.33-.31,.44-.52h0Z" />
          <path class="cls-30" d="M214.07,34.89c1.71-.15,1.47-2.8-.24-2.65s-1.47,2.8,.24,2.65h0Z" />
        </g>
        <path class="cls-8"
          d="M232.6,26.75v13.43c0,.57,.66,.99,1.16,.67,4.13-2.65,8.26-5.31,12.39-7.96,.59-.38,1.18-.76,1.76-1.13,.83-.53,.06-1.87-.78-1.33-4.13,2.65-8.26,5.31-12.39,7.96-.59,.38-1.18,.76-1.76,1.13l1.16,.67v-13.43c0-.99-1.54-.99-1.54,0h0Z" />
        <path class="cls-42"
          d="M233.37,8.62c13.06,.07,25.09,8.33,29.57,20.66s.65,26.6-9.49,35.05-25.04,9.55-36.35,2.72c-11.27-6.81-17.23-20.33-14.59-33.24,2.61-12.72,13.07-22.75,25.9-24.8,1.64-.26,3.29-.37,4.95-.38,1.09,0,1.09-1.7,0-1.7-13.8,.07-26.36,8.78-31.15,21.75-4.83,13.07-.66,28.26,10.12,37.06s26.25,9.96,38.15,2.77,18.11-21.37,15.4-34.99-13.9-24.17-27.45-26.21c-1.68-.25-3.37-.38-5.06-.39-1.09,0-1.09,1.69,0,1.7Z" />
        <path class="cls-42"
          d="M233.37,15.94c10.08,.07,19.34,6.44,22.74,15.99s.41,20.34-7.34,26.79c-7.8,6.48-19.2,7.31-27.87,2.07-8.64-5.22-13.22-15.57-11.21-25.48,2.27-11.2,12.31-19.29,23.69-19.37,.84,0,.84-1.31,0-1.3-10.57,.07-20.19,6.7-23.88,16.63-3.73,10.02-.57,21.69,7.69,28.47,8.24,6.77,20.17,7.7,29.33,2.17s13.89-16.34,11.84-26.78c-2.32-11.83-12.99-20.41-24.97-20.49-.84,0-.84,1.3,0,1.3Z" />
      </g>
      <path class="cls-39"
        d="M341.42,90.82c-2.98,4.75-4.67,10.31-4.82,15.92-.21,7.72,3.15,16.17,10.22,19.27,2.89,1.27,6.1,1.54,9.21,2.07,5.99,1.01,11.81,3.05,17.13,5.99,.17-2.88,.54-5.97,2.51-8.08s6.06-2.34,7.36,.23c.75,1.49,.32,3.26,.18,4.91-.2,2.25-1.02,5.88,0,7.95,.4,.81,1.08,1.45,1.63,2.17,1.33,1.74,2.01,3.88,3.21,5.7,.71,1.07,2.14,1.72,2.76,2.77,1.11,1.88,.88,4.36,1.57,6.4,.65,1.93,2.06,3.52,3.27,5.13,.71,.95,.89,1.73,1.97,.94,.56-.41,.99-1.69,1.15-2.36,.32-1.37-.04-2.82,.04-4.21,.12-2.07,.22-4.15,.33-6.23,.53-9.97,.96-20.03-.48-29.91-.97-6.68-2.78-13.22-5.16-19.53-2.04-5.38-3.64-11.19-6.29-16.32-1.14-2.2-2.76-4.12-4.01-6.25-1.24-2.1-2.12-4.39-3.18-6.58-1.52-3.13-3.44-6.08-5.69-8.74-6.37-7.56-11.64-15.88-14.71-25.37" />
      <path class="cls-33"
        d="M345.37,119.11c-2.34-1.87-3.03-5.68-3.49-8.46-.25-1.55-.41-3.12-.56-4.68s-.56-3.82,.12-5.32c.2-.44-.14,.1,.07-.13,.23-.26,.67-.44,.97-.64,.72-.49,1.42-1.02,2.1-1.56,1.28-1.01,2.5-2.11,3.62-3.29,2.29-2.41,4.25-5.14,5.79-8.08,1.35-2.56-2.53-4.84-3.89-2.27-1.63,3.1-3.7,5.9-6.24,8.32-1.24,1.19-2.57,2.26-4,3.22-1.82,1.22-2.71,2.4-3.03,4.61-.55,3.76,.15,7.92,.82,11.64,.6,3.33,1.76,7.62,4.54,9.83,.95,.76,2.25,.93,3.18,0,.78-.78,.96-2.42,0-3.18h0Z" />
      <path class="cls-19"
        d="M283.17,248.74c-5.71,7.02-8.96,16.01-9.05,25.06-.04,3.58,.4,7.19-.19,10.72s-2.47,7.12-5.75,8.54c35.8,1.17,71.62,1.49,107.43,.94,.36,0,.74-.01,1.06-.18,.89-.44,.91-1.68,.79-2.67-1.76-14.52-6.12-28.71-12.82-41.71-3.71,2.94-8.68,3.63-13.4,4.11-22.9,2.36-46.53,2.43-68.37-4.84" />
      <path class="cls-37"
        d="M358.75,292.99c4.1-.01,8.2,0,12.3,0,1.06,0,2.13,0,3.19,0,.79,0,1.62-.05,2.2-.67,1.04-1.12,.35-3.21,.19-4.56-.82-6.61-1.96-13.02-3.91-19.4-.56-1.84-3.46-1.06-2.89,.8,1.75,5.73,2.92,11.5,3.65,17.44,.09,.69,.17,1.38,.26,2.07,.07,.55,.01,1.37,.24,1.87,0,.57,.21,.39,.64-.54-.26,0-.52,0-.78,0-.4,0-.79,0-1.19,0-.95,0-1.9,0-2.85,0-3.69,0-7.38-.01-11.06,0-1.93,0-1.93,3,0,3h0Z" />
      <rect class="cls-48" x="164.94" y="219.57" width="108.87" height="72.55" rx="7.95" ry="7.95" />
      <rect class="cls-20" x="170.7" y="225.31" width="97.36" height="61.08" rx="6.9" ry="6.9" />
      <path class="cls-39"
        d="M248.55,177.85c3.11-7.52,6.14-14.77,9.25-22.29,3.15-7.63,5.87-14.58,12.57-19.4,4.22-3.03,9.14-4.07,14.14-5.47,6.4-1.79,12.39-3.56,18.79-5.35,1.16-.32,2.16-2.67,3-3.53,.74-.76,2.87-1.27,3.16-2.29,1.4-4.79,1.6-10.46,1.84-15.44,.06-1.33,1.22-3.28,.51-4.41-.86-1.38-5.08-4.14-6.51-4.9-6.88-3.68-7.24-9.07-11.03-15.88-.48-.86-.65-3.13-1.52-3.61-.77-.43-2.9,.17-3.77,.04-2.29-.36-3.74-2.57-5.44-4.14-9.55,23.71-25.23,47.22-32.86,71.62" />
      <path class="cls-39"
        d="M289.96,52.5c12.34-3.82,23.16-12.35,29.76-23.46,2.14-3.6,3.87-7.57,3.98-11.75,.11-4.18-1.66-8.6-5.23-10.77-3.06-1.86-6.92-1.85-10.44-1.16-10.38,2.04-19.2,9.51-24.4,18.73-6.98,12.38-6.27,25.51-7.62,39.06-1.62,16.24-7.92,32.16-17.68,45.22-6.41,8.57-14.28,15.96-20.68,24.54-6.4,8.58-11.38,18.89-10.65,29.57,.73,10.68,7.56,21.2,18.22,22.12" />
      <path class="cls-33"
        d="M289.23,78.97c.4,2.5,1.64,4.75,2.93,6.89,1.22,2.02,2.45,4.04,3.79,5.98,2.7,3.91,5.86,7.53,10,9.96,2.5,1.47,4.77-2.42,2.27-3.89-3.56-2.09-6.27-5.25-8.58-8.63-1.2-1.75-2.3-3.56-3.4-5.38-1.18-1.95-2.3-3.85-2.66-6.13-.19-1.2-1.69-1.87-2.77-1.57-1.28,.35-1.76,1.56-1.57,2.77h0Z" />
      <path class="cls-33"
        d="M249.27,176.76c3.13-7.62,6.26-15.24,9.39-22.86,2.51-6.11,4.85-13.33,10.19-17.62,2.47-1.98,5.59-2.88,8.61-3.63,3.4-.85,6.8-1.58,10.1-2.78,3.56-1.3,7.03-2.86,10.67-3.92,3.07-.89,6.24-1.76,8.84-3.71,3.35-2.53,4.52-6.2,4.91-10.24,.43-4.54,.13-9.11-.68-13.59-.21-1.2-1.67-1.87-2.77-1.57-1.26,.35-1.79,1.57-1.57,2.77,.71,3.95,.89,7.99,.55,11.99-.25,3.03-1.05,5.81-3.76,7.49s-5.91,2.2-8.88,3.22c-3.59,1.23-7.04,2.81-10.65,3.98-6.3,2.03-13.27,2.43-18.55,6.83s-7.87,11.14-10.41,17.32c-3.44,8.38-6.89,16.77-10.33,25.15-.46,1.12,.5,2.47,1.57,2.77,1.29,.35,2.3-.44,2.77-1.57h0Z" />
      <path class="cls-37"
        d="M275.69,294.59c5.87-5.17,2.24-13.87,2.76-20.51,.31-3.92,1.55-7.85,3.21-11.4,.86-1.84,1.85-3.63,2.92-5.36,.8-1.28,1.57-2.42,1.93-3.9,.15-.62-.21,.25,.04-.08-.23,.32-.31,.37-.69,.59-.55,.32-.91,.06-1.42,.28-.14,.06-.28-.15,.1,.06,.14,.08,.27,.16,.41,.23,.55,.28,1.12,.52,1.69,.75,1.87,.78,3.87,1.21,5.83,1.68,4.37,1.05,8.78,1.91,13.22,2.59,8.99,1.38,18.08,2.08,27.18,2,10.28-.09,20.54-1.16,30.63-3.12,1.59-.31,2.5-2.21,2.1-3.69-.46-1.66-2.09-2.41-3.69-2.1-17.7,3.44-36.08,3.89-53.92,1.23-4.52-.67-9.01-1.54-13.46-2.59-1.98-.47-4.07-.85-5.95-1.65-1.53-.65-3.01-1.72-4.92-1.15-1.7,.51-2.55,2.07-3.02,3.65-.05,.17-.21,.53-.2,.71-.02-.37,.31-.62-.11,.03-.63,.97-1.24,1.94-1.82,2.93-2.13,3.68-3.88,7.66-4.96,11.77-1.17,4.47-1.35,8.91-.84,13.48,.22,1.94,.46,3.9,.34,5.85-.09,1.34-.47,2.47-1.6,3.46-1.22,1.07-1.09,3.15,0,4.24,1.21,1.21,3.02,1.07,4.24,0h0Z" />
      <path class="cls-14"
        d="M254.29,194.43c-.1,7.94-1.67,16.38-1.77,24.33,0,.27,1.47,.06,1.64,.27,.2,.23,.54,.27,.85,.28,2.58,.08,5.16-.18,7.73,0s5.21,.85,7.16,2.53c.46,.4,.91,.87,1.51,1.02,1.19,.29,2.22-.83,2.9-1.85,2.88-4.35,4.9-9.26,5.91-14.37,.06-.3,.11-.62,.01-.91-.13-.37-.49-.6-.82-.81-6.2-3.8-13.02-6.57-20.11-8.19" />
      <path class="cls-11"
        d="M254.45,201.19c3.27,2.32,7.64,3.26,11.48,4.15,4.21,.98,8.49,1.6,12.8,1.9,1.93,.13,1.92-2.87,0-3-4.05-.28-8.06-.87-12.01-1.79-3.6-.84-7.7-1.68-10.76-3.85-1.58-1.12-3.08,1.48-1.51,2.59h0Z" />
      <g>
        <path class="cls-15"
          d="M279.47,204.21c-9.13-1.39-18.09-3.94-26.59-7.56-3.93-1.68-8.37-4.53-8.19-8.8,.06-1.38,.63-2.68,1.19-3.94,5.38-12.16,10.75-24.32,16.13-36.48,1.58-3.56,3.24-7.25,6.17-9.81,2.62-2.29,6-3.47,9.29-4.59,6.53-2.23,13.05-4.46,19.58-6.69l1.01-.99c5.65,7.22,14.76,11.59,23.92,11.5h4.59c9.16,.1,18.27-4.28,23.92-11.5l-.28,.1c6.24,2.72,13.12,2.97,19.41,5.35,6.08,2.29,11.29,6.61,15.33,11.64,5.59,6.97,9.17,15.29,12.69,23.5,2.65,6.19,5.3,12.37,7.95,18.56,1.83,4.28-.22,9.23-4.54,10.96l-14.44,5.77c-4.05,1.62-8.65-.18-10.54-4.1-3.32-6.92-6.91-14.37-9.95-20.73l1.73-10.65c-4.98,21.88-4.22,45.03,2.18,66.54,.94,3.14,2,6.42,1.38,9.64-1.4,7.25-10.06,10.2-17.36,11.3-22.83,3.44-46.37,2.12-68.68-3.85-2.08-.56-4.38-1.34-5.3-3.29-.85-1.8-.2-3.9,.38-5.81,3.4-11.16,3.81-23.22,1.18-34.58-1.57-6.79-4.21-13.4-4.61-20.35-.43-7.61,1.85-15.08,3.09-22.6,1.24-7.52,1.29-15.82-3.03-22.1l2.4,63.59Z" />
        <path class="cls-15"
          d="M276.9,140.94c.36,2.81-.11,5.84,0,8.67,.17,4.45,.72,8.7,.26,13.13-.26,2.51-.58,5.21,.6,7.44,1.56-5.98,3.67-12.25,3.16-18.41-.24-2.97-2.32-5.89-3.04-8.78" />
      </g>
      <path class="cls-40"
        d="M367.73,171.95c-.47,1.17-1.08,3.05-.77,4.32,.16,.64,.69,1.26,1.03,1.81,.42,.67,.84,1.34,1.23,2.02,1.69,2.89,2.88,6,4.13,9.09,1.13,2.8,2.3,5.6,3.91,8.17,1.36,2.17,3.41,4.6,6.27,3.85,1.4-.37,.81-2.54-.6-2.17-2.37,.63-4.19-3.47-5.03-5.1-1.2-2.32-2.14-4.75-3.11-7.17s-1.91-4.74-3.15-6.98c-.69-1.25-1.5-2.42-2.21-3.66-.57-1,.06-2.56,.47-3.58,.54-1.34-1.63-1.93-2.17-.6h0Z" />
      <path class="cls-14"
        d="M384.44,203.74c1.54,1.73,2.69,3.75,3.89,5.72,1.3,2.11,2.72,4.06,4.42,5.87,.99,1.06,3.01-.03,2.51-1.46-1.73-4.9-3.9-9.63-6.52-14.11-.97-1.67-3.57-.16-2.59,1.51,2.49,4.26,4.58,8.74,6.22,13.4l2.51-1.46c-1.64-1.75-2.95-3.62-4.19-5.66s-2.51-4.12-4.12-5.93c-1.28-1.45-3.4,.68-2.12,2.12h0Z" />
      <path class="cls-15"
        d="M279.43,196.88c-.16,0-.3,.05-.43,.1-.18-.85-.34-1.71-.48-2.57-.12-.78-1.13-1.28-1.85-1.05-.84,.27-1.18,1.01-1.05,1.85,.48,2.99,1.2,5.94,2.14,8.82,.53,1.61,2.88,1.32,2.95-.4,.07-1.75,.14-3.5,.22-5.25,.03-.78-.71-1.54-1.5-1.5Z" />
      <g class="cls-49">
        <path class="cls-42" d="M71.08,198.02c1.2,0,1.2-1.87,0-1.87s-1.2,1.87,0,1.87h0Z" />
        <g>
          <polygon class="cls-20"
            points="88.7 200.46 71.16 200.22 67.87 162.3 91.75 162.3 88.7 200.46" />
          <g>
            <rect class="cls-34" x="70.16" y="183.3" width="19.78" height="1.76" />
            <polygon class="cls-34"
              points="91.86 162.96 91.68 164.94 67.47 164.94 67.29 162.96 91.86 162.96" />
            <path class="cls-42"
              d="M87.13,201.89h-14.66c-1.37,0-2.51-1.03-2.63-2.37l-3.16-37.37c-.04-.45,.29-.84,.75-.88,.03,0,.05,0,.08,0h24.57c.23,0,.46,.09,.61,.26,.16,.17,.24,.39,.22,.62l-2.11,24.62c-.04,.45-.44,.78-.89,.75-.46-.04-.8-.43-.76-.88l2.01-23.75h-22.72l3.09,36.5c.04,.49,.46,.87,.96,.87h14.66c.5,0,.92-.38,.96-.87l.77-9.08c.03-.45,.43-.78,.89-.75,0,0,0,0,.01,0,.46,.03,.8,.42,.76,.87,0,0,0,0,0,.01l-.77,9.08c-.12,1.34-1.27,2.37-2.64,2.37Z" />
            <rect class="cls-20" x="63.62" y="158.56" width="32.36" height="3.81" />
            <path class="cls-42"
              d="M94.03,163.32h-28.46c-1.52,0-2.75-1.21-2.75-2.69s1.23-2.69,2.75-2.69h28.46c1.52,0,2.75,1.21,2.75,2.69s-1.23,2.69-2.75,2.69Zm-28.46-3.81c-.63,0-1.14,.5-1.14,1.12s.51,1.12,1.14,1.12h28.46c.63,0,1.14-.5,1.14-1.12s-.51-1.12-1.14-1.12h-28.46Z" />
            <path class="cls-42"
              d="M68.27,159.29h0c-.33-.02-.58-.29-.56-.61,0,0,0,0,0,0,0-.18,.3-4.36,3.98-5.73,.31-.12,.66,.03,.79,.33,.03,.07,.04,.14,.04,.22v4.87c0,.32-.27,.58-.6,.58s-.6-.26-.6-.58v-3.93c-2.21,1.38-2.4,4.28-2.41,4.31-.02,.32-.29,.56-.62,.54,0,0-.01,0-.02,0Z" />
            <circle class="cls-20" cx="83.51" cy="168.13" r=".17" />
            <ellipse class="cls-34" cx="85.25" cy="165.43" rx="1.29" ry="1.27" />
            <ellipse class="cls-34" cx="87.81" cy="167.61" rx=".36" ry=".36" />
            <ellipse class="cls-34" cx="88.79" cy="165.54" rx=".34" ry=".33" />
            <ellipse class="cls-34" cx="82.86" cy="164.91" rx=".81" ry=".79" />
            <ellipse class="cls-34" cx="85.5" cy="169.91" rx=".31" ry=".3" />
            <polygon class="cls-2"
              points="65.91 168.78 66.96 182.27 92.98 182.27 94.19 168.78 65.91 168.78" />
            <path class="cls-42"
              d="M92.84,183.53h-26.06c-.44,0-.8-.33-.83-.75l-1.04-13.49c-.04-.45,.3-.84,.76-.87,.02,0,.05,0,.07,0h28.27c.24,0,.46,.09,.62,.26,.16,.17,.24,.4,.22,.62l-1.2,13.49c-.03,.41-.38,.74-.8,.75Zm-25.25-1.62h24.49l1.05-11.86h-26.46l.92,11.86Z" />
            <path class="cls-42"
              d="M74.28,173.12h-7.46c-.21-.03-.36-.22-.33-.43,.03-.17,.16-.3,.33-.32h7.46c.21-.03,.41,.11,.44,.32s-.12,.4-.33,.43c-.04,0-.08,0-.11,0Z" />
          </g>
        </g>
        <path class="cls-35"
          d="M81.63,181.33h8.21c.61,0,1.14-.52,1.14-1.14s-.52-1.14-1.14-1.14h-8.21c-.61,0-1.14,.52-1.14,1.14s.52,1.14,1.14,1.14h0Z" />
      </g>
      <path class="cls-44"
        d="M178.33,285.98c20.23,0,40.46,0,60.69,0,5.74,0,11.49,0,17.23,0,3,0,3-4.66,0-4.66-20.23,0-40.46,0-60.69,0-5.74,0-11.49,0-17.23,0-3,0-3,4.66,0,4.66h0Z" />
      <path class="cls-42"
        d="M370.94,265.8c3.3,10.18,5.22,20.74,5.68,31.43,.06,1.44,2.31,1.45,2.25,0-.47-10.88-2.41-21.66-5.76-32.03-.44-1.37-2.62-.79-2.17,.6h0Z" />
      <path class="cls-42"
        d="M364.9,250.88c1.73,3.54,3.27,7.16,4.63,10.86,.21,.57,.76,.96,1.38,.79,.55-.15,1-.81,.79-1.38-1.43-3.88-3.05-7.68-4.86-11.4-.27-.55-1.04-.69-1.54-.4-.56,.33-.67,.99-.4,1.54h0Z" />
      <g>
        <path class="cls-42"
          d="M414.38,297.21c8.17,0,16.34,0,24.52,0,1.86,0,1.87-2.89,0-2.89-8.17,0-16.34,0-24.52,0-1.86,0-1.87,2.89,0,2.89h0Z" />
        <path class="cls-42" d="M409.41,297.21c1.86,0,1.87-2.89,0-2.89s-1.87,2.89,0,2.89h0Z" />
        <path class="cls-2"
          d="M19.64,302.1h496.13c0,16.04-13,29.04-29.04,29.04H48.69c-16.04,0-29.04-13-29.04-29.04h0Z" />
        <path class="cls-36"
          d="M515,308.52c-.3,1.31-.69,2.59-1.18,3.84H21.6c-.49-1.25-.88-2.53-1.18-3.84h494.59Z" />
        <path class="cls-42"
          d="M486.74,331.27H48.69c-16.64-.02-30.13-13.51-30.15-30.15,.06-.61,.6-1.06,1.21-1.01,.53,.05,.96,.47,1.01,1.01,.02,15.42,12.51,27.92,27.93,27.93H486.74c15.42-.02,27.92-12.51,27.93-27.93,0-.61,.49-1.11,1.1-1.11s1.11,.49,1.11,1.1h0c-.02,16.65-13.5,30.14-30.14,30.16Z" />
        <path class="cls-42"
          d="M192.38,294.69h-11.26c-.49,0-.89-.4-.9-.89s.4-.89,.89-.9h11.27c.49,0,.89,.4,.89,.9,0,.49-.4,.89-.89,.89Z" />
        <path class="cls-42"
          d="M192.38,299.31h-11.26c-.5,.05-.94-.31-.99-.8-.05-.5,.31-.94,.8-.99,.06,0,.12,0,.19,0h11.26c.5,.05,.86,.49,.8,.99-.04,.42-.38,.76-.8,.8Z" />
        <ellipse class="cls-20" cx="160.85" cy="302.5" rx="1.34" ry="2.04" />
        <circle class="cls-20" cx="160.45" cy="307.57" r=".95" />
        <circle class="cls-42" cx="194.89" cy="306.41" r=".98" />
        <path class="cls-2"
          d="M8.01,293.43H524.99c3.97,0,7.18,3.21,7.18,7.18h0c0,3.96-3.22,7.18-7.18,7.18H8.01c-3.97,0-7.18-3.21-7.18-7.18H.83c0-3.96,3.22-7.18,7.18-7.18Z" />
        <path class="cls-2"
          d="M8.01,293.43H524.99c3.97,0,7.18,3.21,7.18,7.18h0c0,3.96-3.22,7.18-7.18,7.18H8.01c-3.97,0-7.18-3.21-7.18-7.18H.83c0-3.96,3.22-7.18,7.18-7.18Z" />
        <path class="cls-17"
          d="M532.16,300.28c0,3.96-3.2,7.17-7.16,7.18H8c-3.97,0-7.18-3.22-7.18-7.18H.82c0-.97,.2-1.92,.59-2.8,1.13,2.64,3.72,4.36,6.6,4.36H525c1.9,0,3.72-.75,5.07-2.09,.65-.65,1.17-1.42,1.53-2.27,.38,.89,.57,1.84,.57,2.8Z" />
        <path class="cls-42"
          d="M434.25,294.29h-19.2c-.61,0-1.11-.49-1.11-1.1,0-.61,.49-1.11,1.1-1.11h19.21c.61,0,1.11,.49,1.11,1.1,0,.61-.49,1.11-1.1,1.11h0Z" />
        <path class="cls-42"
          d="M21.76,299.23H1.45c-.47-.05-.81-.47-.76-.94,.04-.4,.36-.72,.76-.76H21.76c.47-.05,.89,.29,.94,.76,.05,.47-.29,.89-.76,.94-.06,0-.12,0-.18,0Z" />
        <path class="cls-42"
          d="M29.46,299.23h-3.35c-.47-.05-.81-.47-.76-.94,.04-.4,.36-.72,.76-.76h3.35c.47,.05,.81,.47,.76,.94-.04,.4-.36,.72-.76,.76Z" />
        <path class="cls-28"
          d="M176.11,294.05h55.39c1.14,0,2.06,.92,2.06,2.06h0c0,1.14-.92,2.06-2.06,2.06h-55.39c-1.14,0-2.06-.92-2.06-2.06h0c0-1.14,.92-2.06,2.06-2.06Z" />
        <path class="cls-28"
          d="M134.61,294.05h29.13c1.14,0,2.06,.92,2.06,2.06h0c0,1.14-.92,2.06-2.06,2.06h-29.13c-1.14,0-2.06-.92-2.06-2.06h0c0-1.14,.92-2.06,2.06-2.06Z" />
        <path class="cls-28"
          d="M41.35,294.05h29.13c1.14,0,2.06,.92,2.06,2.06h0c0,1.14-.92,2.06-2.06,2.06h-29.13c-1.14,0-2.06-.92-2.06-2.06h0c0-1.14,.92-2.06,2.06-2.06Z" />
        <g>
          <ellipse class="cls-36" cx="64.52" cy="312.35" rx="8.6" ry="2.96" />
          <circle class="cls-36" cx="80.85" cy="312.5" r="2.06" />
          <circle class="cls-36" cx="79.8" cy="319.86" r="1.06" />
          <circle class="cls-36" cx="72.92" cy="317.04" r="1.06" />
          <circle class="cls-36" cx="64.52" cy="319.86" r="1.03" />
          <circle class="cls-36" cx="63.81" cy="315.65" r="1.03" />
          <circle class="cls-36" cx="49.13" cy="312.06" r="2.51" />
          <circle class="cls-36" cx="55.92" cy="320.74" r="2.64" />
          <circle class="cls-36" cx="48.14" cy="315.97" r="2.64" />
        </g>
        <g>
          <ellipse class="cls-36" cx="462.16" cy="312.35" rx="8.6" ry="2.96" />
          <circle class="cls-36" cx="478.49" cy="312.5" r="2.06" />
          <circle class="cls-36" cx="477.43" cy="319.86" r="1.06" />
          <circle class="cls-36" cx="470.56" cy="317.04" r="1.06" />
          <circle class="cls-36" cx="462.16" cy="319.86" r="1.03" />
          <circle class="cls-36" cx="461.45" cy="315.65" r="1.03" />
          <circle class="cls-36" cx="446.76" cy="312.06" r="2.51" />
          <circle class="cls-36" cx="453.55" cy="320.74" r="2.64" />
          <circle class="cls-36" cx="445.78" cy="315.97" r="2.64" />
        </g>
        <path class="cls-42"
          d="M525,308.64H8c-4.57-.16-8.16-3.99-8-8.56,.15-4.36,3.64-7.85,8-8H403.88c.61,0,1.11,.49,1.11,1.1,0,.61-.49,1.11-1.1,1.11H8c-3.35,.13-5.97,2.96-5.83,6.31,.13,3.17,2.66,5.71,5.83,5.83H525c3.35-.13,5.97-2.96,5.83-6.31-.13-3.17-2.66-5.71-5.83-5.83h-78.51c-.61,0-1.11-.49-1.11-1.1,0-.61,.49-1.11,1.1-1.11h78.51c4.57-.16,8.41,3.43,8.56,8,.16,4.57-3.43,8.41-8,8.56-.19,0-.38,0-.56,0Z" />
      </g>
      <g>
        <ellipse class="cls-14" cx="323.71" cy="54.89" rx="34.12" ry="47.34" />
        <ellipse class="cls-14" cx="323.71" cy="54.89" rx="34.12" ry="47.34" />
        <path class="cls-14"
          d="M292.77,75.27c-4.24,.38-8.59-2.14-10.37-6.01-1.78-3.87-.88-8.81,2.16-11.79,1.28-1.26,3.01-2.21,4.8-2.1" />
        <path class="cls-14"
          d="M355.05,75.27c4.24,.38,8.59-2.14,10.37-6.01,1.78-3.87,.88-8.81-2.16-11.79-1.28-1.26-3.01-2.21-4.8-2.1" />
        <path class="cls-14"
          d="M337.12,99.67c-.29,4.79-.03,9.61,.78,14.33,.32,1.89,.74,3.79,1.58,5.52,2.02,4.16,6.6,6.95,11.22,6.83-5.65,7.22-14.76,11.59-23.92,11.5h-4.59c-9.16,.1-18.27-4.28-23.92-11.5,4.63,.12,9.2-2.67,11.22-6.83,.84-1.73,1.25-3.63,1.58-5.52,.8-4.73,1.07-9.55,.78-14.33" />
      </g>
      <ellipse class="cls-14" cx="323.71" cy="54.89" rx="34.12" ry="47.34" />
      <path class="cls-42"
        d="M292.77,74.33c-4.64,.34-9.16-2.75-10.15-7.38-.9-4.22,1.65-10.78,6.74-10.65,1.21,.03,1.2-1.84,0-1.87-6.16-.16-9.48,7.19-8.65,12.45,.9,5.66,6.42,9.73,12.06,9.32,1.19-.09,1.2-1.96,0-1.87h0Z" />
      <path class="cls-42"
        d="M220.95,156.39c-.92-17.65,13.63-30.28,24.96-41.66,11.15-11.2,20.16-24.26,25.78-39.08,3.1-8.17,5.09-16.74,5.87-25.44,.08-.87-1.27-.86-1.35,0-1.42,15.84-7.05,31.12-15.65,44.46-4.4,6.83-9.58,13.03-15.3,18.79s-12.17,11.61-17.15,18.39-8.98,15.6-8.52,24.54c.05,.86,1.4,.87,1.35,0h0Z" />
      <path class="cls-42"
        d="M365.34,176.95c2.77,5.79,5.56,11.58,8.34,17.37,1.17,2.43,2.12,4.97,4.33,6.66,1.82,1.4,4.16,2.11,6.45,1.91s4.73-1.44,6.93-2.32c2.92-1.17,5.84-2.33,8.75-3.5s5.5-2.73,6.75-5.86c.85-2.13,.9-4.56,.09-6.71-1.16-3.11-2.62-6.14-3.93-9.19-4.92-11.48-9.23-23.84-17.13-33.68-3.88-4.84-8.81-8.98-14.56-11.42-6.55-2.78-13.86-2.95-20.41-5.75-1.32-.56-2.46,1.38-1.14,1.94,5.43,2.32,11.29,2.93,16.92,4.55,5.36,1.55,10.08,4.47,14.06,8.36,8.22,8.04,12.57,19.06,17.01,29.44,1.26,2.94,2.52,5.88,3.78,8.83,.61,1.43,1.23,2.87,1.84,4.3s1.32,2.75,1.68,4.2c.89,3.62-1.23,7.05-4.56,8.42-4.62,1.89-9.26,3.73-13.9,5.55-1.79,.7-3.67,.84-5.5,.15-2.86-1.08-3.91-3.62-5.15-6.18-2.92-6.07-5.84-12.14-8.75-18.22-.62-1.31-2.57-.17-1.94,1.14h0Z" />
      <path class="cls-42"
        d="M274.28,222.77c2.26-4.97,4.53-9.93,6.79-14.9,.32-.71,.65-1.42,.97-2.13,.6-1.31-1.34-2.45-1.94-1.14-2.26,4.97-4.53,9.93-6.79,14.9-.32,.71-.65,1.42-.97,2.13-.6,1.31,1.34,2.45,1.94,1.14h0Z" />
      <path class="cls-42"
        d="M402.32,228.1c-5.28-7.84-10.55-15.68-15.83-23.52-.75-1.11-1.5-2.23-2.25-3.34-.8-1.2-2.75-.07-1.94,1.14,5.28,7.84,10.55,15.68,15.83,23.52,.75,1.11,1.5,2.23,2.25,3.34,.8,1.2,2.75,.07,1.94-1.14h0Z" />
      <path class="cls-42"
        d="M413.31,209.15c-1.82-5.33-3.65-10.66-5.47-15.99l-.77-2.26c-.47-1.36-2.64-.78-2.17,.6,1.82,5.33,3.65,10.66,5.47,15.99l.77,2.26c.47,1.36,2.64,.78,2.17-.6h0Z" />
      <path class="cls-42"
        d="M252.85,198.4c-.26,6.8-.74,13.59-1.45,20.36-.15,1.44,2.1,1.43,2.25,0,.71-6.77,1.2-13.56,1.45-20.36,.05-1.45-2.2-1.45-2.25,0h0Z" />
      <path class="cls-42"
        d="M281.33,248.43c-3.68,6.08-6.33,12.75-7.8,19.7-.3,1.41,1.87,2.02,2.17,.6,1.43-6.78,3.98-13.24,7.57-19.16,.75-1.24-1.19-2.37-1.94-1.14h0Z" />
      <path class="cls-42"
        d="M265.86,291h-91.53c-1.17,0-2.32,.04-3.46-.31-3.22-.98-4.8-3.96-4.8-7.15v-54.1c0-1.68-.09-3.32,.68-4.89,1.28-2.62,3.85-3.86,6.66-3.86h19.08c14.99,0,29.97,0,44.96,0,9.39,0,18.78-.05,28.17,0,3.55,.02,6.7,2.49,7.05,6.14,.11,1.12,.03,2.28,.03,3.4v17.95c0,11.9,.06,23.8,0,35.7-.02,3.89-2.87,7.03-6.83,7.11-1.45,.03-1.45,2.28,0,2.25,5.04-.11,8.99-4.08,9.08-9.12,.02-1.22,0-2.44,0-3.66v-42.15c0-3.7,.16-7.44,0-11.14-.22-4.9-4.25-8.65-9.1-8.73-.8-.01-1.61,0-2.41,0h-59.51c-10.18,0-20.36-.03-30.54,0-2.92,0-5.65,1.06-7.52,3.38-1.63,2.03-2.02,4.37-2.02,6.86v54.79c0,3.11,1.06,5.98,3.61,7.92,1.85,1.4,3.99,1.84,6.25,1.84h92.18c1.45,0,1.45-2.25,0-2.25Z" />
      <rect class="cls-25" x="176.85" y="233.29" width="47.55" height="22.74" rx="3.06" ry="3.06" />
      <path class="cls-3"
        d="M221.33,233.29c1.69,0,3.06,1.37,3.06,3.06v16.62c0,1.69-1.37,3.06-3.06,3.06h-41.43c-1.69,0-3.06-1.37-3.06-3.06" />
      <rect class="cls-46" x="231.51" y="233.29" width="28.14" height="22.74" rx="2.35" ry="2.35" />
      <rect class="cls-45" x="176.85" y="262.99" width="47.55" height="14.82" rx="2.47" ry="2.47" />
      <path class="cls-41"
        d="M221.92,262.99c1.36,0,2.47,1.11,2.47,2.47v9.88c0,1.36-1.11,2.47-2.47,2.47h-42.61c-1.36,0-2.47-1.11-2.47-2.47" />
      <path class="cls-14"
        d="M369.72,145.88c1.96,.4,3.95-.04,4.77-1.87,.82-1.83,.72-1.93,.45-3.92-.27-1.99-.71-3.98-.51-5.98,.2-2,1.04-5.92,2.37-7.42,.8-.9,1.81-2.66,2.99-2.93s2.52,1.02,3.31,1.94c.86,.99,.89,4.48,.54,5.74-.35,1.26-1.04,2.41-1.49,3.64-1.36,3.71-.65,8.36-.22,12.2,.49,4.45,2.46,8.86,3.78,13.13l2.78,5.56,34.04,56.06c2.83,4.87,.15,11.11-4.75,13.9h0c-4.93,2.8-12.21,1.01-14.91-3.98l-28.26-60.74-1.56-.28h-8.09c-6.03,0-10.91-4.89-10.91-10.91h0c0-6.03,4.89-13.91,10.91-13.91" />
      <path class="cls-42"
        d="M369.42,146.96c3.73,.56,6.33-2.55,6.75-6.01,.52-4.28-1.83-8.62,.24-12.72,.83-1.65,2.58-3.77,4.66-3.41,2.61,.46,1.3,3.49,.99,5.14-.82,4.41-1.17,8.99-.81,13.46,.39,4.88,1.46,10.07,3.48,14.55,.6,1.32,2.54,.17,1.94-1.14-.95-2.11-1.49-4.42-2.05-6.67-.59-2.37-.98-4.79-1.15-7.23-.33-4.72,.07-9.61,1.22-14.2,.43-1.71,.4-3.65-.92-4.97-1.26-1.25-3.22-1.51-4.85-.92-3.78,1.38-5.75,5.86-5.66,9.64,.06,2.48,.81,4.91,.75,7.4-.06,2.12-1.29,5.31-3.98,4.9-1.42-.21-2.03,1.96-.6,2.17h0Z" />
      <path class="cls-42"
        d="M392.74,97.66c8.44,16.94,12.62,35.91,12.02,54.83-.18,5.6-.88,11.2,.07,16.78,.15,.85,1.45,.49,1.3-.36-.87-5.14-.26-10.35-.05-15.51,.19-4.73,.08-9.48-.32-14.2-.8-9.35-2.71-18.6-5.71-27.49-1.7-5.04-3.76-9.96-6.13-14.72-.39-.78-1.55-.09-1.17,.68h0Z" />
      <path class="cls-40"
        d="M257.41,197.7c6.89,2.7,14,4.8,21.26,6.28,.99,.2,2.32-.7,1.85-1.85-4.77-11.62-5.19-24.67-1.13-36.56,.62-1.83-2.27-2.62-2.89-.8-4.21,12.34-3.82,26.1,1.13,38.16l1.85-1.85c-7.26-1.47-14.36-3.57-21.26-6.28-1.8-.71-2.58,2.19-.8,2.89h0Z" />
      <path class="cls-11"
        d="M314.87,99.67c1.48,3.14,3.88,5.84,6.83,7.68,4.6,2.88,10.25,3.56,15.67,3.52-.23-3.63-.46-7.27-.68-10.9-6.74,3.19-14.86,3.32-21.71,.36" />
      <path class="cls-11"
        d="M292.11,55.27c16.48-3.94,27.91-17.72,34.62-32.57,.79-1.75-1.8-3.27-2.59-1.51-6.4,14.16-17.06,27.42-32.82,31.19-1.88,.45-1.08,3.34,.8,2.89h0Z" />
      <path class="cls-11"
        d="M323.81,24.24c.93,2.72,2.39,5.15,4.29,7.3,2.11,2.39,4.71,4.21,7.27,6.06,5.31,3.85,10.27,8.16,14.87,12.83,1.36,1.38,3.48-.74,2.12-2.12-4.35-4.42-9.02-8.5-13.99-12.21-4.73-3.54-9.66-6.8-11.67-12.67-.62-1.82-3.52-1.04-2.89,.8h0Z" />
      <path class="cls-39"
        d="M360.35,53.57c-5.16-3.75-9.35-8.63-14.24-12.7-5.14-4.28-11.02-7.56-15.39-12.74-4.49-5.33-7.31-12.47-5.98-19.32,.24-1.26,.64-2.52,1.42-3.54,.97-1.26,2.44-2.04,3.95-2.53,5.66-1.85,12.08-.02,16.74,3.69s7.74,9.07,9.85,14.64,1.88,12.05,3.5,17.78" />
      <path class="cls-11"
        d="M354.68,156.6c-.15,3.97,.76,8.19,3.74,11.03,1.41,1.34,3.13,2.17,5.03,2.54,2.25,.43,4.53,.72,6.8,1.07,.8,.12,1.61-.2,1.85-1.05,.2-.71-.24-1.72-1.05-1.85-1.99-.31-3.99-.61-5.98-.93-1.62-.26-3.12-.63-4.36-1.75-2.54-2.29-3.14-5.78-3.02-9.06,.07-1.93-2.93-1.93-3,0h0Z" />
      <path class="cls-42"
        d="M373.05,169.79h-5.15c-1.98,0-4,.16-5.89-.52-6.46-2.31-8.44-10.84-5.45-16.53,1.67-3.18,4.75-5.42,8.4-5.48,1.45-.02,1.45-2.27,0-2.25-7.86,.13-12.81,7.98-11.92,15.31,.45,3.69,2.26,7.19,5.25,9.45,2.27,1.71,4.84,2.27,7.63,2.27h7.13c1.45,0,1.45-2.25,0-2.25h0Z" />
      <path class="cls-11"
        d="M384.91,190.34c4.15,9.08,8.29,18.16,12.44,27.23,1.99,4.35,3.84,8.8,6,13.07,1.6,3.17,3.86,6.05,7.6,6.48,1.91,.22,1.9-2.78,0-3-3.27-.38-4.86-4.61-6.03-7.17l-5.8-12.71c-3.87-8.47-7.74-16.95-11.61-25.42-.8-1.75-3.39-.23-2.59,1.51h0Z" />
      <path class="cls-42"
        d="M386.17,164.32c4.65,7.66,9.31,15.33,13.96,22.99,6.5,10.7,13,21.41,19.5,32.11,.6,.99,1.21,1.97,1.8,2.97,1.87,3.17,1.19,6.98-1.03,9.8-4.48,5.7-13.85,5.01-16.96-1.67-4.68-10.07-9.37-20.14-14.05-30.21s-9.05-19.44-13.57-29.17l-.24-.53c-.61-1.31-2.55-.17-1.94,1.14,4.01,8.62,8.02,17.24,12.03,25.85,5.15,11.07,10.3,22.14,15.45,33.2,.5,1.07,.93,2.06,1.66,3.01,2.94,3.8,8.34,5.35,12.93,4.13s8.47-5.64,9.03-10.46c.28-2.44-.41-4.68-1.66-6.74-5.84-9.62-11.68-19.24-17.52-28.86s-11.42-18.82-17.14-28.22l-.29-.49c-.75-1.24-2.7-.11-1.94,1.14h0Z" />
      <path class="cls-39"
        d="M285.46,46.76c.49-12.34,5.67-24.43,14.26-33.29,3.2-3.3,6.98-6.23,11.41-7.46,2.44-.68,5.18-.79,7.41,.41,2.04,1.1,3.42,3.16,4.22,5.33,1.68,4.61,1.01,9.84-1.01,14.31-2.01,4.47-5.27,8.27-8.78,11.7-6.62,6.47-14.62,11.96-23.73,13.58h-3.34" />
      <path class="cls-42"
        d="M323.39,10.49c.47-.81,.12-1.65-.25-2.42s-.8-1.59-1.25-2.35c-.91-1.54-1.95-2.99-3.09-4.37-.56-.67-1.51,.29-.95,.95,.97,1.17,1.86,2.41,2.65,3.71,.38,.63,.75,1.28,1.09,1.94,.18,.35,.36,.7,.52,1.06,.1,.23,.26,.55,.12,.79-.44,.75,.72,1.43,1.17,.68h0Z" />
      <path class="cls-42"
        d="M323.76,9.78c-.37-2.92-.75-6.25,1.11-8.77,.22-.3,.05-.75-.24-.92-.34-.2-.71-.05-.92,.24-2.01,2.71-1.69,6.3-1.3,9.45,.05,.36,.28,.67,.67,.67,.33,0,.72-.31,.67-.67h0Z" />
      <path class="cls-42"
        d="M278.88,257.99c22.97,7.07,47.57,8.71,71.4,5.94,6.7-.78,13.35-1.91,19.92-3.41,.85-.19,.49-1.5-.36-1.3-23.23,5.3-47.66,6.17-71.16,2.11-6.57-1.14-13.07-2.68-19.44-4.64-.83-.26-1.19,1.05-.36,1.3h0Z" />
      <path class="cls-42"
        d="M274.95,266.98c3.38,5.9,11.21,3.33,15.64,.34,5.29-3.57,6.38-9.78,6.93-15.72,.08-.86-1.27-.86-1.35,0-.47,5.07-1.27,10.78-5.6,14.08-3.73,2.85-11.35,6.04-14.46,.62-.43-.75-1.6-.07-1.17,.68h0Z" />
      <path class="cls-42"
        d="M305.56,263.33c1.96-2.6,3.04-5.79,3.14-9.04,.02-.87-1.33-.87-1.35,0-.09,3.03-1.13,5.94-2.95,8.36-.22,.29-.04,.75,.24,.92,.34,.21,.71,.05,.92-.24h0Z" />
      <path class="cls-42"
        d="M339.81,254.66c.15,3.03,.8,6.02,1.96,8.82,.14,.34,.45,.58,.83,.47,.32-.09,.61-.49,.47-.83-1.11-2.69-1.77-5.55-1.91-8.46-.04-.86-1.39-.87-1.35,0h0Z" />
      <path class="cls-42"
        d="M372.92,269.71c-4.59,3.79-11.55,3.53-16.32,.21-5.21-3.63-7.58-9.95-6.92-16.14,.09-.86-1.26-.86-1.35,0-.72,6.78,2.1,13.69,7.88,17.5,5.3,3.49,12.71,3.48,17.67-.61,.67-.55-.29-1.5-.95-.95h0Z" />
      <path class="cls-42"
        d="M322.5,264.71c0,9.24,0,18.48,0,27.72,0,.87,1.35,.87,1.35,0,0-9.24,0-18.48,0-27.72,0-.87-1.35-.87-1.35,0h0Z" />
      <path class="cls-42"
        d="M323.59,290.08c1.78,.05,3.69,.04,5.3-.83s2.44-2.58,2.7-4.36c.32-2.12,.19-4.32,.17-6.45-.03-2.53-.11-5.07-.24-7.6-.04-.86-1.39-.87-1.35,0,.21,4.13,.38,8.31,.21,12.44-.07,1.68-.34,3.59-1.84,4.61-1.41,.97-3.32,.89-4.96,.85-.87-.02-.87,1.33,0,1.35h0Z" />
      <path class="cls-42"
        d="M334.52,293.59c2.59-2.5,5.07-5.1,7.44-7.81,.57-.65-.38-1.61-.95-.95-2.37,2.71-4.85,5.31-7.44,7.81-.63,.6,.33,1.56,.95,.95h0Z" />
      <circle class="cls-20" cx="323.17" cy="259.9" r="2.14" />
      <path class="cls-40"
        d="M287.88,248.99c21.16,5.7,43.69,6.5,65.47,4.07,3.3-.37,6.63-.84,9.69-2.12,3.06-1.28,5.87-3.45,7.28-6.46,2.36-5.05,.34-10.94-1.32-16.27-3.23-10.4-4.2-20.98-4.37-31.87-.09-5.85-.48-11.99,.33-17.78,.22,5.93-.06,11.86-.33,17.78-.18,3.88-.06,7.77-.79,11.59-1.85,9.64-6.13,19.13-13.63,25.47-6.93,5.85-15.94,8.53-24.72,10.78-12.01,3.08-24.85,6.56-37.03,4.25" />
      <path class="cls-42"
        d="M365.93,193.96c.06-7.5,.74-14.97,2.07-22.35,.25-1.42-1.91-2.02-2.17-.6-1.36,7.58-2.09,15.25-2.15,22.95-.01,1.45,2.24,1.45,2.25,0h0Z" />
      <path class="cls-42"
        d="M276.3,141.2c4.37,6.51,4.06,14.76,2.75,22.17-1.52,8.65-3.93,17.1-2.52,25.94,.68,4.29,2,8.44,3.16,12.62s2.06,8.48,2.45,12.85c.76,8.57-.17,17.17-2.65,25.4-.54,1.79-1.09,3.75-.54,5.61,.45,1.53,1.57,2.68,2.96,3.42,1.54,.83,3.28,1.23,4.96,1.66,2.14,.55,4.3,1.06,6.46,1.52,8.6,1.85,17.35,3.03,26.13,3.53s17.72,.32,26.54-.56c6.8-.68,14.25-1.29,20.27-4.85,2.47-1.47,4.64-3.52,5.77-6.2,1.58-3.75,.65-7.7-.46-11.44-2.57-8.67-4.36-17.53-5.15-26.55-.2-2.24-.33-4.48-.41-6.72-.05-1.44-2.31-1.45-2.25,0,.33,8.59,1.45,17.15,3.41,25.52,.49,2.11,1.04,4.2,1.64,6.28s1.29,4.08,1.65,6.18c.59,3.43-.23,6.66-2.77,9.08-4.69,4.47-12.03,5.3-18.15,6.05-8.48,1.03-17.03,1.41-25.57,1.15s-17.17-1.18-25.62-2.76c-4.2-.78-8.37-1.71-12.49-2.83-1.41-.38-3.03-.81-4.06-1.92-1.49-1.6-.63-3.97-.08-5.79,2.34-7.82,3.32-16.04,2.79-24.19-.26-4.09-.89-8.15-1.88-12.12s-2.33-8.05-3.26-12.14-1.3-8.41-.89-12.71,1.42-8.59,2.26-12.86c1.4-7.12,2.41-14.83-.14-21.82-.6-1.65-1.38-3.21-2.36-4.66-.8-1.2-2.75-.07-1.94,1.14h0Z" />
      <path class="cls-22"
        d="M257,168.6c2.8-7.38,5.95-14.64,9.48-21.7,1.52-3.05,3.21-6.29,6.05-8.31,3.01-2.15,6.91-3.02,10.37-4.17,4.41-1.47,8.83-2.93,13.24-4.4,1.82-.61,1.04-3.5-.8-2.89-4.1,1.36-8.21,2.73-12.31,4.09-3.77,1.25-7.9,2.23-11.31,4.32-3.1,1.9-5.21,4.89-6.9,8.04-1.91,3.57-3.6,7.27-5.24,10.96-1.95,4.37-3.77,8.8-5.47,13.27-.69,1.81,2.21,2.59,2.89,.8h0Z" />
      <path class="cls-22"
        d="M295.72,130.01c10.61,10.82,26.82,14.82,41.21,9.95,4.06-1.37,7.88-3.37,11.3-5.96,1.52-1.15,.03-3.76-1.51-2.59-11.37,8.59-26.87,10.08-39.53,3.43-3.47-1.82-6.6-4.16-9.34-6.96-1.35-1.38-3.47,.74-2.12,2.12h0Z" />
      <path class="cls-42"
        d="M287.81,130.75c3.24-1.11,6.49-2.22,9.73-3.33,.57-.2,.95-.77,.79-1.38-.15-.56-.81-.98-1.38-.79-3.24,1.11-6.49,2.22-9.73,3.33-.57,.2-.95,.77-.79,1.38,.15,.56,.81,.98,1.38,.79h0Z" />
      <path class="cls-42"
        d="M279.97,203.13c-7.36-1.14-14.59-2.99-21.57-5.56-4.75-1.75-14.37-4.77-11.94-11.64,1.27-3.6,3.08-7.07,4.62-10.56s3.23-7.3,4.84-10.95,3.09-6.99,4.64-10.49,2.83-6.74,4.52-9.97,3.97-5.95,7.33-7.65c3.6-1.83,7.65-2.91,11.46-4.21,1.36-.47,.78-2.64-.6-2.17-6.71,2.29-14.22,3.95-18.48,10.12-2.06,2.99-3.39,6.47-4.85,9.78-1.71,3.88-3.43,7.75-5.14,11.63-3.39,7.66-6.97,15.26-10.16,23.01-1.28,3.11-1.05,6.11,1.18,8.7,1.99,2.31,4.86,3.7,7.62,4.85,8.31,3.48,17.04,5.91,25.94,7.29,1.42,.22,2.03-1.95,.6-2.17h0Z" />
      <path class="cls-42"
        d="M289.3,47.54c17.07-1.79,30.45-16.86,35.71-32.37,.28-.82-1.02-1.18-1.3-.36-5.04,14.88-17.98,29.65-34.41,31.38-.86,.09-.86,1.44,0,1.35h0Z" />
      <path class="cls-42"
        d="M269.02,106.13c7.11-13.19,10.13-28.42,8.37-43.31-.1-.85-1.45-.86-1.35,0,1.73,14.66-1.18,29.64-8.19,42.63-.41,.76,.75,1.45,1.17,.68h0Z" />
      <path class="cls-42"
        d="M238.18,157.47c-2.39-9.8,4.08-18.51,10.2-25.4s12.89-13.61,18-21.49c.47-.73-.69-1.41-1.17-.68-4.25,6.57-9.62,12.25-14.88,18-4.91,5.37-10.14,10.94-12.64,17.91-1.38,3.85-1.8,8.02-.82,12.02,.21,.84,1.51,.49,1.3-.36h0Z" />
      <path class="cls-18"
        d="M284.92,37.99c1.5-6.63,4.53-12.92,8.98-18.08s10.22-10.06,17.23-9.23c1.61,.19,3-1.51,3-3,0-1.78-1.38-2.81-3-3-8.36-.99-16,4.74-21.21,10.68s-9.03,13.25-10.79,21.04c-.36,1.58,.48,3.25,2.1,3.69,1.51,.41,3.33-.51,3.69-2.1h0Z" />
      <path class="cls-42"
        d="M245.05,122.24c-7.66,8.64-15.23,18-18.12,29.44-2.36,9.37-.97,19.89,5.51,27.36,3.29,3.79,7.77,6.2,12.78,6.68,1.44,.14,1.43-2.11,0-2.25-8.65-.83-14.42-8.46-16.37-16.41-2.43-9.89,1.06-20.03,6.25-28.42,3.3-5.34,7.39-10.12,11.54-14.81,.96-1.08-.63-2.68-1.59-1.59h0Z" />
      <path class="cls-42"
        d="M275.95,49.37c-.41,5.09-.62,10.2-1.22,15.28-.55,4.68-1.51,9.31-2.81,13.83-2.6,9.04-6.6,17.65-11.82,25.47-3.15,4.71-6.8,9.04-10.56,13.28-.96,1.08,.63,2.68,1.59,1.59,6.64-7.49,12.61-15.35,17.03-24.37,4.25-8.68,7.19-18.01,8.54-27.58,.82-5.8,1.04-11.66,1.51-17.49,.12-1.44-2.13-1.44-2.25,0h0Z" />
      <path class="cls-42"
        d="M288.19,15.85c-3.5,3.93-6.25,8.41-8.19,13.3s-2.92,9.99-3.55,15.15c-.18,1.43,2.08,1.42,2.25,0,1.21-9.89,4.36-19.32,11.08-26.87,.96-1.08-.63-2.67-1.59-1.59h0Z" />
      <path class="cls-42"
        d="M290.26,53.59c11.66-3.66,21.9-11.26,28.77-21.36,3.56-5.24,6.71-11.6,5.54-18.11-.49-2.74-1.8-5.45-3.89-7.33-2.23-2.01-5.13-2.89-8.09-2.97-7.44-.21-14.78,3.51-20.37,8.14-1.12,.92,.48,2.51,1.59,1.59,4.59-3.8,10.29-6.72,16.28-7.37,2.88-.31,6-.06,8.4,1.71,2.09,1.54,3.32,3.98,3.84,6.47,1.2,5.84-1.89,11.7-5.03,16.41s-6.93,8.7-11.3,12.09c-4.89,3.8-10.44,6.71-16.35,8.56-1.38,.43-.79,2.6,.6,2.17h0Z" />
      <path class="cls-18"
        d="M331.69,14.85c-.32-.8-.63-1.61-.88-2.44-.22-.74-.4-1.53-.41-2.08-.02-.7,.03-.96,.26-1.5,.2-.47,.3-.45,.82-.79,.32-.16,.34-.18,.08-.06,.19-.07,.37-.13,.56-.18,.29-.08,.59-.15,.89-.19-.52,.07,.64,0,.75,0,.31,0,.63,.02,.94,.05,.37,.04,.42,.04,.14,.01,.15,.03,.31,.05,.46,.09,.36,.07,.72,.17,1.07,.27,.37,.11,.74,.23,1.11,.36,.12,.04,.93,.38,.67,.26,2.85,1.26,4.98,2.94,6.92,5.41,1.65,2.1,2.81,4.75,3.34,7.64,.29,1.59,2.23,2.5,3.69,2.1,1.68-.46,2.39-2.09,2.1-3.69-1.14-6.24-5.11-11.78-10.39-15.21-4.8-3.12-13.18-5.46-17.48-.24-2.86,3.48-1.94,7.96-.4,11.8,.6,1.5,2,2.56,3.69,2.1,1.43-.39,2.7-2.18,2.1-3.69h0Z" />
      <path class="cls-42"
        d="M360.23,52.6c-3.27-2.4-6.15-5.26-9.08-8.05-2.74-2.62-5.57-5.08-8.62-7.34-6.07-4.51-12.21-8.82-15.55-15.87-1.6-3.38-2.42-7.17-2.04-10.91,.2-1.97,.7-4.1,2.34-5.37,1.45-1.12,3.42-1.65,5.22-1.84,7.5-.8,14.21,3.91,18.24,9.89,5.11,7.59,6.71,16.76,9.14,25.41,.39,1.39,2.56,.8,2.17-.6-2.38-8.46-4-17.36-8.7-24.93-4.11-6.62-10.81-11.94-18.88-12.11-3.61-.08-8.11,.93-10.21,4.16s-1.93,7.92-1.21,11.52c1.64,8.22,7.35,14.35,13.83,19.23,3.78,2.85,7.6,5.57,11.08,8.8,3.64,3.4,7.12,6.97,11.15,9.93,1.17,.86,2.29-1.09,1.14-1.94h0Z" />
      <path class="cls-42"
        d="M323.17,9.21c.56,6.3,4.86,12.28,9.41,16.43,5.16,4.7,10.53,9.27,17.21,11.61,.82,.29,1.18-1.02,.36-1.3-6.32-2.21-11.39-6.55-16.29-10.96-4.39-3.96-8.79-9.68-9.34-15.77-.08-.86-1.43-.87-1.35,0h0Z" />
      <path class="cls-20"
        d="M291.02,29.93c.06-.16,.12-.32,.19-.48,0,0,.15-.36,.07-.18-.07,.16,.04-.09,.05-.12,.15-.34,.3-.67,.47-1,.33-.66,.69-1.3,1.08-1.92,.18-.29,.37-.58,.57-.87,.11-.16,.22-.32,.34-.47,.05-.07,.1-.14,.15-.21,.02-.02,.18-.24,.08-.11-.11,.15,.13-.16,.12-.15,.05-.07,.11-.13,.16-.2,.11-.13,.22-.27,.33-.4,.25-.3,.51-.58,.78-.87,.54-.57,.61-1.56,0-2.12s-1.55-.61-2.12,0c-2.27,2.4-4,5.21-5.18,8.29-.28,.74,.31,1.68,1.05,1.85,.86,.19,1.55-.26,1.85-1.05h0Z" />
      <path class="cls-20" d="M298.33,19.74c1.93,0,1.93-3,0-3s-1.93,3,0,3h0Z" />
      <g>
        <ellipse class="cls-12" cx="312.09" cy="60.46" rx="4.34" ry="5.48" />
        <ellipse class="cls-42" cx="311.9" cy="59.27" rx="4.27" ry="5.42" />
        <ellipse class="cls-20" cx="310.37" cy="57.3" rx="1.58" ry="1.72" />
      </g>
      <g>
        <ellipse class="cls-12" cx="335.66" cy="60.46" rx="4.34" ry="5.48" />
        <ellipse class="cls-42" cx="335.46" cy="59.27" rx="4.27" ry="5.42" />
        <ellipse class="cls-20" cx="333.94" cy="57.3" rx="1.58" ry="1.72" />
      </g>
      <path class="cls-11"
        d="M358.28,62.44c.08,.05,.15,.09,.23,.15,.19,.13,.13,.02,0,0,.12,.02,.31,.29,.39,.37,.01,.01,.14,.17,.14,.16-.11-.15-.13-.18-.07-.09,.02,.03,.04,.06,.06,.09,.1,.15,.2,.31,.28,.47,.03,.05,.08,.21,.12,.25-.06-.05-.09-.26-.03-.06,.05,.17,.11,.34,.15,.52,0,.03,.04,.36,.03,.12s0,.07,0,.12c0,.1-.06,.47-.01,.54-.03-.04,.06-.31,.01-.08-.02,.09-.03,.17-.06,.26s-.05,.17-.07,.25c-.02,.05-.09,.34-.03,.12,.05-.21-.03,.07-.05,.11-.04,.08-.08,.16-.13,.23-.05,.09-.26,.31-.26,.4,.12-.15,.14-.18,.07-.1-.02,.03-.05,.05-.07,.08-.06,.07-.12,.13-.18,.19s-.13,.12-.19,.18c-.03,.02-.05,.05-.08,.07-.08,.07-.05,.05,.1-.07-.11,0-.3,.2-.4,.26-.08,.04-.16,.08-.23,.12-.27,.15,.28-.1-.03,.01l1.9,1.45c.24-1.77,.43-3.54,.58-5.32,.06-.78-.74-1.53-1.5-1.5-.87,.04-1.43,.66-1.5,1.5-.15,1.78-.34,3.55-.58,5.32-.12,.93,1.06,1.76,1.9,1.45,2.1-.78,3.57-2.6,3.81-4.84,.23-2.12-.96-4.25-2.76-5.34-.67-.41-1.68-.17-2.05,.54s-.18,1.62,.54,2.05h0Z" />
      <path class="cls-11"
        d="M287.98,59.85c-1.79,1.08-3,3.22-2.76,5.34,.25,2.24,1.7,4.05,3.81,4.84,.83,.31,2.02-.52,1.9-1.45-.24-1.77-.43-3.54-.58-5.32-.06-.78-.64-1.54-1.5-1.5-.76,.03-1.57,.66-1.5,1.5,.15,1.78,.34,3.55,.58,5.32l1.9-1.45c-.33-.12,.19,.11,.02,0-.08-.04-.16-.08-.24-.12-.09-.05-.34-.28-.44-.29,.07,0,.21,.18,.06,.04-.07-.06-.13-.12-.19-.18s-.12-.13-.18-.19c-.03-.03-.23-.27-.09-.09s-.06-.09-.07-.11c-.04-.06-.08-.12-.11-.18-.09-.14-.14-.34-.24-.47,.17,.21,.07,.15,.02,.01-.03-.08-.05-.17-.08-.25s-.04-.17-.06-.26c0-.03-.01-.07-.02-.1-.02-.11-.01-.07,.02,.14,.05-.09-.02-.38-.01-.49,0-.05-.02-.22,.02-.27-.07,.08-.05,.29,0,.02,.04-.18,.08-.35,.14-.52,.01-.03,.02-.07,.04-.1,.04-.1,.02-.07-.05,.11,.04-.03,.07-.15,.09-.2,.08-.16,.17-.32,.27-.47,.03-.04,.22-.28,.07-.11s.08-.09,.09-.1c.11-.12,.24-.22,.35-.34,.12-.13-.24,.15,0,0,.09-.06,.18-.12,.27-.18,.67-.41,.98-1.36,.54-2.05s-1.33-.97-2.05-.54h0Z" />
      <path class="cls-42"
        d="M355.05,76.21c5.64,.41,11.16-3.66,12.06-9.32,.84-5.26-2.49-12.61-8.65-12.45-1.2,.03-1.21,1.9,0,1.87,5.09-.14,7.64,6.43,6.74,10.65-.99,4.62-5.51,7.72-10.15,7.38-1.2-.09-1.2,1.78,0,1.87h0Z" />
      <path class="cls-42"
        d="M358.16,59.51c2.96,1.18,4.64,4.42,3.97,7.52-.18,.85,1.12,1.21,1.3,.36,.42-1.95,.14-4.01-.86-5.75-.92-1.58-2.36-2.76-4.05-3.44-.34-.14-.74,.15-.83,.47-.11,.38,.13,.69,.47,.83h0Z" />
      <path class="cls-42"
        d="M331.58,51.49c2.55-2.29,6.28-3,9.51-1.88,.82,.28,1.18-1.02,.36-1.3-3.69-1.28-7.92-.37-10.82,2.23-.65,.58,.31,1.53,.95,.95h0Z" />
      <path class="cls-42"
        d="M317.51,50.54c-2.9-2.6-7.13-3.5-10.82-2.23-.82,.28-.47,1.59,.36,1.3,3.23-1.12,6.95-.41,9.51,1.88,.64,.58,1.6-.37,.95-.95h0Z" />
      <path class="cls-42"
        d="M322.78,60.87v10.24c0,.76,.14,1.69-.02,2.43-.12,.54-.57,1-.92,1.4-.69,.79-1.53,1.58-1.61,2.68-.06,.87,1.29,.86,1.35,0,.03-.48,.49-.92,.79-1.26,.38-.44,.78-.86,1.12-1.33,.84-1.18,.63-2.55,.63-3.93v-10.24c0-.87-1.35-.87-1.35,0h0Z" />
      <path class="cls-42"
        d="M319.78,84.44c3.82,1.12,8.14-.52,10.3-3.85,.47-.73-.69-1.41-1.17-.68-1.84,2.83-5.55,4.17-8.78,3.23-.84-.24-1.19,1.06-.36,1.3h0Z" />
      <path class="cls-42"
        d="M221.33,255.21h-39.32c-.88,0-2.01,.16-2.86-.13-2.05-.7-1.49-3.82-1.49-5.49v-8.44c0-1.59-.11-3.21,0-4.8,.15-2.18,1.97-2.24,3.59-2.24h36.79c1.06,0,2.13-.04,3.18,0,2.4,.09,2.33,2.21,2.33,3.97,0,4.83,.07,9.67,0,14.51-.02,1.38-.71,2.54-2.24,2.62-1.05,.06-1.06,1.7,0,1.64,1.92-.1,3.55-1.37,3.83-3.33,.09-.62,.05-1.27,.05-1.9v-8.32c0-2.26,.04-4.52,0-6.77-.04-2.38-1.76-4.02-4.12-4.05-9.96-.15-19.93,0-29.89,0-3.71,0-7.43-.09-11.14,0-2.42,.06-4.01,1.8-4.04,4.18s0,4.68,0,7.01v8.16c0,.66-.05,1.37,.1,2.01,.42,1.79,1.99,2.93,3.78,3.01,3.17,.13,6.37,0,9.54,0h31.89c1.06,0,1.06-1.64,0-1.64Z" />
      <path class="cls-42"
        d="M221.33,276.46h-35c-2.12,0-4.31,.14-6.43,0-2.85-.19-2.24-3.58-2.24-5.56v-3.76c0-.68-.1-1.47,.08-2.13,.44-1.6,1.88-1.64,3.19-1.64h32.41c2.62,0,5.25-.09,7.87,0,2.36,.08,2.35,2.12,2.35,3.88,0,2.2,.04,4.41,0,6.61-.03,1.38-.73,2.53-2.24,2.61-1.05,.06-1.06,1.7,0,1.64,1.67-.09,3.17-1.05,3.7-2.7,.25-.78,.19-1.63,.19-2.44,0-2.35,.03-4.7,0-7.04s-1.56-4.12-3.97-4.2c-.92-.03-1.86,0-2.78,0h-29.55c-2.96,0-5.93-.09-8.89,0-2.32,.07-3.94,1.71-4.01,4.03s0,4.63,0,6.93c0,.74-.06,1.52,.07,2.25,.3,1.62,1.63,2.88,3.26,3.12,.78,.11,1.59,.05,2.37,.05h39.61c1.06,0,1.06-1.64,0-1.64Z" />
      <path class="cls-42"
        d="M255.99,255.21h-18.13c-2.12,0-5.46,.6-5.54-2.47s0-6.22,0-9.32v-5.18c0-.92-.18-2.19,.31-3.02,.69-1.19,1.91-1.11,3.07-1.11h19.59c1.48,0,2.82,.51,2.94,2.24,.23,3.15,0,6.39,0,9.55v5.65c0,1.64-.04,3.54-2.24,3.66-1.05,.06-1.06,1.7,0,1.64,2.26-.12,3.82-1.78,3.88-4.03,.03-1.29,0-2.58,0-3.87,0-3.86,0-7.73,0-11.59s-.11-2.81-1.25-3.86c-1.03-.96-2.29-1.03-3.59-1.03h-10.99c-3.1,0-6.21-.08-9.31,0-2.05,.05-3.83,1.42-4.02,3.55-.09,1-.02,2.03-.02,3.02,0,3.96,0,7.91,0,11.87,0,1.1-.14,2.35,.24,3.39,.63,1.74,2.25,2.53,4,2.55,6.82,.06,13.64,0,20.45,0h.61c1.06,0,1.06-1.64,0-1.64Z" />
      <g>
        <rect class="cls-20" x="181.42" y="238.39" width="35.87" height="2.05" />
        <rect class="cls-20" x="181.42" y="243.19" width="26.39" height="2.05" />
        <rect class="cls-20" x="181.42" y="247.99" width="17.07" height="2.05" />
      </g>
      <path class="cls-20"
        d="M237.09,245.22c1.52,1.56,3.1,3.07,4.73,4.51,.93,.82,2.12,1.38,3.18,.38,.65-.62,.93-1.67,1.33-2.45,1.77-3.41,4.16-6.42,7.06-8.94,.61-.53,.54-1.58,0-2.12-.61-.61-1.51-.53-2.12,0-1.86,1.62-3.51,3.44-4.97,5.43-.7,.95-1.35,1.95-1.94,2.98-.29,.51-.57,1.04-.84,1.57-.14,.28-.28,.57-.41,.85-.07,.14-.13,.29-.2,.43-.17,.29-.06,.25,.33-.12h.8c.26,.2,.26,.19,0-.03-.13-.12-.27-.24-.4-.35-.2-.18-.4-.36-.59-.54-.43-.39-.85-.78-1.27-1.18-.87-.83-1.73-1.67-2.56-2.53-1.35-1.39-3.47,.74-2.12,2.12h0Z" />
      <ellipse class="cls-6" cx="308.13" cy="71.44" rx="4.28" ry="2.99"
        transform="translate(-7.91 84.29) rotate(-15.38)" />
      <ellipse class="cls-6" cx="338.19" cy="71.44" rx="2.99" ry="4.28"
        transform="translate(179.61 378.57) rotate(-74.62)" />
      <circle class="cls-42" cx="353.88" cy="37.8" r="1.16" />
      <circle class="cls-42" cx="286.69" cy="46.87" r="1.16" />
      <path class="cls-11"
        d="M299.93,128.27c9.15,8.45,22.63,11.56,34.53,7.86,1.84-.57,1.05-3.47-.8-2.89-10.88,3.38-23.24,.65-31.62-7.08-1.42-1.31-3.54,.81-2.12,2.12h0Z" />
      <path class="cls-42"
        d="M335.99,99.67c-.2,3.51-.13,7.03,.25,10.53,.34,3.12,.73,6.38,1.98,9.28,2.11,4.88,7.18,8.04,12.46,7.99l-.8-1.92c-5.2,6.55-13.16,10.77-21.55,11.14-6.17,.27-12.44,.07-18.16-2.49-4.36-1.96-8.16-4.91-11.13-8.65l-.8,1.92c5.29,.05,10.35-3.12,12.46-7.99,1.26-2.9,1.65-6.16,1.98-9.28,.38-3.5,.45-7.02,.25-10.53-.08-1.44-2.33-1.45-2.25,0,.33,5.78,.21,12.14-1.58,17.7-1.51,4.7-5.93,7.9-10.87,7.85-1.06,0-1.37,1.2-.8,1.92,5.49,6.92,13.94,11.26,22.75,11.78,6.63,.39,13.37,.01,19.51-2.7,4.58-2.02,8.65-5.16,11.76-9.08,.57-.72,.26-1.93-.8-1.92-4.94,.04-9.36-3.16-10.87-7.85-1.79-5.56-1.91-11.92-1.58-17.7,.08-1.45-2.17-1.44-2.25,0h0Z" />
      <path class="cls-42"
        d="M304.24,124.69c6.53,15.55,14.26,30.66,23.2,44.97,.19,.3,.61,.44,.92,.24,1.44-.91,2.08-2.37,2.75-3.87,.82-1.84,1.61-3.68,2.37-5.54,1.54-3.75,2.97-7.55,4.29-11.39,2.68-7.83,4.88-15.81,6.6-23.9,.18-.85-1.12-1.21-1.3-.36-1.63,7.63-3.67,15.17-6.15,22.57-1.24,3.7-2.59,7.36-4.03,10.98-.73,1.83-1.49,3.65-2.28,5.45-.71,1.64-1.34,3.88-2.93,4.89l.92,.24c-8.88-14.2-16.58-29.2-23.07-44.64-.33-.79-1.64-.44-1.3,.36h0Z" />
      <path class="cls-40"
        d="M328.17,184.24c2.37,.1,4.75-.94,6.1-2.92s1.19-4.81-.38-6.65c-.51-.6-1.6-.56-2.12,0-.59,.64-.54,1.48,0,2.12,.21,.24-.14-.24,.01,.01,.05,.09,.11,.17,.16,.25,.04,.08,.08,.19,.13,.27-.18-.25-.06-.14,0,.01,.06,.19,.08,.4,.14,.58-.11-.33-.02-.15-.01,0,0,.1,0,.2,0,.3s-.01,.2-.01,.3c-.01,.3,.07-.32,0,0-.04,.18-.08,.36-.13,.54-.03,.1-.07,.19-.1,.29-.04,.1-.02,.06,.05-.13-.02,.05-.04,.09-.07,.14-.09,.18-.2,.35-.31,.52-.09,.15,.2-.22,0-.02-.07,.08-.14,.16-.21,.23s-.15,.15-.23,.22c-.05,.05-.1,.09-.16,.14l.14-.11c-.18,.06-.36,.25-.52,.34-.09,.05-.18,.1-.28,.15-.12,.06-.34,.09-.02,.02-.2,.04-.4,.15-.6,.21s-.41,.1-.62,.14c-.3,.07,.32-.02-.02,0-.09,0-.18,.02-.26,.02-.23,.01-.46,.01-.68,0-.78-.03-1.54,.71-1.5,1.5,.04,.84,.66,1.46,1.5,1.5h0Z" />
      <g>
        <circle class="cls-2" cx="328.39" cy="175.69" r="5.6" />
        <path class="cls-42"
          d="M333.32,175.69c-.03,2.05-1.29,3.93-3.24,4.63s-4.19,.09-5.52-1.52-1.45-3.88-.4-5.63,3.12-2.7,5.12-2.32c2.33,.45,4,2.48,4.03,4.85,.01,.87,1.36,.87,1.35,0-.04-2.61-1.64-4.95-4.09-5.88s-5.36-.15-7.01,1.88-1.92,4.95-.57,7.21,3.99,3.42,6.57,2.95c2.95-.53,5.06-3.21,5.1-6.16,.01-.87-1.34-.87-1.35,0Z" />
      </g>
      <path class="cls-18"
        d="M371.59,69.11c10.04,15.03,17.6,31.57,22.35,49,1.01,3.72,6.8,2.14,5.79-1.6-4.88-17.9-12.65-35.01-22.95-50.44-.9-1.35-2.65-1.93-4.1-1.08-1.34,.78-1.98,2.75-1.08,4.1h0Z" />
      <path class="cls-42"
        d="M373.41,62.58c4.34,5.91,8.43,11.92,11.84,18.42,3.18,6.04,5.82,12.35,7.94,18.84,4.21,12.95,6.29,26.57,6.09,40.18-.12,7.8-.99,15.56-2.62,23.18-.3,1.41,1.87,2.02,2.17,.6,2.92-13.65,3.47-27.76,1.68-41.6-1.79-13.8-5.81-27.28-11.99-39.75-3.69-7.46-8.25-14.31-13.16-21.01-.85-1.16-2.8-.03-1.94,1.14h0Z" />
      <path class="cls-42"
        d="M361.38,43.67c2.43,5.33,5.7,10.2,9.12,14.94,.36,.5,.97,.72,1.54,.4,.49-.28,.76-1.05,.4-1.54-3.42-4.74-6.69-9.6-9.12-14.94-.25-.56-1.05-.68-1.54-.4-.57,.33-.65,.99-.4,1.54h0Z" />
      <path class="cls-42"
        d="M392.64,150.63c3.05-20.85,1.34-42.31-5-62.4-1.79-5.67-3.95-11.21-6.45-16.6-.36-.79-1.53-.1-1.17,.68,8.72,18.83,13.08,39.6,12.75,60.34-.09,5.9-.57,11.79-1.43,17.62-.12,.85,1.18,1.22,1.3,.36h0Z" />
      <path class="cls-42"
        d="M285.35,65.11c0-.14-.01-.28,0-.42,0-.07,0-.14,.01-.21,0,0,.02-.22,0-.1,.04-.28,.11-.55,.2-.81,.13-.39,.45-.95,.7-1.26,.17-.21,.36-.4,.56-.58s.33-.27,.6-.43c.12-.07,.24-.14,.37-.2,.02,0,.19-.09,.09-.04,.06-.03,.13-.05,.2-.07,.27-.09,.54-.16,.82-.2,.36-.05,.56-.51,.47-.83-.11-.39-.47-.52-.83-.47-2.63,.38-4.7,3-4.54,5.63,.02,.36,.29,.67,.67,.67,.35,0,.7-.31,.67-.67h0Z" />
      <path class="cls-42"
        d="M356.69,53.57c.16,9.53-1.63,19.2-5.93,27.77-3.54,7.06-8.85,13.51-16,17.11-6.49,3.26-14.13,3.52-20.79,.62-7.21-3.14-12.7-9.27-16.43-16.06-5.23-9.52-7.23-20.57-6.74-31.35,.07-1.45-2.18-1.44-2.25,0-.46,10.17,1.28,20.49,5.64,29.73,3.57,7.56,9.12,14.57,16.57,18.6,6.82,3.69,14.94,4.43,22.24,1.67,7.74-2.92,13.82-9.04,18-16.05,5.72-9.6,8.14-20.94,7.95-32.04-.02-1.45-2.27-1.45-2.25,0h0Z" />
      <path class="cls-42"
        d="M322.71,14.93c-.7,2.66-2.42,4.79-4.3,6.73s-4.04,3.98-6.24,5.77c-4.6,3.73-10.07,6.61-16.09,6.75-.87,.02-.87,1.37,0,1.35,6.25-.14,11.9-3.04,16.71-6.87,2.43-1.94,4.72-4.09,6.87-6.34,1.93-2.03,3.65-4.28,4.37-7.03,.22-.84-1.08-1.2-1.3-.36h0Z" />
      <path class="cls-20"
        d="M232.21,151.77c-1.63,4.58-1.77,9.63-.43,14.3,.53,1.85,3.43,1.07,2.89-.8-1.2-4.19-1.03-8.6,.43-12.71,.27-.76-.31-1.64-1.05-1.85-.83-.23-1.57,.28-1.85,1.05h0Z" />
      <path class="cls-20" d="M236.77,172.77c1.93,0,1.93-3,0-3s-1.93,3,0,3h0Z" />
      <path class="cls-20"
        d="M258.98,179.38c.75-1.69,1.51-3.39,2.26-5.08,.17-.38,.27-.74,.15-1.16-.1-.35-.36-.73-.69-.9-.65-.35-1.71-.23-2.05,.54-.75,1.69-1.51,3.39-2.26,5.08-.17,.38-.27,.74-.15,1.16,.1,.35,.36,.73,.69,.9,.65,.35,1.71,.23,2.05-.54h0Z" />
      <path class="cls-42"
        d="M261.16,285.56h-60.4c-7.68,0-15.38,.13-23.06,0-3.42-.06-6.11-2.66-6.18-6.11-.02-1.05,0-2.11,0-3.16,0-5.57,0-11.15,0-16.72s0-12.81,0-19.22v-6.28c0-1.48-.1-2.97,.53-4.37,1.75-3.88,5.58-3.59,9.06-3.59h79.19c1.6,0,3.12,.19,4.47,1.18,1.98,1.46,2.47,3.64,2.47,5.93v14.04c0,10.64,.06,21.28,0,31.91-.02,3.48-2.53,6.28-6.08,6.37-1.06,.03-1.06,1.67,0,1.64,4.28-.11,7.64-3.46,7.72-7.75,.02-1.1,0-2.2,0-3.3,0-5.78,0-11.55,0-17.33,0-6.48,0-12.95,0-19.43v-5.96c0-2.02-.18-3.96-1.41-5.68-1.55-2.19-3.99-3.27-6.63-3.28-.99,0-1.99,0-2.98,0h-53.65c-8.74,0-17.48-.03-26.23,0-2.48,0-4.79,.9-6.38,2.86-1.41,1.74-1.73,3.75-1.73,5.9v14.51c0,10.55-.2,21.12,0,31.67,.07,3.85,2.82,7.2,6.7,7.71,.81,.11,1.64,.07,2.45,.07h82.12c1.06,0,1.06-1.64,0-1.64Z" />
      <g>
        <g>
          <rect class="cls-14" x="218.35" y="216.97" width="19.45" height="7.29" rx="3.65" ry="3.65"
            transform="translate(393.03 -50.45) rotate(77.27)" />
          <rect class="cls-14" x="226.15" y="215.21" width="19.45" height="7.29" rx="3.65" ry="3.65"
            transform="translate(397.4 -59.43) rotate(77.27)" />
          <rect class="cls-14" x="233.95" y="213.45" width="19.45" height="7.29" rx="3.65" ry="3.65"
            transform="translate(401.76 -68.42) rotate(77.27)" />
        </g>
        <path class="cls-42"
          d="M226.6,226.93c-.47-2.1-.95-4.2-1.42-6.29l-.93-4.14c-.2-.87-.52-1.8-.3-2.69,.58-2.38,3.83-2.88,5.13-.81,.44,.69,.54,1.67,.72,2.46,.63,2.81,1.27,5.61,1.9,8.42,.21,.93,.63,2.06,.43,3.02-.6,3.03-4.78,2.85-5.53,.03-.27-1.03-1.86-.59-1.59,.44,.65,2.44,3.16,4.02,5.64,3.26,2.31-.7,3.52-3.03,3.06-5.34-.57-2.84-1.28-5.65-1.91-8.47-.25-1.1-.47-2.2-.74-3.29-.56-2.21-2.6-3.75-4.9-3.47-2.51,.3-4.28,2.7-3.87,5.19,.15,.94,.41,1.88,.63,2.81,.7,3.1,1.4,6.21,2.1,9.31,.23,1.04,1.82,.6,1.59-.44Z" />
        <path class="cls-42"
          d="M234.4,225.17c-.47-2.1-.95-4.2-1.42-6.29l-.93-4.14c-.2-.87-.52-1.8-.3-2.69,.58-2.38,3.83-2.88,5.13-.81,.44,.69,.54,1.67,.72,2.46,.63,2.81,1.27,5.61,1.9,8.42,.21,.93,.63,2.06,.43,3.02-.6,3.03-4.78,2.85-5.53,.03-.27-1.03-1.86-.59-1.59,.44,.65,2.44,3.16,4.02,5.64,3.26,2.31-.7,3.52-3.03,3.06-5.34-.57-2.84-1.28-5.65-1.91-8.47-.25-1.1-.47-2.2-.74-3.29-.56-2.21-2.6-3.75-4.9-3.47-2.51,.3-4.28,2.7-3.87,5.19,.15,.94,.41,1.88,.63,2.81,.7,3.1,1.4,6.21,2.1,9.31,.23,1.04,1.82,.6,1.59-.44Z" />
        <path class="cls-42"
          d="M242.21,223.4c-.47-2.1-.95-4.2-1.42-6.29l-.93-4.14c-.2-.87-.52-1.8-.3-2.69,.58-2.38,3.83-2.88,5.13-.81,.44,.69,.54,1.67,.72,2.46,.63,2.81,1.27,5.61,1.9,8.42,.21,.93,.63,2.06,.43,3.02-.6,3.03-4.78,2.85-5.53,.03-.27-1.03-1.86-.59-1.59,.44,.65,2.44,3.16,4.02,5.64,3.26,2.31-.7,3.52-3.03,3.06-5.34-.57-2.84-1.28-5.65-1.91-8.47-.25-1.1-.47-2.2-.74-3.29-.56-2.21-2.6-3.75-4.9-3.47-2.51,.3-4.28,2.7-3.87,5.19,.15,.94,.41,1.88,.63,2.81,.7,3.1,1.4,6.21,2.1,9.31,.23,1.04,1.82,.6,1.59-.44Z" />
        <rect class="cls-24" x="238.64" y="215.31" width="12.01" height="2.95" rx="1.48" ry="1.48"
          transform="translate(402.22 -69.6) rotate(77.27)" />
        <rect class="cls-24" x="230.53" y="217.14" width="12.01" height="2.95" rx="1.48" ry="1.48"
          transform="translate(397.68 -60.27) rotate(77.27)" />
      </g>
      <path class="cls-42"
        d="M246.02,272.39c1.77-1.87,3.54-3.74,5.31-5.61,.6-.63-.36-1.59-.95-.95-1.77,1.87-3.54,3.74-5.31,5.61-.6,.63,.36,1.59,.95,.95h0Z" />
      <path class="cls-42"
        d="M250.29,272.51c2.14-2.01,4.13-4.17,5.96-6.47,.23-.29,.28-.68,0-.95-.23-.23-.73-.29-.95,0-1.82,2.3-3.81,4.46-5.96,6.47-.64,.6,.32,1.55,.95,.95h0Z" />
      <g class="cls-49">
        <path class="cls-27" d="M509.73,162.87c0,5.47-4.44,9.91-9.91,9.91s-9.91-4.44-9.91-9.91" />
        <path class="cls-43"
          d="M515.65,162.16h-30.79c-2.39,0-4.33-1.94-4.33-4.33v-7.22c0-10.89,8.83-19.73,19.73-19.73h0c10.89,0,19.73,8.83,19.73,19.73v7.22c0,2.39-1.94,4.33-4.33,4.33Z" />
        <path class="cls-42"
          d="M501.38,122.88V29.44c0-1.25,.09-2.54,0-3.79,0-.05,0-.11,0-.16,0-1.45-2.25-1.45-2.25,0v61.06c0,8.1,0,16.2,0,24.3v8.08c0,1.25-.09,2.54,0,3.79,0,.05,0,.11,0,.16,0,1.45,2.25,1.45,2.25,0h0Z" />
        <path class="cls-42"
          d="M508.61,162.87c-.07,4.79-3.94,8.79-8.79,8.79s-8.72-3.99-8.79-8.79c-.02-1.45-2.27-1.45-2.25,0,.06,4.59,2.88,8.7,7.18,10.34s9.35,.31,12.27-3.2c1.69-2.03,2.59-4.5,2.62-7.14,.02-1.45-2.23-1.45-2.25,0h0Z" />
        <path class="cls-7"
          d="M519.54,150.46v7.22c0,2.4-1.94,4.34-4.33,4.34h-30.79c-2.39,0-4.33-1.94-4.33-4.34v-2.95c4.89,.04,9.78,.08,14.67,.11,4.03,.03,8.1,.06,12.06-.72,4.58-.91,8.93-2.94,12.6-5.82,.08,.71,.12,1.43,.12,2.16Z" />
        <path class="cls-42"
          d="M488.6,136.1c8.62-6.88,21.66-4.67,27.46,4.7,2.17,3.5,2.79,7.28,2.79,11.33v4.92c0,1.75-.55,3.49-2.51,3.92-1.43,.31-3.12,.07-4.56,.07h-9.66c-5.61,0-11.22,.03-16.83,0-1.41,0-2.73-.49-3.36-1.87s-.29-3.29-.29-4.7-.03-2.86,0-4.29c.08-3.6,1.23-7.03,3.21-10.03,.8-1.21-1.15-2.34-1.94-1.14-1.84,2.78-2.99,5.91-3.38,9.23-.2,1.7-.14,3.42-.14,5.13,0,1.48-.05,2.97,0,4.45,.09,2.49,1.68,4.72,4.17,5.32,1.78,.42,3.88,.15,5.69,.15h10.87c3.65,0,7.29,0,10.94,0,1.8,0,3.77,.23,5.55-.09,2.63-.47,4.39-2.76,4.49-5.37,.05-1.36,0-2.74,0-4.1,0-4.25-.2-8.27-2.08-12.19-2.54-5.31-7.41-9.38-13.07-10.99-6.6-1.88-13.63-.29-18.95,3.97-1.13,.9,.47,2.49,1.59,1.59h0Z" />
        <path class="cls-20"
          d="M487.59,146.87c.15-.46,.3-.92,.47-1.38,.07-.21,.15-.41,.23-.61,.04-.11,.09-.23,.14-.34-.08,.19,.01-.03,.05-.11,.38-.85,.84-1.66,1.38-2.41-.08,.11-.1,.12,0,0,.07-.08,.13-.16,.2-.24,.14-.16,.28-.31,.43-.46s.3-.29,.46-.43c.05-.04,.28-.23,.04-.04,.07-.05,.13-.1,.2-.15,.34-.24,.7-.45,1.08-.63,.14-.07,.11-.03-.01,0,.1-.03,.19-.07,.29-.1,.22-.07,.44-.13,.66-.18,.77-.16,1.29-1.11,1.05-1.85-.26-.81-1.02-1.22-1.85-1.05-1.93,.41-3.64,1.65-4.85,3.19-1.38,1.77-2.2,3.85-2.88,5.98-.24,.75,.28,1.67,1.05,1.85,.82,.19,1.59-.25,1.85-1.05h0Z" />
        <path class="cls-20" d="M497.87,138.38c1.93,0,1.93-3,0-3s-1.93,3,0,3h0Z" />
      </g>
    </g>
  </g>
</svg>