<?xml version="1.0" encoding="iso-8859-1"?>
<!DOCTYPE svg PUBLIC "-//W3C//DTD SVG 1.1//EN" "http://www.w3.org/Graphics/SVG/1.1/DTD/svg11.dtd">
<!-- Uploaded to: SVG Repo, www.svgrepo.com, Generator: SVG Repo Mixer Tools -->
<svg fill="#000000"  version="1.1" xmlns="http://www.w3.org/2000/svg" xmlns:xlink="http://www.w3.org/1999/xlink"  width="800px"
	 height="800px" viewBox="0 0 512 512" enable-background="new 0 0 512 512" xml:space="preserve">

<g id="5151e0c8492e5103c096af88a50059a5">

<path display="inline" fill-rule="evenodd" clip-rule="evenodd" d="M66.084,0.5h379.819c36.079,0,65.597,29.505,65.597,65.584
		v379.819c0,36.079-29.518,65.597-65.597,65.597H66.084C30.005,511.5,0.5,481.982,0.5,445.903V66.084
		C0.5,30.005,30.005,0.5,66.084,0.5L66.084,0.5z M372.734,57.264c-12.65,0-23.005,10.355-23.005,23.005v55.067
		c0,12.65,10.354,23.005,23.005,23.005h57.762c12.65,0,23.005-10.354,23.005-23.005V80.269c0-12.65-10.354-23.005-23.005-23.005
		H372.734L372.734,57.264z M453.738,216.59h-44.975c4.254,13.897,6.55,28.606,6.55,43.852c0,84.996-71.111,153.898-158.839,153.898
		c-87.716,0-158.827-68.902-158.827-153.898c0-15.245,2.295-29.954,6.55-43.852H57.276v215.853c0,11.178,9.132,20.322,20.311,20.322
		h355.841c11.166,0,20.311-9.145,20.311-20.322V216.59L453.738,216.59z M256.475,155.447c-56.677,0-102.625,44.525-102.625,99.443
		s45.948,99.443,102.625,99.443c56.688,0,102.636-44.525,102.636-99.443S313.163,155.447,256.475,155.447z">

</path>

</g>

</svg>