<svg xmlns="http://www.w3.org/2000/svg" viewBox="0 0 1225.1 709.2">
  <g id="support_solid" data-name="support/solid" transform="translate(2.2)">
    <g id="support_solid-2" data-name="support/solid" transform="translate(-3)">
      <g id="support_solid-3" data-name="support_solid">
        <g id="suculent" transform="translate(150 397)">
          <path id="succulent" d="M292.406,70.973c-9.6-5.1-17.8-2.7-26.8,6.9,4.1-23.2,4-51.3-14.4-56-18.9-4.9-29.6,6.9-40.7,35.4.4-24.4-4.4-55.9-24.6-57.2-22.7-1.4-30.3,17.3-35.9,58.8-7.1-23.2-26.6-63.9-49.6-55.8-22.5,7.9-21,29.6-8.5,73.8-12.3-19.1-37-47.5-53.5-36.7-15.7,10.2-11.4,26.9,6,57.9-11.5-5-23.4-5.5-33,3.9-21.5,21.2-11.1,41.3,18.6,78.6,29.8,37.3,243.7-28.7,253.8-45.5C294.006,118.173,309.906,80.373,292.406,70.973Z" transform="translate(17.494 0.527)" fill="#fff"/>
          <path id="succulent_2_" d="M74.2,197.887h-.008c-22.29,0-36.937-4.188-43.534-12.445a316.178,316.178,0,0,1-19.342-26.368c-4.657-7.327-7.666-13.449-9.469-19.265l-.22-.728C-.4,132.194-.534,125.968,1.2,120.046c1.744-5.939,5.376-11.571,11.1-17.217A27.631,27.631,0,0,1,32.2,94.53a35.847,35.847,0,0,1,8.6,1.105l.252.064-.436-.821c-6.843-12.951-10.4-22.126-11.529-29.749l-.057-.4c-.737-5.337-.233-9.871,1.54-13.86a23.634,23.634,0,0,1,9.2-10.21,17.4,17.4,0,0,1,9.681-2.907C56.009,37.755,63.481,41.2,71.65,48A118.511,118.511,0,0,1,87.541,64.538l.258.321-.2-.826C83.865,48.7,82.451,38.054,83.011,29.525l.065-.868c.549-6.567,2.359-11.8,5.533-15.982,3.19-4.207,7.7-7.293,13.8-9.433A21.339,21.339,0,0,1,109.506,2a24.407,24.407,0,0,1,13.961,4.832,56.611,56.611,0,0,1,13.14,13.661,137.993,137.993,0,0,1,15.2,28.887l.022.058.18-1.067c2.628-15.444,5.628-25.654,9.725-33.1l.193-.346a29.424,29.424,0,0,1,10.3-11.227A26.966,26.966,0,0,1,186.608,0c.808,0,1.646.026,2.49.078a20.913,20.913,0,0,1,13.739,6.27c3.693,3.673,6.7,8.962,8.941,15.718a100.486,100.486,0,0,1,4.374,24.315l.013.175.359-.734c4.309-8.714,8.707-14.917,13.443-18.962a24.053,24.053,0,0,1,16.191-6.113,34.7,34.7,0,0,1,8.194,1.067l.6.15a20.818,20.818,0,0,1,11.824,7.963c2.9,3.9,4.927,9.116,6.028,15.5,1.3,7.565,1.33,16.7.074,27.158l-.061.5.42-.3a21.814,21.814,0,0,1,12.72-4.43,22.681,22.681,0,0,1,10.505,2.786l.367.193a16.444,16.444,0,0,1,5.735,5.033,19.623,19.623,0,0,1,3.049,7.268c1.147,5.382.743,12.205-1.2,20.281-2.662,11.071-8.423,24.753-15.034,35.707-1.419,2.361-5.877,5.417-13.249,9.082A281.289,281.289,0,0,1,248.3,160.262a760.836,760.836,0,0,1-80.314,23.767c-18.883,4.5-36.339,7.959-51.882,10.278A290.3,290.3,0,0,1,74.2,197.887ZM32.258,100.535a21.882,21.882,0,0,0-15.746,6.573c-9.8,9.66-12.526,18.716-9.128,30.281,2.982,10.149,10.258,21.86,25.951,41.769l2.014,2.542c2.7,3.384,7.4,5.961,13.97,7.662,6.386,1.653,14.588,2.492,24.379,2.492,23.284,0,55.407-4.724,92.9-13.662a762.584,762.584,0,0,0,79.457-23.5c10.452-3.8,19.605-7.539,26.47-10.825,6.7-3.208,10.751-5.749,11.713-7.348,6.317-10.468,11.812-23.5,14.339-34.014,1.615-6.718,2.055-12.332,1.306-16.685-.759-4.416-2.739-7.512-5.884-9.2a17.058,17.058,0,0,0-8.049-2.255c-4.685,0-9.291,2.5-14.5,7.866l-.66.692a2.9,2.9,0,0,1-2.157.959,3.114,3.114,0,0,1-2.359-1.1,2.924,2.924,0,0,1-.627-2.43c2.539-14.368,2.86-26.7.929-35.675-2.048-9.511-6.464-15.2-13.128-16.9a27.75,27.75,0,0,0-7-.974c-6.181,0-11.291,2.585-16.081,8.134-4.692,5.436-9.162,13.833-14.067,26.424a2.884,2.884,0,0,1-2.758,1.915,3.12,3.12,0,0,1-2.218-.909,2.912,2.912,0,0,1-.82-2.144C210.762,44.57,209,31.316,205.4,21.892,201.624,12,195.857,6.526,188.721,6.067,187.99,6.022,187.269,6,186.58,6c-9.03,0-15.123,3.842-19.757,12.458-4.554,8.47-7.9,21.983-10.845,43.816a2.953,2.953,0,0,1-2.988,2.6,2.907,2.907,0,0,1-2.854-2.123c-4.372-14.285-11.253-28.778-18.408-38.768-7.575-10.58-15.1-15.944-22.355-15.944A14.947,14.947,0,0,0,104.4,8.9c-9.79,3.438-14.371,9.383-15.318,19.879-.933,10.347,1.672,25.383,8.711,50.275a2.9,2.9,0,0,1-.445,2.595,3.193,3.193,0,0,1-2.5,1.238A2.869,2.869,0,0,1,92.383,81.5c-7.081-11-14.792-20.339-22.3-27.022-7.795-6.938-14.96-10.6-20.722-10.6a11.334,11.334,0,0,0-6.32,1.818c-6.671,4.334-9.168,9.9-8.1,18.064,1.064,8.112,5.715,19.169,15.079,35.853a2.915,2.915,0,0,1-.013,2.965,2.962,2.962,0,0,1-3.8,1.255A35.42,35.42,0,0,0,32.258,100.535Z" transform="translate(14.495 -2.472)" fill="#fe7624"/>
          <path id="pot" d="M311.357.6l.2-.6L23.857.9l.2.6A29.748,29.748,0,0,0,.357,35.2L21.857,174l291.6-.9,21.5-138.8A29.654,29.654,0,0,0,311.357.6Z" transform="translate(0.243 134.2)" fill="#feba91"/>
        </g>
        <g id="woman" transform="translate(240)">
          <g id="body" transform="translate(0 218)">
            <path id="clothing" d="M691.836,107.657a119.019,119.019,0,0,0-13.4.8c-23.9-33-51.3-61-80.1-78.8-75-46.2-178-33-274.1,2.6-66.1,24.4-149.8,103.2-203.5,159-70,5.3-123.8,52.9-120.6,107.4a80.582,80.582,0,0,0,9.6,33.4l234.9,1.6c.4-.6.8-1.3,1.2-1.9l348.4-1.2c.4.5.8,1,1.2,1.6l192.9-.3c17.9-23.7,28.6-54,28.6-87.1C816.936,168.957,760.936,107.657,691.836,107.657Z" transform="translate(0.964 156.143)" fill="#5d21d1"/>
            <g id="clothing_lines" transform="translate(119 190)">
              <path id="Path" d="M319.2,0C230.5,55,150.9,56.2,99.3,47.3,51.5,39.1,17,20.7,5.8,13.5,3.9,14.6,2,15.7,0,16.8,9.2,23.1,45.2,43.9,97.2,53a294.635,294.635,0,0,0,51.3,4.5,298.4,298.4,0,0,0,52.4-4.6c42.1-7.5,83.6-24,123.6-49.1C322.7,2.4,321,1.2,319.2,0Z" transform="translate(168 0.3)" fill="#fff"/>
              <path id="Path-2" data-name="Path" d="M5.461,39.4c14.1-19.8,31.5-30.9,51.8-33.1a66.5,66.5,0,0,1,22,1.4c-1.9-2.4-3.8-4.8-5.7-7.1a69.423,69.423,0,0,0-16.6-.2C41.661,2,19.461,9.4.561,36a3.041,3.041,0,0,0,.7,4.2,2.716,2.716,0,0,0,1.7.6A3.23,3.23,0,0,0,5.461,39.4Z" transform="translate(472.539 55.395)" fill="#fff"/>
              <path id="Path-3" data-name="Path" d="M3,96H3a3.08,3.08,0,0,0,3.1-2.9c.2-8.8,3.7-28.8,16-47.6C36.3,23.6,57.3,10.2,84.3,5.4,83,3.6,81.7,1.8,80.3,0,53.3,5.5,31.5,20,17,42.2,4.9,60.8.3,81.2,0,92.9A3.031,3.031,0,0,0,3,96Z" transform="translate(476.1 69.1)" fill="#fff"/>
              <path id="Path-4" data-name="Path" d="M42.8.114a143.643,143.643,0,0,0-33.9,2.6c-3,3-6,6-8.9,9,11.1-6.1,74.3-13.7,100.4,16a2.9,2.9,0,0,0,2.3,1,3.057,3.057,0,0,0,2-.7,3,3,0,0,0,.3-4.2C88.1,4.514,58.8.714,42.8.114Z" transform="translate(12.6 135.486)" fill="#fff"/>
              <g id="Group" transform="translate(0 150)">
                <path id="Path-5" data-name="Path" d="M.422.522h.2a.139.139,0,0,0-.2,0Z" transform="translate(0.278 7.078)" fill="#fff"/>
                <path id="Path-6" data-name="Path" d="M104.1,27.647C68.8.947,24.8-.653,6.2.147c-2.1,2.2-4.2,4.3-6.2,6.4,10.7-.9,61.8-3.3,100.5,25.9a3,3,0,0,0,3.6-4.8Z" transform="translate(2.7 0.853)" fill="#fff"/>
              </g>
            </g>
            <path id="hand" d="M0,81.535s32.8-97,125.1-79.4,218.6,55.4,218.6,55.4v24.3Z" transform="translate(73.3 405.765)" fill="#fff"/>
            <path id="hand_2_" d="M346.7,87.84,3,87.54A3,3,0,0,1,.16,83.579c.023-.069.055-.16.095-.271l.388-1.062c.145-.386.283-.748.422-1.1l.489-1.23C2.782,76.877,4.211,73.7,5.8,70.474a155.71,155.71,0,0,1,18.11-28.579A127.26,127.26,0,0,1,42.538,22.951,104.686,104.686,0,0,1,64.41,9.132,96.733,96.733,0,0,1,84.479,2.324,101.446,101.446,0,0,1,106.258,0a120.073,120.073,0,0,1,22.406,2.193c17.189,3.278,36.8,7.5,58.276,12.541l3.644.859c12.756,3.021,26.314,6.362,40.3,9.931,26.091,6.658,53.663,14.092,81.95,22.1,8.758,2.478,17.286,4.928,25.347,7.282l5.392,1.582,3.992,1.183A2.98,2.98,0,0,1,349.7,60.54v24.3A3,3,0,0,1,346.7,87.84ZM106.258,6a92.239,92.239,0,0,0-39.31,8.571c-14.231,6.641-27.136,17.1-38.355,31.081A149.626,149.626,0,0,0,11.184,73.127c-1.3,2.644-2.5,5.254-3.542,7.757l-.274.661,336.335.293V62.778l-9.278-2.722c-7.445-2.167-15.259-4.409-23.226-6.664l-4.2-1.187c-26.729-7.529-52.836-14.55-77.6-20.869-13.977-3.566-27.5-6.9-40.2-9.9-22.839-5.408-43.584-9.9-61.661-13.344A114.049,114.049,0,0,0,106.258,6Z" transform="translate(70.298 402.76)" fill="#2e186a"/>
            <g id="hand_II_1_" transform="translate(682)">
              <path id="Path-7" data-name="Path" d="M8.393,90.508s-7.4-3.7-8.3-12.2,4.8-45.5,14-50.7c9.3-5.2,51.6-28.1,59.4-27.6S84.493,68.408,8.393,90.508Z" transform="translate(111.707 38.492)" fill="#fff"/>
              <path id="Path-8" data-name="Path" d="M0,63.453c15.8-55.3,28.7-67.7,36.2-62.3,6.8,4.9-7,40.1-11,58.4" transform="translate(124.6 6.747)" fill="#fff"/>
              <path id="Path_2_" d="M21.706,10.946l.485-.725C28.586.826,35.227-2.352,40.955,1.772c3.377,2.433,3.741,7.462,2.39,15.456l-.2,1.127c-.9,4.945-2.39,10.72-4.819,19.117l-3.971,13.55c-1.858,6.4-2.478,8.8-3.226,12.224a3,3,0,0,1-5.862-1.281l.284-1.276c.645-2.843,1.3-5.336,2.818-10.569l4-13.652a186.722,186.722,0,0,0,5.057-20.24l.123-.76c.812-5.219.557-8.352-.1-8.828-2.3-1.657-5.805.112-10.728,7.6l-.445.688c-6.319,9.923-13.222,27.314-20.39,52.4A3,3,0,0,1,.116,65.682l.516-1.795C7.939,38.642,15.023,21.114,21.706,10.946Z" transform="translate(121.599 3.694)" fill="#2e186a"/>
              <path id="hand_II_3_" d="M190.45,8.495c7.9-12.9,21-12.2,14.2,9.7-6.7,21.4-11.6,49.2-24.1,61.8s-17,18.2-17,18.2-25,93.3-39.2,170.9c-20.5,112.2-59.3,133.8-95.5,120.9-36.2-12.8-42.9-63.6,6.5-162.1,49.4-98.6,75.5-156,75.5-156" transform="translate(3.85 49.705)" fill="#fff"/>
              <path id="hand_II_4_" d="M190.892,9.939C195.377,2.616,201.9-1.492,207.131.5c5.761,2.195,6.884,10.02,3.519,21.153l-.726,2.359c-.866,2.852-1.757,5.978-2.936,10.246l-2.173,7.893c-6.357,22.93-11.063,34.677-18.879,42.7l-1.965,1.99c-4.086,4.151-7.494,7.737-10.278,10.779l-1.1,1.214c-1.158,1.282-2.107,2.36-2.86,3.242l-.45.528-1.58,6-1.418,5.445c-1.376,5.309-2.864,11.123-4.442,17.372-5.709,22.614-11.418,46.275-16.746,69.82l-1.151,5.113c-2.472,11.035-4.8,21.783-6.953,32.175l-.866,4.2q-2.781,13.57-5.116,26.093l-.705,3.821c-9.78,53.527-24.185,89.309-42.63,108.881-16.5,17.508-35.978,21.736-56.821,14.308C10.821,388.751.026,371.072,0,344.1c-.026-28.082,11.49-66.023,34.953-113.1l4.611-9.218C58.249,184.377,74.747,150.59,89,120.757l5.544-11.643q5.135-10.823,9.316-19.772l4.382-9.421,2.878-6.257a3,3,0,0,1,5.53,2.321l-.376.837-3.118,6.766-4.281,9.194q-4.869,10.409-11,23.313l-4.2,8.8c-15.088,31.553-32.658,67.472-52.642,107.36C-4.344,322.726-4.293,377.043,32.857,390.179c18.655,6.648,35.618,2.966,50.447-12.769,17.326-18.384,31.223-52.658,40.806-104.275l.289-1.569c1.976-10.8,4.223-22.244,6.715-34.253,2.5-12.028,5.216-24.528,8.127-37.394,5.043-22.287,10.426-44.671,15.827-66.178l2.2-8.7q1.532-6.024,2.929-11.423l1.864-7.16,1.592-6.028a3,3,0,0,1,.559-1.1l.412-.5.545-.643c.789-.923,1.774-2.043,2.968-3.365l1.515-1.663c3.154-3.433,7.054-7.511,11.769-12.264l.456-.469c6.406-6.731,10.752-17.234,16.357-37.018l3.6-12.992c1-3.571,1.795-6.329,2.6-8.933l.361-1.164c2.7-8.7,2.057-13.5.21-14.207s-5.826,1.8-8.986,6.963a3,3,0,0,1-5.117-3.134Z" transform="translate(0.85 46.695)" fill="#2e186a"/>
              <path id="Path-9" data-name="Path" d="M26.12,74.442c-7.2-4.9-6.3-33.1-14.4-45.4-10-15.3-19.8-31.2-1.3-28.8,15.9,2,20.9,16,24.6,21" transform="translate(89.48 48.858)" fill="#fff"/>
              <path id="Path_2_2" data-name="Path_2_" d="M.47,11.705C-1.609,3.331,3.273-1.122,13.794.243,22.625,1.354,29.02,5.723,34.2,12.7l.242.332c1.891,2.647,5.49,8.678,5.964,9.369l.027.038A3,3,0,1,1,35.608,26l-.1-.145c-.854-1.263-4.595-7.525-6.124-9.585-4.276-5.759-9.3-9.193-16.348-10.079-3.677-.477-5.815-.138-6.6.578-.464.423-.62,1.406-.2,3.233l.061.254c1.04,4.19,4.046,9.551,10.6,19.6l.336.515c3.063,4.652,4.948,10.806,6.873,20.648l.389,2.031L25.66,59.4c1.829,9.681,3.257,14.141,5.055,15.479l.092.065a3,3,0,0,1-3.376,4.96c-3.752-2.553-5.365-7.274-7.556-18.8l-1.352-7.293-.195-1.02c-1.784-9.257-3.485-14.988-5.958-18.874L10.512,31.05C4.472,21.681,1.654,16.473.47,11.705Z" transform="translate(86.481 45.88)" fill="#2e186a"/>
              <path id="Path-10" data-name="Path" d="M3,63.39s14.1-34.2,18.8-50.1C27-4.01,8.8-6.51,0,18.39" transform="translate(182.1 18.21)" fill="#fff"/>
              <path id="Path_2_3" data-name="Path_2_" d="M18.956.024c7.8-.507,11.6,7.089,8.818,16.791l-.1.328C26.241,22,23.885,28.756,20.812,36.962l-.55,1.463q-.637,1.691-1.307,3.443c-1.949,5.1-4.019,10.378-6.1,15.6l-1.708,4.254L9.372,66.078l-.6,1.458a3,3,0,0,1-5.61-2.122L5.579,59.47q.394-.977.81-2.012c2.077-5.17,4.154-10.432,6.123-15.549l1.277-3.336.858-2.265c3.2-8.5,5.666-15.5,7.155-20.459l.125-.42c1.915-6.373.336-9.607-2.582-9.418-4.32.281-9.885,6.106-13.516,16.381a3,3,0,1,1-5.657-2C4.518,8.1,11.783.49,18.956.024Z" transform="translate(179.099 15.207)" fill="#2e186a"/>
              <path id="Path-11" data-name="Path" d="M18.8,69S46.5,6.3,34.1.7C22.8-4.4,14.2,18.5,0,62.7" transform="translate(149.7 3.598)" fill="#fff"/>
              <path id="Path_2_4" data-name="Path_2_" d="M18.883,14.095C24.9,2.463,31.012-2.277,38.336,1.029c7.532,3.4,6.1,16.387-.633,37.593-1.144,3.6-2.431,7.361-3.834,11.236-1.812,5-3.738,9.975-5.677,14.742l-.727,1.778c-.679,1.65-1.316,3.167-1.9,4.529l-1.023,2.369a3,3,0,0,1-5.488-2.425l.781-1.8.65-1.528c.449-1.061.927-2.207,1.428-3.426,2.152-5.227,4.3-10.74,6.311-16.279,1.378-3.8,2.639-7.488,3.757-11.008l.49-1.564C37.522,18.895,38.658,7.758,35.867,6.5c-3.472-1.567-7.172,1.43-12.048,11.126l-.56,1.131c-4.489,9.223-9.293,22.686-17.4,47.926A3,3,0,1,1,.145,64.845l1.743-5.4C9.3,36.592,13.853,24.157,18.313,15.218Z" transform="translate(146.699 0.537)" fill="#2e186a"/>
            </g>
          </g>
          <g id="head" transform="translate(313)">
            <path id="neck" d="M0,24.3,3.9,95s-6.6,38.2,46.4,31.1c52.8-7,46.3-38.3,46.3-38.3L80.3,0Z" transform="translate(84.8 311.9)" fill="#fff"/>
            <path id="neck_2_" d="M40.946,132.987h0c-8.958,0-16.462-1.574-22.3-4.677A27.02,27.02,0,0,1,6.356,115.216,32.769,32.769,0,0,1,3.783,98.768c.02-.206.042-.4.064-.592l.041-.32L0,27.466A2.991,2.991,0,0,1,2.131,24.43L82.431.13A3,3,0,0,1,86.25,2.453L102.56,90.3c.032.168.065.375.1.616l.05.407a27.3,27.3,0,0,1-.8,10.279,31.29,31.29,0,0,1-5.487,10.863c-7.912,10.3-22.285,16.9-42.721,19.607A96.811,96.811,0,0,1,40.946,132.987ZM80.962,6.842,6.125,29.489,9.9,97.836a3.038,3.038,0,0,1-.009.452l-.031.224c-.015.088-.035.238-.056.412l-.045.423a26.742,26.742,0,0,0,2.078,13.419c4.227,9.45,13.947,14.242,28.89,14.243a92.614,92.614,0,0,0,12.183-.882c18.806-2.493,31.846-8.319,38.756-17.314A23.375,23.375,0,0,0,96.746,92c-.023-.2-.046-.368-.068-.5L80.962,6.842Z" transform="translate(81.8 308.899)" fill="#2e186a"/>
            <path id="ear" d="M0,2.7S41-12.7,42.6,30,0,61.6,0,61.6" transform="translate(185.4 219.996)" fill="#fff"/>
            <path id="ear_2_" d="M6.971,1.441A45.966,45.966,0,0,1,24.807.484C38.939,2.787,47.858,13.126,48.6,32.9c.766,20.447-8.337,31.639-23.635,34.987a52.582,52.582,0,0,1-18.985.341l-.968-.155c-1.22-.206-2.152-.4-2.74-.551a3,3,0,0,1,1.289-5.857l.651.147.31.065c.688.142,1.479.285,2.36.419a46.831,46.831,0,0,0,16.8-.27C36.2,59.286,43.258,50.608,42.6,33.125l-.046-1.016c-.867-16.25-7.659-23.9-18.715-25.7A40.221,40.221,0,0,0,8.351,7.28c-1.01.239-1.943.492-2.782.745l-.412.127c-.306.1-.558.179-.752.245l-.35.124A3,3,0,1,1,1.946,2.9l.387-.141A46.734,46.734,0,0,1,6.971,1.441Z" transform="translate(182.399 216.987)" fill="#2e186a"/>
            <path id="face" d="M80.4,202.1h0A80.4,80.4,0,0,1,0,121.7V51.5A51.555,51.555,0,0,1,51.5,0h70.4a39.05,39.05,0,0,1,39,39v82.6A80.511,80.511,0,0,1,80.4,202.1Z" transform="translate(28.1 155.6)" fill="#fff"/>
            <path id="face_2_" d="M83.4,208.1a83.008,83.008,0,0,1-46.628-14.244A83.653,83.653,0,0,1,6.554,157.162,82.867,82.867,0,0,1,0,124.7V54.5A54.562,54.562,0,0,1,54.5,0h70.4a42.047,42.047,0,0,1,42,42v82.6a83.117,83.117,0,0,1-13.977,46.251,83.769,83.769,0,0,1-36.109,30.291,82.953,82.953,0,0,1-32.057,6.948ZM54.5,6A48.555,48.555,0,0,0,6,54.5v70.2a77.476,77.476,0,0,0,77.376,77.4l1.308-.011c42.026-.682,76.217-35.444,76.217-77.49V42a36.041,36.041,0,0,0-36-36Z" transform="translate(25.1 152.6)" fill="#2e186a"/>
            <g id="headphones" transform="translate(14 250)">
              <path id="Path-12" data-name="Path" d="M93.11,64.6a277.361,277.361,0,0,0-4.9-52.2c0-.3.1-.7.1-1A11.4,11.4,0,0,0,76.91,0V11.4l.3,11.4a11.725,11.725,0,0,0,6.4-2.2c3.7,23,11,91.6-19.8,149.9-5.6,10.7-10.9,20.6-16.1,30.1-29,54.1-48.2,89.9-47.7,121.8a3.076,3.076,0,0,0,3,3h0a3.009,3.009,0,0,0,3-3c-.4-30.4,18.5-65.6,47-118.9,5.1-9.6,10.4-19.4,16.1-30.2C89.21,135.2,93.31,93.2,93.11,64.6Z" transform="translate(100.59 0.7)" fill="#fe7624"/>
              <path id="Path-13" data-name="Path" d="M6.1,21.3a10.321,10.321,0,0,0,4.6,1.4V0A11.276,11.276,0,0,0,.5,9.7,3.371,3.371,0,0,0,0,11.4C0,16,0,123.7,32,172.3c32.7,49.8,42.8,78.2,45.1,126.4a3.058,3.058,0,0,0,3,2.9h.1a3.075,3.075,0,0,0,2.9-3.1C80.8,248.9,70.5,219.9,37,169,11.4,130.2,6.9,49.4,6.1,21.3Z" transform="translate(0.2 3.5)" fill="#fe7624"/>
            </g>
            <path id="nose" d="M2.949,0A3,3,0,0,1,5.991,2.773L6,2.949,7.077,66.433l.047.018a1.165,1.165,0,0,0,.789-.067l.147-.059c1.542-.66,3.574-2.892,5.907-7.163a3,3,0,0,1,5.266,2.876c-5.481,10.037-11.379,12.56-16.09,9a6.908,6.908,0,0,1-1.506-1.524,3,3,0,0,1-.525-1.44L1.1,67.851,0,3.051A3,3,0,0,1,2.949,0Z" transform="translate(80.9 226)" fill="#2e186a"/>
            <path id="mouth" d="M34.557.491A3,3,0,0,1,39.07,2.127l.07.248c.073.277.155.641.232,1.084a16.941,16.941,0,0,1-1.728,11.129c-3.35,6.205-10.59,10.25-22.25,11.4a3,3,0,0,1-.588-5.971c9.819-.967,15.25-4,17.559-8.278A10.594,10.594,0,0,0,33.482,8.5l.065-.424-.091.05C20.416,15.149,7.389,15.617.933,8.395L.718,8.148A3,3,0,0,1,5.283,4.255C9.924,9.7,22.209,8.573,34.557.491Z" transform="translate(80.9 301.398)" fill="#2e186a"/>
            <path id="brow" d="M4.668,3.792c6.546-4.979,14.318-5.511,22.7,1.157a3,3,0,0,1-3.735,4.7C17.568,4.82,12.8,5.146,8.3,8.568a19.424,19.424,0,0,0-1.737,1.5l-1.1,1.089c-.155.149-.286.268-.427.382a3.053,3.053,0,0,1-1.307.67A3,3,0,0,1,1.2,6.9l.13-.094.657-.653A26.44,26.44,0,0,1,4.668,3.792Z" transform="translate(106.499 198.803)" fill="#2e186a"/>
            <ellipse id="eye_II" cx="5" cy="7.7" rx="5" ry="7.7" transform="translate(127 240.4)" fill="#2e186a"/>
            <ellipse id="eye" cx="5" cy="7.7" rx="5" ry="7.7" transform="translate(54.3 242.3)" fill="#2e186a"/>
            <path id="brow_II" d="M4.955,4.256C12.444-1.718,20.656-2,27.868,7.264a3,3,0,1,1-4.734,3.686c-4.869-6.253-9.3-6.1-14.437-2a25.977,25.977,0,0,0-2.017,1.8L5.5,11.922c-.159.155-.292.277-.429.392a2.984,2.984,0,0,1-1.345.7A3,3,0,0,1,1.2,7.709l.115-.083.772-.774A33.308,33.308,0,0,1,4.955,4.256Z" transform="translate(40.399 197.393)" fill="#2e186a"/>
            <g id="hair_shape" transform="translate(24)">
              <path id="Path-14" data-name="Path" d="M103.795.011c-19.5.3-34.3,1.2-43.1,2.9h0c-71.6,16.3-60,69.3-60,69.3s35,6.7,63.5-35.5c0,0,39.1,31.9,97,44.8.9-.2,2-.5,3-.8v2.9a46.707,46.707,0,0,1,14.6-1.5c-.6-20.9-4.4-47.3-21.6-64.3C144.995,5.711,126.995-.289,103.795.011Z" transform="translate(0.805 138.089)" fill="#2e186a"/>
              <path id="Path-15" data-name="Path" d="M2.588,2.535A351.244,351.244,0,0,1,47.432.006C78.34.334,99,11.722,111.237,31.807a88.58,88.58,0,0,1,10.444,27,171.635,171.635,0,0,1,3.408,23.935,3,3,0,0,1-5.977.521l-.161-1.795c-1.865-20.148-5.064-33.788-12.837-46.542C94.965,16.638,76.235,6.312,47.382,6.006L45.619,6A342.914,342.914,0,0,0,3.413,8.478a3,3,0,1,1-.825-5.943Z" transform="translate(60.5 131.994)" fill="#fff"/>
              <path id="Path-16" data-name="Path" d="M232.111,94.587c-24.7-70.6-94.7-110.3-156.4-88.7-50.7,17.7-80,71.4-75.2,129.1,9.3-1.6,23.9-2.6,43.7-2.9,24.9-.3,44.3,6.2,57.7,19.5,19,18.8,22.9,47.3,23.4,69.5,9.2,2.5,17.7,10,18.4,28.9.1,1.9-1.6,16.6-1.2,16.5a31.6,31.6,0,0,0,4.5,16.4c6.9,11.1,20.9,18,41.7,20.4h.4a2.96,2.96,0,0,0,.4-5.9c-18.8-2.2-31.4-8.1-37.3-17.6a24.467,24.467,0,0,1-3.6-11.1c5.1,6,14,12.5,28.1,12.5a56.866,56.866,0,0,0,11.1-1.2,2.961,2.961,0,1,0-1.2-5.8c-18.2,3.8-28.3-3.1-33.6-9.3a103.666,103.666,0,0,0,12.1-3.4C226.711,239.787,256.711,165.087,232.111,94.587Z" transform="translate(60.389 0.013)" fill="#2e186a"/>
            </g>
            <g id="glasses" transform="translate(0 213)">
              <path id="Oval" d="M39.6,79.2A39.61,39.61,0,0,1,24.186,3.112,39.61,39.61,0,0,1,55.014,76.088,39.353,39.353,0,0,1,39.6,79.2ZM39.6,6A33.6,33.6,0,1,0,73.2,39.6,33.638,33.638,0,0,0,39.6,6Z" transform="translate(96.7 -2.6)" fill="#2e186a"/>
              <path id="Path-17" data-name="Path" d="M26.8,0a3,3,0,0,1,.176,5.995L26.8,6H3A3,3,0,0,1,2.824.005L3,0Z" transform="translate(72.1 33.1)" fill="#2e186a"/>
              <path id="Path-18" data-name="Path" d="M22.224.389a3,3,0,0,1,3.109,5.129l-.156.095-20.7,11.7a3,3,0,0,1-3.109-5.129l.156-.095Z" transform="translate(165.299 4.599)" fill="#2e186a"/>
              <path id="Oval-2" data-name="Oval" d="M39.6,79.2A39.61,39.61,0,0,1,24.186,3.112,39.61,39.61,0,0,1,55.014,76.088,39.353,39.353,0,0,1,39.6,79.2ZM39.6,6A33.6,33.6,0,1,0,73.2,39.6,33.638,33.638,0,0,0,39.6,6Z" transform="translate(-2.3 -2.6)" fill="#2e186a"/>
            </g>
          </g>
        </g>
        <g id="laptop" transform="translate(482 497)">
          <path id="shape" d="M359.355,170.5h-20.8l-10.2-151.3A20.85,20.85,0,0,0,307.855,0H17.955A17.674,17.674,0,0,0,.055,19.2l11.3,167.5a20.85,20.85,0,0,0,20.5,19.2l327.4-.4a10.819,10.819,0,0,0,10.8-10.8V181.4A10.693,10.693,0,0,0,359.355,170.5Z" transform="translate(0.645 0.3)" fill="#fe7624"/>
          <g id="icon" transform="translate(140 61)">
            <path id="Path-19" data-name="Path" d="M43.636,39.048a28.182,28.182,0,0,0-15.4-8.3,10.226,10.226,0,0,0,1.7-4.6,10.449,10.449,0,0,0-8.6-11.2h-.3c-1.1-4.1-3.2-10.9-5.6-13.8a3.1,3.1,0,0,0-3.8-.8,2.084,2.084,0,0,0-.4,3.2c1.6,1.9,3.5,7.8,4.7,12.3a9.2,9.2,0,0,0-4.9,7.5,10.623,10.623,0,0,0,2.8,8.1,23.432,23.432,0,0,0-5.1,2.3c-10.4,6.5-11.7,19.3-2.9,28.8,8.8,9.4,24.5,11.8,34.9,5.3C51.236,61.348,52.536,48.448,43.636,39.048Z" transform="translate(0.364 0.352)" fill="#fff"/>
            <path id="Path-20" data-name="Path" d="M17,.316s-15-3-17,9.5C.1,9.816,11.9,14.016,17,.316Z" transform="translate(22.6 0.684)" fill="#fff"/>
          </g>
        </g>
        <path id="line" d="M1222.1,0a3,3,0,0,1,.176,5.995L1222.1,6H3A3,3,0,0,1,2.824.005L3,0Z" transform="translate(0.8 703.2)" fill="#2e186a"/>
      </g>
    </g>
  </g>
</svg>
