<svg data-name="Layer 1" xmlns="http://www.w3.org/2000/svg" xmlns:xlink="http://www.w3.org/1999/xlink" viewBox="0 0 400 300"><defs><linearGradient id="linear-gradient" x1="145.79" y1="228.13" x2="174.84" y2="184.57" gradientUnits="userSpaceOnUse"><stop offset="0.01" stop-color="#f7931e" stop-opacity="0"/><stop offset="0.99" stop-color="#f7931e"/></linearGradient><linearGradient id="linear-gradient-2" x1="53.06" y1="175.15" x2="79.2" y2="161.35" xlink:href="#linear-gradient"/><linearGradient id="linear-gradient-3" x1="241.83" y1="260.22" x2="267.97" y2="246.43" xlink:href="#linear-gradient"/><linearGradient id="linear-gradient-4" x1="296.47" y1="230.75" x2="322.61" y2="216.96" xlink:href="#linear-gradient"/></defs><path d="M42.06,156.58l92.63-53.71a22.63,22.63,0,0,1,22.66,0L344,210.56a9.48,9.48,0,0,1,.07,16.39L250.6,282a17.91,17.91,0,0,1-18,.11L42.1,173.06A9.51,9.51,0,0,1,42.06,156.58Z" fill="#faede4"/><path d="M182.7,253,89.62,199.29l56.55-31.82L190.4,175l32,51.35C216.07,230.18,188.91,249,182.7,253Z" opacity="0.48" fill="url(#linear-gradient)"/><path d="M136.15,161.92s7.3-5.8,25.15-6.31,48.73,5.23,57.84,12.82,12.82,55.51,0,59.39S193,200.83,195,187.5s-49.94-11.14-49.94-11.14" fill="#202e51"/><path d="M187.9,159.69s-7.07-34.41-4.73-41.42,4.63-10.57,7.86-10.57,25.49,7.38,29.74,13.54-4,29.74-3.82,35.48,2.34,9.77.42,11.68S189.71,169.24,187.9,159.69Z" fill="#4933ca"/><path d="M214.67,150.13l-1.82-15.82s.11-15.12,6.2-14.9,6.16,37.43,2.94,41.41c0,0-2.42,5.23-9.93,1.82s-19.12-25.83-19.12-25.83,2.28-4.1,5.35-4.1S209.55,141.59,214.67,150.13Z" fill="#d0573d"/><path d="M186,174s-33.08-17.44-47.55-12.93-6.71,16.83,4,20.2,44.47,1.15,44.47,1.15S188.77,176,186,174Z" fill="#202e51"/><path d="M186.91,182.42s9.07,42.43,28.31,45.35-1.31-49.43-5-52.78" fill="#202e51"/><path d="M206.78,182.08a10.87,10.87,0,0,1-4.61-5.48c-1-2.08-2.24-3.66-4.74-3.54-3.95.18-7.93,3.67-13,3.64.61,2.22,2.06,4.12,2.72,7.06,2.13,0,7.06.19,10.34,2s7.49,4.87,11.1,6.86a3.29,3.29,0,0,0,3.13-3.47C211.73,185.85,209.41,183.65,206.78,182.08Z" fill="#d0573d"/><path d="M177.79,165.1a10.87,10.87,0,0,0,7.11.79c2.27-.34,4.28-.17,5.57,2,2,3.38-.35,6.52,2.47,10.7a15.37,15.37,0,0,0-5.67,3.76c-1.18-1.77-4.08-5.76-7.41-7.49s-8.22-3.52-11.87-5.42a3.29,3.29,0,0,1,1.15-4.54C171.91,163.08,175,163.79,177.79,165.1Z" fill="#d0573d"/><path d="M193.51,107s-3.17-1-2.68-6.12S188.37,90.81,193.27,87s17.49-3.57,21.26,3-.79,15.9-6.15,17" fill="#202e51"/><path d="M195.06,90.65c-.67.35-1.82,4.48-1.12,8.26,0,0-2.1,7.42,1.12,12s15-2.66,15.26-6.58S206.68,84.63,195.06,90.65Z" fill="#d0573d"/><path d="M194,89.3c1.06,1.35-1,3.91,5.35,6.48s7.83,3.46,6.74,5.84-3.61,1.59-1.65,3.47,2.9,5.35,2,6.25c0,0,3.14-2.25,2-4.35s-1.69-2.6-.3-3.69,4.26-3.77,4.16-6.25S204.66,86.45,199,86.74,194,89.3,194,89.3Z" fill="#202e51"/><circle cx="216.94" cy="95.41" r="5.45" fill="#202e51"/><path d="M202.34,135s-5.73-4.39-6.5-5.61.88-5.64,0-7.52-3.54-8.18-4.75-8.18-2.43,8.92-2.54,10.65,4.39,12.49,4.39,12.49" fill="#d0573d"/><path d="M136.26,29l-3.07-2,0,.42L93.73,51V97.08h0l2.92,1.71,1.2-3.85-.38,0,35.87-20.28V31.61l1.85-1Z" fill="#4933ca"/><path d="M136.26,29l-3.07-2,0,.42L93.73,51V97.08h0l2.92,1.71,1.2-3.85-.38,0,35.87-20.28V31.61l1.85-1Z" fill="#202e51" opacity="0.36"/><polygon points="96.65 52.68 136.26 29.04 136.26 76.39 96.65 98.79 96.65 52.68" fill="#4933ca"/><polygon points="104.29 56.58 130.14 41.15 130.14 72.06 104.29 86.68 104.29 56.58" fill="#fff"/><path d="M118.7,73.93l8.42-4.59V57.49s0-4.68-4-3.47a6.35,6.35,0,0,0-4.45,6Z" fill="#f4752d"/><ellipse cx="111.23" cy="60.51" rx="5.09" ry="4.43" transform="translate(-4.58 111.72) rotate(-52.4)" fill="#fec770"/><path d="M188.55,108.53s-23.85,23.65-20.72,30.56,28.38-3.56,28.92-5.18,1.19-12.41,1.19-14.14-1.08-8.85-1.94-8.42-4.64,7-5,9.06.11,8.74-.65,9.28-4.42,1-4.42,1l2.91-4.29Z" fill="#d0573d"/><path d="M95.45,167.48a6.14,6.14,0,0,1-1.07-1.75c-3.19-7.92-11.29-12.79-18.51-17.32l-38,21.36,24.32,14C73.34,178.45,84.39,172.95,95.45,167.48Z" opacity="0.48" fill="url(#linear-gradient-2)"/><path d="M75.78,98.77s-9,6.36-9,21.59-.17,41,0,42,.68,7.82,16.53,8,15.17-8,15.17-8v-42s-.51-14.26-9.2-21.59Z" fill="#b9dcfa"/><polyline points="74.73 91.82 74.73 98.98 90.41 98.98 90.41 91.82" fill="#e57967"/><ellipse cx="82.57" cy="91.82" rx="7.84" ry="2.53" fill="#d0573d"/><ellipse cx="82.57" cy="98.98" rx="7.84" ry="2.53" fill="#e57967"/><polyline points="68.42 120.36 68.42 162.37 96.25 162.37 96.25 120.36" fill="#ff9e3e"/><ellipse cx="82.33" cy="162.37" rx="13.92" ry="6.08" fill="#ff9e3e"/><ellipse cx="82.33" cy="120.36" rx="13.92" ry="6.08" fill="#ffb471"/><path d="M283.95,252a6.14,6.14,0,0,1-1.07-1.75c-3.19-7.92-9.77-11.84-17-16.37L226.4,254.33l24.32,14C261.84,263,272.89,257.51,283.95,252Z" opacity="0.48" fill="url(#linear-gradient-3)"/><path d="M260.31,237a12.82,12.82,0,0,1,2.2-1.36l14.12-7.74,5.54-3,2.77-1.52a23.33,23.33,0,0,1,2.58-1.41,5.85,5.85,0,0,1,2-.18,14.41,14.41,0,0,1,2.52.26,13.47,13.47,0,0,1,6.25,3,15.42,15.42,0,0,1,3.32,4.12c5.06,8.94-.47,12.91-.47,12.91L275.8,256.35s-6.51,4.37-14.14-5.11c-2.66-3.3-4.6-8-2.79-12.19A5.35,5.35,0,0,1,260.31,237Z" fill="#ff6a1e"/><ellipse cx="268.15" cy="246.68" rx="6.96" ry="11.6" transform="translate(-96.08 237.32) rotate(-41.14)" fill="#e85718"/><path d="M265.64,238.73c-.56-.32-1,.56-.47.88a21.06,21.06,0,0,1,5,3.77,12.71,12.71,0,0,1,1.83,2.49,10,10,0,0,1,.87,2.1,1.81,1.81,0,0,1-.8,2.65q-.67,2-2.5,1.18a6.32,6.32,0,0,1-2.25-.7,7.16,7.16,0,0,1-2.48-2.62,8.13,8.13,0,0,1-1.22-2.73q2.43-3.68,4-1.1a2.22,2.22,0,0,1,.25,2.57c-.6-.22-.82.76-.22,1,1.34.49,2.22-.63,1.93-2a6.05,6.05,0,0,0-3.42-4,2.8,2.8,0,0,0-3.73,1.71c-.49,1.91,1.32,4.94,2.5,6.36,2,2.46,8.8,4.63,9.24-.24C274.63,245,269.49,241,265.64,238.73Z" fill="#ff6a1e"/><path d="M316.47,209.41a5.31,5.31,0,0,1-2.1-1.7l-33.3,17.21,24.32,14c9.54-4.59,19-9.29,28.51-14C330.32,218,323.4,212.72,316.47,209.41Z" opacity="0.48" fill="url(#linear-gradient-4)"/><path d="M310.3,196.94s-4.51,30.78,14.88,30.89c18.62.1,13.82-31.26,13.82-31.26S325.46,184.79,310.3,196.94Z" fill="#4933ca"/><path d="M310.3,196.94s-4.51,30.78,14.88,30.89c18.62.1,13.82-31.26,13.82-31.26S325.46,184.79,310.3,196.94Z" opacity="0.11"/><ellipse cx="324.6" cy="196.94" rx="14.33" ry="5.92" fill="#4933ca"/><ellipse cx="324.6" cy="196.94" rx="14.33" ry="5.92" opacity="0.7"/><path d="M302,152s-10-2.4-6.15-10.71C295.9,141.28,302.77,142.64,302,152Z" fill="#938f05"/><path d="M308.12,160.36s-1.38-7.1,4.16-10C312.28,150.4,316.74,157.83,308.12,160.36Z" fill="#938f05"/><path d="M314.34,171.25s-1.65-8.49,5-11.92C319.32,159.33,324.66,168.23,314.34,171.25Z" fill="#938f05"/><path d="M319.17,183.11s-1.65-8.49,5-11.92C324.15,171.19,329.48,180.08,319.17,183.11Z" fill="#938f05"/><path d="M307.52,160.55s-3.52-6.32-9.61-4.93C297.91,155.63,299.3,164.18,307.52,160.55Z" fill="#938f05"/><path d="M313.83,171.51s-4.51-7.39-11.72-5.44C302.11,166.07,304.17,176.23,313.83,171.51Z" fill="#938f05"/><path d="M318.62,183.21s-5.29-6.85-12.25-4.12C306.37,179.09,309.54,189,318.62,183.21Z" fill="#938f05"/><path d="M322.35,202.92h.14a6.9,6.9,0,0,1,1.4.11.69.69,0,0,0,0-.14,102.38,102.38,0,0,0-21.53-52c-.62-.78-1.72.32-1.1,1.1a100.5,100.5,0,0,1,21.08,50.87Z" fill="#42352f"/><path d="M346,165.54s8.57-2.06,5.28-9.18C351.26,156.36,345.37,157.53,346,165.54Z" fill="#938f05"/><path d="M340.77,172.73s1.19-6.09-3.57-8.55C337.2,164.18,333.38,170.56,340.77,172.73Z" fill="#938f05"/><path d="M335.43,182.07s1.42-7.29-4.27-10.23C331.16,171.84,326.59,179.48,335.43,182.07Z" fill="#938f05"/><path d="M331.29,192.24S332.71,185,327,182C327,182,322.45,189.65,331.29,192.24Z" fill="#938f05"/><path d="M341.29,172.9s3-5.42,8.24-4.23C349.53,168.67,348.34,176,341.29,172.9Z" fill="#938f05"/><path d="M335.88,182.3s3.87-6.34,10.05-4.67C345.93,177.63,344.16,186.35,335.88,182.3Z" fill="#938f05"/><path d="M331.77,192.33s4.54-5.87,10.51-3.53C342.28,188.8,339.56,197.27,331.77,192.33Z" fill="#938f05"/><path d="M345.71,164.64a87.78,87.78,0,0,0-17.49,38.17c.45-.07.92-.14,1.38-.18a86.21,86.21,0,0,1,17-37C347.18,164.91,346.24,164,345.71,164.64Z" fill="#42352f"/></svg>