<svg width="70" height="26" viewBox="0 0 70 26" fill="none" xmlns="http://www.w3.org/2000/svg">
<path d="M4.85254 16.5723H12.6094V20H0.396484V1.51562H4.85254V16.5723ZM22.0293 20C21.877 19.7207 21.7415 19.3102 21.623 18.7686C20.8359 19.7588 19.7357 20.2539 18.3223 20.2539C17.0273 20.2539 15.9271 19.8646 15.0215 19.0859C14.1159 18.2988 13.6631 17.3128 13.6631 16.1279C13.6631 14.6383 14.2132 13.5127 15.3135 12.751C16.4137 11.9893 18.0133 11.6084 20.1123 11.6084H21.4326V10.8848C21.4326 9.6237 20.8867 8.99316 19.7949 8.99316C18.7793 8.99316 18.2715 9.49251 18.2715 10.4912H13.9932C13.9932 9.16243 14.556 8.08333 15.6816 7.25391C16.8158 6.42448 18.2588 6.00977 20.0107 6.00977C21.7627 6.00977 23.1465 6.43717 24.1621 7.29199C25.1777 8.14681 25.6982 9.31901 25.7236 10.8086V16.8896C25.7406 18.1507 25.9352 19.1156 26.3076 19.7842V20H22.0293ZM19.3506 17.207C19.8838 17.207 20.3239 17.0928 20.6709 16.8643C21.0264 16.6357 21.2803 16.3776 21.4326 16.0898V13.8936H20.1885C18.6989 13.8936 17.9541 14.5622 17.9541 15.8994C17.9541 16.2887 18.0853 16.6061 18.3477 16.8516C18.61 17.0885 18.9443 17.207 19.3506 17.207ZM32.0332 6.26367L32.1729 7.87598C33.1208 6.63184 34.4284 6.00977 36.0957 6.00977C37.526 6.00977 38.5924 6.43717 39.2949 7.29199C40.0059 8.14681 40.374 9.43327 40.3994 11.1514V20H36.1084V11.3291C36.1084 10.6351 35.9688 10.1273 35.6895 9.80566C35.4102 9.47559 34.9023 9.31055 34.166 9.31055C33.3281 9.31055 32.7061 9.64062 32.2998 10.3008V20H28.0215V6.26367H32.0332ZM42.2402 13.0303C42.2402 10.8551 42.71 9.14128 43.6494 7.88867C44.5889 6.63607 45.9007 6.00977 47.585 6.00977C48.8122 6.00977 49.8447 6.49219 50.6826 7.45703V0.5H54.9736V20H51.127L50.9111 18.5273C50.0309 19.6784 48.9137 20.2539 47.5596 20.2539C45.9261 20.2539 44.6312 19.6276 43.6748 18.375C42.7184 17.1224 42.2402 15.3408 42.2402 13.0303ZM46.5186 13.2969C46.5186 15.7344 47.2295 16.9531 48.6514 16.9531C49.5993 16.9531 50.2764 16.5553 50.6826 15.7598V10.5293C50.2933 9.7168 49.6247 9.31055 48.6768 9.31055C47.3564 9.31055 46.6413 10.377 46.5312 12.5098L46.5186 13.2969ZM62.8955 14.0078L65.1807 6.26367H69.7637L64.165 22.2979L63.9238 22.8818C63.1283 24.6592 61.7233 25.5479 59.709 25.5479C59.1504 25.5479 58.5622 25.4632 57.9443 25.2939V22.2344H58.5029C59.1038 22.2344 59.5609 22.1455 59.874 21.9678C60.1956 21.7985 60.4326 21.4896 60.585 21.041L60.9277 20.127L56.1543 6.26367H60.7246L62.8955 14.0078Z" fill="#37447E"/>
</svg>
