<svg width="107" height="40" viewBox="0 0 107 40" fill="none" xmlns="http://www.w3.org/2000/svg">
<path d="M0.209313 29V27.328C1.04531 27.3027 1.64065 27.138 1.99531 26.834C2.37531 26.5047 2.61598 26.036 2.71731 25.428C2.81865 24.82 2.86931 24.0473 2.86931 23.11V7.302C2.86931 6.13667 2.90731 5.14866 2.98331 4.338C2.55265 4.36333 2.08398 4.38867 1.57731 4.414C1.07065 4.43933 0.614646 4.46467 0.209313 4.49V2.4H9.55731V4.072C8.74665 4.09733 8.15131 4.27467 7.77131 4.604C7.39131 4.908 7.15065 5.364 7.04931 5.972C6.94798 6.58 6.89731 7.35267 6.89731 8.29V24.022C6.89731 24.706 6.88465 25.314 6.85931 25.846C6.85931 26.3527 6.83398 26.7707 6.78331 27.1L13.2053 27.024C14.776 26.9987 15.9793 26.492 16.8153 25.504C17.6513 24.4907 18.0693 22.8947 18.0693 20.716H19.7793L19.5513 29H0.209313ZM33.8987 29C33.848 28.5947 33.81 28.24 33.7847 27.936C33.7594 27.632 33.7214 27.3153 33.6707 26.986C31.9227 28.734 29.972 29.608 27.8187 29.608C25.9947 29.608 24.614 29.1647 23.6767 28.278C22.7647 27.366 22.3087 26.2387 22.3087 24.896C22.3087 23.7307 22.6507 22.7173 23.3347 21.856C24.0187 20.9947 24.918 20.298 26.0327 19.766C27.1474 19.2087 28.3634 18.8033 29.6807 18.55C30.998 18.2713 32.29 18.132 33.5567 18.132V15.89C33.5567 15.0793 33.4807 14.332 33.3287 13.648C33.1767 12.9387 32.86 12.3687 32.3787 11.938C31.8974 11.482 31.1754 11.254 30.2127 11.254C29.554 11.2287 28.8954 11.3553 28.2367 11.634C27.578 11.8873 27.0714 12.318 26.7167 12.926C26.9194 13.1287 27.046 13.3693 27.0967 13.648C27.1727 13.9013 27.2107 14.142 27.2107 14.37C27.2107 14.7247 27.0587 15.13 26.7547 15.586C26.4507 16.0167 25.9314 16.2193 25.1967 16.194C24.5887 16.194 24.12 15.9913 23.7907 15.586C23.4867 15.1553 23.3347 14.6613 23.3347 14.104C23.3347 13.192 23.664 12.3813 24.3227 11.672C25.0067 10.9627 25.9187 10.4053 27.0587 10C28.224 9.59467 29.5414 9.392 31.0107 9.392C33.1894 9.392 34.8107 9.962 35.8747 11.102C36.964 12.242 37.5087 14.0407 37.5087 16.498C37.5087 17.8913 37.496 19.196 37.4707 20.412C37.4707 21.6027 37.4707 22.8947 37.4707 24.288C37.4707 24.668 37.458 25.0987 37.4327 25.58C37.4074 26.0613 37.3694 26.568 37.3187 27.1C37.7494 27.0747 38.1927 27.0493 38.6487 27.024C39.1047 26.9987 39.5354 26.986 39.9407 26.986V29H33.8987ZM33.5567 19.88C32.4674 19.9307 31.3654 20.1207 30.2507 20.45C29.1614 20.754 28.2494 21.2353 27.5147 21.894C26.8054 22.5273 26.4634 23.3633 26.4887 24.402C26.5394 25.2633 26.8307 25.8967 27.3627 26.302C27.8947 26.7073 28.5027 26.91 29.1867 26.91C30.0734 26.91 30.8587 26.7453 31.5427 26.416C32.2267 26.0613 32.898 25.58 33.5567 24.972C33.5314 24.6933 33.5187 24.4147 33.5187 24.136C33.5187 23.832 33.5187 23.5153 33.5187 23.186C33.5187 22.958 33.5187 22.54 33.5187 21.932C33.544 21.324 33.5567 20.64 33.5567 19.88ZM42.3938 29V27.404C43.1538 27.404 43.6858 27.2267 43.9898 26.872C44.2938 26.5173 44.4711 26.0233 44.5218 25.39C44.5978 24.7567 44.6358 24.022 44.6358 23.186L44.6738 15.282C44.6738 14.8767 44.6738 14.446 44.6738 13.99C44.6991 13.534 44.7498 13.0653 44.8258 12.584C44.3698 12.584 43.9011 12.6093 43.4198 12.66C42.9384 12.6853 42.5078 12.698 42.1278 12.698V10.684C43.2678 10.684 44.1544 10.6333 44.7878 10.532C45.4464 10.4307 45.9404 10.304 46.2698 10.152C46.6244 9.97467 46.8904 9.79733 47.0678 9.62H48.4358C48.4864 9.97467 48.5118 10.304 48.5118 10.608C48.5118 10.8867 48.5371 11.2793 48.5878 11.786C49.3984 11.1273 50.3484 10.57 51.4378 10.114C52.5271 9.63267 53.5658 9.392 54.5538 9.392C56.8084 9.392 58.4298 10.076 59.4178 11.444C60.4311 12.812 60.9378 14.9527 60.9378 17.866V24.288C60.9378 24.744 60.9251 25.2127 60.8998 25.694C60.8744 26.15 60.8364 26.6187 60.7858 27.1C61.1911 27.0747 61.5964 27.062 62.0018 27.062C62.4324 27.0367 62.8251 27.0113 63.1798 26.986V29H54.7058V27.404C55.4658 27.404 55.9978 27.2267 56.3018 26.872C56.6058 26.5173 56.7831 26.0233 56.8338 25.39C56.9098 24.7567 56.9478 24.022 56.9478 23.186V17.866C56.9224 15.8647 56.6058 14.3573 55.9978 13.344C55.3898 12.3307 54.3891 11.8367 52.9958 11.862C52.1851 11.862 51.3744 12.0647 50.5638 12.47C49.7784 12.8753 49.1324 13.3693 48.6258 13.952C48.6258 14.2307 48.6258 14.522 48.6258 14.826C48.6258 15.1047 48.6258 15.3833 48.6258 15.662V24.288C48.6258 24.744 48.6131 25.2127 48.5878 25.694C48.5624 26.15 48.5244 26.6187 48.4738 27.1C48.8538 27.0747 49.2591 27.062 49.6898 27.062C50.1204 27.0367 50.5131 27.0113 50.8678 26.986V29H42.3938ZM73.7129 29.608C72.1676 29.608 70.7869 29.2153 69.5709 28.43C68.3802 27.6447 67.4302 26.5427 66.7209 25.124C66.0369 23.68 65.6949 21.9827 65.6949 20.032C65.6949 17.9547 66.1002 16.118 66.9109 14.522C67.7469 12.926 68.8869 11.672 70.3309 10.76C71.7749 9.848 73.4469 9.392 75.3469 9.392C76.1322 9.392 76.8796 9.49333 77.5889 9.696C78.3236 9.87333 78.9316 10.0887 79.4129 10.342V6.01C79.4129 5.63 79.4129 5.212 79.4129 4.756C79.4382 4.3 79.4889 3.806 79.5649 3.274C79.1089 3.29933 78.6402 3.32467 78.1589 3.35C77.6776 3.37533 77.2469 3.388 76.8669 3.388V1.374C78.5642 1.374 79.7676 1.26 80.4769 1.032C81.1862 0.803998 81.6802 0.563331 81.9589 0.309998H83.3649V24.288C83.3649 24.668 83.3522 25.0987 83.3269 25.58C83.3016 26.0613 83.2636 26.568 83.2129 27.1C83.6689 27.0747 84.1249 27.0493 84.5809 27.024C85.0369 26.9987 85.4549 26.986 85.8349 26.986V29H79.7929C79.7422 28.6453 79.6916 28.316 79.6409 28.012C79.6156 27.708 79.5902 27.404 79.5649 27.1C77.9942 28.772 76.0436 29.608 73.7129 29.608ZM75.2709 27.214C76.0562 27.214 76.8162 26.9987 77.5509 26.568C78.3109 26.1373 78.9316 25.5927 79.4129 24.934C79.4129 24.6047 79.4129 24.2627 79.4129 23.908C79.4129 23.5533 79.4129 23.1733 79.4129 22.768V12.432C78.3996 11.6973 77.1709 11.33 75.7269 11.33C74.4856 11.33 73.4469 11.6973 72.6109 12.432C71.7749 13.1413 71.1416 14.1293 70.7109 15.396C70.3056 16.6373 70.1156 18.0433 70.1409 19.614C70.1916 21.0073 70.4069 22.2867 70.7869 23.452C71.1669 24.592 71.7242 25.504 72.4589 26.188C73.2189 26.872 74.1562 27.214 75.2709 27.214ZM91.567 39.298C90.731 39.298 90.009 39.07 89.401 38.614C88.8183 38.1833 88.527 37.55 88.527 36.714C88.527 36.182 88.6916 35.7007 89.021 35.27C89.3756 34.8393 89.8316 34.624 90.389 34.624C90.997 34.5987 91.4276 34.7887 91.681 35.194C91.9596 35.5993 92.099 36.0173 92.099 36.448C92.099 36.524 92.099 36.6 92.099 36.676C92.099 36.7773 92.0863 36.866 92.061 36.942C92.137 36.9927 92.251 37.0053 92.403 36.98C93.0363 36.9293 93.6443 36.3847 94.227 35.346C94.531 34.7887 94.873 34.016 95.253 33.028C95.633 32.04 96.051 30.9 96.507 29.608L90.541 17.144C89.857 15.7253 89.3756 14.6233 89.097 13.838C88.8436 13.0273 88.679 12.394 88.603 11.938L86.779 12.014V10H95.177V11.558H95.101C94.0623 11.6593 93.4923 12.052 93.391 12.736C93.315 13.42 93.5556 14.3573 94.113 15.548L98.293 24.744C98.7743 23.452 99.2556 22.046 99.737 20.526C100.244 19.006 100.763 17.448 101.295 15.852C101.447 15.3707 101.624 14.864 101.827 14.332C102.03 13.7747 102.232 13.268 102.435 12.812C102.663 12.356 102.878 12.0393 103.081 11.862L100.611 12.014V10H106.843V11.558C105.931 11.862 105.234 12.4193 104.753 13.23C104.272 14.0407 103.803 15.0667 103.347 16.308L98.597 29.684C97.8623 31.7867 97.1783 33.5473 96.545 34.966C95.9116 36.41 95.2023 37.4867 94.417 38.196C93.657 38.9307 92.707 39.298 91.567 39.298Z" fill="black"/>
</svg>
