<svg xmlns="http://www.w3.org/2000/svg" width="101" height="64.001" viewBox="0 0 101 64.001">
  <g id="Group_6" data-name="Group 6" transform="translate(10475 -7417)">
    <path id="lingoapp-icon" d="M2.858,56.844a7.242,7.242,0,0,1,7.148-7.323,7.312,7.312,0,0,1,7.23,7.323A7.23,7.23,0,0,1,10.006,64a7.153,7.153,0,0,1-7.148-7.156Zm0-24.762a7.242,7.242,0,0,1,7.148-7.323,7.312,7.312,0,0,1,7.23,7.323,7.23,7.23,0,0,1-7.23,7.156,7.153,7.153,0,0,1-7.148-7.156ZM3,5.842a7.233,7.233,0,0,1,8.5-5.69,7.31,7.31,0,0,1,5.568,8.657A7.189,7.189,0,0,1,2.995,5.843Zm26.036,51A7.189,7.189,0,1,1,36.179,64a7.153,7.153,0,0,1-7.148-7.156Z" transform="translate(-10477.841 7417.001)" fill="#ff825c" fill-rule="evenodd"/>
  </g>
</svg>
