<svg id="b0ecae6e-6c91-4fdd-9561-7a349c2ce0c6" data-name="Layer 1" xmlns="http://www.w3.org/2000/svg" viewBox="0 0 1083 758.56169"><circle cx="406.16343" cy="389.54394" r="350.30375" fill="#f2f2f2"/><path d="M521.703,514.364c-77.41413,118.71819-56.20259,269.71246-56.20259,269.71246s146.72463-41.48593,224.13876-160.20412,56.20259-269.71246,56.20259-269.71246S599.11713,395.64576,521.703,514.364Z" transform="translate(-58.5 -70.71915)" fill="#3f3d56"/><path d="M465.08857,782.69578s-1.88457-.30065-5.35306-1.00243c-2.76672-.56129-6.57588-1.36329-11.22717-2.46593-41.58078-9.8038-152.12878-42.94407-224.404-130.07533-90.45927-109.10444-86.65011-261.534-86.65011-261.534s138.31539,22.47453,229.45625,120.452q5.92444,6.31524,11.52794,13.09167c78.71082,94.93019,86.04855,222.65986,86.63,254.23641C465.14865,780.12963,465.08857,782.69578,465.08857,782.69578Z" transform="translate(-58.5 -70.71915)" fill="#2f2e41"/><path d="M409.29783,514.364c77.41412,118.71819,56.20259,269.71246,56.20259,269.71246S318.77578,742.59048,241.36166,623.87229s-56.20259-269.71246-56.20259-269.71246S331.8837,395.64576,409.29783,514.364Z" transform="translate(-58.5 -70.71915)" fill="none" stroke="#3f3d56" stroke-miterlimit="10" stroke-width="2"/><path d="M465.0685,775.39819c-2.045,2.46594-3.84929,4.571-5.333,6.29516-3.28788,3.74908-5.15251,5.71393-5.15251,5.71393s-2.26538-2.847-6.07466-8.17986c-20.91067-29.15062-88.1737-132.80191-82.98118-252.5322q.42106-9.41284,1.38336-18.62511,5.92444,6.31524,11.52794,13.09167C457.14928,616.092,464.487,743.82164,465.0685,775.39819Z" transform="translate(-58.5 -70.71915)" opacity="0.1"/><path d="M579.85348,535.35369c-6.119,141.5963-111.229,252.05488-111.229,252.05488s-95.18909-119.11439-89.07009-260.71069S490.78339,274.643,490.78339,274.643,585.97248,393.75738,579.85348,535.35369Z" transform="translate(-58.5 -70.71915)" fill="#2f2e41"/><line x1="410.12452" y1="712.67969" x2="433.23311" y2="209.69914" fill="none" stroke="#3f3d56" stroke-miterlimit="10" stroke-width="2"/><ellipse cx="541.5" cy="725.0923" rx="541.5" ry="33.46939" fill="#3f3d56"/><line x1="89.88363" y1="712.79245" x2="89.88363" y2="577.61226" fill="#3f3d56" stroke="#3f3d56" stroke-miterlimit="10" stroke-width="2"/><circle cx="89.88363" cy="577.61226" r="19.11639" fill="#3f3d56"/><path d="M148.38363,731.64576s-2.73091-58.73613-58.71463-51.90885" transform="translate(-58.5 -70.71915)" fill="#3f3d56"/><line x1="555.45133" y1="492.10519" x2="555.45133" y2="113.53191" fill="#3f3d56" stroke="#3f3d56" stroke-miterlimit="10" stroke-width="2"/><circle cx="555.45133" cy="113.53191" r="26.29399" fill="#3f3d56"/><path d="M613.95133,291.33476s-3.75629-80.7897-80.76013-71.399" transform="translate(-58.5 -70.71915)" fill="#3f3d56"/><path d="M929.79378,353.32321l-22.825,43.01629s-165.04213,31.60382-143.97292,80.7653S807.768,598.25274,820.05833,596.497s79.88741-40.38264,82.52106-51.79513-60.574-64.96339-60.574-64.96339l104.46815-20.19132s14.924,70.23069-4.38942,118.51429-30.72592,179.08826-17.55767,180.844,46.52783,12.29037,61.45185,2.63365,21.94709-221.22668,21.94709-221.22668,31.60382-138.70561,12.29038-154.50752S929.79378,353.32321,929.79378,353.32321Z" transform="translate(-58.5 -70.71915)" fill="#2f2e41"/><path d="M965.6606,737.57687s-20.173-10.61738-24.42-2.12348c0,0,3.18521,25.4817-9.55564,28.66691s-18.04953,25.48169,0,27.60517,29.72865-4.24695,36.09907-4.24695,0-22.29649,0-22.29649Z" transform="translate(-58.5 -70.71915)" fill="#2f2e41"/><path d="M869.44542,561.34252s-21.95839-6.12439-24.31858,3.0741c0,0,8.4873,24.23692-3.29529,30.03736s-12.26989,28.715,5.82153,26.98435,28.16445-10.42079,34.39161-11.76422-4.702-21.79505-4.702-21.79505Z" transform="translate(-58.5 -70.71915)" fill="#2f2e41"/><path d="M978.51632,201.88828s.87789,32.48169-5.2673,35.11535,34.23746,18.43555,34.23746,18.43555l7.02307-12.29037s-7.90095-43.89418-6.14518-47.40572S978.51632,201.88828,978.51632,201.88828Z" transform="translate(-58.5 -70.71915)" fill="#9f616a"/><circle cx="934.66487" cy="84.72784" r="53.82638" fill="#2f2e41"/><circle cx="938.37703" cy="34.33752" r="22.27298" fill="#2f2e41"/><path d="M967.17972,92.99214A22.27528,22.27528,0,0,1,987.1326,70.83958a22.52014,22.52014,0,0,0-2.3201-.12043,22.273,22.273,0,0,0,0,44.546,22.52015,22.52015,0,0,0,2.3201-.12042A22.27528,22.27528,0,0,1,967.17972,92.99214Z" transform="translate(-58.5 -70.71915)" fill="#2f2e41"/><circle cx="933.18458" cy="110.9778" r="36.87111" fill="#9f616a"/><path d="M1017.58214,229.54161s-31.60381,9.65672-47.40571,0-53.5509,18.43556-59.69609,30.72593,22.825,24.58074,22.825,24.58074-8.27277,23.73379-6.58413,35.55429c1.75577,12.29037-1.31683,37.31-1.31683,37.31s77.5575,51.09752,94.81144,28.09228c2.63365-3.51153,24.58074-86.0326,24.58074-86.0326l30.72592-30.72592s-19.31344-28.09228-30.72592-30.72593S1017.58214,229.54161,1017.58214,229.54161Z" transform="translate(-58.5 -70.71915)" fill="#d0cde1"/><path d="M805.57325,409.9467s-59.69609,30.72593-47.40572,39.50476S820.49727,415.214,820.49727,415.214Z" transform="translate(-58.5 -70.71915)" fill="#9f616a"/><path d="M1039.96818,387.99961s-26.56173-17.93372-30.83854-8.96686,29.08277,29.15818,36.10584,21.25723S1039.96818,387.99961,1039.96818,387.99961Z" transform="translate(-58.5 -70.71915)" fill="#9f616a"/><path d="M1059.72056,259.38966l15.8019,9.65672s53.55091,73.74222,35.11535,90.422-65.84127,50.03937-65.84127,50.03937-15.80191-22.825-10.53461-23.70286,47.40572-35.99323,47.40572-35.99323l-36.87111-68.47492Z" transform="translate(-58.5 -70.71915)" fill="#d0cde1"/><path d="M921.015,255.87812l-11.41249,4.38942-29.848,53.5509-79.00952,95.68932s10.5346,16.67979,19.31344,13.16825,74.62011-77.25376,74.62011-77.25376l43.01629-66.71915Z" transform="translate(-58.5 -70.71915)" fill="#d0cde1"/><ellipse cx="934.66487" cy="67.17005" rx="37.12164" ry="22.27298" fill="#2f2e41"/><rect x="685" y="543.2379" width="173" height="173" fill="#2f2e41"/><path d="M893.5,693.2637c0,24.507-11.47631,39.95208-29.63334,39.95208-9.29349,0-16.37109-4.96094-17.59479-12.33619H844.949c-3.27421,7.67292-10.02109,11.87317-19.08307,11.87317-16.13958,0-26.92136-12.93151-26.92136-32.17994,0-18.48776,10.84792-31.35313,26.68985-31.35313,8.13593,0,15.04818,4.101,18.09088,10.81484h1.32292v-9.19427h13.19609v42.76329c0,5.32474,2.94349,8.5328,8.23515,8.5328,9.1612,0,14.982-11.1125,14.982-28.37656,0-27.54974-20.6375-45.97135-51.13073-45.97135-30.1625,0-51.6599,21.99349-51.6599,53.11511,0,31.81615,21.26589,52.12292,54.37188,52.12292a100.38259,100.38259,0,0,0,17.99167-1.52136,5.22995,5.22995,0,0,1,2.21588,10.21953,92.4241,92.4241,0,0,1-20.73673,2.24895c-40.24971-.03307-66.01351-24.90391-66.01351-63.5,0-37.67,26.293-63.53307,64.62448-63.53307C867.9677,636.94052,893.5,659.9262,893.5,693.2637Zm-80.301,7.60676c0,12.237,5.75468,19.64531,15.11432,19.64531,9.85572,0,16.07344-7.60677,16.07344-19.64531s-6.21771-19.47994-15.90808-19.47994C818.85442,681.39052,813.199,688.60041,813.199,700.87046Z" transform="translate(-58.5 -70.71915)" fill="#fff"/></svg>