<svg xmlns="http://www.w3.org/2000/svg" viewBox="0 0 1247 711.9">
  <g id="product_launch_solid_II" data-name="product launch/solid_II" transform="translate(2.5)">
    <g id="product_launch_solid_II-2" data-name="product launch/solid_II" transform="translate(-3)">
      <g id="product_launch_solid_II-3" data-name="product launch_solid_II">
        <path id="flag" d="M302.6,21.456c-12.7,7.1-36.2,15.6-55.6-3.4-20-19.5-34.3-19.1-41-17.2a5.036,5.036,0,0,0-5.3,2.4l-42.1,76.5a19.015,19.015,0,0,1-16.6,9.8H4.9a4.9,4.9,0,1,0,0,9.8H142a28.78,28.78,0,0,0,25.2-14.9l24.6-44.8c9.2,1.2,21.7,5.3,33.4,16.8,22.6,22,49.1,9.6,58.8,3.7a16.13,16.13,0,0,0,5.7-5.9l16.5-29.1A2.652,2.652,0,0,0,302.6,21.456Z" transform="translate(732.5 592.444)" fill="#5d21d1"/>
        <g id="flags" transform="translate(73 466)">
          <path id="Path" d="M280.843,1.417a2.43,2.43,0,0,0-3.4-1.1c-.4.2-4.6,2.8-22.9,11.9l-8.4,4.1c-39.9,19.2-98.8,43.6-122.7,33.5a2.443,2.443,0,0,0-2.8.6c-.1.1-8.7,9.4-27.5,18.2-17.3,8.1-47.1,17.3-90.6,15.2a2.362,2.362,0,0,0-2.5,2.8,2.559,2.559,0,0,0,2.4,2.1c3.9.2,7.6.3,11.3.3l1.8,11.8a2.81,2.81,0,0,0,5.2,1l7.6-13.2c5.3-.3,10.4-.8,15.3-1.4l2.8,10.2a2.864,2.864,0,0,0,5.3.5l6-12.9c4.1-.8,7.9-1.7,11.5-2.6l2.3,8.5a2.864,2.864,0,0,0,5.3.5l6.2-13.2a122.609,122.609,0,0,0,12.2-5l1.6,5.9a2.864,2.864,0,0,0,5.3.5l6.2-13.4a80.144,80.144,0,0,0,15-11.3c5.1,1.8,11.3,2.3,18.3,1.9l4.2,10.4a2.778,2.778,0,0,0,5.2-.1l4.6-12.1c4.4-.8,8.9-1.8,13.5-3.1l1.9,8.1a2.76,2.76,0,0,0,5.2.6l6.5-12.8c4.4-1.4,8.8-3,13.2-4.6l1.7,7.3a2.833,2.833,0,0,0,5.2.8l7.8-13.7c3.9-1.6,7.8-3.2,11.7-4.9l1.9,7a2.864,2.864,0,0,0,5.3.5l6.2-13.4c4.2-1.9,8.2-3.8,12.1-5.7l1.5,5.7a2.864,2.864,0,0,0,5.3.5l5.7-12.2c15.5-7.8,18.4-9.6,19.9-10.4A3.181,3.181,0,0,0,280.843,1.417Z" transform="translate(0.857 57.983)" fill="#5d21d1"/>
          <path id="Path-2" data-name="Path" d="M123.443.2a2.443,2.443,0,0,0-2.8.6c-.1.1-8.7,9.4-27.5,18.2-17.3,8.1-47.1,17.3-90.6,15.2A2.362,2.362,0,0,0,.043,37a2.559,2.559,0,0,0,2.4,2.1c3.9.2,7.6.3,11.3.3l1.7,11.6a2.909,2.909,0,0,0,5.4,1l7.4-13c5.3-.3,10.4-.8,15.3-1.4l2.7,10a2.9,2.9,0,0,0,5.4.5l5.9-12.7c4.1-.8,7.9-1.7,11.5-2.6l3.2,9.6a2.915,2.915,0,0,0,5.5.1l5.1-13.9a122.609,122.609,0,0,0,12.2-5l1.5,5.7a2.9,2.9,0,0,0,5.4.5l6.1-13.1a80.144,80.144,0,0,0,15-11.3" transform="translate(277.357 23.9)" fill="#5d21d1"/>
          <path id="Path-3" data-name="Path" d="M179.077,79.877a2.39,2.39,0,0,0-3.2-1.4c-38.5,16.1-79,8-120.3-23.9-31.1-24-50.9-53.3-51.1-53.5a2.544,2.544,0,0,0-3.4-.7,2.544,2.544,0,0,0-.7,3.4,210.417,210.417,0,0,0,16.2,20.5l4.9,23.5a2.892,2.892,0,0,0,5.3.9l4.9-8.3c4.2,4.1,8.7,8.2,13.5,12.2l5.2,18.1a2.873,2.873,0,0,0,5.2.7l4.6-7.2c4.1,2.9,8.2,5.5,12.4,8l7.2,20.3a2.887,2.887,0,0,0,5.2.5l6.4-11.2a113.564,113.564,0,0,0,11.9,4.3l9.4,16.4a2.917,2.917,0,0,0,5.3-.6l3.5-11.7a112.468,112.468,0,0,0,15.3,1.1h1.2l10.1,13.2a2.913,2.913,0,0,0,5.1-1l4.1-14.3a109.057,109.057,0,0,0,20.2-6.2A2.469,2.469,0,0,0,179.077,79.877Z" transform="translate(858.823 0.223)" fill="#5d21d1"/>
          <path id="Path-4" data-name="Path" d="M3,0A3,3,0,0,1,5.995,2.824L6,3v98.8a3,3,0,0,1-5.995.176L0,101.8V3A3,3,0,0,1,3,0Z" transform="translate(-0.1 141.1)" fill="#fe7624"/>
          <path id="Path-5" data-name="Path" d="M3,0A3,3,0,0,1,5.995,2.824L6,3V134.2a3,3,0,0,1-5.995.176L0,134.2V3A3,3,0,0,1,3,0Z" transform="translate(120.2 107.1)" fill="#fe7624"/>
          <path id="Path-6" data-name="Path" d="M3,0A3,3,0,0,1,5.995,2.824L6,3V183.8a3,3,0,0,1-5.995.176L0,183.8V3A3,3,0,0,1,3,0Z" transform="translate(276.8 57.3)" fill="#fe7624"/>
          <path id="Path-7" data-name="Path" d="M3,0A3,3,0,0,1,5.995,2.824L6,3V165.4a3,3,0,0,1-5.995.176L0,165.4V3A3,3,0,0,1,3,0Z" transform="translate(1032.9 77.5)" fill="#fe7624"/>
        </g>
        <g id="laptop_1_" transform="translate(135 454)">
          <path id="laptop" d="M789.19,0l-362,2.4a14.982,14.982,0,0,0-13.4,7.6L296.99,222.5l-296.8.2s-5.1,29.8,37.6,31.6l640-.8L802.79,19C807.59,10.1,800.19-.1,789.19,0Z" transform="translate(0.71 0.599)" fill="#fe7624"/>
          <path id="screen" d="M0,201.2l305.7-1.3L400.3,15.6C404,8.5,399.1-.1,391.5,0L113.7,3.4Z" transform="translate(334.9 20.999)" fill="#fff"/>
          <path id="Path-8" data-name="Path" d="M113.074,0c13.1-.117,22.03,12.112,16.543,23.084l-.171.332-123.8,231.3a3,3,0,0,1-5.371-2.668l.081-.164L124.148,20.6c3.584-6.788-2.091-14.68-11.02-14.6a3,3,0,1,1-.054-6Z" transform="translate(646.899 0.799)" fill="#fff"/>
        </g>
        <g id="rocket_3_" transform="translate(373)">
          <path id="Path-9" data-name="Path" d="M0,0,33.5,61.6A3.267,3.267,0,0,0,39.6,60L37.4,32S57,99.4,83.9,101.1s52.7-71,52.7-71l-7.1,30.5a3.255,3.255,0,0,0,6.1,1.6L171.4,0" transform="translate(113.2 548.9)" fill="#5d21d1"/>
          <path id="Path-10" data-name="Path" d="M70.517,2.3s-79.9,108.2-69.6,205h176.3V0Z" transform="translate(0.783 308.4)" fill="#5d21d1"/>
          <path id="Path-11" data-name="Path" d="M106.7,2.3s79.9,108.2,69.6,205H0V0Z" transform="translate(215.8 308.4)" fill="#5d21d1"/>
          <path id="Path-12" data-name="Path" d="M194.114,424.5c67.7-121.7,60.3-218.3,40.6-284.5-19.8-66.2-66.2-140-110.3-140s-90.5,73.8-110.3,140-28.1,162.8,39.6,284.5l-18.9,40.8h178.5l-19.2-40.8Z" transform="translate(74.686 91.2)" fill="#fff"/>
          <path id="Path_2_" d="M216.327,471.3H37.826a3,3,0,0,1-2.722-4.262L53.364,427.62l-1.126-2.046c-7.471-13.66-14.229-27.458-20.086-41.011a427.659,427.659,0,0,1-15.069-40.2A379.514,379.514,0,0,1,6.847,304.935a348.758,348.758,0,0,1-5.589-38.674l-.133-1.579C.25,254.036-.117,243.316.033,232.821c.148-10.3.8-20.707,1.936-30.93,1.113-10.008,2.726-20.159,4.8-30.169,2.02-9.771,4.539-19.723,7.487-29.581,10.374-34.684,27.32-69.58,46.492-95.739,10.9-14.871,22.071-26.393,33.2-34.245C105.387,4.09,116.651,0,127.427,0S149.466,4.09,160.9,12.157c11.134,7.852,22.305,19.373,33.2,34.245,19.173,26.16,36.119,61.056,46.493,95.743,2.913,9.789,5.4,19.7,7.378,29.46,2.029,9.986,3.6,20.131,4.669,30.154,1.091,10.231,1.695,20.656,1.793,30.986.1,10.523-.321,21.274-1.252,31.955a350.841,350.841,0,0,1-5.652,38.993,383.143,383.143,0,0,1-10.354,39.789,432.855,432.855,0,0,1-15.239,40.608c-5.923,13.694-12.756,27.64-20.309,41.449l-1.142,2.073,18.548,39.413a2.956,2.956,0,0,1-.138,2.814,2.99,2.99,0,0,1-2.4,1.459ZM127.427,6c-9.664,0-19.943,3.853-30.551,11.451-10.439,7.477-20.967,18.41-31.291,32.5C46.8,75.575,30.186,109.8,20,143.86,7.974,184.069,3.756,223.43,7.1,264.192c4.344,52.886,21.921,107.34,52.244,161.85a3.008,3.008,0,0,1,.1,2.719L42.521,465.3H211.6l-17.186-36.523a2.992,2.992,0,0,1,0-2.552l.094-.183c30.375-54.6,48.109-109.063,52.709-161.865A317.74,317.74,0,0,0,234.852,143.86c-10.186-34.055-26.8-68.284-45.583-93.911-10.325-14.087-20.853-25.02-31.292-32.5C147.369,9.853,137.091,6,127.427,6Z" transform="translate(71.674 88.2)" fill="#2e186a"/>
          <ellipse id="Oval" cx="50.4" cy="60" rx="50.4" ry="60" transform="translate(148.7 221.6)" fill="#5d21d1"/>
          <ellipse id="Oval-2" data-name="Oval" cx="8.4" cy="10" rx="8.4" ry="10" transform="translate(190.7 348.6)" fill="#5d21d1"/>
          <ellipse id="Oval-3" data-name="Oval" cx="8.4" cy="10" rx="8.4" ry="10" transform="translate(223.1 348.6)" fill="#5d21d1"/>
          <ellipse id="Oval-4" data-name="Oval" cx="8.4" cy="10" rx="8.4" ry="10" transform="translate(155.8 348.6)" fill="#5d21d1"/>
          <ellipse id="Oval-5" data-name="Oval" cx="38.1" cy="45.3" rx="38.1" ry="45.3" transform="translate(161 230.4)" fill="#fff"/>
          <path id="Oval_2_" d="M41.1,96.6a35.71,35.71,0,0,1-16.051-3.81A41.224,41.224,0,0,1,11.991,82.414,49.391,49.391,0,0,1,3.212,67.057a56.369,56.369,0,0,1,0-37.514,49.393,49.393,0,0,1,8.779-15.358A41.225,41.225,0,0,1,25.049,3.81a35.713,35.713,0,0,1,32.1,0A41.223,41.223,0,0,1,70.209,14.186a49.393,49.393,0,0,1,8.778,15.358,56.371,56.371,0,0,1,0,37.514,49.391,49.391,0,0,1-8.778,15.357A41.223,41.223,0,0,1,57.151,92.79,35.71,35.71,0,0,1,41.1,96.6ZM41.1,6C21.746,6,6,24.976,6,48.3S21.746,90.6,41.1,90.6,76.2,71.625,76.2,48.3,60.455,6,41.1,6Z" transform="translate(158 227.4)" fill="#2e186a"/>
          <path id="Path-13" data-name="Path" d="M71.7,89.1V17.5A11.2,11.2,0,0,0,73.8,11a11,11,0,0,0-22,0,11.2,11.2,0,0,0,2.1,6.5V89c-18.5,3.8-37,19.3-53.9,40.1a239.042,239.042,0,0,1,67-5.4,345.825,345.825,0,0,1,61.2,8.8C110.7,110.1,91.1,93.3,71.7,89.1Z" transform="translate(136.3 0.4)" fill="#5d21d1"/>
          <path id="Path-14" data-name="Path" d="M187.6,15.343c-22.1-7.4-47.5-13.9-81.6-15.2-34.8-1.3-61.2,6.5-82.9,15A320.817,320.817,0,0,0,0,68.843c26-12.7,57.9-26.1,106.8-25.2,46.5.8,78.5,11.1,102.8,21.9A322.659,322.659,0,0,0,187.6,15.343Z" transform="translate(93.6 154.357)" fill="#5d21d1"/>
          <path id="Path-15" data-name="Path" d="M144.1,28.222c3.2-5.8,6.3-11.5,9.2-17.2C138,4.822,116-.378,76.9.022c-39.5-.3-61.6,5-76.9,11.3,2.9,5.6,5.9,11.3,9,17,0,0,34.7-6.8,67.8-6.5C109.4,21.522,144.1,28.222,144.1,28.222Z" transform="translate(122.1 486.978)" fill="#5d21d1"/>
        </g>
        <g id="clouds" transform="translate(320 601)">
          <path id="cloud_1_" d="M172.136,70.439H14.936s-22.6-20.3-12.2-36.9,37.7-20.6,46.6-3.8c0,0,3.9-32.1,36.8-29.6,33,2.5,30.4,36.8,30.4,36.8s41.7-29.5,40.6,16.6C157.036,53.439,159.636,70.439,172.136,70.439Z" transform="translate(331.464 3.461)" fill="#fff"/>
          <path id="cloud_2_" d="M175.139,76.442H17.939a3,3,0,0,1-2.005-.769c-.308-.277-.983-.9-2.045-2l-.46-.481A66.383,66.383,0,0,1,8.05,66.764a46.6,46.6,0,0,1-6.3-11.352A26.03,26.03,0,0,1,.09,44.125,20.621,20.621,0,0,1,3.2,34.949,33.746,33.746,0,0,1,16.189,23.075a35.576,35.576,0,0,1,16.427-4.118,28.994,28.994,0,0,1,9.79,1.63,23.209,23.209,0,0,1,8.24,5l.268.261.226-.684A43.553,43.553,0,0,1,54.9,16.952l.4-.66A33.763,33.763,0,0,1,67.522,4.331,36.426,36.426,0,0,1,85.5,0c1.257,0,2.558.05,3.867.15L89.9.193c7.2.621,13.363,2.725,18.317,6.252a32.045,32.045,0,0,1,10.847,13.848,44.6,44.6,0,0,1,3.162,12.092c.09.741.164,1.47.219,2.167l0,.046.633-.356c.752-.419,1.532-.836,2.319-1.237l.8-.4a48.739,48.739,0,0,1,13.146-4.54,28.565,28.565,0,0,1,4.791-.43c5.1,0,9.257,1.613,12.372,4.794,4.641,4.741,6.874,12.811,6.636,23.985l.016.1.08.417c.088.433.206.928.341,1.433a25.984,25.984,0,0,0,2,5.211c2.4,4.623,5.528,6.87,9.563,6.87l.2.005a3,3,0,0,1,0,5.989l-.2.005ZM32.538,24.973A29.105,29.105,0,0,0,8.281,38.134a14.48,14.48,0,0,0-2.215,6.529c-.492,5.46,1.8,11.7,6.825,18.554a60.344,60.344,0,0,0,4.891,5.845c.354.374.714.743,1.1,1.128l.254.25H162.912l-.373-.472a24.417,24.417,0,0,1-2.107-3.29l-.18-.342a31.976,31.976,0,0,1-2.466-6.417c-.2-.729-.366-1.464-.491-2.124l-.034-.185c-.032-.177-.058-.339-.077-.481l-.021-.158-.02-.223,0-.355,0-.1.016-.92c.08-9-1.581-15.282-4.936-18.671l-.187-.184a11.135,11.135,0,0,0-8.013-2.878,21.913,21.913,0,0,0-3.666.334,42.825,42.825,0,0,0-11.5,4.006c-1.867.923-3.721,1.951-5.509,3.057-.334.207-.665.416-.985.622l-.7.459-.534.363a2.962,2.962,0,0,1-1.582.464,3.047,3.047,0,0,1-2.225-.978,2.951,2.951,0,0,1-.777-2.256l.013-.247.016-.439a40.1,40.1,0,0,0-.31-5.916,38.651,38.651,0,0,0-2.725-10.467C109.2,12.461,101.142,7.059,88.911,6.133,87.747,6.044,86.6,6,85.487,6,74.366,6,65.925,10.525,60.4,19.452a37.789,37.789,0,0,0-4.148,9.472c-.309,1.074-.562,2.119-.751,3.108-.077.4-.123.678-.149.841l-.058.407a2.971,2.971,0,0,1-2.976,2.465,2.936,2.936,0,0,1-2.627-1.6l-.228-.415C46.3,28.165,40.136,24.972,32.538,24.973Z" transform="translate(328.461 0.459)" fill="#2e186a"/>
          <path id="cloud" d="M0,70.439H157.2s22.6-20.3,12.2-36.9-37.7-20.6-46.6-3.8c0,0-3.9-32.1-36.8-29.6-33,2.5-30.4,36.8-30.4,36.8S13.9,7.439,15,53.539C15.1,53.439,12.5,70.339,0,70.439Z" transform="translate(3.1 3.761)" fill="#fff"/>
          <path id="cloud_2_2" data-name="cloud_2_" d="M160.2,76.442H3a3,3,0,0,1-.023-6l.311-.007c3.8-.143,6.782-2.294,9.1-6.577l.173-.326a25.893,25.893,0,0,0,2-5.188c.159-.589.294-1.166.39-1.668L15,56.41l-.008-.46c-.167-10.962,2.081-18.888,6.681-23.558,3.111-3.158,7.261-4.76,12.337-4.76a28.138,28.138,0,0,1,4.341.356l.45.074A48.741,48.741,0,0,1,51.942,32.6c1.04.514,2.09,1.066,3.119,1.639l.632.356.049-.573c.035-.384.071-.739.11-1.084l.065-.555a44.6,44.6,0,0,1,3.162-12.092A32,32,0,0,1,70.1,6.323C75.144,2.784,81.427.707,88.773.15l.551-.04C90.443.037,91.558,0,92.639,0a36.428,36.428,0,0,1,17.978,4.331,33.763,33.763,0,0,1,12.226,11.962A43.192,43.192,0,0,1,127,25.167l.226.684.269-.261a23.209,23.209,0,0,1,8.24-5,28.993,28.993,0,0,1,9.789-1.631,35.584,35.584,0,0,1,16.142,3.969A33.9,33.9,0,0,1,174.58,34.384l.362.565a20.62,20.62,0,0,1,3.107,9.176,26.032,26.032,0,0,1-1.66,11.287,46.59,46.59,0,0,1-6.3,11.352,66.29,66.29,0,0,1-5.378,6.429c-1.123,1.183-1.9,1.921-2.26,2.256l-.246.224A2.991,2.991,0,0,1,160.2,76.442ZM34.117,33.643A11.135,11.135,0,0,0,26.1,36.52c-3.481,3.34-5.2,9.684-5.124,18.854l.014.912.006.12,0,.344-.021.223-.02.158c-.013.089-.029.194-.048.306l-.065.358c-.123.646-.293,1.377-.491,2.114A31.931,31.931,0,0,1,17.886,66.3a24.194,24.194,0,0,1-2.672,4.11l-.023.028H159c.17-.166.344-.339.517-.515l.551-.564.287-.3a60.353,60.353,0,0,0,4.891-5.845c5.02-6.852,7.316-13.095,6.825-18.554a14.481,14.481,0,0,0-2.215-6.529A29.1,29.1,0,0,0,145.6,24.973c-7.81,0-14.061,3.343-17.15,9.173l-.087.155a2.9,2.9,0,0,1-2.54,1.443,2.985,2.985,0,0,1-3-2.641l-.049-.337-.131-.734c-.19-.989-.443-2.034-.751-3.108a37.789,37.789,0,0,0-4.148-9.472C112.214,10.525,103.772,6,92.651,6c-1.108,0-2.26.045-3.424.133l-.523.043C76.762,7.219,68.876,12.607,64.6,22.646a38.65,38.65,0,0,0-2.725,10.467,39.173,39.173,0,0,0-.3,6.251l.026.517a2.944,2.944,0,0,1-.839,2.145,3.056,3.056,0,0,1-2.171.921,2.972,2.972,0,0,1-1.722-.558l-.394-.269-.7-.459-.074-.048-.237-.152-.673-.422c-1.783-1.1-3.636-2.132-5.508-3.057a42.824,42.824,0,0,0-11.5-4.006A21.906,21.906,0,0,0,34.117,33.643Z" transform="translate(0.1 0.759)" fill="#2e186a"/>
        </g>
        <path id="line" d="M1244,0a3,3,0,0,1,.176,5.995L1244,6H3A3,3,0,0,1,2.824.005L3,0Z" transform="translate(0.5 705.9)" fill="#2e186a"/>
      </g>
    </g>
  </g>
</svg>
