<svg data-name="Layer 1" xmlns="http://www.w3.org/2000/svg" xmlns:xlink="http://www.w3.org/1999/xlink" viewBox="0 0 400 300"><defs><linearGradient id="linear-gradient" x1="108.64" y1="232.56" x2="168.02" y2="183.94" gradientUnits="userSpaceOnUse"><stop offset="0" stop-opacity="0"/><stop offset="1" stop-color="#7f47dd"/></linearGradient><linearGradient id="linear-gradient-2" x1="183.82" y1="251.44" x2="224.99" y2="217.74" xlink:href="#linear-gradient"/><linearGradient id="linear-gradient-3" x1="81.37" y1="200.89" x2="124.62" y2="165.48" xlink:href="#linear-gradient"/><linearGradient id="linear-gradient-4" x1="253.92" y1="212.08" x2="322.55" y2="155.89" xlink:href="#linear-gradient"/></defs><ellipse cx="200" cy="189.29" rx="147.44" ry="80.24" fill="#c9d4ff"/><polyline points="134.72 195.62 78.72 228.28 108.31 247.49 164.8 215.37" fill="url(#linear-gradient)"/><ellipse cx="152.05" cy="207.76" rx="22.63" ry="9.29" fill="#175abc"/><rect x="150.96" y="165.26" width="3.95" height="45.66" fill="#175abc"/><polyline points="195.57 231.09 164.71 250.48 176.92 264.02 221.11 237.52" fill="url(#linear-gradient-2)"/><polyline points="96.22 181.31 63.49 195.62 70.34 210.92 121.76 187.74" fill="url(#linear-gradient-3)"/><path d="M134.72,196c.48.68-.69,7.15,1.64,9.14s7.64,4.82,6.48,6.81-19.28-5-19.28-5l1.66-12.63" fill="#ff666d"/><path d="M148.61,190.25c.48.68-.69,7.15,1.64,9.14s7.64,4.82,6.48,6.81-19.28-5-19.28-5l1.66-12.63" fill="#ff666d"/><ellipse cx="108.41" cy="184.95" rx="15.16" ry="5.87" fill="#175abc"/><rect x="105.82" y="155.41" width="5.17" height="27.78" fill="#175abc"/><path d="M92.09,156.34a24.41,24.41,0,0,1-1.16-3.45c-2.28-9-3.79-42.62,11.34-41.25,16.6,1.5,11,43.08,27.82,41.8s23.72,3.1,16.84,9.62C133.18,176.08,100.52,176.37,92.09,156.34Z" fill="#4933ca"/><path d="M105.17,153.39s-.74,8,3,11.24,17.24,7.07,17.24,7.07-4.56,22-3.73,24,10.62,3.06,15.74,0c0,0,7.5,1.94,12.48-2.65,0,0,9.61-27.2,6.55-36.06s-19.85-11.38-19.85-11.38Z" fill="#ffe0de"/><path d="M108,102.53c-1.11-1.94-4.56-4.48-6.57-2.25a2.37,2.37,0,0,0,.34,3.29c1,1,2.73,1.25,4,1.65a1.06,1.06,0,0,0,1.38-1A1.12,1.12,0,0,0,108,102.53Z" fill="#fbb5ad"/><path d="M132.72,139.25,103.09,132s.92,12.85,2.08,21.44c5.3,2.38,11.76,2.33,17.38,1.51a37.12,37.12,0,0,0,11.52-3.28,26,26,0,0,0,3.38-2.1C137,146.41,133.08,142.38,132.72,139.25Z" fill="#ED6128"/><path d="M134.91,143.11l-3.08-9.27c-2.78-8.37-7.17-19.77-15-24.43-6.69-.35-10.06,2.18-16.25,5.21a17.31,17.31,0,0,0-2.25,2.81,16.91,16.91,0,0,0-.87,7.47c1.81,18.59,28.85,27.62,41.32,31,.13-2.32.77-8,.75-10.38Z" fill="#ED6128"/><path d="M129.13,153.23a58.48,58.48,0,0,1-26-16.17c-.46-.49-1.19.25-.74.74a59.54,59.54,0,0,0,26.5,16.44A.52.52,0,0,0,129.13,153.23Z" fill="#af3e2f"/><path d="M140.09,144.87A88.93,88.93,0,0,1,120.65,134c-.54-.4-1.06.51-.53.9a89.94,89.94,0,0,0,19.69,11C140.43,146.13,140.7,145.12,140.09,144.87Z" fill="#af3e2f"/><path d="M116.42,109.26s9.05,1,13.75,9.34,16.51,17.35,17,17.52,5.74,2.85,5.74,2.85.75,8.27-2,9.83-19.86-8.5-19.86-8.5" fill="#ED6128"/><path d="M118.82,96s3.28,15.2-1.74,17.14-10.13-1.57-11-4.44-.35-7.25-.35-7.25S109.45,96.08,118.82,96Z" fill="#fbb5ad"/><path d="M119.35,93.31c.16-3.7-5-6-7.38-2.9a5.36,5.36,0,0,0-4.37-1.24c-2.19.37-2.95,1.93-2.77,4a4,4,0,0,0-3.26,1.59,3.6,3.6,0,0,0,0,4.14,3.68,3.68,0,0,0-2.27,4A4.48,4.48,0,0,0,100,105a3.43,3.43,0,0,0-.21.73,3.54,3.54,0,0,0,1.64,3.55,4.07,4.07,0,0,0,2.33.7,3.14,3.14,0,0,0,2.88,1.69,3,3,0,0,0,2.89-2.79,3,3,0,0,0-.16-1.23,7.12,7.12,0,0,0,.36-4.88,2.62,2.62,0,0,0,.63-.3,3,3,0,0,0,1.18-1.75,4.21,4.21,0,0,0,2.17.18,2,2,0,0,0,1.49-1.33c1.78.47,4.3-.21,5.21-1.83A3.46,3.46,0,0,0,119.35,93.31Z" fill="#d86212"/><path d="M110.75,106.47a3.64,3.64,0,0,0-1.58-2.4,1.91,1.91,0,0,0-2.73.25,2.2,2.2,0,0,0,.12,2.54c.67.88,1.77.89,2.72,1.27.57.23.91-.34.79-.82A.74.74,0,0,0,110.75,106.47Z" fill="#fbb5ad"/><path d="M117.78,102.65c-.07-.35-.61-.2-.54.15l.47,2.38a6.43,6.43,0,0,1,.22,1.1c0,.65-.32.78-.82,1.08a.28.28,0,0,0,.28.48c.65-.39,1.19-.58,1.13-1.4A31.2,31.2,0,0,0,117.78,102.65Z" fill="#56403d"/><path d="M119.08,102a.28.28,0,0,0,0,.56A.28.28,0,0,0,119.08,102Z" fill="#56403d"/><path d="M113.67,103.83a.28.28,0,0,0,0,.56A.28.28,0,0,0,113.67,103.83Z" fill="#56403d"/><path d="M116.53,108.93a1.92,1.92,0,0,1-2.41-.79.28.28,0,0,0-.48.28,2.5,2.5,0,0,0,3.18,1C117.14,109.27,116.86,108.79,116.53,108.93Z" fill="#56403d"/><path d="M264.81,106.37l7,67.35a3.87,3.87,0,0,0,4.34.18l-7.44-67.85Z" fill="#175abc"/><polygon points="307.92 55.07 318.83 155.91 281.28 136.48 307.92 55.07" fill="#175abc"/><path d="M286,208.71l21.95-152.4-3.37-1.25L281.81,207.45A3.87,3.87,0,0,0,286,208.71Z" fill="#4933ca"/><path d="M231.49,183.56l21.95-152.4-3.37-1.25L227.32,182.3A3.87,3.87,0,0,0,231.49,183.56Z" fill="#4933ca"/><path d="M309.33,69.12h-3.66l13.43,128.53a3.87,3.87,0,0,0,4.34.18Z" fill="#175abc"/><path d="M307.92,55.07c-27.27-16.06-53.13-31.2-57.64-33.5L235.69,126l57.38,33.94Z" fill="#4933ca"/><path d="M154.4,143.65c-18.54,0-34,5.83-37.85,13.61l-.91-.95V161c0,9.57,17.35,17.33,38.76,17.33s38.76-7.76,38.76-17.33S175.8,143.65,154.4,143.65Z" fill="#4933ca"/><path d="M154.4,143.65c-18.54,0-34,5.83-37.85,13.61l-.91-.95V161c0,9.57,17.35,17.33,38.76,17.33s38.76-7.76,38.76-17.33S175.8,143.65,154.4,143.65Z" opacity="0.43"/><ellipse cx="154.4" cy="156.31" rx="38.76" ry="17.33" fill="#4933ca"/><polygon points="177.95 80.65 184.97 67.92 189.02 61.38 173.36 53.77 163.31 74.39 177.95 80.65" fill="#4be2c5"/><path d="M194.29,78.31l-4.46-4.95a6.62,6.62,0,0,1-1-1.08,4.78,4.78,0,0,1-.3-2.09,13.41,13.41,0,0,0-.59-3,1.22,1.22,0,0,0-2.39.32c0,.63,0,1.27.06,1.9q-.54-.49-1.09-1c-1.47,2.66-3,5.3-4.57,7.88.87.06,1.77.06,2.65,0A31.64,31.64,0,0,1,191,83.57a1.13,1.13,0,0,0,1.92-.39,1.66,1.66,0,0,0,.37-.12l.06,0a1.24,1.24,0,0,0,.44-1.66l0-.06a1,1,0,0,0-.6-.58c-.25-.28-.48-.57-.71-.87l.15.16C193.62,81.19,195.33,79.47,194.29,78.31Z" fill="#ff666d"/><path d="M185.19,74.51a5.18,5.18,0,0,1-.92-2.31,3.78,3.78,0,0,1,.9-2.26c.2-.29-.28-.57-.48-.28a4.25,4.25,0,0,0-1,2.54,5.7,5.7,0,0,0,1,2.59A.28.28,0,0,0,185.19,74.51Z" fill="#007058"/><path d="M264,71.57c-.69.17-1.37.35-2.06.54a2.36,2.36,0,0,0,.9-1.45,1,1,0,0,0-1.52-1.17q-2.77,1.4-5.55,2.75c0-.14.07-.28.1-.42a6.55,6.55,0,0,0,.33-2.67c-.4-1.56-1.81-.7-2.39.53-.78,1.65-1,3.41-2.42,4.71a7.41,7.41,0,0,1-2.88,1.16c-1,.3-2.08.58-3.13.84a1,1,0,0,0,0,2,1,1,0,0,0,.09,1.75c-.46.75.07,2,1.07,1.56a40.15,40.15,0,0,1,7.56-2.23q3.82-.21,7.62-.64c1.3-.15,1.34-2.18,0-2.07l-.2,0,2.28-.39c1.13-.19.88-2.18-.27-2l-.27,0h0l-.76.11,1.09-.36c.67-.23,1.29-.39,1.63-1.06A1,1,0,0,0,264,71.57Z" fill="#ff666d"/><path d="M255.77,73.31a.23.23,0,0,0-.44.12,3.58,3.58,0,0,1-1.1,3.66c-.22.2.1.52.32.32A4,4,0,0,0,255.77,73.31Z" fill="#007058"/><path d="M262.07,71.76q-2.51.66-4.95,1.53c-.28.1-.16.54.12.44q2.44-.86,4.95-1.53A.23.23,0,0,0,262.07,71.76Z" fill="#007058"/><path d="M263.23,74.1l-5.27.81c-.29,0-.17.49.12.44l5.27-.81C263.64,74.5,263.52,74.06,263.23,74.1Z" fill="#007058"/><path d="M262.28,76.45q-2.13.13-4.26.19c-.29,0-.3.47,0,.46q2.13-.06,4.26-.19C262.58,76.89,262.58,76.43,262.28,76.45Z" fill="#007058"/><path d="M197.28,160s-.13,6.73-.92,7.79-7.86,4.81-8.25,6.52.86,4.17,4.23,3.25,11.47-6.17,11.47-6.17V156.77" fill="#007058"/><path d="M224.32,167.63l.87,7.31s-3.1,11.27-1.86,12.63,5.7,2.85,7.43,0S230,174.2,230,174.2l-.12-7.93" fill="#007058"/><path d="M208.08,90.29s-8.76,35.55-9.15,41-3,32-3,32,8.32,3.7,13.93,1.83l4.38-33.42,4.91-35S210.16,87.77,208.08,90.29Z" fill="#175abc"/><path d="M224.88,98.69c6.18,26.22,6.91,46,10.06,69,0,0-13.4,4.89-16.35.15-2-23.37-3.62-46.79-4.36-70.24Z" fill="#175abc"/><path d="M249.45,70.9c-5.63,2.14-12.32,4.09-16.9,3.48a79.88,79.88,0,0,1-16.89-4.19c-.74-.25-8.75-3.31-11.71-.67s-2.17,11.24-2.17,11.24L191,71.4c-4,1.44-5.6,5.58-6,9.7.18.18.33.33.41.43q1.16,1.37,2.36,2.71c3.55,4,7.61,8.58,12.82,10.31a9.27,9.27,0,0,0,6.24-.39c1.55-.58,3.81-2.46,5.5-1.84.44.16.85.48,1.3.42,1.24-.15,2.91-2.14,4.08-2.75,3.24-1.69,7-1.94,10.63-2.12a77.61,77.61,0,0,0,11.63-1.28c1.13-.23,13.09-3.29,13.35-2.78C251,79,250.39,76.16,249.45,70.9Z" fill="#ffc963"/><path d="M207.32,62.88c-.79,3.75-.13,8.94,3.89,9.53,5.17.77,6.45-2.75,6.18-7.08-.22-3.44-2-8.81-6.65-7.26a4.78,4.78,0,0,0-2.6,2.39A9.61,9.61,0,0,0,207.32,62.88Z" fill="#ff666d"/><path d="M207,63.7A6,6,0,0,1,203.82,58c.22-2.3,2.45-5.24,5-4.14,1.76.75,1.28.8,1.28.8a3.63,3.63,0,0,1,3.41-1.23c2.45.21,2.88,1.7,2.88,1.7s2.78.93,3.52,2.7c.84,2-1.07,8.07-2,9.76s-1.44-1.75-1.76-3.13a3.44,3.44,0,0,0-2.05-2.52c-1.51-.41-2.25.93-3.45,1.5A4.3,4.3,0,0,1,207,63.7Z" fill="#007058"/><path d="M216.78,100.16c3.25-.2,5.05-.25,8.1-1.48l.54-17.17-20.7,9.71s.78,4.16,1.66,8A29.63,29.63,0,0,0,216.78,100.16Z" fill="#ffc963"/><path d="M182.49,215.72l1.6,7.45s-4.84-.9-6.51-.67-3.8,3.19-1.72,5.2,5.64,1.82,9.2,2.65,4.11,1,6.39.36,2.62-3.74,2.62-3.74l-1.78-13" fill="#ff666d"/><path d="M194.27,208.46l2,11.14s-3.2,3.29-14,2.9,0-19.7,0-19.7" fill="#edbab9"/><ellipse cx="208.27" cy="234.44" rx="15.36" ry="5.7" fill="#008074"/><polyline points="210.86 208.92 210.26 231.88 205.68 231.88 205.68 208.92" fill="#008074"/><path d="M170,221.83l1.6,7.45s-4.84-.9-6.51-.67-3.8,3.19-1.72,5.2,5.64,1.82,9.2,2.65,4.11,1,6.39.36,2.62-3.74,2.62-3.74l-1.78-13" fill="#ff666d"/><path d="M178.74,175.77q6.9,1.51,13.91,2.33a.78.78,0,0,1,.53.29q.81-2.43,1.37-4.93c.21-.95,1.67-.55,1.46.4a52.65,52.65,0,0,1-3.81,11c-.42.88-1.72.11-1.31-.76.69-1.47,1.31-3,1.86-4.48h-.1q-7.22-.85-14.32-2.39C177.38,177,177.79,175.56,178.74,175.77Z" fill="#008074"/><path d="M191.16,186.43a20.3,20.3,0,0,0,4.66,5.35c.76.61-.32,1.68-1.07,1.07a21.47,21.47,0,0,1-4.89-5.65A.76.76,0,0,1,191.16,186.43Z" fill="#008074"/><path d="M200.57,181.51s-12-9.66-20-10.8-12.16,7.53-11.59,13.33,19.7,9,19.7,9" fill="#edbab9"/><path d="M194.16,184.72c-1.56-1.45-22-11-29.19-6.63s-6.74,7.58-5.83,12.88S167,224.86,167,224.86a26,26,0,0,0,16.34.77l-2-21.22,27.22-14.86" fill="#ffe0de"/><path d="M209.05,150.59c-1.08.8-10.41,1.92-12.36,6.22s-4.92,26.47-4.92,26.47,5.6,8.34,15.29,5.37c2.88-.88,17.79-28.14,18.19-31C226.31,150.31,209.05,150.59,209.05,150.59Z" fill="#4be2c5"/><path d="M227.45,198.48a24.41,24.41,0,0,0,1.16-3.45c2.28-9,3.79-42.62-11.34-41.25-16.6,1.5-11,43.08-27.82,41.8s-23.72,3.1-16.84,9.62C186.36,218.22,219,218.51,227.45,198.48Z" fill="#ff666d"/><path d="M205.49,136.24c-.13.8-1.55,12.13,1.82,14.68s10.88-3.48,11.07-6.47,2.73-9.22-.47-10.79S206.39,130.65,205.49,136.24Z" fill="#ff666d"/><path d="M205.49,136.24s-2.81-2.17-3.31-4.14,1.93-3.39,4.3-3.39,4.38.61,6.42-.61a7.27,7.27,0,0,1,7.18,0c1.92,1.31,2.25,4.47,3.54,6.09s3.77,1.8,3.7,4.83-4.51,3.34-4.82,5.36-1.4,5-4.13,5.5-6.47.57-6.78.17,1.72-7.18-.16-7.63S205.36,141,205.49,136.24Z" fill="#008074"/><path d="M173.19,172.92l-7.46-3.06s-2.28-1.14-2.71-.56-5.3-1.15-6.71,0,1.72,6.14,4.57,7,12.3,2.78,12.3,2.78" fill="#ff666d"/><path d="M196.7,156.81s-5,16.22-8.6,17.48c-2.2.78-9-1.31-13.92-3a13.45,13.45,0,0,0-6.06,9.13c7.52,4.16,20.44,8.76,25.35,9.15,7.08.57,10.32-20.24,10.32-20.24Z" fill="#4be2c5"/><polyline points="273.92 171.01 214.72 201.51 265.16 232 323.44 197.83" opacity="0.57" fill="url(#linear-gradient-4)"/></svg>